<svg width="130" height="130" viewBox="0 0 130 130" fill="none" xmlns="http://www.w3.org/2000/svg">
<path d="M65.0364 127.827C99.8893 127.827 128.143 99.5962 128.143 64.7711C128.143 29.9461 99.8893 1.71484 65.0364 1.71484C30.1836 1.71484 1.92969 29.9461 1.92969 64.7711C1.92969 99.5962 30.1836 127.827 65.0364 127.827Z" fill="#733E0A"/>
<path d="M65.0364 127.728C99.8893 127.728 128.143 99.497 128.143 64.672C128.143 29.847 99.8893 1.61572 65.0364 1.61572C30.1836 1.61572 1.92969 29.847 1.92969 64.672C1.92969 99.497 30.1836 127.728 65.0364 127.728Z" fill="#006FE3"/>
<path d="M64.6406 122C96.1209 122 121.641 96.4802 121.641 65C121.641 33.5197 96.1209 8 64.6406 8C33.1604 8 7.64062 33.5197 7.64062 65C7.64062 96.4802 33.1604 122 64.6406 122Z" fill="url(#paint0_linear_2147_173)"/>
<path d="M63.2837 120.875L69.8721 120.757C69.8721 120.757 86.3461 77.7777 85.4421 70.4557C84.5365 63.1338 85.0177 57.9606 77.5616 55.8544C70.1056 53.7482 66.0399 58.3518 66.0399 58.3518C66.0399 58.3518 54.7233 54.2878 51.0473 55.8544C47.3713 57.421 43.0217 64.2776 43.8358 65.7464C44.6499 67.2152 41.19 70.8991 46.1187 79.1913C51.0473 87.4835 63.2853 120.875 63.2853 120.875H63.2837Z" fill="white"/>
<path d="M63.2837 120.875L69.8721 120.757C69.8721 120.757 86.3461 77.7777 85.4421 70.4557C84.5365 63.1338 85.0177 57.9606 77.5616 55.8544C70.1056 53.7482 66.0399 58.3518 66.0399 58.3518C66.0399 58.3518 54.7233 54.2878 51.0473 55.8544C47.3713 57.421 43.0217 64.2776 43.8358 65.7464C44.6499 67.2152 41.19 70.8991 46.1187 79.1913C51.0473 87.4835 63.2853 120.875 63.2853 120.875H63.2837Z" fill="url(#paint1_linear_2147_173)"/>
<path d="M32.6797 110.813C32.6797 110.813 44.6274 120.293 64.1747 120.757C64.1747 120.757 56.8038 96.2758 54.674 93.5118C54.674 93.5118 45.0013 91.8363 42.7831 87.96C42.7831 87.96 34.3252 98.229 32.6797 110.813Z" fill="#403D39"/>
<path d="M97.0254 110.678C97.0254 110.678 87.0703 119.452 69.0312 120.876C69.0312 120.876 74.2376 95.2598 76.6861 93.5133C76.6861 93.5133 84.4467 90.6624 88.5044 88.7188C88.5044 88.7188 97.5571 100.681 97.0239 110.68L97.0254 110.678Z" fill="#403D39"/>
<path d="M97.0254 110.678C97.0254 110.678 87.0703 119.452 69.0312 120.876C69.0312 120.876 74.2376 95.2598 76.6861 93.5133C76.6861 93.5133 84.4467 90.6624 88.5044 88.7188C88.5044 88.7188 97.5571 100.681 97.0239 110.68L97.0254 110.678Z" fill="url(#paint2_linear_2147_173)"/>
<path d="M32.6797 110.813C32.6797 110.813 44.6274 120.293 64.1747 120.757C64.1747 120.757 56.8038 96.2758 54.674 93.5118C54.674 93.5118 45.0013 91.8363 42.7831 87.96C42.7831 87.96 34.3252 98.229 32.6797 110.813Z" fill="url(#paint3_linear_2147_173)"/>
<path d="M52.1037 83.233C52.1037 83.233 44.9568 80.7687 44.2422 69.1965C44.2422 69.1965 44.9142 54.2575 61.5776 59.8693C61.5776 59.8693 64.3622 61.5369 71.7615 59.3771C79.1607 57.2172 82.7026 62.2137 83.9505 64.443C85.443 67.1061 84.853 80.6267 79.3516 83.5848L84.7204 81.4392C84.7204 81.4392 89.9094 72.893 88.5163 64.443C88.5163 64.443 90.1634 66.3993 93.0347 65.074L88.7056 61.5937C88.7056 61.5937 90.7771 62.8164 93.0347 61.3429C93.0347 61.3429 85.9053 56.9648 85.4414 51.0202C84.9776 45.0755 81.7749 36.3478 80.0584 36.7833C78.3419 37.2203 77.561 38.5455 77.561 38.5455L73.9213 48.4706L73.5332 53.3062C73.5332 53.3062 63.0401 48.802 56.3823 54.2859L56.092 50.2219C56.092 50.2219 53.0203 37.0183 49.1408 37.0183C45.2613 37.0183 43.6395 56.4994 41.7447 57.2677C41.7447 57.2677 37.5008 61.5038 36.7861 61.1977C36.0714 60.8916 37.8068 62.8306 40.5646 61.8098C40.5646 61.8098 37.8289 64.6528 37.2058 65.0172C36.5826 65.3801 41.0079 65.5489 41.5522 64.4445C41.5522 64.4445 41.8914 79.2557 45.5674 81.1947C49.2434 83.1336 52.1021 83.2346 52.1021 83.2346L52.1037 83.233Z" fill="#403D39"/>
<path d="M52.1037 83.233C52.1037 83.233 44.9568 80.7687 44.2422 69.1965C44.2422 69.1965 44.9142 54.2575 61.5776 59.8693C61.5776 59.8693 64.3622 61.5369 71.7615 59.3771C79.1607 57.2172 82.7026 62.2137 83.9505 64.443C85.443 67.1061 84.853 80.6267 79.3516 83.5848L84.7204 81.4392C84.7204 81.4392 89.9094 72.893 88.5163 64.443C88.5163 64.443 90.1634 66.3993 93.0347 65.074L88.7056 61.5937C88.7056 61.5937 90.7771 62.8164 93.0347 61.3429C93.0347 61.3429 85.9053 56.9648 85.4414 51.0202C84.9776 45.0755 81.7749 36.3478 80.0584 36.7833C78.3419 37.2203 77.561 38.5455 77.561 38.5455L73.9213 48.4706L73.5332 53.3062C73.5332 53.3062 63.0401 48.802 56.3823 54.2859L56.092 50.2219C56.092 50.2219 53.0203 37.0183 49.1408 37.0183C45.2613 37.0183 43.6395 56.4994 41.7447 57.2677C41.7447 57.2677 37.5008 61.5038 36.7861 61.1977C36.0714 60.8916 37.8068 62.8306 40.5646 61.8098C40.5646 61.8098 37.8289 64.6528 37.2058 65.0172C36.5826 65.3801 41.0079 65.5489 41.5522 64.4445C41.5522 64.4445 41.8914 79.2557 45.5674 81.1947C49.2434 83.1336 52.1021 83.2346 52.1021 83.2346L52.1037 83.233Z" fill="url(#paint4_linear_2147_173)"/>
<path d="M56.3828 49.5655C56.3828 49.5655 63.8436 30.3511 72.9247 48.4706L73.5337 53.3062C73.5337 53.3062 63.2457 48.6899 56.3828 54.2859V49.5655Z" fill="#FF7703"/>
<path d="M56.3828 49.5655C56.3828 49.5655 63.8436 30.3511 72.9247 48.4706L73.5337 53.3062C73.5337 53.3062 63.2457 48.6899 56.3828 54.2859V49.5655Z" fill="url(#paint5_linear_2147_173)"/>
<path d="M44.3403 80.3179C44.3403 80.3179 41.3238 84.0144 42.78 87.9601C42.78 87.9601 43.7471 93.5119 67.0982 94.6053C67.0982 94.6053 73.4152 95.2584 88.0796 89.2475C88.0796 89.2475 89.4759 83.3218 85.4402 80.3195C85.4402 80.3195 83.0406 83.235 67.5794 87.3306L65.6436 86.4992L64.1716 87.3306C64.1716 87.3306 44.9666 81.9902 44.3403 80.3195V80.3179Z" fill="#FF7703"/>
<path d="M62.9437 94.0763L66.6276 94.6253L56.9738 116.05C56.9738 116.05 52.782 100.259 62.9437 94.0747V94.0763Z" fill="#FF7703"/>
<path d="M69.1448 94.3038L65.4609 94.8529L75.1147 116.278C75.1147 116.278 79.3066 100.487 69.1448 94.3022V94.3038Z" fill="#FF7703"/>
<path d="M44.3403 80.3179C44.3403 80.3179 41.3238 84.0144 42.78 87.9601C42.78 87.9601 43.7471 93.5119 67.0982 94.6053C67.0982 94.6053 73.4152 95.2584 88.0796 89.2475C88.0796 89.2475 89.4759 83.3218 85.4402 80.3195C85.4402 80.3195 83.0406 83.235 67.5794 87.3306L65.6436 86.4992L64.1716 87.3306C64.1716 87.3306 44.9666 81.9902 44.3403 80.3195V80.3179Z" fill="url(#paint6_linear_2147_173)"/>
<path d="M62.9437 94.0763L66.6276 94.6253L56.9738 116.05C56.9738 116.05 52.782 100.259 62.9437 94.0747V94.0763Z" fill="url(#paint7_linear_2147_173)"/>
<path d="M69.1448 94.3038L65.4609 94.8529L75.1147 116.278C75.1147 116.278 79.3066 100.487 69.1448 94.3022V94.3038Z" fill="url(#paint8_linear_2147_173)"/>
<path d="M45.9609 90.6749L54.4535 84.6719L56.891 85.1941L47.8699 91.5836L45.9609 90.6749Z" fill="#FED571"/>
<path d="M69.7656 93.9079L76.9945 84.079L79.8864 83.8076L72.211 94.2644L69.7656 93.9079Z" fill="#FED571"/>
<path d="M75.4844 92.9736L85.0167 80.3428L86.6069 81.5118L78.9332 91.9686L75.4844 92.9736Z" fill="#FED571"/>
<path d="M50.1094 92.0537L58.602 86.0522L61.0395 86.5729L52.0184 92.9624L50.1094 92.0537Z" fill="#FED571"/>
<path d="M56.8913 104.01L64.8333 98.6045L63.6437 102.039L56.1719 106.924L56.8913 104.01Z" fill="#FED571"/>
<path d="M67.9688 101.165L73.5348 98.3018L73.9876 100.408L69.0353 103.114L67.9688 101.165Z" fill="#FED571"/>
<path d="M69.4766 104.358L74.9858 101.294L75.7099 103.322L70.7119 106.651L69.4766 104.358Z" fill="#FED571"/>
<path d="M56.0312 108.974L62.8137 104.358L61.2959 107.504L56.1338 111.145L56.0312 108.974Z" fill="#FED571"/>
<path d="M46.6155 52.2952C46.513 50.0754 46.7117 46.1438 48.5608 41.2215C48.8479 40.4563 49.886 40.3443 50.3215 41.0354C51.511 42.9222 53.3253 46.1454 53.6014 48.6303C53.6992 49.5059 53.2859 50.361 52.5318 50.8185L48.4803 53.2828C47.6836 53.7671 46.6565 53.226 46.6139 52.2952H46.6155Z" fill="url(#paint9_linear_2147_173)"/>
<path d="M82.8439 52.2698C82.9464 50.05 82.7476 46.1185 80.8986 41.1961C80.6115 40.431 79.5734 40.3189 79.1379 41.01C77.9484 42.8969 76.134 46.12 75.8579 48.6049C75.7601 49.4805 76.1735 50.3356 76.9276 50.7931L80.9791 53.2574C81.7758 53.7418 82.8028 53.2006 82.8454 52.2698H82.8439Z" fill="url(#paint10_linear_2147_173)"/>
<path d="M44.6509 54.4039C44.5341 49.8792 45.3103 45.3655 46.9574 41.1468C47.4638 39.8499 48.7212 36.4974 50.5939 38.2486C51.3007 38.9096 51.6999 39.891 52.1038 40.7476C52.5534 41.7037 52.9573 42.6771 53.3202 43.6695C54.1011 45.8104 54.7022 48.0112 55.3979 50.1805C55.5904 50.78 56.5402 50.5245 56.3461 49.9186C55.6409 47.7194 55.0335 45.4854 54.2352 43.3161C53.8392 42.2417 53.3959 41.1831 52.9052 40.1481C52.4509 39.1905 51.9854 38.1476 51.1666 37.4393C50.493 36.8555 49.5984 36.5984 48.7418 36.9265C47.8819 37.2563 47.2982 38.064 46.8864 38.8544C45.7663 41.0079 45.0327 43.4533 44.5041 45.812C43.8715 48.6281 43.5938 51.5168 43.668 54.4024C43.6837 55.0334 44.6682 55.0366 44.6509 54.4024V54.4039Z" fill="#26190B"/>
<path d="M42.803 56.0276C41.0755 58.2632 38.8005 60.027 36.2321 61.1961C35.8645 61.3633 35.9638 61.8524 36.2321 62.0449C37.6504 63.0609 39.4931 62.6633 41.0471 62.2295C40.8878 61.9549 40.7284 61.682 40.5691 61.4075C39.2249 62.5071 37.9359 63.6667 36.7022 64.8894C36.434 65.156 36.5697 65.6041 36.9199 65.7114C38.5307 66.2036 40.3245 65.9117 41.6782 64.9036C42.1799 64.5297 41.6908 63.6762 41.1812 64.0548C40.0216 64.9178 38.567 65.1876 37.1802 64.7632C37.2528 65.0377 37.3254 65.3106 37.398 65.5852C38.6317 64.364 39.9206 63.2029 41.2648 62.1032C41.6577 61.7814 41.2317 61.1566 40.7868 61.2813C39.4805 61.6473 37.9312 62.0575 36.7306 61.1961V62.0449C39.4631 60.8001 41.8217 58.8943 43.655 56.523C44.0415 56.0229 43.188 55.5338 42.8062 56.0276H42.803Z" fill="#26190B"/>
<path d="M41.6013 66.2199C41.3836 71.3789 41.8175 77.1642 45.3026 81.2756C45.7127 81.7583 46.4053 81.061 45.9983 80.5814C42.6994 76.6893 42.3807 71.0854 42.5858 66.2215C42.6126 65.5888 41.6282 65.5904 41.6029 66.2215L41.6013 66.2199Z" fill="#26190B"/>
<path d="M87.4894 66.7577C87.6945 71.6232 87.3758 77.2255 84.0769 81.1176C83.6699 81.5973 84.3625 82.2962 84.7727 81.8118C88.2577 77.702 88.6916 71.9151 88.4739 66.7561C88.4471 66.1266 87.4642 66.1219 87.491 66.7561L87.4894 66.7577Z" fill="#26190B"/>
<path d="M85.7013 54.4044C85.8322 49.3038 84.8477 44.2 82.7952 39.5254C82.101 37.9446 80.6496 35.9977 78.6996 37.0832C77.8807 37.5391 77.3396 38.4037 76.9247 39.2114C76.3788 40.2748 75.9008 41.376 75.4764 42.4914C74.5503 44.9305 73.9003 47.4626 73.0231 49.9191C72.8101 50.5154 73.7599 50.7726 73.9713 50.181C74.6528 48.2704 75.205 46.3188 75.844 44.3925C76.4672 42.5151 77.1534 40.4389 78.3004 38.8091C78.8116 38.0834 79.6414 37.4224 80.5297 37.973C81.2996 38.4494 81.6956 39.4323 82.0348 40.2274C82.9293 42.3179 83.603 44.5061 84.0573 46.7338C84.5732 49.258 84.7846 51.8312 84.7184 54.4044C84.7026 55.037 85.6855 55.037 85.7013 54.4044Z" fill="#26190B"/>
<path d="M86.3745 56.7172C88.222 59.0127 90.62 60.8381 93.3257 62.0056V61.1568C92.1425 62.0419 90.5885 61.6695 89.2727 61.3288C88.8341 61.2152 88.3876 61.8305 88.7947 62.1507C90.1593 63.2235 91.472 64.3579 92.7294 65.5553C92.8019 65.2808 92.8745 65.0079 92.9471 64.7334C91.5698 65.1846 90.1104 64.9511 88.9319 64.1102C88.416 63.741 87.9238 64.593 88.4349 64.959C89.8075 65.9387 91.6061 66.2053 93.2074 65.6816C93.5482 65.5695 93.7044 65.1262 93.4251 64.8596C92.1677 63.6621 90.8551 62.5278 89.4904 61.455C89.3311 61.7295 89.1717 62.0024 89.0124 62.2769C90.5695 62.6808 92.428 63.05 93.8227 62.0056C94.0798 61.8131 94.1997 61.3209 93.8227 61.1568C91.1817 60.0161 88.8735 58.2618 87.0703 56.0215C86.6743 55.5293 85.9817 56.2282 86.3745 56.7157V56.7172Z" fill="#26190B"/>
<path d="M54.7794 61.2308C54.7115 62.0071 54.6611 62.7943 54.6863 63.5737C54.7052 64.17 54.9214 64.921 55.5982 65.052C55.8191 65.0946 56.0336 65.022 56.1535 64.8264C56.8714 63.6557 56.8193 62.0418 55.98 60.9437C55.8569 60.7844 55.7039 60.6771 55.4893 60.7086C55.3142 60.7355 55.1107 60.8696 55.0807 61.0605C54.9024 62.1964 54.9151 63.3291 55.1217 64.4619C55.1596 64.6717 55.3947 64.8232 55.5966 64.8232C55.8128 64.8232 56.0131 64.6702 56.0715 64.4619C56.3791 63.3639 56.3257 62.1648 55.8949 61.1078C55.8019 60.8806 55.5887 60.6834 55.3268 60.7228C55.0649 60.7623 54.9545 60.9895 54.9277 61.2387C54.822 62.2532 54.7969 63.2739 54.8553 64.2931C54.871 64.5582 55.0697 64.7838 55.3473 64.7838C55.6013 64.7838 55.8538 64.5582 55.8396 64.2931C55.7812 63.2739 55.8049 62.2548 55.9121 61.2387C55.5903 61.2829 55.2685 61.3255 54.9466 61.3697C55.3237 62.2926 55.3884 63.2582 55.1233 64.2016H56.0715C55.8995 63.266 55.8837 62.2626 56.0305 61.3239C55.7307 61.3634 55.4311 61.4028 55.1314 61.4407C55.2181 61.5558 55.2986 61.6742 55.368 61.8004C55.4011 61.8603 55.431 61.9203 55.4594 61.9802C55.4956 62.056 55.4388 61.925 55.4704 62.0023C55.483 62.0339 55.4956 62.0654 55.5067 62.097C55.5556 62.2327 55.595 62.3699 55.625 62.5119C55.6313 62.545 55.6378 62.5782 55.6441 62.6113C55.6488 62.6381 55.6567 62.6855 55.6488 62.6318C55.6599 62.7075 55.6645 62.7833 55.6692 62.859C55.6976 63.4128 55.5887 63.8687 55.3063 64.331C55.4909 64.2552 55.6771 64.1811 55.8617 64.1054C55.8348 64.1006 55.8096 64.0959 55.7844 64.0864C55.8427 64.1132 55.8475 64.1148 55.7986 64.0896C55.8475 64.1322 55.8506 64.1338 55.8096 64.0991C55.7733 64.0596 55.7749 64.0643 55.8128 64.1117C55.7812 64.0691 55.756 64.0217 55.7339 63.9744C55.7796 64.0738 55.7339 63.9602 55.726 63.935C55.7102 63.8798 55.6992 63.823 55.6865 63.7662C55.6771 63.7094 55.6771 63.7078 55.6865 63.7662C55.6834 63.7378 55.6804 63.7078 55.6788 63.6794C55.6693 63.5453 55.6708 63.4096 55.6723 63.2755C55.6755 62.5924 55.7088 61.9108 55.7672 61.2308C55.7908 60.9658 55.524 60.7402 55.2748 60.7402C54.9892 60.7402 54.8062 60.9658 54.7825 61.2308H54.7794Z" fill="#26190B"/>
<path d="M74.5919 61.2306C74.524 62.0068 74.4736 62.7941 74.4988 63.5735C74.5177 64.1698 74.7339 64.9208 75.4107 65.0517C75.6316 65.0943 75.8461 65.0218 75.966 64.8261C76.6839 63.6555 76.6318 62.0415 75.7925 60.9435C75.6694 60.7841 75.5164 60.6768 75.3018 60.7084C75.1267 60.7352 74.9232 60.8693 74.8932 61.0602C74.7149 62.1961 74.7276 63.3289 74.9342 64.4617C74.9721 64.6715 75.2072 64.823 75.4091 64.823C75.6253 64.823 75.8256 64.6699 75.884 64.4617C76.1916 63.3636 76.138 62.1646 75.7073 61.1076C75.6142 60.8804 75.406 60.6642 75.1456 60.7021C74.8885 60.7415 74.7686 60.9876 74.7418 61.2369C74.6361 62.2514 74.6108 63.2721 74.6692 64.2913C74.685 64.5563 74.8837 64.7819 75.1614 64.7819C75.4154 64.7819 75.6679 64.5563 75.6537 64.2913C75.5953 63.2721 75.6189 62.2529 75.7262 61.2369C75.4044 61.2811 75.0825 61.3237 74.7607 61.3679C75.1378 62.2908 75.2024 63.2563 74.9374 64.1998H75.8856C75.7136 63.2642 75.6978 62.2608 75.8446 61.3221C75.5448 61.3616 75.245 61.401 74.9453 61.4389C75.032 61.554 75.1125 61.6724 75.1819 61.7986C75.2151 61.8585 75.245 61.9185 75.2734 61.9784C75.3097 62.0542 75.2529 61.9232 75.2845 62.0005C75.2971 62.0321 75.3097 62.0636 75.3208 62.0952C75.3697 62.2309 75.4091 62.3681 75.4391 62.5101C75.4454 62.5432 75.4517 62.5764 75.458 62.6095C75.4628 62.6363 75.4706 62.6836 75.4628 62.63C75.4738 62.7057 75.4785 62.7815 75.4833 62.8572C75.5117 63.411 75.4028 63.8669 75.1204 64.3292C75.305 64.2534 75.4912 64.1793 75.6757 64.1035C75.6489 64.0988 75.6237 64.0941 75.5984 64.0846C75.6568 64.1114 75.6615 64.113 75.6126 64.0878C75.6615 64.1304 75.6647 64.1319 75.6237 64.0972C75.5874 64.0578 75.589 64.0625 75.6268 64.1099C75.5953 64.0673 75.57 64.0199 75.5479 63.9726C75.5937 64.072 75.5479 63.9584 75.5401 63.9332C75.5243 63.8779 75.5132 63.8211 75.5006 63.7644C75.4912 63.7076 75.4912 63.706 75.5006 63.7644C75.4975 63.736 75.4943 63.706 75.4927 63.6776C75.4833 63.5435 75.4848 63.4078 75.4864 63.2737C75.4896 62.5906 75.5227 61.909 75.5811 61.229C75.6047 60.964 75.3381 60.7384 75.0888 60.7384C74.8033 60.7384 74.6203 60.964 74.5966 61.229L74.5919 61.2306Z" fill="#26190B"/>
<path d="M68.0716 71.3359C68.5418 70.6702 68.9473 69.8987 69.0451 69.0799C69.0892 68.7123 69.0214 68.3163 68.7359 68.0544C68.4519 67.7957 68.078 67.7452 67.7119 67.7136C66.8758 67.641 66.0317 67.6158 65.194 67.6095C64.3862 67.6032 63.5721 67.6442 62.7817 67.8241C62.8685 68.1396 62.9553 68.4551 63.0436 68.7722L63.0973 68.7596L62.8354 67.8114C61.8761 68.0923 61.7168 69.1225 61.9613 69.9634C62.2153 70.839 62.8196 71.5616 63.4791 72.1721C63.8198 72.4876 64.1906 72.7764 64.5803 73.0304C64.992 73.297 65.4369 73.5384 65.9418 73.3964C66.4056 73.2654 66.7511 72.8805 67.0683 72.5413C67.4264 72.1595 67.7624 71.7603 68.0716 71.3359C68.2278 71.1214 68.1079 70.7885 67.895 70.6639C67.6457 70.5187 67.3791 70.6244 67.2229 70.8406C67.0067 71.1356 66.7701 71.4133 66.524 71.6846C66.3078 71.9197 66.0854 72.2131 65.8109 72.3835C65.5411 72.5508 65.3092 72.3346 65.0757 72.1832C64.7822 71.9938 64.5077 71.7824 64.2474 71.5474C63.7883 71.1324 63.2929 70.637 63.0357 70.0659C62.8985 69.7599 62.5814 68.9095 63.0941 68.7596C63.7031 68.5813 63.4491 67.671 62.8322 67.8114L62.7786 67.8241C62.1617 67.9645 62.4236 68.9126 63.0405 68.7722C64.2821 68.4883 65.6058 68.5829 66.8679 68.6429C67.1976 68.6586 67.5447 68.6571 67.8697 68.7139C68.1253 68.758 68.0969 68.8495 68.0496 69.0957C67.9249 69.7378 67.5952 70.3136 67.2213 70.8421C66.8553 71.3596 67.7072 71.8503 68.0701 71.3375L68.0716 71.3359Z" fill="#26190B"/>
<path d="M65.0589 73.5746C64.8727 75.2344 63.9245 76.8073 62.5551 77.7586C62.3374 77.9101 62.2363 78.1893 62.3783 78.4307C62.5045 78.6469 62.8326 78.7589 63.0504 78.6074C64.7322 77.4384 65.8144 75.6067 66.0416 73.5746C66.0716 73.3112 65.7939 73.084 65.5494 73.084C65.2591 73.084 65.0871 73.3112 65.0572 73.5746H65.0589Z" fill="#26190B"/>
<path d="M65.1663 73.3774C65.2894 75.4678 66.4774 77.4194 68.298 78.4638C68.8486 78.7793 69.344 77.9305 68.795 77.615C67.282 76.7473 66.2534 75.1223 66.1492 73.3774C66.1334 73.1123 65.9347 72.8867 65.657 72.8867C65.403 72.8867 65.149 73.1123 65.1648 73.3774H65.1663Z" fill="#26190B"/>
<path d="M63.3419 68.4612C62.9049 68.4959 62.6462 68.7704 62.4884 69.1617C62.3401 69.5245 62.3448 69.9773 62.7361 70.184C63.1021 70.378 63.5297 70.1698 63.7758 69.8795C64.0487 69.5561 64.1276 69.1617 64.055 68.7499C63.9919 68.3886 63.4666 68.2734 63.2331 68.5337C62.8781 68.9297 62.6462 69.4583 62.7077 69.9978C62.774 70.5816 63.2583 71.0486 63.872 70.8955C64.3643 70.7725 64.776 70.3181 64.8723 69.8227C64.9748 69.2879 64.6877 68.6915 64.1244 68.5716C63.4413 68.4249 63.1352 69.1837 63.069 69.728C63.0075 70.2455 63.1479 70.7819 63.4729 71.1905C63.8105 71.6149 64.3848 71.82 64.8707 71.5029C65.3408 71.1969 65.5585 70.5674 65.5459 70.0262C65.5333 69.4835 65.2903 68.925 64.795 68.6568C64.3138 68.3949 63.7221 68.5653 63.4413 69.0323C62.9081 69.9174 63.4618 71.2 64.268 71.7191C64.7413 72.0236 65.3251 71.9841 65.7447 71.6102C66.0902 71.301 66.2843 70.8324 66.3979 70.3938C66.5414 69.8401 66.513 69.2279 66.0792 68.8083C65.6658 68.4091 65.0237 68.3918 64.6056 68.7941C64.2365 69.1506 64.1134 69.7154 64.0913 70.2077C64.0677 70.733 64.197 71.2647 64.44 71.7285C64.6782 72.1829 65.0963 72.5994 65.6327 72.6404C66.166 72.6799 66.6093 72.3123 66.8191 71.8469C67.2309 70.935 66.9217 69.4914 65.7116 69.4646C64.5678 69.4393 64.1718 71.0138 64.7334 71.8279C65.0474 72.2823 65.6169 72.418 66.1312 72.2539C66.6314 72.0945 67.0179 71.7411 67.3255 71.3294C67.6253 70.9302 67.832 70.449 67.9109 69.9552C67.9519 69.6949 68.0008 69.3999 67.8619 69.1585C67.7105 68.895 67.4092 68.7657 67.1126 68.7814C66.5399 68.813 66.0871 69.3967 66.2164 69.9584C66.3348 70.4759 66.8791 70.8198 67.3981 70.7015C67.884 70.591 68.2958 70.0625 68.4141 69.5955C68.5766 68.9518 68.1238 68.4975 67.4991 68.4691C67.0589 68.4485 66.5493 68.5038 66.1707 68.7452C65.7195 69.0339 65.4087 69.687 65.8473 70.1319C66.2859 70.5768 66.9437 70.378 67.2735 69.9284C67.4123 69.7375 67.5559 69.4835 67.5559 69.2405C67.5559 68.9029 67.2908 68.6757 66.98 68.6174C66.6976 68.5637 66.4058 68.5369 66.1186 68.5416C65.8126 68.5464 65.4639 68.5479 65.2761 68.8303C64.9133 69.3794 65.5507 69.9142 66.0776 69.9221C66.7039 69.9316 67.0842 69.2342 66.6393 68.7483C66.2969 68.3744 65.5917 68.2482 65.1073 68.2782C64.7934 68.2971 64.5141 68.5006 64.5126 68.8382C64.511 69.2342 64.8502 69.4109 65.2004 69.362C65.4639 69.3257 65.6075 68.9897 65.5443 68.7578C65.467 68.4738 65.2036 68.3776 64.9401 68.4138L64.9038 68.4186C65.0632 68.4612 65.2225 68.5022 65.3818 68.5448L65.3535 68.5117C65.4008 68.6268 65.4497 68.7436 65.497 68.8587V68.8146C65.4513 68.9297 65.4024 69.0465 65.355 69.1617L65.3882 69.1317C65.3156 69.1743 65.243 69.2153 65.1704 69.2579C65.0994 69.28 65.1831 69.2579 65.2209 69.2579C65.2856 69.2595 65.3519 69.2626 65.4181 69.2705C65.5396 69.2863 65.6627 69.3194 65.7794 69.3573C65.8126 69.3683 65.852 69.3904 65.8867 69.3967C65.9056 69.4078 65.9261 69.4204 65.9451 69.4314C65.9814 69.2689 66.0177 69.108 66.0539 68.9455C66.0508 68.9376 66.1486 68.9361 66.0666 68.9297C65.9845 68.9234 66.1865 68.8398 66.1612 69.1159C66.1391 69.1979 66.117 69.2816 66.0934 69.3636L66.1249 69.3226C66.0666 69.381 66.0066 69.4393 65.9482 69.4993C65.8015 69.5655 66.0366 69.5214 66.0729 69.5214C66.1644 69.5198 66.2559 69.5214 66.349 69.5245C66.4405 69.5293 66.532 69.534 66.6235 69.5466C66.7024 69.5577 66.8096 69.6365 66.7039 69.5261C66.6613 69.4535 66.6203 69.381 66.5777 69.31L66.5919 69.3699V69.108C66.5793 69.1853 66.4357 69.3557 66.4468 69.3999C66.4436 69.3873 66.5399 69.4314 66.5446 69.4346C66.5651 69.5119 66.5872 69.5892 66.6077 69.6649L66.6424 69.6097C66.6566 69.605 66.6945 69.5719 66.6945 69.5719C66.7812 69.5135 66.9106 69.4867 67.0163 69.4693C67.0952 69.4567 67.1772 69.4551 67.2561 69.4519C67.2877 69.4519 67.5622 69.4709 67.578 69.4519C67.5511 69.4835 67.4723 69.332 67.4691 69.332C67.4817 69.3289 67.4155 69.4598 67.4123 69.4661C67.376 69.5324 67.3303 69.5955 67.2782 69.6507C67.2577 69.6728 67.2325 69.6918 67.2151 69.7154L67.1536 69.7517L67.2072 69.7407C67.2167 69.7328 67.1551 69.7627 67.1646 69.7217C67.1646 69.7186 67.1804 69.7911 67.1693 69.7864C67.1646 69.7848 67.1757 69.7564 67.1804 69.758C67.1899 69.7596 66.969 69.5308 66.9737 69.5293C66.9674 69.5324 66.9643 69.6886 66.9643 69.6823C66.8948 70.2944 66.4783 71.1353 65.8362 71.3168C65.5412 71.4004 65.4749 71.2032 65.4749 70.9334C65.4749 70.7725 65.5002 70.4254 65.7116 70.4475C66.0082 70.479 66.0445 70.8782 66.0192 71.1053C66.0019 71.2678 65.9104 71.6591 65.699 71.6607C65.4292 71.6623 65.232 71.1369 65.1704 70.9428C65.0569 70.58 65.0379 70.1935 65.1342 69.8243C65.172 69.6791 65.2462 69.3746 65.4071 69.5261C65.6327 69.7391 65.4339 70.2424 65.3408 70.4759C65.2888 70.6068 65.2162 70.7472 65.1168 70.8482C65.0363 70.9286 64.9906 70.9618 64.8928 70.935C64.5899 70.8529 64.3643 70.4412 64.2806 70.1635C64.2349 70.0136 64.2049 69.8401 64.2286 69.6965C64.2396 69.6334 64.257 69.5655 64.2901 69.5261C64.3169 69.493 64.298 69.5103 64.2901 69.5103C64.3816 69.5087 64.4794 69.6712 64.511 69.747C64.582 69.9189 64.5772 70.1319 64.5331 70.3102C64.5015 70.4333 64.44 70.6447 64.309 70.6873C64.3832 70.6636 64.3232 70.6699 64.2664 70.61C64.2096 70.55 64.1623 70.4727 64.1276 70.397C64.0061 70.1367 63.9635 69.6302 64.2002 69.4172C64.1276 69.4598 64.055 69.5009 63.9825 69.5435C63.9683 69.5482 63.8846 69.5103 63.8846 69.5103C63.8988 69.4898 63.8988 69.5813 63.9083 69.5482C63.8988 69.586 63.9146 69.6286 63.8973 69.6776C63.872 69.7501 63.8136 69.829 63.7521 69.8779C63.749 69.8811 63.6085 69.9726 63.6117 69.9458C63.6149 69.9221 63.6985 69.9773 63.6953 69.9773C63.7395 69.9726 63.6906 70.0483 63.6969 69.9663C63.7016 69.9095 63.6732 69.8369 63.6795 69.7722C63.7001 69.5719 63.7947 69.3778 63.9288 69.2295C63.6543 69.1569 63.3814 69.0844 63.1068 69.0134C63.1147 69.0638 63.099 69.1254 63.0784 69.1695C63.0674 69.1932 63.0437 69.2153 63.0359 69.239C62.9743 69.4046 62.826 69.0985 63.1826 69.3068C63.241 69.3652 63.3009 69.4236 63.3593 69.4835C63.3577 69.6302 63.3687 69.6492 63.3924 69.5419C63.3861 69.5009 63.394 69.4819 63.4161 69.4835C63.4192 69.3904 63.5013 69.433 63.3435 69.4456C63.6085 69.4251 63.8357 69.2342 63.8357 68.955C63.8357 68.7057 63.6101 68.4422 63.3435 68.4643L63.3419 68.4612Z" fill="#26190B"/>
<path d="M57.1646 70.6923C57.1299 73.9943 58.7533 77.1528 61.4164 79.0933C61.9292 79.4657 62.4198 78.6137 61.9134 78.2446C59.5343 76.5123 58.1191 73.6251 58.1491 70.6923C58.1554 70.0596 57.1725 70.0596 57.1662 70.6923H57.1646Z" fill="#26190B"/>
<path d="M73.2585 70.6987C73.2885 73.6316 71.8733 76.5187 69.4942 78.251C68.9877 78.6202 69.4784 79.4737 69.9911 79.0998C72.6542 77.1608 74.2761 74.0008 74.243 70.6987C74.2366 70.0661 73.2522 70.0645 73.2601 70.6987H73.2585Z" fill="#26190B"/>
<path d="M58.4578 68.9664C60.026 66.4689 62.8848 65.9577 65.622 66.0019C68.1037 66.0414 71.6235 66.2149 72.8572 68.8117C73.1286 69.3829 73.9774 68.8843 73.706 68.3164C72.3113 65.3835 68.4492 65.0648 65.622 65.0206C63.9734 64.9938 62.3279 65.0869 60.8007 65.759C59.4928 66.3348 58.3695 67.2609 57.609 68.4725C57.2714 69.0105 58.1218 69.5043 58.4578 68.9679V68.9664Z" fill="#26190B"/>
<path d="M62.505 80.0068C63.3996 81.0102 64.7406 81.5577 66.0832 81.4725C67.3721 81.3904 68.6059 81.0102 69.3852 79.9201C69.5399 79.7039 69.4231 79.3726 69.2085 79.248C68.9608 79.1028 68.6911 79.207 68.5365 79.4247C67.9622 80.2277 66.9209 80.4502 65.9901 80.4959C64.9204 80.548 63.9091 80.1094 63.2008 79.3127C62.7795 78.8394 62.0854 79.5367 62.505 80.0068Z" fill="#26190B"/>
<path d="M56.8336 49.6804C57.6319 47.5805 58.4491 45.3213 60.0126 43.66C61.5934 41.9814 63.9931 41.1421 66.2681 41.4876C68.4405 41.8189 69.8967 43.1836 70.9064 45.0642C71.8372 46.7964 72.6639 48.7149 73.0379 50.6586C73.1609 51.2928 74.1217 51.0246 73.9987 50.392C73.5774 48.21 72.6103 45.9981 71.5044 44.0844C70.3463 42.0855 68.521 40.7634 66.2144 40.4731C63.818 40.1718 61.2937 41.008 59.5551 42.6992C57.7013 44.5025 56.7721 47.0426 55.8712 49.4138C55.6409 50.018 56.6048 50.2799 56.832 49.6804H56.8336Z" fill="#26190B"/>
<path d="M56.53 50.897C61.4618 47.0554 68.2442 47.0065 73.2264 50.7834C73.7281 51.1636 74.2141 50.3101 73.7187 49.9346C68.495 45.9747 61.2109 46.0188 56.0393 50.0482C55.5502 50.43 56.0346 51.2835 56.5315 50.897H56.53Z" fill="#26190B"/>
<path d="M56.8186 54.5529C59.2861 52.7149 62.2521 52.0286 65.3254 52.0049C68.2441 51.9829 70.8378 52.5556 73.1964 54.2768C73.7186 54.657 74.2251 53.8051 73.7092 53.428C71.218 51.6121 68.4035 51 65.3254 51.0221C62.0944 51.0457 58.9027 51.7699 56.3059 53.7041C55.7963 54.0843 56.2996 54.9378 56.8186 54.5529Z" fill="#26190B"/>
<path d="M55.8666 50.7128C55.8066 51.7399 55.835 52.7701 55.9486 53.794C55.977 54.048 56.1553 54.2988 56.4408 54.2846C56.6822 54.2736 56.9631 54.0669 56.9331 53.794C56.8195 52.7701 56.7927 51.7414 56.851 50.7128C56.8652 50.4556 56.6144 50.2095 56.3588 50.2221C56.0796 50.2348 55.8824 50.4383 55.8666 50.7128Z" fill="#26190B"/>
<path d="M72.9591 50.7128C73.019 51.7399 72.9906 52.7701 72.877 53.794C72.8486 54.0511 73.1231 54.2957 73.3693 54.2846C73.6596 54.272 73.8299 54.0685 73.8615 53.794C73.9751 52.7701 74.0019 51.7414 73.9435 50.7128C73.9293 50.4572 73.7274 50.2095 73.4513 50.2221C73.1973 50.2332 72.9433 50.4383 72.9591 50.7128Z" fill="#26190B"/>
<path d="M47.1637 82.4965C52.736 84.7273 58.6491 85.9753 64.3555 87.8038C64.9598 87.9978 65.2185 87.0497 64.6174 86.8556C58.911 85.0271 52.9979 83.7792 47.4255 81.5483C46.8387 81.3133 46.5831 82.263 47.1637 82.4965Z" fill="#26190B"/>
<path d="M67.0838 87.9374C72.2823 86.4245 77.5895 85.186 82.6113 83.1287C83.1887 82.892 82.9363 81.9407 82.3494 82.1805C77.3276 84.2378 72.0204 85.4763 66.8219 86.9893C66.2161 87.166 66.4733 88.1141 67.0838 87.9374Z" fill="#26190B"/>
<path d="M43.97 80.0209C42.8231 80.8287 42.386 82.2013 42.0942 83.5123C41.7487 85.0647 41.6572 86.6661 41.8212 88.2469C41.8859 88.8701 42.8704 88.8764 42.8041 88.2469C42.659 86.8491 42.7047 85.4355 42.9808 84.0566C43.2001 82.9633 43.4888 81.5544 44.4638 80.8697C44.9766 80.5084 44.4859 79.6565 43.9669 80.0209H43.97Z" fill="#26190B"/>
<path d="M85.5952 80.927C86.5639 81.8042 87.0735 83.0032 87.3638 84.2559C87.7062 85.731 87.7772 87.2677 87.6778 88.7744C87.6367 89.4054 88.6196 89.4039 88.6606 88.7744C88.7695 87.1399 88.6717 85.4628 88.282 83.8678C87.9507 82.5063 87.3417 81.1842 86.2894 80.2313C85.8208 79.8069 85.1235 80.4995 85.5937 80.9255L85.5952 80.927Z" fill="#26190B"/>
<path d="M43.9734 90.4463C46.3762 92.0966 49.3785 92.7623 52.1962 93.3066C55.6955 93.9819 59.261 94.1207 62.8124 94.2974C63.445 94.329 63.4434 93.3461 62.8124 93.3145C59.3494 93.141 55.869 93.0163 52.4565 92.3585C49.7177 91.8299 46.8022 91.2004 44.4672 89.5975C43.945 89.2378 43.4512 90.0898 43.9703 90.4463H43.9734Z" fill="#26190B"/>
<path d="M69.6723 94.6006C75.1515 93.9884 80.5126 92.6174 85.6022 90.4939C86.178 90.2541 85.9254 89.3028 85.3401 89.5457C80.3389 91.633 75.06 93.015 69.6723 93.6161C69.0507 93.6855 69.0428 94.6684 69.6723 94.599V94.6006Z" fill="#26190B"/>
<path d="M67.9192 94.2657C67.1666 94.2531 66.4141 94.2058 65.6678 94.1127C65.3128 94.0685 64.9579 94.0117 64.606 93.947C64.3473 93.8997 63.9324 93.9107 63.9198 93.5873C63.9056 93.2323 64.0002 92.8537 64.0523 92.5034C64.1075 92.1295 64.1659 91.7572 64.2306 91.3849C64.352 90.6655 64.4893 89.9492 64.6408 89.2361C64.7196 88.8685 64.8017 88.5009 64.8884 88.1333C64.9279 87.9645 64.9863 87.7925 65.0115 87.6206C65.0115 87.6269 65.0462 87.3934 65.0178 87.4912C64.9957 87.5669 65.0825 87.3823 65.1188 87.3445C65.4438 87.0037 65.977 86.9721 66.3083 87.3192C66.728 87.7578 66.9394 88.4772 67.1824 89.0215C67.4758 89.6763 67.7598 90.3357 68.0122 91.0078C68.2883 91.743 68.5297 92.4924 68.7064 93.2576C68.7821 93.5826 68.9304 94.0117 68.8957 94.3477C68.921 94.1064 68.9809 94.3193 68.8705 94.2547C68.8042 94.2168 68.6039 94.2625 68.5313 94.2641C68.3278 94.2673 68.1242 94.2673 67.9192 94.2657C67.2865 94.2594 67.2849 95.2423 67.9192 95.2486C68.6275 95.2549 69.7982 95.3937 69.8723 94.4045C69.9023 93.9896 69.7745 93.5384 69.6861 93.1361C69.5836 92.6707 69.4574 92.2116 69.3138 91.7572C69.0409 90.9005 68.7048 90.0675 68.3483 89.2424C68.017 88.4741 67.7204 87.5985 67.236 86.9106C66.8053 86.3016 66.1238 85.9798 65.3775 86.1265C65.0525 86.1912 64.7401 86.3505 64.4972 86.5777C64.1706 86.8822 64.0933 87.2309 63.9923 87.6521C63.549 89.4996 63.1798 91.3817 62.9637 93.2702C62.9116 93.7293 62.9526 94.19 63.3187 94.515C63.6705 94.8289 64.2006 94.8715 64.6439 94.9457C65.7278 95.1287 66.8227 95.2297 67.9223 95.2486C68.555 95.2596 68.555 94.2767 67.9223 94.2657H67.9192Z" fill="#26190B"/>
<path d="M63.3801 93.5257C61.6289 93.909 60.1428 95.4883 59.1062 96.8577C57.852 98.5143 56.9748 100.436 56.4116 102.43C55.0942 107.092 55.5612 111.989 56.2112 116.717C56.268 117.132 56.9369 117.195 57.1105 116.834C60.6129 109.574 64.0238 102.268 67.5263 95.0055C67.7992 94.4391 66.952 93.939 66.6775 94.5101C63.1751 101.771 59.7641 109.077 56.2617 116.339C56.5615 116.378 56.8612 116.418 57.161 116.456C56.5536 112.038 56.115 107.452 57.2556 103.08C57.7416 101.215 58.5036 99.423 59.6064 97.8374C60.5388 96.4964 61.9666 94.8399 63.6436 94.4738C64.2621 94.3382 64.0002 93.3916 63.3817 93.5257H63.3801Z" fill="#26190B"/>
<path d="M69.201 95.0361C70.8544 95.3816 72.0581 97.1533 72.8896 98.5038C73.8693 100.093 74.5304 101.852 74.9469 103.666C75.9092 107.864 75.4785 112.236 74.898 116.455C75.1977 116.415 75.4975 116.376 75.7972 116.338C72.6845 109.887 69.5702 103.436 66.4574 96.9845C66.1829 96.415 65.3341 96.9135 65.6086 97.4799C68.7214 103.931 71.8357 110.382 74.9484 116.833C75.1204 117.19 75.7893 117.133 75.8477 116.716C76.4725 112.182 76.9284 107.509 75.8035 103.013C75.3255 101.101 74.5651 99.2327 73.4717 97.5872C72.5188 96.1547 71.2425 94.4587 69.4629 94.0863C68.846 93.957 68.581 94.9036 69.201 95.0345V95.0361Z" fill="#26190B"/>
<path d="M40.9242 90.339C38.807 93.0668 36.7907 95.8987 35.3203 99.0351C33.861 102.143 33.0201 105.447 32.6825 108.859C32.6209 109.489 33.6038 109.484 33.6653 108.859C33.9903 105.57 34.8218 102.356 36.2464 99.368C37.6742 96.3751 39.5911 93.6474 41.62 91.0347C42.0033 90.5409 41.3123 89.8404 40.9242 90.3406V90.339Z" fill="#26190B"/>
<path d="M88.6278 91.0347C90.6567 93.6473 92.5736 96.3735 94.0014 99.3679C95.426 102.356 96.2574 105.57 96.5824 108.859C96.644 109.482 97.6284 109.489 97.5653 108.859C97.2277 105.448 96.3868 102.143 94.9274 99.035C93.4555 95.9002 91.4408 93.0667 89.3236 90.3389C88.9355 89.8404 88.2444 90.5393 88.6278 91.0331V91.0347Z" fill="#26190B"/>
<path d="M34.6583 15.9154C29.3321 19.3657 24.6086 23.7091 20.7007 28.704C16.8022 33.6862 13.7021 39.2696 11.5676 45.2253C9.39983 51.2757 8.27653 57.6826 8.28126 64.1085C8.286 70.7489 9.45821 77.394 11.6843 83.6495C13.9041 89.8892 17.162 95.7455 21.3522 100.879C21.8745 101.518 22.4109 102.146 22.9615 102.761C23.3827 103.235 24.0769 102.537 23.6572 102.067C14.9438 92.2951 9.84947 79.4481 9.31306 66.3835C8.79559 53.7842 12.7413 41.3174 20.1106 31.1115C24.1905 25.4603 29.3021 20.5553 35.1553 16.7642C35.6838 16.4218 35.1916 15.5699 34.6583 15.9154Z" fill="#26190B"/>
<path d="M40.1004 14.7292C51.4801 8.60625 65.0417 7.37092 77.5621 10.1871C83.5289 11.5297 89.2732 13.7573 94.4416 17.0436C99.3371 20.1579 103.666 24.1068 107.383 28.5527C111.624 33.6249 115.054 39.3534 117.711 45.3991C117.965 45.9765 118.812 45.4779 118.559 44.9037C113.767 34.002 106.366 24.0185 96.4863 17.2219C86.151 10.1114 73.0768 7.02385 60.618 7.9105C53.2881 8.43271 46.0829 10.3938 39.6034 13.8804C39.0465 14.1802 39.5419 15.0289 40.1004 14.7292Z" fill="#26190B"/>
<path d="M25.4974 105.922C32.9519 112.802 42.1008 117.597 51.988 119.87C56.8062 120.978 61.757 121.508 66.6982 121.517C71.4076 121.525 76.0175 121.06 80.536 119.692C89.7133 116.915 98.2358 111.606 105.245 105.12C108.401 102.202 111.277 98.9612 113.585 95.3279C116.12 91.3348 118.108 86.9978 119.455 82.4636C122.313 72.8603 122.209 62.6733 120.607 52.857C120.386 51.5081 120.137 50.1639 119.866 48.8245C119.739 48.2045 118.791 48.4679 118.918 49.0864C120.902 58.8537 121.6 69.0549 119.385 78.8475C117.406 87.5941 113.148 95.6939 106.896 102.137C100.381 108.852 92.2407 114.344 83.4752 117.653C79.2123 119.264 74.8248 120.231 70.2716 120.451C65.4124 120.684 60.5201 120.436 55.7224 119.616C45.9913 117.955 36.7288 113.935 29.0503 107.705C28.0705 106.91 27.1192 106.081 26.1931 105.226C25.7293 104.797 25.032 105.491 25.4974 105.92V105.922Z" fill="#26190B"/>
<path d="M65.0349 127.827C30.2378 127.827 1.92969 99.5414 1.92969 64.7711C1.92969 30.0009 30.2378 1.71484 65.0349 1.71484C99.832 1.71484 128.142 30.0024 128.142 64.7711C128.142 99.5398 99.832 127.829 65.0349 127.829V127.827ZM65.0349 2.69773C30.7805 2.69773 2.91258 30.542 2.91258 64.7711C2.91258 99.0003 30.7805 126.846 65.0349 126.846C99.2893 126.846 127.157 99.0003 127.157 64.7711C127.157 30.542 99.2908 2.69773 65.0349 2.69773Z" fill="#26190B"/>
<path d="M55.6406 57.5C59.3495 57.5 62.1406 59.8442 62.1406 62.5C62.1406 65.1558 59.3495 67.5 55.6406 67.5C51.9317 67.5 49.1406 65.1558 49.1406 62.5C49.1406 59.8442 51.9317 57.5 55.6406 57.5Z" fill="#92B8EB" fill-opacity="0.3" stroke="#4B4137"/>
<path d="M75.6406 57.5C79.3495 57.5 82.1406 59.8442 82.1406 62.5C82.1406 65.1558 79.3495 67.5 75.6406 67.5C71.9317 67.5 69.1406 65.1558 69.1406 62.5C69.1406 59.8442 71.9317 57.5 75.6406 57.5Z" fill="#92B8EB" fill-opacity="0.3" stroke="#4B4137"/>
<path d="M62.1406 62.9998C63.3073 62.1665 66.3406 60.9998 69.1406 62.9998" stroke="#4B4137"/>
<defs>
<linearGradient id="paint0_linear_2147_173" x1="64.6406" y1="8.0016" x2="64.6406" y2="122" gradientUnits="userSpaceOnUse">
<stop stop-color="#5FC2FF"/>
<stop offset="1" stop-color="#223A6B"/>
</linearGradient>
<linearGradient id="paint1_linear_2147_173" x1="64.4401" y1="55.3022" x2="64.4401" y2="120.875" gradientUnits="userSpaceOnUse">
<stop stop-color="white" stop-opacity="0"/>
<stop offset="0.04" stop-color="#FBFBFB" stop-opacity="0.08"/>
<stop offset="0.17" stop-color="#EEEEEE" stop-opacity="0.32"/>
<stop offset="0.3" stop-color="#E4E4E4" stop-opacity="0.53"/>
<stop offset="0.44" stop-color="#DBDBDB" stop-opacity="0.7"/>
<stop offset="0.57" stop-color="#D4D4D4" stop-opacity="0.83"/>
<stop offset="0.71" stop-color="#CFCFCF" stop-opacity="0.93"/>
<stop offset="0.85" stop-color="#CCCCCC" stop-opacity="0.98"/>
<stop offset="1" stop-color="#CCCCCC"/>
</linearGradient>
<linearGradient id="paint2_linear_2147_173" x1="83.0394" y1="88.7172" x2="83.0394" y2="120.875" gradientUnits="userSpaceOnUse">
<stop stop-color="#403D39" stop-opacity="0"/>
<stop offset="0.18" stop-color="#363430" stop-opacity="0.17"/>
<stop offset="1" stop-color="#141414" stop-opacity="0.8"/>
</linearGradient>
<linearGradient id="paint3_linear_2147_173" x1="48.428" y1="87.96" x2="48.428" y2="120.757" gradientUnits="userSpaceOnUse">
<stop stop-color="#403D39" stop-opacity="0"/>
<stop offset="0.18" stop-color="#363430" stop-opacity="0.17"/>
<stop offset="1" stop-color="#141414" stop-opacity="0.8"/>
</linearGradient>
<linearGradient id="paint4_linear_2147_173" x1="64.8323" y1="36.7675" x2="64.8323" y2="83.5848" gradientUnits="userSpaceOnUse">
<stop stop-color="#403D39" stop-opacity="0"/>
<stop offset="0.85" stop-color="#1B1B1A" stop-opacity="0.82"/>
<stop offset="1" stop-color="#141414"/>
</linearGradient>
<linearGradient id="paint5_linear_2147_173" x1="64.9574" y1="40.6912" x2="64.9574" y2="54.2844" gradientUnits="userSpaceOnUse">
<stop stop-color="#FF7703" stop-opacity="0"/>
<stop offset="1" stop-color="#A63C06"/>
</linearGradient>
<linearGradient id="paint6_linear_2147_173" x1="65.3486" y1="80.3179" x2="65.3486" y2="94.6258" gradientUnits="userSpaceOnUse">
<stop stop-color="#FF7703" stop-opacity="0"/>
<stop offset="1" stop-color="#A63C06"/>
</linearGradient>
<linearGradient id="paint7_linear_2147_173" x1="61.3708" y1="94.0763" x2="61.3708" y2="116.05" gradientUnits="userSpaceOnUse">
<stop stop-color="#FF7703" stop-opacity="0"/>
<stop offset="1" stop-color="#A63C06"/>
</linearGradient>
<linearGradient id="paint8_linear_2147_173" x1="70.7162" y1="94.3038" x2="70.7162" y2="116.279" gradientUnits="userSpaceOnUse">
<stop stop-color="#FF7703" stop-opacity="0"/>
<stop offset="1" stop-color="#A63C06"/>
</linearGradient>
<linearGradient id="paint9_linear_2147_173" x1="50.1053" y1="40.5778" x2="50.1053" y2="53.4642" gradientUnits="userSpaceOnUse">
<stop stop-color="white" stop-opacity="0.7"/>
<stop offset="0.38" stop-color="#EDC2C7" stop-opacity="0.86"/>
<stop offset="0.72" stop-color="#E39CA4" stop-opacity="0.97"/>
<stop offset="1" stop-color="#E09099"/>
</linearGradient>
<linearGradient id="paint10_linear_2147_173" x1="79.3556" y1="40.5524" x2="79.3556" y2="53.4388" gradientUnits="userSpaceOnUse">
<stop stop-color="white" stop-opacity="0.7"/>
<stop offset="0.38" stop-color="#EDC2C7" stop-opacity="0.86"/>
<stop offset="0.72" stop-color="#E39CA4" stop-opacity="0.97"/>
<stop offset="1" stop-color="#E09099"/>
</linearGradient>
</defs>
</svg>
