<svg width="308" height="312" viewBox="0 0 308 312" fill="none" xmlns="http://www.w3.org/2000/svg">
<path d="M83 88.5002L88.5 126.5M108 119L100.5 54.0002" stroke="#414141"/>
<path d="M128 68.0002V32.0002" stroke="#535353"/>
<path d="M54.3081 163.041C57.2738 161.518 64.0875 161.095 74.428 168.293C75.1851 168.821 76.2058 168.794 76.913 168.201L79.1295 166.345C80.3663 165.309 82.2576 166.089 82.4052 167.695L82.8345 172.367C82.91 173.188 83.6953 173.752 84.4975 173.561C85.5839 173.303 86.499 174.395 86.054 175.42L85.5693 176.535C84.9858 177.877 86.0239 179.363 87.4852 179.277L93.6572 178.913C93.9574 178.896 94.2382 178.817 94.5007 178.67C115.18 167.125 159.146 139.898 172.703 121.543C176.645 117.19 185.178 108.504 187.774 108.589C190.964 108.693 195.104 66.4575 155.859 25.4746C154.865 24.4371 155.232 22.7444 156.65 22.52C161.095 21.8168 168.032 22.4688 174.792 27.9183C176.211 29.0616 179.217 27.865 180.974 27.3844C183.555 26.6788 188.486 28.7166 197.258 37.64C197.498 37.8842 197.675 38.1989 197.754 38.532C198.209 40.4436 201.341 40.5574 202.678 39.1179C204.877 36.7514 207.856 37.1067 211.156 45.6395C216.008 58.184 210.31 83.1389 205.703 97.8529C205.149 99.6243 207.247 101.512 209.075 101.191C215.463 100.068 224.674 102.116 231.798 115.022C235.723 110.346 244.42 103.091 254.358 104.169C267.883 105.637 277.354 123.294 272.352 125.655C268.876 127.296 261.577 125.19 257.077 123.447C256.056 123.051 254.887 123.497 254.434 124.494L246.661 141.603C246.031 142.989 247.125 144.583 248.645 144.681C255.201 145.103 264.619 148.081 267.135 157.892C267.187 158.097 267.204 158.311 267.185 158.522C266.65 164.304 264.462 172.818 259.633 165.051C259.154 164.281 258.244 163.853 257.362 164.063L237.269 168.843C237.069 168.89 236.862 168.907 236.657 168.891L211.759 167.033C211.116 166.985 210.49 167.25 210.076 167.744L153.625 235.27C153.409 235.529 153.261 235.838 153.196 236.169L152.057 241.995C152.002 242.275 152.008 242.564 152.074 242.842L155.291 256.364C155.364 256.671 155.365 256.982 155.291 257.288C152.282 269.641 145.498 293.183 141.526 292.045C136.6 290.635 134.035 268.418 137.351 258.725C137.482 258.341 137.511 257.935 137.418 257.54L132.487 236.814C132.232 235.74 131.153 235.076 130.079 235.331L126.211 236.251C125.137 236.507 124.473 237.585 124.728 238.66L127.515 250.375C127.63 250.857 127.561 251.365 127.322 251.8L120.166 264.84C120.012 265.121 119.928 265.43 119.918 265.75C119.659 273.373 117.31 287.719 109.829 290.211C109.125 290.445 108.372 290.131 108.006 289.486C105.037 284.265 102.034 270.045 109.786 246.777C109.961 246.253 109.92 245.675 109.664 245.186C106.21 238.574 100.147 225.65 100.676 221.245C101.213 216.77 70.074 211.656 53.3452 209.508C52.6174 209.414 52.0044 208.94 51.7604 208.248C49.0249 200.49 46.615 185.75 55.5646 179.204C56.2765 178.684 56.6709 177.804 56.4668 176.946L53.594 164.869C53.4233 164.151 53.6522 163.378 54.3081 163.041Z" fill="url(#paint0_linear_101_24)"/>
<path d="M63.5232 176.673L68.1512 174.154C69.6113 173.36 69.521 171.234 67.9988 170.566L61.3473 167.648C59.7294 166.938 58.053 168.521 58.6692 170.177L60.6928 175.614C61.1174 176.755 62.454 177.255 63.5232 176.673Z" fill="url(#paint1_linear_101_24)"/>
<path d="M51.4576 205.136C48.9486 192.947 52.9602 175.265 89.0778 202.043L130.876 220.208C137.52 218.802 146.116 215.997 154.883 211.58C175.544 201.172 197.148 181.817 196.339 150.762L219.389 159.041L210.798 167.233C208.999 167.466 205.601 168.528 206.403 170.914C207.405 173.896 201.01 213.48 153.978 236.087C149.666 237.7 142.215 238.989 133.336 237.932C123.021 236.704 110.778 232.309 99.2868 221.574C95.839 218.978 87.3439 214.694 80.9461 218.324C72.9489 222.862 53.773 238.256 40.5401 229.4C42.9995 225.789 48.969 217.322 53.1714 212.341L51.4576 205.136Z" fill="#D9D9D9"/>
<path d="M133.28 236.906L131.284 221.382C131.169 220.487 131.668 219.625 132.502 219.279L151.775 211.288C153.017 210.772 154.403 211.604 154.507 212.945C155.187 221.668 155.607 235.442 153.003 236.905C150.394 238.37 140.938 238.671 135.222 238.638C134.231 238.632 133.407 237.889 133.28 236.906Z" fill="url(#paint2_linear_101_24)"/>
<path d="M55.7621 178.931C52.3312 179.279 50.0468 187.318 49.3334 191.294L49.8607 193.51C48.3199 195.243 44.8635 198.857 43.3644 199.448C41.5973 200.144 43.5691 191.359 48.4223 191.22C44.7271 190.071 36.9526 179.836 42.1983 174.838C47.4801 169.805 53.9285 176.147 55.7621 178.931Z" fill="url(#paint3_linear_101_24)"/>
<path d="M71.3883 213.949C70.8373 214.693 70.7344 215.617 70.8196 216.423C70.9053 217.233 71.6939 217.793 72.4763 217.564C74.1106 217.084 74.005 215.646 73.4469 214.365C73.0723 213.506 71.9465 213.196 71.3883 213.949Z" fill="#E39CA4" fill-opacity="0.97"/>
<path d="M84.5749 179.398C85.5121 178.004 88.5185 175.298 93.047 175.626C96.9109 187.529 103.316 210.495 101.723 217.774C106.372 210.344 122.22 204.407 129.563 202.368C126.012 206.726 119.608 214.925 122.395 212.857C125.183 210.788 131.764 211.214 134.707 211.685C135.223 211.804 134.726 213.489 128.609 219.284C122.492 225.079 106.033 222.846 98.568 221.006C95.7002 222.468 94.6738 221.853 94.5285 221.242C92.8793 220.463 89.3672 218.254 88.5127 215.646C87.4445 212.387 91.8918 210.158 84.5749 179.398Z" fill="url(#paint4_linear_101_24)"/>
<path d="M88.5954 196.302L90.1779 202.953L101.757 211.031L100.373 205.212L88.5954 196.302Z" fill="#FED571"/>
<path d="M110.108 211.679L107.387 213.791L116.111 218.45L118.417 216.445L110.108 211.679Z" fill="#FED571"/>
<path d="M120.046 214.661L117.324 216.773L126.048 221.432L128.354 219.427L120.046 214.661Z" fill="#FED571"/>
<path d="M114.319 207.825L111.598 209.937L120.322 214.596L122.628 212.591L114.319 207.825Z" fill="#FED571"/>
<path d="M125.749 211.548L123.028 213.659L130.562 217.648L132.107 215.524L125.749 211.548Z" fill="#FED571"/>
<path d="M86.5329 186.418L88.1154 193.068L99.6947 201.147L98.3104 195.328L86.5329 186.418Z" fill="#FED571"/>
<path d="M185.63 60.2007C183.315 60.7513 178.246 55.4181 175.84 52.2815C175.115 49.2335 161.181 31.2716 153.032 22.8646C166.502 19.4261 175.612 27.9362 178.484 32.621C177.545 27.6911 180.161 26.9518 181.586 27.1985C190.664 25.9758 197.431 37.1909 199.474 45.7812C199.339 38.318 204.723 37.896 207.433 38.6179C211.369 42.3662 211.277 56.8325 210.739 63.5971C206.601 67.861 202.734 66.8679 201.318 65.8384C197.11 59.2269 194.861 46.8201 191.028 53.3535C186.236 61.5204 187.292 59.8052 185.63 60.2007Z" fill="#D9D9D9"/>
<path d="M116.075 282.288C112.841 279.127 108.592 280.79 106.25 282.427C105.714 282.801 105.46 283.452 105.568 284.097C105.959 286.426 106.97 289.796 108.869 290.151C111.075 290.563 114.592 285.081 116.075 282.288Z" fill="#D9D9D9"/>
<path d="M267.234 157.498C263.062 155.753 259.727 158.865 258.154 161.251C257.794 161.797 257.798 162.495 258.136 163.055C259.358 165.075 261.542 167.835 263.437 167.464C265.64 167.033 266.887 160.64 267.234 157.498Z" fill="#D9D9D9"/>
<path d="M269.82 114.488C265.431 115.577 264.611 120.064 264.771 122.918C264.808 123.571 265.228 124.129 265.833 124.376C268.02 125.268 271.418 126.181 272.718 124.752C274.229 123.092 271.415 117.218 269.82 114.488Z" fill="#D9D9D9"/>
<path d="M146.687 284.203C143.814 280.957 140.246 282.421 138.275 283.963C137.788 284.343 137.58 284.967 137.686 285.575C138.097 287.918 139.088 291.387 140.753 291.812C142.668 292.301 145.507 286.943 146.687 284.203Z" fill="#D9D9D9"/>
<path d="M55.0758 179.46C55.1035 179.678 55.2168 179.876 55.3907 180.011C55.5645 180.145 55.7847 180.205 56.0029 180.178C56.221 180.15 56.4192 180.037 56.5538 179.863C56.6884 179.689 56.7485 179.469 56.7207 179.251C56.7207 179.251 56.7207 179.251 56.7207 179.251C56.6322 178.555 56.5402 177.877 56.4402 177.183C55.8276 172.889 54.9388 168.592 53.8152 164.435C53.8073 164.403 53.7998 164.372 53.7928 164.343C53.7787 164.397 53.8213 164.184 54.0691 163.966C54.2998 163.75 54.6238 163.547 54.9437 163.402C54.9628 163.393 54.9817 163.385 55.0004 163.377C59.8948 161.806 65.4762 165.256 70.7719 167.169L70.7509 167.161C70.7599 167.164 70.7688 167.168 70.7778 167.172C71.8358 167.606 72.8733 167.987 73.7322 168.513C73.7334 168.514 73.7347 168.515 73.736 168.515C73.9471 168.645 74.1513 168.77 74.3423 168.895C74.816 169.22 75.2057 169.456 75.3975 169.98C75.4207 170.075 75.4632 170.167 75.5319 170.238C75.6006 170.308 75.6886 170.352 75.782 170.358C75.8753 170.365 75.9686 170.334 76.0465 170.274C76.1245 170.214 76.1795 170.128 76.2158 170.038C76.2158 170.038 76.2158 170.038 76.2158 170.038C76.5287 169.144 75.9799 168.139 75.402 167.611C75.1638 167.382 74.9078 167.192 74.6448 167.031C74.6432 167.03 74.6417 167.029 74.6401 167.028C73.5652 166.376 72.4619 165.988 71.4327 165.563C71.424 165.56 71.4152 165.556 71.4065 165.553L71.3855 165.544C66.1161 163.78 60.8574 159.897 54.3271 161.81C54.2977 161.823 54.2684 161.836 54.239 161.849C53.7507 162.076 53.3114 162.356 52.8987 162.758C52.5247 163.142 51.9789 163.776 52.1805 164.731C52.1885 164.764 52.1968 164.798 52.2054 164.833C53.334 169.013 54.1906 173.169 54.799 177.42C54.8977 178.104 54.9884 178.774 55.0758 179.46Z" fill="#26190B"/>
<path d="M75.8636 168.331C75.7051 168.491 75.6168 168.708 75.6184 168.934C75.6199 169.16 75.711 169.376 75.8717 169.534C76.0324 169.693 76.2494 169.781 76.4752 169.779C76.7009 169.778 76.9167 169.687 77.0753 169.526C77.0753 169.526 77.0753 169.526 77.0753 169.526C77.4197 169.177 77.7633 168.829 78.1075 168.483C79.3228 167.282 80.5963 165.943 81.8368 165.149C81.861 165.135 81.8839 165.123 81.9055 165.111C82.021 165.048 82.1323 165.015 82.1425 165.017C82.1684 165.032 81.9555 164.981 81.9244 164.919C81.8914 164.835 82.0186 165.19 82.03 165.508C82.0326 165.539 82.035 165.571 82.0373 165.603C82.2738 168.128 81.7529 170.381 81.8771 173.358C81.8891 173.438 81.9056 173.527 81.9256 173.612C81.9733 173.99 82.4356 174.551 82.8797 174.639C83.3051 174.754 83.587 174.701 83.8404 174.661C84.3361 174.564 84.7178 174.409 85.0926 174.257C85.816 173.959 86.5601 173.57 87.0656 173.433L86.4379 173.343C86.3908 173.316 86.3502 173.283 86.3212 173.252C86.1805 173.073 86.2519 173.106 86.2445 173.182C86.2494 173.259 86.2411 173.376 86.2199 173.497C86.1775 173.742 86.0899 174.011 85.9745 174.259C85.9646 174.28 85.9545 174.301 85.9442 174.322C85.4216 175.296 84.4581 176.441 83.6916 177.538C83.4039 177.937 83.1163 178.341 82.8317 178.745C82.7011 178.931 82.6499 179.161 82.6892 179.384C82.7285 179.608 82.8551 179.806 83.0411 179.937C83.2271 180.067 83.4571 180.118 83.6806 180.079C83.9041 180.04 84.1028 179.913 84.2327 179.727C84.2327 179.727 84.2327 179.727 84.2327 179.727C84.5119 179.327 84.7942 178.928 85.0766 178.533C85.8528 177.403 86.6918 176.484 87.4692 175.071C87.4847 175.04 87.4999 175.008 87.5147 174.976C87.6863 174.606 87.8196 174.223 87.8985 173.796C87.9367 173.581 87.963 173.357 87.951 173.093C87.9233 172.832 87.9342 172.505 87.5588 172.071C87.4855 171.994 87.394 171.919 87.2911 171.86L86.9945 171.69L86.6634 171.77C85.7107 172.044 85.1164 172.403 84.4367 172.673C84.1126 172.807 83.7806 172.928 83.5313 172.973C83.4129 172.999 83.3091 172.984 83.3664 172.994C83.4377 172.985 83.6247 173.219 83.5964 173.221C83.5883 173.186 83.5801 173.143 83.5736 173.1C83.4771 170.951 83.9873 168.091 83.7412 165.483C83.7383 165.443 83.7353 165.404 83.7318 165.363C83.6664 164.932 83.7246 164.474 83.1992 163.787C82.9196 163.428 82.2962 163.256 81.9447 163.325C81.5757 163.373 81.3304 163.493 81.1061 163.608C81.0663 163.63 81.0266 163.652 80.9869 163.674C79.2869 164.779 78.1726 166.045 76.901 167.282C76.5532 167.632 76.2081 167.981 75.8636 168.331Z" fill="#26190B"/>
<path d="M55.5869 180.191C55.7538 180.041 55.8543 179.832 55.8663 179.608C55.8784 179.384 55.801 179.164 55.6513 178.998C55.5015 178.831 55.2917 178.73 55.0678 178.718C54.844 178.706 54.6245 178.783 54.4577 178.933C54.4577 178.933 54.4577 178.933 54.4577 178.933C54.0141 179.332 53.6109 179.763 53.2401 180.214C50.7108 183.394 49.4182 187.18 48.6561 191.004L48.6417 191.138C48.6416 191.141 48.6415 191.145 48.6414 191.148C48.5387 193.827 48.5184 196.618 48.8254 199.332L48.8341 199.393C48.8345 199.395 48.8349 199.398 48.8354 199.4C49.4479 202.746 50.241 205.995 51.0015 209.262C51.1269 209.795 51.2525 210.327 51.378 210.86C51.434 211.098 51.582 211.303 51.7897 211.431C51.9975 211.559 52.248 211.599 52.4859 211.542C52.7237 211.486 52.9294 211.337 53.0573 211.129C53.1852 210.922 53.2249 210.672 53.1679 210.434C53.0401 209.902 52.9124 209.37 52.7851 208.838C52.0139 205.586 51.2086 202.321 50.5975 199.085C50.5971 199.083 50.5967 199.08 50.5962 199.078L50.6049 199.139C50.293 196.498 50.2295 193.894 50.3312 191.195C50.3313 191.191 50.3314 191.188 50.3315 191.184L50.3172 191.318C51.0247 187.713 52.3078 184.082 54.5453 181.288C54.87 180.893 55.2169 180.523 55.5869 180.191Z" fill="#26190B"/>
<path d="M54.7818 178.039C54.8957 178.223 55.078 178.355 55.2887 178.404C55.4994 178.454 55.7212 178.418 55.9054 178.304C56.0895 178.19 56.2209 178.008 56.2706 177.797C56.3203 177.587 56.2842 177.365 56.1704 177.181C56.1704 177.181 56.1704 177.181 56.1704 177.181C55.7625 176.539 55.2721 176.092 54.7659 175.678C52.412 173.856 49.6199 172.881 46.7306 172.596C46.7303 172.596 46.7301 172.596 46.7298 172.596C44.9057 172.505 43.4334 173.128 42.0453 173.987C42.0441 173.988 42.0428 173.989 42.0415 173.99C39.5008 175.752 39.825 178.826 39.8983 180.988L39.9131 181.103C39.9153 181.115 39.9175 181.126 39.9197 181.137C40.6228 184.205 41.273 187.477 44.0362 189.946L44.1052 189.994C44.1106 189.997 44.116 190.001 44.1214 190.004C45.2273 190.687 46.3833 191.017 47.4788 191.359C48.0594 191.535 48.6334 191.699 49.2138 191.863C49.434 191.925 49.6699 191.897 49.8694 191.785C50.069 191.673 50.2159 191.486 50.2779 191.266C50.3399 191.045 50.3118 190.809 50.1998 190.61C50.0879 190.41 49.9012 190.263 49.6809 190.201C49.6809 190.201 49.6809 190.201 49.6809 190.201C49.1065 190.04 48.5405 189.878 47.9775 189.709C46.9065 189.379 45.857 189.059 45.025 188.539C45.0206 188.536 45.0163 188.534 45.0119 188.531L45.0809 188.579C43.1061 186.894 42.1978 183.686 41.5891 180.805C41.587 180.794 41.5849 180.783 41.5828 180.773L41.5976 180.889C41.4636 178.71 41.4705 176.336 42.9766 175.402C42.9776 175.401 42.9785 175.4 42.9795 175.4C44.0547 174.704 45.4513 174.14 46.583 174.222C46.5832 174.222 46.5834 174.222 46.5835 174.222C49.1518 174.464 51.7504 175.396 53.7426 176.95C54.1619 177.287 54.5543 177.673 54.7818 178.039Z" fill="#26190B"/>
<path d="M49.6676 191.901C49.8986 191.846 50.0982 191.702 50.2227 191.5C50.3471 191.298 50.3862 191.054 50.3312 190.824C50.2763 190.593 50.1319 190.393 49.9297 190.269C49.7276 190.144 49.4843 190.105 49.2534 190.16C49.2534 190.16 49.2534 190.16 49.2534 190.16C48.9037 190.243 48.5557 190.339 48.2107 190.45C46.3415 191.04 44.5059 192.124 43.2548 193.77C43.2513 193.775 43.2478 193.78 43.2443 193.784C41.9844 195.483 41.5056 197.632 42.1573 199.758C42.1589 199.763 42.1605 199.767 42.1621 199.772L42.2646 200.062L42.5242 200.23C43.4069 200.712 44.0045 200.508 44.5577 200.381C45.1058 200.218 45.5997 199.963 46.0493 199.596C46.0497 199.596 46.05 199.596 46.0504 199.596C47.5546 198.108 47.8559 196.737 48.6543 195.378C48.8099 195.081 48.9663 194.785 49.1252 194.487C49.2364 194.278 49.2606 194.033 49.1921 193.807C49.1236 193.58 48.968 193.39 48.7595 193.278C48.551 193.166 48.3065 193.142 48.0798 193.21C47.8531 193.278 47.6628 193.434 47.5503 193.642C47.5503 193.642 47.5503 193.642 47.5503 193.642C47.3874 193.943 47.2272 194.243 47.0683 194.543C46.3371 195.846 45.655 197.54 44.9027 198.203C44.9025 198.203 44.9023 198.203 44.9021 198.203C44.6655 198.399 44.3561 198.56 44.0537 198.648C43.7694 198.752 43.3986 198.692 43.5002 198.713L43.8623 199.171C43.8613 199.168 43.8604 199.166 43.8595 199.163C43.4254 197.836 43.753 196.046 44.6669 194.871C44.6696 194.867 44.6724 194.863 44.6752 194.86C45.6612 193.563 47.1317 192.669 48.7565 192.154C49.0552 192.059 49.3594 191.975 49.6676 191.901Z" fill="#26190B"/>
<path d="M52.671 214.037C52.8207 213.867 52.8965 213.644 52.8819 213.418C52.8673 213.192 52.7634 212.981 52.5932 212.831C52.4229 212.681 52.2001 212.605 51.9739 212.62C51.7477 212.635 51.5365 212.738 51.3869 212.909C51.3869 212.909 51.3869 212.909 51.3869 212.909C50.6868 213.706 49.9859 214.5 49.2834 215.298C45.9438 219.117 42.4324 222.96 39.887 227.518C39.8733 227.542 39.8597 227.566 39.846 227.59C39.4553 228.202 39.4753 229.178 39.8211 229.766C40.1478 230.376 40.5928 230.776 41.086 231.103C41.1019 231.113 41.1178 231.123 41.1336 231.133C44.9701 233.36 49.0716 232.253 52.5984 232.634C52.6164 232.635 52.6344 232.637 52.6524 232.638C58.6439 232.891 63.8595 230.152 68.4908 226.995L68.3785 227.065C68.3935 227.057 68.4084 227.049 68.4234 227.041C71.6491 225.367 75.0764 223.907 78.2785 221.908C78.2798 221.907 78.2811 221.907 78.2824 221.906C78.3175 221.884 78.353 221.862 78.3888 221.839C79.3448 221.312 80.3807 220.244 80.8069 219.139C80.8952 218.936 80.899 218.705 80.8183 218.498C80.7375 218.291 80.5789 218.125 80.3764 218.035C80.174 217.945 79.9441 217.94 79.7364 218.019C79.5289 218.098 79.3606 218.256 79.2694 218.458C79.2694 218.458 79.2694 218.458 79.2694 218.458C78.8811 219.326 78.3628 219.852 77.4756 220.373C77.4413 220.394 77.4067 220.416 77.3716 220.438C77.3702 220.438 77.3689 220.439 77.3676 220.44C74.3059 222.339 70.9246 223.763 67.6127 225.479C67.5974 225.487 67.5821 225.495 67.5667 225.503L67.4544 225.572C63.1328 228.56 57.9166 231.146 52.7991 230.885C52.7838 230.884 52.7686 230.883 52.7534 230.881C48.873 230.544 44.9286 231.404 42.0632 229.648C42.0541 229.642 42.0449 229.636 42.0356 229.63C41.7423 229.443 41.4731 229.181 41.3519 228.957C41.2353 228.722 41.2318 228.637 41.3338 228.432C41.347 228.409 41.3601 228.386 41.3733 228.363C43.8043 224.003 47.2148 220.258 50.5662 216.428C51.2681 215.631 51.9697 214.835 52.671 214.037Z" fill="#26190B"/>
<path d="M47.6517 218.341C47.455 218.388 47.2849 218.511 47.1789 218.683C47.0728 218.856 47.0396 219.063 47.0864 219.26C47.1332 219.456 47.2562 219.626 47.4284 219.732C47.6006 219.838 47.8078 219.872 48.0046 219.825C47.9523 219.825 48.1385 219.829 48.2943 219.888C49.2273 220.228 50.2104 221.077 51.0522 221.93L50.9511 221.802C50.9531 221.805 50.9551 221.808 50.9572 221.811C51.6365 222.926 51.9379 224.39 51.9749 225.734C51.975 225.738 51.9751 225.742 51.9751 225.746C52.0656 227.054 51.2722 228.168 50.3433 229.363C50.1968 229.549 50.053 229.726 49.9007 229.911C49.7635 230.077 49.6978 230.291 49.7181 230.505C49.7383 230.72 49.843 230.918 50.009 231.055C50.175 231.193 50.3888 231.258 50.6034 231.238C50.818 231.218 51.0158 231.113 51.1533 230.948C51.1533 230.948 51.1533 230.948 51.1533 230.948C51.3126 230.755 51.4642 230.569 51.6203 230.372C52.5555 229.185 53.7264 227.58 53.6067 225.718C53.6066 225.713 53.6065 225.708 53.6064 225.702C53.5472 224.044 53.1314 222.474 52.2501 221.003C52.2475 220.999 52.2447 220.994 52.242 220.99L52.1409 220.862C51.1911 219.928 50.2436 219.002 48.7773 218.442C48.479 218.355 48.1792 218.239 47.6517 218.341Z" fill="#26190B"/>
<path d="M59.7686 197.369C59.6302 197.265 59.4563 197.221 59.2852 197.246C59.114 197.27 58.9597 197.362 58.8561 197.5C58.7525 197.639 58.7081 197.813 58.7328 197.984C58.7574 198.155 58.849 198.309 58.9874 198.413C58.9874 198.413 58.9874 198.413 58.9874 198.413C59.2841 198.635 59.5839 198.86 59.8957 199.081C60.3988 199.416 60.8118 199.781 61.6259 200.013C61.6433 200.017 61.6608 200.02 61.6786 200.024C61.9782 200.092 62.5214 200.045 62.841 199.646C63.146 199.262 63.1634 198.823 63.0301 198.443C63.0214 198.419 63.0119 198.396 63.0016 198.372C62.5711 197.53 61.9042 197.359 61.3853 197.155C60.845 196.974 60.3152 196.872 59.8236 196.77C59.8139 196.768 59.8043 196.766 59.7948 196.764C59.7123 196.749 59.6022 196.733 59.4391 196.775C59.2676 196.814 59.074 196.971 59.0004 197.105C58.8514 197.385 58.8921 197.495 58.8882 197.586C58.9021 197.757 58.9321 197.836 58.9586 197.921C59.0136 198.081 59.0734 198.202 59.1394 198.322C59.2728 198.559 59.4209 198.773 59.6437 198.988C59.6558 198.999 59.6679 199.01 59.6801 199.021C60.5764 199.823 61.668 200.076 62.6813 200.181C62.7024 200.183 62.7242 200.184 62.7467 200.184C62.9039 200.196 63.1974 200.111 63.3564 199.922C63.516 199.739 63.5446 199.583 63.5633 199.478C63.5905 199.266 63.5627 199.159 63.5424 199.055C63.4959 198.857 63.4326 198.719 63.3636 198.584C63.2247 198.321 63.0569 198.104 62.8639 197.907C62.8505 197.894 62.8369 197.88 62.8232 197.867C62.1756 197.299 61.7527 196.886 60.6738 196.575C60.6579 196.572 60.6418 196.57 60.6255 196.568C60.5335 196.557 60.4239 196.548 60.264 196.58C60.1107 196.608 59.8697 196.714 59.7176 196.925C59.4306 197.378 59.5597 197.642 59.5915 197.807C59.7001 198.139 59.8459 198.32 60.0166 198.505C60.0282 198.517 60.0399 198.529 60.0517 198.54C60.2595 198.743 60.4792 198.887 60.7345 199C60.8635 199.055 61.0008 199.103 61.174 199.133C61.3486 199.15 61.5611 199.209 61.938 199.013C61.9727 198.993 62.006 198.971 62.0385 198.946C62.3693 198.686 62.4176 198.329 62.4169 198.137C62.4148 197.928 62.3721 197.779 62.3235 197.642C62.223 197.374 62.0823 197.166 61.907 196.978C61.8972 196.968 61.8873 196.957 61.8773 196.947C61.6708 196.741 61.4532 196.586 61.1771 196.466C61.037 196.408 60.8832 196.355 60.6709 196.338C60.4716 196.326 60.123 196.337 59.8107 196.645C59.7819 196.674 59.7555 196.704 59.7317 196.735C59.4617 197.124 59.5095 197.371 59.5151 197.559C59.5345 197.748 59.5805 197.896 59.6341 198.033C59.7431 198.304 59.8884 198.526 60.0531 198.736C60.0588 198.743 60.0645 198.75 60.0702 198.757C60.3021 199.045 60.5639 199.235 60.8107 199.413C61.1211 199.635 61.4294 199.855 61.714 200.114C61.7199 200.12 61.7288 200.123 61.7377 200.123C61.7467 200.124 61.7549 200.123 61.7616 200.118C61.7683 200.114 61.7733 200.108 61.7765 200.099C61.7797 200.091 61.7808 200.081 61.7786 200.074C61.7786 200.074 61.7786 200.074 61.7786 200.074C61.6714 199.703 61.5467 199.322 61.4038 198.957C61.2906 198.666 61.1784 198.393 61.1179 198.164C61.1163 198.158 61.1147 198.152 61.1132 198.146C61.0688 197.978 61.0433 197.8 61.0388 197.654C61.0365 197.582 61.0407 197.516 61.0498 197.49C61.0477 197.465 61.1107 197.48 60.9719 197.694C60.9592 197.71 60.9445 197.727 60.9283 197.743C60.7466 197.917 60.5962 197.896 60.5771 197.895C60.5475 197.89 60.5723 197.888 60.6015 197.897C60.6642 197.915 60.7569 197.967 60.8104 198.018C60.8131 198.021 60.8156 198.023 60.8181 198.026C60.865 198.07 60.9067 198.134 60.92 198.167C60.9273 198.181 60.9238 198.19 60.9229 198.143C60.9238 198.108 60.9277 197.925 61.1276 197.765C61.1467 197.75 61.1662 197.737 61.1861 197.726C61.4003 197.622 61.4164 197.673 61.4118 197.663C61.4035 197.662 61.3644 197.652 61.3249 197.635C61.2433 197.601 61.1507 197.539 61.0961 197.484C61.093 197.481 61.09 197.478 61.0871 197.475C61.0423 197.433 61.0018 197.35 61.0161 197.381C61.0051 197.399 61.1088 197.488 60.9154 197.808C60.8099 197.956 60.6432 198.024 60.5666 198.037C60.4839 198.052 60.4535 198.045 60.4393 198.044C60.4369 198.044 60.435 198.044 60.4336 198.044C60.4947 198.048 60.858 198.219 61.0964 198.373C61.355 198.534 61.6121 198.722 61.8125 198.911C61.8215 198.919 61.8303 198.928 61.8388 198.936C61.9435 199.037 62.0364 199.154 62.0968 199.262C62.1266 199.313 62.1476 199.369 62.1494 199.376C62.1522 199.374 62.1398 199.373 62.1523 199.266C62.1631 199.213 62.1752 199.108 62.2992 198.965C62.4233 198.816 62.6625 198.749 62.7676 198.759C62.783 198.759 62.7976 198.76 62.8112 198.762C61.9745 198.689 61.1453 198.446 60.6325 197.979C60.6253 197.972 60.6182 197.966 60.6112 197.959C60.5305 197.885 60.4296 197.757 60.3551 197.631C60.3178 197.57 60.2849 197.503 60.2705 197.465C60.2631 197.451 60.2635 197.429 60.2696 197.495C60.2627 197.534 60.3044 197.59 60.182 197.823C60.1215 197.936 59.9497 198.075 59.804 198.107C59.6656 198.143 59.5814 198.128 59.5263 198.118C59.5364 198.12 59.5465 198.122 59.5567 198.124C60.0635 198.217 60.5376 198.302 60.966 198.436C61.387 198.556 61.7727 198.801 61.7951 198.905C61.7947 198.904 61.7943 198.903 61.794 198.902C61.7961 198.887 61.7767 198.891 61.8308 198.814C61.8994 198.729 61.9971 198.752 61.9185 198.742C61.9149 198.742 61.9108 198.741 61.9064 198.74C61.6089 198.669 61.0848 198.327 60.6505 198.018C60.3581 197.811 60.0651 197.591 59.7686 197.369Z" fill="#26190B"/>
<path d="M70.2146 217.328C70.2272 217.512 70.3124 217.683 70.4515 217.805C70.5906 217.926 70.7722 217.987 70.9563 217.974C71.1404 217.962 71.312 217.876 71.4332 217.737C71.5545 217.598 71.6156 217.417 71.6029 217.233C71.6029 217.233 71.6029 217.233 71.6029 217.233C71.5907 217.054 71.5826 216.876 71.5795 216.699C71.5545 215.635 71.7469 214.514 72.3541 214.054C72.3544 214.054 72.3548 214.054 72.3551 214.053C72.4613 213.968 72.5937 213.944 72.6621 213.964C72.7317 213.985 72.759 214.01 72.8349 214.098C72.8349 214.098 72.835 214.098 72.835 214.098C73.1099 214.449 73.33 215.388 73.2972 216.011C73.2972 216.012 73.2972 216.012 73.2971 216.012C73.2727 216.412 73.3519 216.738 72.9631 216.995C72.9629 216.995 72.9626 216.995 72.9624 216.995C72.7918 217.102 72.5974 217.183 72.3735 217.25C72.2139 217.298 72.0402 217.34 71.8556 217.384C71.7067 217.419 71.5779 217.512 71.4977 217.643C71.4174 217.773 71.3922 217.93 71.4277 218.079C71.4631 218.228 71.5562 218.356 71.6866 218.437C71.8169 218.517 71.9738 218.542 72.1227 218.507C72.1227 218.507 72.1227 218.507 72.1227 218.507C72.3072 218.463 72.5029 218.417 72.7067 218.355C72.9915 218.27 73.2946 218.15 73.5748 217.974C73.5752 217.973 73.5756 217.973 73.576 217.973C74.1958 217.655 74.8567 216.839 74.8566 216.093C74.8566 216.093 74.8566 216.092 74.8566 216.092C74.8501 215.011 74.7414 214.15 73.9844 213.112C73.9843 213.112 73.9842 213.112 73.9841 213.112C73.7051 212.777 73.2081 212.512 72.7214 212.517C72.2349 212.514 71.8205 212.704 71.4941 212.96C71.4934 212.961 71.4927 212.961 71.4919 212.962C70.237 214.028 70.1952 215.524 70.1881 216.723C70.1917 216.926 70.2009 217.128 70.2146 217.328Z" fill="#26190B"/>
<path d="M83.4898 178.427C83.3026 178.553 83.173 178.748 83.1297 178.969C83.0864 179.191 83.1328 179.421 83.2589 179.608C83.3849 179.795 83.5801 179.925 83.8016 179.968C84.0232 180.011 84.2528 179.965 84.4401 179.839C84.4401 179.839 84.4401 179.839 84.4401 179.839C84.6 179.731 84.7583 179.625 84.9159 179.52C85.892 178.866 86.8627 178.318 87.9212 177.91C87.9235 177.909 87.9257 177.908 87.928 177.907C89.3991 177.348 91.0233 176.936 92.5676 176.73C92.5725 176.73 92.5774 176.729 92.5822 176.729C93.1308 176.671 93.5638 176.493 93.8698 176.431C93.9971 176.425 94.1703 176.519 94.3316 176.668C94.3501 176.686 94.3699 176.702 94.3919 176.712C94.4139 176.722 94.4365 176.725 94.4577 176.719C94.4789 176.714 94.4974 176.701 94.5121 176.682C94.5267 176.662 94.5366 176.639 94.5447 176.615C94.6129 176.391 94.6342 176.116 94.4913 175.831C94.2593 175.379 93.7635 175.172 93.4091 175.084C93.0377 174.994 92.6988 174.99 92.381 175.027C92.3752 175.027 92.3695 175.028 92.3637 175.029C90.5972 175.268 88.9635 175.698 87.3108 176.321C87.3082 176.322 87.3057 176.323 87.3031 176.324C86.1198 176.778 84.9891 177.42 83.975 178.102C83.8112 178.21 83.6497 178.319 83.4898 178.427Z" fill="#26190B"/>
<path d="M85.2676 179.284C85.2195 179.081 85.0929 178.906 84.9157 178.797C84.7386 178.688 84.5253 178.654 84.3229 178.702C84.1205 178.75 83.9456 178.877 83.8365 179.054C83.7274 179.231 83.6932 179.444 83.7413 179.647C83.8833 180.243 84.0336 180.877 84.1768 181.484C85.757 188.251 87.3468 195.044 88.5674 201.85C88.5688 201.858 88.5701 201.866 88.5715 201.874C88.976 204.043 88.5536 206.238 88.73 208.779C88.73 208.78 88.73 208.78 88.73 208.78L88.7263 208.652C88.6344 210.591 88.7363 212.428 88.3861 214.152L88.3927 214.122C88.3925 214.122 88.3924 214.123 88.3922 214.124C88.3429 214.331 88.3067 214.533 88.2746 214.722C88.1703 215.358 88.0706 215.957 87.9543 216.574C87.9145 216.786 87.9609 217.006 88.0833 217.185C88.2057 217.363 88.3942 217.486 88.6071 217.525C88.82 217.565 89.0399 217.518 89.2183 217.396C89.3967 217.273 89.5191 217.085 89.5585 216.872C89.5585 216.872 89.5585 216.872 89.5585 216.872C89.6756 216.247 89.7817 215.603 89.8807 214.994C89.9106 214.816 89.9404 214.652 89.9769 214.498C89.977 214.497 89.9771 214.497 89.9772 214.496L89.9838 214.466C90.3765 212.492 90.2583 210.541 90.3466 208.732L90.3429 208.605C90.3429 208.605 90.3429 208.605 90.3429 208.604C90.1747 206.518 90.5624 204.036 90.1177 201.608C90.1163 201.6 90.1149 201.592 90.1135 201.584C88.8765 194.689 87.2879 187.91 85.7038 181.124C85.5603 180.516 85.4096 179.88 85.2676 179.284Z" fill="#26190B"/>
<path d="M93.4301 174.893C93.347 174.704 93.192 174.555 92.9992 174.48C92.8064 174.405 92.5915 174.409 92.402 174.492C92.2124 174.575 92.0637 174.73 91.9884 174.923C91.9132 175.116 91.9176 175.331 92.0007 175.52C92.0007 175.52 92.0007 175.52 92.0007 175.52C92.3177 176.243 92.6239 176.968 92.9169 177.698C93.9879 180.36 94.8778 183.109 95.7567 185.872C95.7575 185.875 95.7582 185.877 95.759 185.879C97.4604 191.268 98.6827 196.813 99.3395 202.403C99.3398 202.406 99.34 202.408 99.3403 202.41C99.7014 206.011 100.566 209.647 100.878 213.075L100.878 212.963C100.878 212.964 100.878 212.965 100.878 212.965C100.758 214.98 100.223 216.93 99.4488 218.833C99.4062 218.938 99.3642 219.041 99.3203 219.146C99.32 219.147 99.3197 219.148 99.3194 219.149C99.0584 219.816 98.8662 220.181 98.4474 220.589C98.2872 220.747 98.1963 220.962 98.1949 221.187C98.1935 221.412 98.2817 221.628 98.44 221.788C98.5983 221.949 98.8136 222.04 99.0385 222.041C99.2635 222.042 99.4796 221.954 99.6394 221.796C99.6394 221.796 99.6394 221.796 99.6394 221.796C100.218 221.267 100.665 220.397 100.884 219.792C100.882 219.795 100.882 219.795 100.883 219.794C100.928 219.683 100.972 219.575 101.017 219.463C101.827 217.459 102.419 215.281 102.545 213.073C102.545 213.073 102.545 213.072 102.545 213.071L102.545 212.959C102.188 209.2 101.355 205.805 100.987 202.215C100.987 202.212 100.986 202.21 100.986 202.208C100.301 196.494 98.9753 190.884 97.2469 185.408C97.2461 185.405 97.2453 185.403 97.2445 185.401C96.3625 182.628 95.4628 179.845 94.3653 177.116C94.0656 176.369 93.7525 175.628 93.4301 174.893Z" fill="#26190B"/>
<path d="M89.4493 214.832C89.2343 214.826 89.0259 214.906 88.8698 215.054C88.7137 215.202 88.6228 215.406 88.617 215.621C88.6112 215.836 88.691 216.044 88.8389 216.2C88.9868 216.356 89.1907 216.447 89.4056 216.453C89.4056 216.453 89.4056 216.453 89.4056 216.453C89.8225 216.464 90.2366 216.479 90.6482 216.501C92.4205 216.586 94.1424 216.84 95.85 217.291C95.8585 217.293 95.867 217.295 95.8755 217.298C96.9684 217.578 97.8587 218.268 98.9379 219.095C98.9454 219.1 98.9529 219.105 98.9603 219.111C98.8775 219.06 98.8045 218.943 98.7917 218.89C98.775 218.835 98.7809 218.833 98.775 218.855C98.767 218.9 98.7233 219.018 98.6749 219.096C98.6742 219.098 98.6734 219.099 98.6727 219.1C98.0628 220.156 96.3486 220.508 94.6754 220.646L95.1502 220.735C95.1429 220.731 95.1355 220.728 95.1282 220.724C93.3168 219.824 91.7408 218.507 90.5585 216.875L90.5951 216.93C90.595 216.929 90.5948 216.929 90.5946 216.929C90.526 216.818 90.4337 216.697 90.3174 216.576C89.9376 216.159 89.3251 215.931 88.8543 215.845C88.752 215.826 88.634 215.853 88.5321 215.907C88.4299 215.961 88.3521 216.038 88.3102 216.132C88.2682 216.227 88.2638 216.336 88.2923 216.448C88.321 216.56 88.3803 216.665 88.4627 216.729C88.4627 216.729 88.4627 216.729 88.4627 216.729C88.7655 216.976 88.8482 217.277 88.9478 217.556C88.9832 217.647 89.0285 217.747 89.0972 217.858C89.0973 217.858 89.0975 217.858 89.0977 217.859L89.1343 217.913C90.4753 219.768 92.297 221.287 94.3391 222.3C94.3474 222.305 94.3557 222.309 94.364 222.313L94.5889 222.425L94.8388 222.402C96.5454 222.207 98.8407 222.075 100.189 220.018C100.192 220.014 100.194 220.009 100.197 220.004C100.361 219.723 100.471 219.443 100.518 219.073C100.538 218.888 100.542 218.673 100.468 218.416C100.4 218.162 100.206 217.86 99.9495 217.691C99.9435 217.687 99.9374 217.682 99.9312 217.678C98.951 216.974 97.7171 216.086 96.2852 215.729C96.2762 215.726 96.2672 215.724 96.2583 215.722C94.4621 215.246 92.5802 214.969 90.7329 214.881C90.3036 214.859 89.876 214.844 89.4493 214.832Z" fill="#26190B"/>
<path d="M80.6203 217.38C80.4147 217.429 80.2369 217.557 80.1261 217.737C80.0153 217.917 79.9805 218.134 80.0294 218.339C80.0784 218.545 80.2069 218.723 80.3869 218.834C80.5669 218.944 80.7835 218.979 80.9891 218.93C81.123 218.898 81.2568 218.867 81.3907 218.835C82.0765 218.672 82.7619 218.509 83.4481 218.345C83.4485 218.345 83.4488 218.345 83.4492 218.345C84.5112 218.094 85.5844 217.85 86.603 217.686C86.6039 217.686 86.6048 217.686 86.6057 217.686C87.245 217.584 87.6307 217.528 88.2916 217.598C88.4212 217.609 88.5553 217.623 88.6919 217.636C88.8139 217.649 88.9413 217.633 89.0519 217.576C89.1626 217.519 89.2469 217.426 89.2881 217.314C89.3293 217.202 89.325 217.077 89.2777 216.961C89.2305 216.846 89.1438 216.752 89.0425 216.682C89.0425 216.682 89.0425 216.682 89.0425 216.682C88.9208 216.601 88.7948 216.523 88.6624 216.45C88.0483 216.065 87.0484 215.937 86.3591 216.076C86.3581 216.076 86.357 216.076 86.356 216.076C85.2102 216.261 84.1514 216.543 83.0804 216.795C83.08 216.795 83.0797 216.795 83.0793 216.795C82.3931 216.958 81.7077 217.121 81.0219 217.284C80.888 217.316 80.7541 217.348 80.6203 217.38Z" fill="#26190B"/>
<path d="M100.242 218.302C100.076 218.453 99.977 218.664 99.9666 218.889C99.9561 219.113 100.035 219.332 100.187 219.498C100.338 219.664 100.549 219.764 100.773 219.774C100.998 219.784 101.217 219.705 101.383 219.554C101.383 219.554 101.383 219.554 101.383 219.554C101.804 219.17 102.194 218.818 102.615 218.44C107.465 214.227 112.302 209.643 118.181 207.446C118.198 207.44 118.215 207.433 118.233 207.427C120.387 206.618 122.58 205.819 124.73 204.893C124.756 204.882 124.783 204.87 124.809 204.859C125.746 204.469 126.755 204.116 127.746 203.797C127.777 203.787 127.807 203.777 127.836 203.766C127.846 203.762 127.856 203.758 127.866 203.754C128.119 203.658 128.356 203.514 128.584 203.321C128.697 203.224 128.808 203.116 128.916 202.995C128.971 202.935 129.024 202.871 129.078 202.805C129.104 202.772 129.131 202.738 129.157 202.703C129.171 202.686 129.183 202.668 129.197 202.65C129.203 202.642 129.21 202.633 129.217 202.624C129.219 202.621 129.22 202.619 129.222 202.617C129.223 202.616 129.224 202.615 129.225 202.613C129.225 202.613 129.226 202.613 129.226 202.613C129.228 202.612 129.22 202.614 129.231 202.611C129.233 202.61 129.234 202.61 129.243 202.607C129.25 202.599 129.247 202.62 129.298 202.56C129.31 202.55 129.329 202.478 129.305 202.44C129.286 202.4 129.247 202.382 129.237 202.379C129.206 202.369 129.203 202.372 129.195 202.372C129.164 202.373 129.175 202.374 129.171 202.374C129.168 202.375 129.167 202.375 129.167 202.375C129.167 202.375 129.167 202.375 129.167 202.375C129.167 202.375 129.167 202.375 129.167 202.375C129.166 202.376 129.166 202.376 129.165 202.377C129.16 202.382 129.159 202.386 129.154 202.391C129.139 202.411 129.125 202.432 129.116 202.453C129.107 202.474 129.104 202.495 129.108 202.515C129.113 202.534 129.125 202.551 129.143 202.566C129.16 202.581 129.182 202.593 129.205 202.604C129.212 202.607 129.215 202.61 129.22 202.612C129.221 202.612 129.221 202.613 129.221 202.613C129.221 202.613 129.221 202.613 129.221 202.613C129.221 202.613 129.221 202.613 129.221 202.613C129.221 202.613 129.222 202.613 129.219 202.614C129.215 202.614 129.226 202.615 129.195 202.616C129.187 202.615 129.184 202.619 129.153 202.609C129.143 202.606 129.104 202.588 129.085 202.548C129.061 202.509 129.08 202.438 129.092 202.428C129.143 202.368 129.14 202.389 129.147 202.381C129.156 202.378 129.157 202.378 129.159 202.377C129.168 202.374 129.162 202.376 129.163 202.376C129.163 202.375 129.163 202.375 129.163 202.375C129.162 202.374 129.161 202.374 129.16 202.373C129.157 202.372 129.155 202.371 129.152 202.369C129.142 202.365 129.131 202.36 129.122 202.355C129.101 202.347 129.081 202.337 129.061 202.329C129.021 202.311 128.979 202.295 128.94 202.279C128.858 202.248 128.779 202.221 128.699 202.197C128.541 202.148 128.385 202.115 128.232 202.094C127.927 202.054 127.635 202.069 127.358 202.138C127.347 202.141 127.336 202.144 127.325 202.147C127.293 202.155 127.261 202.165 127.23 202.175C126.186 202.511 125.173 202.87 124.143 203.3C124.112 203.313 124.086 203.324 124.061 203.335C121.963 204.239 119.809 205.026 117.635 205.842C117.617 205.848 117.6 205.855 117.582 205.862C111.209 208.278 106.392 212.934 101.483 217.179C101.06 217.56 100.667 217.915 100.242 218.302Z" fill="#26190B"/>
<path d="M100.281 220.483C100.059 220.529 99.8656 220.661 99.7418 220.85C99.618 221.04 99.5744 221.27 99.6207 221.492C99.6669 221.713 99.7992 221.907 99.9884 222.031C100.178 222.154 100.408 222.198 100.63 222.152C100.63 222.152 100.63 222.152 100.63 222.152C101.237 222.025 101.844 221.901 102.451 221.781C105.419 221.193 108.381 220.696 111.371 220.427C111.382 220.426 111.393 220.425 111.404 220.424C115.314 220.018 118.421 217.645 121.121 215.399C121.123 215.398 121.124 215.397 121.126 215.396C124.02 212.809 125.521 209.484 127.206 206.46L127.134 206.57C127.134 206.57 127.134 206.57 127.134 206.57C127.82 205.67 128.483 204.753 129.121 203.816C129.237 203.644 129.352 203.472 129.467 203.3C129.469 203.297 129.472 203.293 129.474 203.29L129.452 203.321C129.561 203.167 129.624 202.974 129.624 202.778C129.622 202.731 129.622 202.681 129.587 202.658C129.577 202.653 129.565 202.65 129.536 202.656C129.498 202.657 129.494 202.69 129.265 202.698C129.142 202.708 128.898 202.596 128.823 202.448C128.753 202.329 128.756 202.25 128.757 202.219C128.763 202.139 128.782 202.136 128.794 202.126C128.896 202.128 128.957 202.305 129.039 202.438C129.056 202.47 129.072 202.499 129.088 202.523C129.105 202.547 129.122 202.564 129.143 202.573C129.165 202.582 129.189 202.583 129.217 202.579C129.246 202.574 129.279 202.565 129.313 202.556C129.313 202.556 129.313 202.556 129.313 202.556C129.476 202.496 129.621 202.483 129.762 202.281C129.778 202.246 129.8 202.218 129.803 202.11C129.803 202.068 129.803 201.974 129.727 201.845C129.644 201.685 129.388 201.569 129.251 201.578C128.996 201.588 128.969 201.634 128.909 201.648C128.857 201.669 128.824 201.682 128.795 201.692C128.68 201.736 128.609 201.761 128.537 201.791C128.26 201.904 128.075 202.043 127.939 202.224L127.917 202.256C127.914 202.259 127.912 202.263 127.91 202.266C127.799 202.433 127.687 202.6 127.575 202.766C126.958 203.675 126.317 204.57 125.654 205.447C125.654 205.447 125.654 205.447 125.654 205.447L125.582 205.557C123.903 208.644 122.348 211.871 119.963 214.002C119.962 214.003 119.96 214.004 119.959 214.006C117.322 216.247 114.478 218.407 111.247 218.726C111.236 218.727 111.225 218.728 111.214 218.729C108.151 219.005 105.116 219.515 102.12 220.108C101.507 220.229 100.894 220.355 100.281 220.483Z" fill="#26190B"/>
<path d="M99.5525 219.801C99.3269 219.755 99.092 219.8 98.8996 219.927C98.7072 220.053 98.573 220.251 98.5266 220.477C98.4801 220.703 98.5252 220.938 98.6519 221.13C98.7786 221.322 98.9765 221.457 99.2022 221.503C99.2022 221.503 99.2022 221.503 99.2022 221.503C100.062 221.68 100.921 221.855 101.782 222.027C105.868 222.826 109.949 223.662 114.187 223.98C114.267 223.985 114.347 223.99 114.426 223.995C119.318 224.181 123.995 222.894 128.205 220.338C128.326 220.256 128.456 220.163 128.574 220.071C130.545 218.518 131.591 216.466 133.063 215.043C133.164 214.943 133.266 214.846 133.37 214.751C133.999 214.173 134.583 213.565 135.105 212.814C135.214 212.653 135.32 212.484 135.421 212.291C135.507 212.086 135.713 211.8 135.525 211.203C135.422 210.921 135.198 210.717 135.033 210.622C134.866 210.522 134.725 210.48 134.614 210.451C134.156 210.35 133.884 210.378 133.586 210.389C133.011 210.424 132.5 210.502 131.987 210.577C130.988 210.72 129.934 210.909 129.158 210.855C129.125 210.852 129.091 210.849 129.056 210.846C128.33 210.768 127.55 210.841 126.887 210.953C126.863 210.957 126.839 210.961 126.814 210.965C126.099 211.088 125.399 211.269 124.716 211.505C123.845 211.807 123.001 212.202 122.218 212.699C122.074 212.792 121.961 212.932 121.911 213.099C121.86 213.265 121.875 213.443 121.953 213.595C122.031 213.748 122.167 213.863 122.332 213.92C122.497 213.976 122.676 213.967 122.836 213.903C122.836 213.903 122.836 213.903 122.836 213.903C123.612 213.601 124.408 213.358 125.213 213.154C125.844 212.995 126.482 212.86 127.12 212.75C127.142 212.746 127.164 212.742 127.185 212.739C127.804 212.636 128.332 212.568 128.904 212.626C128.935 212.629 128.968 212.631 129.001 212.634C130.264 212.7 131.235 212.47 132.249 212.331C132.748 212.256 133.242 212.183 133.688 212.155C133.901 212.14 134.136 212.15 134.184 212.166C134.191 212.166 134.178 212.168 134.118 212.134C134.063 212.103 133.933 211.994 133.874 211.832C133.775 211.48 133.885 211.45 133.852 211.478C133.798 211.583 133.726 211.7 133.645 211.818C133.256 212.383 132.728 212.939 132.178 213.441C132.054 213.553 131.934 213.668 131.816 213.784C130.121 215.469 129.056 217.481 127.497 218.674C127.41 218.741 127.308 218.815 127.21 218.882C123.538 221.141 118.887 222.46 114.531 222.261C114.456 222.256 114.381 222.251 114.304 222.246C110.259 221.945 106.183 221.119 102.122 220.324C101.266 220.152 100.41 219.978 99.5525 219.801Z" fill="#26190B"/>
<path d="M101.179 221.145C101.133 220.952 101.013 220.786 100.844 220.682C100.676 220.579 100.473 220.546 100.28 220.592C100.088 220.638 99.9216 220.758 99.8179 220.926C99.7142 221.095 99.6816 221.298 99.7274 221.49C99.8381 221.955 99.9471 222.405 100.062 222.869C100.896 226.328 101.975 229.753 103.03 233.111L103.061 233.192C103.061 233.192 103.061 233.192 103.061 233.193C104.903 237.326 106.934 241.313 108.791 245.371C108.794 245.378 108.795 245.378 108.795 245.378C108.985 245.782 109.178 246.184 109.381 246.589C109.594 247.016 109.84 247.475 110.097 247.886C110.214 248.077 110.402 248.214 110.621 248.265C110.84 248.316 111.071 248.278 111.263 248.159C111.455 248.039 111.592 247.849 111.643 247.631C111.694 247.412 111.656 247.183 111.536 246.993C111.536 246.993 111.536 246.993 111.536 246.993C111.29 246.609 111.087 246.241 110.874 245.828C110.676 245.446 110.482 245.055 110.29 244.661C110.29 244.661 110.29 244.661 110.29 244.661C108.37 240.6 106.232 236.646 104.427 232.592C104.426 232.592 104.426 232.592 104.426 232.591L104.457 232.673C103.388 229.273 102.338 225.942 101.51 222.511C101.397 222.052 101.289 221.606 101.179 221.145Z" fill="#26190B"/>
<path d="M102.782 222.609C102.629 222.477 102.429 222.41 102.226 222.425C102.024 222.439 101.835 222.534 101.702 222.687C101.57 222.841 101.503 223.041 101.518 223.243C101.532 223.446 101.627 223.634 101.78 223.767C101.78 223.767 101.78 223.767 101.78 223.767C102.204 224.134 102.628 224.5 103.055 224.865C105.342 226.824 107.672 228.778 110.189 230.506C110.191 230.507 110.192 230.507 110.193 230.508C114.142 233.109 118.339 234.83 122.482 236.773C122.486 236.775 122.489 236.776 122.492 236.778L122.534 236.795C124.908 237.701 127.26 238.567 129.905 238.992C129.998 239.004 130.096 239.016 130.195 239.025C130.2 239.025 130.204 239.025 130.208 239.026C130.439 239.043 130.75 239.034 131.092 238.892C131.436 238.758 131.751 238.429 131.815 238.093C131.822 238.024 131.827 237.955 131.817 237.892C131.807 237.828 131.782 237.774 131.741 237.735C131.7 237.695 131.645 237.673 131.581 237.666C131.518 237.659 131.449 237.667 131.381 237.678C131.381 237.678 131.381 237.678 131.381 237.678C131.122 237.686 130.996 237.581 130.875 237.513C130.752 237.444 130.59 237.389 130.355 237.366C130.352 237.366 130.349 237.366 130.346 237.365C130.276 237.359 130.199 237.35 130.124 237.34C127.814 236.974 125.426 236.137 123.125 235.267L123.167 235.284C123.163 235.283 123.16 235.281 123.157 235.28C119.033 233.379 114.734 231.676 111.061 229.248C111.06 229.247 111.059 229.246 111.058 229.245C108.616 227.569 106.329 225.654 104.051 223.703C103.627 223.34 103.205 222.975 102.782 222.609Z" fill="#26190B"/>
<path d="M110.831 246.625C110.819 246.45 110.739 246.288 110.607 246.174C110.476 246.059 110.304 246.002 110.13 246.014C109.956 246.026 109.794 246.107 109.679 246.238C109.565 246.37 109.507 246.541 109.519 246.715C109.519 246.715 109.519 246.715 109.519 246.715C109.529 247.772 109.17 249.138 108.887 250.379C108.767 250.88 108.644 251.38 108.519 251.883C108.518 251.886 108.517 251.889 108.516 251.893C107.434 256.222 105.983 260.465 104.775 264.827C104.771 264.842 104.767 264.856 104.763 264.871C104.14 267.224 104.069 269.567 103.833 271.831C103.831 271.85 103.829 271.87 103.827 271.89C103.525 274.733 103.774 277.588 104.107 280.344C104.111 280.372 104.114 280.4 104.117 280.427C104.657 283.876 105.028 287.18 107.521 290.446C107.557 290.475 107.594 290.504 107.634 290.532C108.91 291.342 110.126 290.79 110.974 290.469C110.992 290.461 111.011 290.453 111.029 290.445C113.76 289.018 114.248 286.372 115.58 284.645C115.588 284.634 115.596 284.624 115.603 284.613C116.983 282.675 117.633 280.413 118.318 278.365C118.321 278.354 118.325 278.344 118.328 278.333C119.035 276.134 119.141 273.979 119.676 272.003C119.679 271.993 119.681 271.983 119.684 271.974C120.206 270.013 120.476 268.006 120.693 266.044L120.687 266.09C120.687 266.086 120.688 266.082 120.689 266.078C120.748 265.734 120.822 265.403 120.916 265.081C120.988 264.838 121.071 264.601 121.167 264.368C121.167 264.366 121.168 264.364 121.169 264.362C121.519 263.528 121.94 262.56 122.386 261.638C122.438 261.532 122.445 261.405 122.411 261.288C122.377 261.17 122.305 261.071 122.205 261.01C122.106 260.949 121.985 260.929 121.865 260.951C121.744 260.974 121.634 261.037 121.563 261.131C121.563 261.131 121.563 261.131 121.563 261.131C120.949 261.959 120.227 262.703 119.744 263.745C119.743 263.747 119.742 263.75 119.741 263.753C119.613 264.037 119.504 264.33 119.412 264.626C119.29 265.018 119.2 265.417 119.133 265.808C119.132 265.813 119.131 265.818 119.13 265.822L119.124 265.868C118.908 267.817 118.652 269.726 118.162 271.573C118.159 271.582 118.157 271.591 118.154 271.6C117.581 273.767 117.458 275.947 116.84 277.836C116.837 277.845 116.834 277.854 116.831 277.864C116.131 279.985 115.527 282.037 114.329 283.715C114.323 283.725 114.316 283.734 114.309 283.744C112.89 285.753 112.088 288.259 110.427 289.01C110.41 289.017 110.394 289.023 110.377 289.03C109.607 289.368 108.826 289.504 108.523 289.248C108.524 289.249 108.522 289.247 108.517 289.243C106.91 287.099 106.07 283.408 105.663 280.24C105.66 280.213 105.657 280.186 105.653 280.158C105.32 277.422 105.081 274.719 105.356 272.04C105.358 272.02 105.36 272 105.362 271.98C105.591 269.668 105.667 267.371 106.213 265.256C106.217 265.242 106.221 265.228 106.225 265.213C107.376 260.907 108.696 256.596 109.793 252.21C109.794 252.207 109.795 252.203 109.796 252.2C109.921 251.695 110.045 251.192 110.166 250.684C110.45 249.377 110.832 248.193 110.831 246.625Z" fill="#26190B"/>
<path d="M120.519 264.097C120.462 264.303 120.488 264.522 120.593 264.708C120.697 264.894 120.871 265.03 121.076 265.088C121.281 265.145 121.501 265.119 121.687 265.014C121.872 264.91 122.009 264.736 122.066 264.53C122.066 264.53 122.066 264.53 122.066 264.53C122.143 264.255 122.223 263.983 122.305 263.712C123.179 260.728 124.515 257.988 125.742 254.965C125.743 254.963 125.743 254.962 125.744 254.96L125.714 255.031C126.505 253.34 127.5 251.385 127.132 249.158L127.122 249.102C127.121 249.101 127.121 249.1 127.121 249.099C127.08 248.945 127.016 248.795 126.943 248.648C126.81 248.382 126.644 248.123 126.513 247.857C126.478 247.785 126.409 247.726 126.33 247.688C126.25 247.651 126.168 247.639 126.091 247.657C126.014 247.675 125.946 247.723 125.892 247.792C125.838 247.861 125.803 247.946 125.804 248.025C125.807 248.322 125.775 248.628 125.776 248.926C125.777 249.09 125.788 249.252 125.821 249.409C125.821 249.41 125.821 249.41 125.821 249.411L125.81 249.356C126.004 250.987 125.083 252.632 124.268 254.331L124.237 254.402C124.237 254.404 124.236 254.405 124.235 254.407C123.096 257.217 121.666 260.172 120.767 263.246C120.682 263.528 120.599 263.811 120.519 264.097Z" fill="#26190B"/>
<path d="M125.289 237.08C125.241 236.879 125.115 236.706 124.939 236.597C124.764 236.489 124.552 236.455 124.351 236.503C124.15 236.551 123.977 236.676 123.868 236.852C123.76 237.028 123.726 237.24 123.774 237.441C123.841 237.722 123.908 238.008 123.974 238.289C124.705 241.405 125.396 244.534 126.055 247.669C126.055 247.67 126.056 247.671 126.056 247.673L126.041 247.557C126.129 249.039 126.11 250.389 125.829 251.861L125.839 251.811C125.839 251.811 125.839 251.811 125.839 251.811C125.757 252.226 125.647 252.634 125.43 253.135C125.318 253.394 125.191 253.655 125.043 253.906C125.002 253.977 124.99 254.067 125.005 254.154C125.02 254.24 125.061 254.315 125.124 254.367C125.186 254.419 125.268 254.445 125.356 254.444C125.443 254.442 125.53 254.414 125.592 254.36C125.592 254.36 125.592 254.36 125.592 254.36C125.818 254.159 126.052 253.965 126.282 253.75C126.703 253.368 127.172 252.817 127.314 252.154C127.314 252.154 127.314 252.154 127.314 252.154L127.324 252.104C127.633 250.638 127.693 248.975 127.595 247.468L127.58 247.352C127.579 247.351 127.579 247.35 127.579 247.349C126.917 244.202 126.225 241.064 125.49 237.933C125.424 237.65 125.356 237.362 125.289 237.08Z" fill="#26190B"/>
<path d="M131.681 219.423C131.634 219.226 131.511 219.055 131.338 218.949C131.165 218.842 130.957 218.809 130.759 218.856C130.562 218.903 130.391 219.026 130.285 219.199C130.178 219.372 130.145 219.58 130.192 219.778C130.192 219.778 130.192 219.778 130.192 219.778C130.436 221.023 130.584 222.504 130.765 223.886C131.206 227.43 131.671 230.961 132.169 234.5C132.17 234.508 132.171 234.515 132.172 234.522C133.092 240.773 134.741 246.83 136.115 252.878C136.119 252.893 136.122 252.907 136.125 252.922C137.148 256.978 136.953 260.914 136.183 265.087C136.181 265.104 136.178 265.121 136.176 265.138C135.517 269.796 135.323 274.433 135.171 279.075C135.17 279.099 135.169 279.124 135.169 279.149C135.292 283.862 136.513 288.201 139.736 292.042C139.747 292.051 139.757 292.059 139.768 292.068C140.602 292.693 141.439 292.522 142.052 292.396C142.687 292.244 143.242 292.008 143.774 291.759L144.001 291.665L144.134 291.417C144.135 291.416 144.135 291.415 144.136 291.413C144.618 290.389 145.189 289.392 145.713 288.3C145.874 287.959 146.03 287.604 146.154 287.224C146.152 287.23 146.152 287.228 146.153 287.227C146.501 286.234 146.672 285.156 146.862 284.121C146.867 284.091 146.86 284.057 146.843 284.029C146.826 284.001 146.801 283.98 146.771 283.971C146.742 283.961 146.709 283.964 146.679 283.977C146.649 283.99 146.623 284.013 146.61 284.042C146.61 284.042 146.61 284.042 146.61 284.042C146.169 285.003 145.646 285.897 145.181 286.831C145.181 286.833 145.18 286.834 145.179 286.836C145.036 287.14 144.861 287.439 144.676 287.738C144.074 288.697 143.386 289.678 142.818 290.747C142.818 290.748 142.817 290.749 142.816 290.751L143.176 290.409C142.249 290.826 140.96 291.108 140.757 290.845C140.752 290.841 140.747 290.837 140.743 290.833C138.303 287.935 136.774 283.244 136.764 279.195C136.764 279.17 136.765 279.146 136.766 279.122C136.915 274.518 137.112 269.882 137.75 265.375C137.752 265.359 137.755 265.342 137.757 265.325C138.528 261.276 138.749 256.692 137.678 252.579C137.675 252.565 137.672 252.55 137.669 252.535C136.277 246.421 134.585 240.412 133.688 234.309C133.687 234.302 133.686 234.294 133.685 234.287C133.188 230.756 132.725 227.236 132.284 223.695C132.096 222.281 131.978 220.94 131.681 219.423Z" fill="#26190B"/>
<path d="M145.135 285.894C145.07 286.083 145.084 286.291 145.172 286.47C145.26 286.65 145.416 286.787 145.606 286.852C145.795 286.916 146.003 286.903 146.182 286.814C146.362 286.726 146.499 286.57 146.564 286.381C146.813 285.648 147.055 284.922 147.293 284.186C148.091 281.753 148.753 279.27 149.452 276.842C149.452 276.84 149.453 276.839 149.453 276.837C150.214 274.11 151.451 271.608 152.575 268.886C152.575 268.886 152.576 268.886 152.576 268.885C153.44 266.637 153.654 264.396 154.307 262.366C154.308 262.362 154.309 262.359 154.31 262.355C154.965 260.274 155.464 258.1 155.627 255.885L155.621 255.7C155.621 255.697 155.621 255.695 155.62 255.693C155.031 251.682 153.933 247.815 152.872 243.949C152.795 243.673 152.715 243.381 152.639 243.11C152.639 243.11 152.639 243.11 152.639 243.11C152.511 242.651 152.272 242.218 152.089 241.773C152.072 241.733 152.038 241.699 151.996 241.677C151.955 241.656 151.91 241.649 151.868 241.659C151.826 241.669 151.789 241.696 151.761 241.733C151.734 241.771 151.718 241.817 151.721 241.86C151.758 242.341 151.739 242.834 151.832 243.301C151.832 243.302 151.832 243.302 151.832 243.302C151.887 243.578 151.945 243.873 151.998 244.154C152.738 248.075 153.352 252.035 153.923 255.933C153.924 255.935 153.924 255.938 153.924 255.94L153.918 255.754C153.766 257.815 153.319 259.848 152.7 261.856C152.699 261.859 152.698 261.863 152.697 261.866C152.006 264.095 151.786 266.356 151.052 268.29C151.051 268.29 151.051 268.291 151.051 268.291C150.012 270.886 148.788 273.598 148.003 276.417C148.003 276.419 148.002 276.42 148.002 276.422C147.293 278.885 146.645 281.318 145.857 283.722C145.622 284.449 145.382 285.168 145.135 285.894Z" fill="#26190B"/>
<path d="M150.788 241.634C150.712 241.814 150.711 242.017 150.784 242.198C150.858 242.379 151 242.523 151.181 242.599C151.361 242.675 151.563 242.676 151.744 242.603C151.925 242.529 152.07 242.387 152.146 242.207C152.146 242.207 152.146 242.207 152.146 242.207C152.301 241.839 152.45 241.467 152.593 241.094C153.428 238.908 153.986 236.679 154.642 234.513C154.645 234.505 154.647 234.496 154.65 234.488C155.813 230.986 155.887 226.955 155.688 223.535C155.688 223.524 155.688 223.518 155.688 223.513C155.716 222.467 155.765 221.417 155.779 220.344L155.777 220.284C155.777 220.283 155.777 220.281 155.777 220.279C155.772 220.209 155.766 220.139 155.759 220.07C155.71 219.618 155.608 219.204 155.518 218.825C155.471 218.628 155.348 218.458 155.176 218.352C155.003 218.246 154.796 218.213 154.599 218.26C154.403 218.307 154.232 218.43 154.126 218.602C154.02 218.774 153.987 218.981 154.033 219.178C154.124 219.559 154.204 219.908 154.238 220.234C154.244 220.283 154.248 220.333 154.251 220.382C154.251 220.383 154.251 220.384 154.251 220.385L154.25 220.326C154.236 221.357 154.187 222.412 154.159 223.471C154.159 223.476 154.159 223.482 154.158 223.487C154.354 227.282 154.345 230.621 153.238 234.065C153.235 234.074 153.233 234.082 153.23 234.091C152.566 236.288 152.011 238.493 151.215 240.57C151.08 240.926 150.937 241.281 150.788 241.634Z" fill="#26190B"/>
<path d="M153.393 234.615C153.18 234.672 152.999 234.811 152.888 235.001C152.778 235.192 152.748 235.418 152.805 235.631C152.862 235.844 153.001 236.025 153.192 236.136C153.382 236.246 153.609 236.276 153.821 236.219C153.821 236.219 153.821 236.219 153.821 236.219C155.249 235.837 156.689 235.414 158.092 234.829C162.426 232.962 165.963 230.101 169.654 227.501C169.661 227.496 169.668 227.491 169.675 227.486C174.916 223.742 179.978 219.427 184.334 214.83C184.337 214.828 184.34 214.825 184.343 214.823C187.929 211.461 190.951 207.682 193.841 203.805C193.842 203.803 193.843 203.801 193.845 203.799C196.849 199.737 199.413 195.357 201.73 190.93C201.731 190.928 201.732 190.925 201.734 190.923C203.876 186.721 204.984 182.315 206.221 177.957L206.243 177.852C206.243 177.851 206.243 177.85 206.243 177.849C206.398 176.822 206.549 175.8 206.72 174.791C206.844 174.058 206.979 173.332 207.133 172.612L207.138 172.589C207.138 172.588 207.138 172.588 207.138 172.587C207.294 171.856 207.099 170.947 206.582 170.291C206.551 170.25 206.517 170.211 206.476 170.183C206.436 170.155 206.392 170.141 206.347 170.143C206.303 170.146 206.261 170.166 206.225 170.2C206.189 170.233 206.16 170.276 206.135 170.321C205.729 171.077 205.476 171.593 205.344 172.251C205.344 172.251 205.344 172.251 205.344 172.252L205.349 172.229C205.187 172.981 205.048 173.736 204.922 174.488C204.748 175.524 204.598 176.554 204.445 177.579C204.444 177.58 204.444 177.581 204.444 177.582L204.466 177.478C203.255 181.794 202.114 186.219 200.147 190.077C200.146 190.079 200.145 190.081 200.144 190.083C197.841 194.504 195.355 198.775 192.425 202.754C192.424 202.756 192.423 202.757 192.422 202.759C189.589 206.578 186.58 210.327 183.163 213.542C183.16 213.545 183.158 213.547 183.155 213.549C178.663 218.294 173.937 222.388 168.701 226.142C168.694 226.147 168.687 226.152 168.68 226.157C165.013 228.749 161.432 231.596 157.454 233.296C156.157 233.837 154.794 234.24 153.393 234.615Z" fill="#26190B"/>
<path d="M94.1521 177.812C93.9722 177.883 93.8278 178.022 93.7507 178.199C93.6736 178.377 93.6701 178.578 93.741 178.757C93.8119 178.937 93.9513 179.082 94.1287 179.159C94.306 179.236 94.5067 179.239 94.6866 179.169C94.6866 179.169 94.6866 179.169 94.6866 179.169C96.2304 178.562 97.7575 177.895 99.2517 177.171C103.172 175.263 106.917 173.087 110.66 170.914C110.663 170.912 110.665 170.911 110.668 170.909C118.334 166.335 125.711 161.374 133.134 156.522C133.139 156.519 133.144 156.516 133.149 156.512C139.308 152.498 145.2 148.075 150.984 143.612C150.991 143.606 150.998 143.601 151.004 143.596C153.857 141.36 156.343 138.888 159.048 136.709C159.055 136.703 159.061 136.698 159.068 136.693C163.032 133.529 166.147 129.5 169.61 126.174C169.611 126.173 169.611 126.173 169.612 126.172L169.658 126.126C170.049 125.708 170.429 125.282 170.8 124.851C171.398 124.156 171.975 123.447 172.531 122.723C172.532 122.722 172.533 122.72 172.534 122.719L172.553 122.694C172.982 122.085 173.344 121.106 172.908 120.204C172.891 120.176 172.872 120.15 172.849 120.131C172.826 120.111 172.799 120.1 172.772 120.099C172.744 120.098 172.717 120.108 172.693 120.127C172.668 120.145 172.648 120.17 172.63 120.197C172.63 120.197 172.63 120.197 172.63 120.197C172.105 120.799 171.552 121.099 171.149 121.693L171.167 121.669C171.166 121.67 171.165 121.671 171.164 121.672C170.623 122.376 170.072 123.07 169.503 123.745C169.15 124.163 168.789 124.573 168.419 124.971L168.465 124.925C168.464 124.926 168.464 124.926 168.463 124.927C164.803 128.465 161.811 132.354 158.015 135.388C158.008 135.394 158.002 135.399 157.995 135.404C155.217 137.653 152.705 140.178 150.01 142.289C150.004 142.294 149.997 142.3 149.99 142.305C144.192 146.783 138.363 151.156 132.254 155.144C132.249 155.148 132.244 155.151 132.238 155.154C124.809 160.019 117.512 165.128 109.933 169.649C109.93 169.651 109.928 169.653 109.925 169.654C106.194 171.821 102.459 173.988 98.617 175.858C97.1521 176.568 95.6676 177.217 94.1521 177.812Z" fill="#26190B"/>
<path d="M196.032 149.902C195.818 149.815 195.578 149.816 195.365 149.906C195.152 149.996 194.984 150.166 194.897 150.38C194.809 150.594 194.811 150.834 194.901 151.047C194.99 151.26 195.161 151.428 195.375 151.515C195.375 151.515 195.375 151.515 195.375 151.515C196.13 151.823 196.869 152.123 197.617 152.425C204.753 155.126 211.134 158.414 219.321 159.966C219.343 159.963 219.36 159.96 219.378 159.958C226.313 158.913 233.034 157.119 239.671 154.93C240.102 154.778 240.55 154.617 240.987 154.432L240.999 154.427C241.024 154.415 241.047 154.405 241.07 154.394C241.147 154.358 241.217 154.308 241.287 154.244C241.324 154.211 241.357 154.177 241.406 154.128C241.417 154.116 241.434 154.099 241.453 154.08C241.465 154.068 241.48 154.053 241.498 154.032C241.522 153.985 241.572 154.022 241.615 153.757C241.641 153.615 241.464 153.416 241.422 153.413C241.363 153.38 241.314 153.372 241.299 153.37C241.255 153.364 241.231 153.367 241.215 153.369C241.178 153.374 241.163 153.381 241.146 153.387C240.935 153.496 240.833 153.627 240.684 153.727C240.667 153.739 240.653 153.762 240.644 153.785C240.635 153.809 240.632 153.832 240.637 153.852C240.642 153.873 240.654 153.892 240.673 153.909C240.692 153.926 240.715 153.94 240.736 153.943C240.9 153.971 241.108 154.017 241.216 154.084C241.219 154.088 241.222 154.094 241.207 154.098C241.2 154.101 241.188 154.104 241.153 154.1C241.141 154.098 241.099 154.093 241.044 154.062C241.005 154.061 240.834 153.867 240.858 153.73C240.9 153.475 240.944 153.518 240.959 153.48C240.971 153.465 240.978 153.457 240.981 153.451C240.986 153.442 240.984 153.439 240.98 153.436C240.96 153.428 240.922 153.431 240.886 153.434C240.813 153.44 240.738 153.457 240.667 153.487C240.646 153.495 240.624 153.505 240.601 153.514L240.613 153.509C240.212 153.662 239.768 153.805 239.344 153.936C232.737 155.836 225.905 157.216 219.135 158.233C219.118 158.236 219.101 158.238 219.084 158.24C212.551 156.84 205.152 153.489 198.27 150.81C197.523 150.508 196.786 150.209 196.032 149.902Z" fill="#26190B"/>
<path d="M211.685 100.047C211.474 99.9998 211.253 100.038 211.071 100.154C210.888 100.27 210.759 100.454 210.712 100.665C210.665 100.876 210.704 101.097 210.82 101.28C210.936 101.462 211.119 101.591 211.33 101.638C211.33 101.638 211.33 101.638 211.33 101.638C211.779 101.738 212.217 101.839 212.66 101.945C216.902 102.932 220.982 104.335 224.371 106.977C224.372 106.978 224.373 106.979 224.374 106.979L224.26 106.876C226.641 109.507 229.048 112.232 231.172 114.943C231.172 114.944 231.172 114.944 231.172 114.944L231.208 114.99C231.414 115.24 231.649 115.476 231.878 115.681C232.257 116.018 232.632 116.305 233.008 116.588C233.192 116.727 233.425 116.787 233.653 116.755C233.882 116.722 234.089 116.599 234.228 116.414C234.367 116.229 234.427 115.996 234.394 115.767C234.361 115.539 234.239 115.332 234.054 115.194C234.054 115.194 234.054 115.194 234.054 115.194C233.695 114.926 233.344 114.655 233.037 114.383C232.85 114.217 232.691 114.057 232.541 113.878L232.577 113.924C232.577 113.924 232.577 113.924 232.577 113.924C230.276 111.028 227.879 108.449 225.465 105.778L225.352 105.675C225.351 105.674 225.35 105.673 225.349 105.673C221.766 102.871 217.328 101.35 213.038 100.359C212.587 100.251 212.14 100.148 211.685 100.047Z" fill="#26190B"/>
<path d="M231.966 114.977C231.784 115.131 231.671 115.352 231.652 115.59C231.633 115.828 231.709 116.064 231.864 116.245C232.018 116.427 232.239 116.54 232.477 116.559C232.715 116.579 232.951 116.502 233.133 116.348C233.133 116.348 233.133 116.348 233.133 116.348C233.471 116.06 233.795 115.784 234.128 115.5C237.378 112.835 240.414 109.714 243.966 107.933L243.834 107.986C243.845 107.982 243.856 107.979 243.866 107.976C247.327 106.904 250.608 105.474 253.984 104.34C254.011 104.33 254.039 104.321 254.066 104.312C254.089 104.304 254.107 104.298 254.125 104.292C254.309 104.228 254.474 104.118 254.653 103.983C254.678 103.965 254.698 103.949 254.737 103.922C254.754 103.912 254.75 103.914 254.799 103.884C254.816 103.873 254.807 103.882 254.861 103.838C254.889 103.809 254.947 103.781 254.997 103.621C255.02 103.548 255.02 103.402 254.945 103.289C254.874 103.182 254.796 103.146 254.75 103.126C254.652 103.09 254.636 103.099 254.624 103.096C254.61 103.095 254.599 103.095 254.59 103.096C254.572 103.096 254.557 103.097 254.551 103.098C254.5 103.107 254.491 103.115 254.474 103.123C254.413 103.152 254.372 103.181 254.326 103.21C254.237 103.268 254.151 103.324 254.063 103.374C254.019 103.4 253.982 103.448 253.959 103.501C253.936 103.555 253.929 103.608 253.94 103.658C253.952 103.707 253.983 103.752 254.027 103.789C254.072 103.826 254.127 103.853 254.178 103.856C254.278 103.861 254.381 103.872 254.48 103.887C254.528 103.895 254.581 103.902 254.616 103.914C254.621 103.918 254.638 103.921 254.61 103.928C254.606 103.929 254.596 103.93 254.581 103.931C254.573 103.931 254.564 103.931 254.551 103.93C254.539 103.927 254.526 103.936 254.429 103.901C254.384 103.881 254.307 103.846 254.236 103.739C254.162 103.627 254.162 103.481 254.184 103.409C254.234 103.25 254.292 103.223 254.318 103.195C254.368 103.155 254.359 103.164 254.373 103.154C254.408 103.132 254.398 103.136 254.401 103.132C254.396 103.124 254.371 103.124 254.35 103.122C254.163 103.114 253.957 103.118 253.776 103.168C253.758 103.173 253.74 103.178 253.722 103.183C253.698 103.189 253.669 103.197 253.641 103.204C250.156 104.133 246.719 105.209 243.336 106.255C243.326 106.258 243.315 106.262 243.305 106.265L243.173 106.317C239.14 108.374 236.232 111.464 232.96 114.13C232.627 114.414 232.304 114.689 231.966 114.977Z" fill="#26190B"/>
<path d="M240.586 150.511C240.482 150.727 240.467 150.975 240.545 151.201C240.623 151.427 240.788 151.613 241.004 151.717C241.219 151.822 241.467 151.837 241.693 151.758C241.919 151.68 242.105 151.515 242.209 151.3C242.209 151.3 242.209 151.3 242.209 151.3C242.432 150.842 242.655 150.383 242.877 149.925C243.463 148.714 244.05 147.506 244.621 146.274C244.622 146.274 244.622 146.274 244.622 146.274C245.408 144.497 246.366 142.873 247.273 141.147C247.273 141.147 247.273 141.147 247.273 141.147C250.025 135.96 252.791 130.742 255.412 125.458C255.639 125.001 255.865 124.543 256.091 124.084C256.207 123.848 256.224 123.575 256.139 123.326C256.055 123.077 255.874 122.872 255.638 122.756C255.403 122.64 255.13 122.623 254.881 122.708C254.632 122.792 254.427 122.973 254.311 123.209C254.311 123.209 254.311 123.209 254.311 123.209C254.086 123.665 253.861 124.12 253.635 124.574C251.022 129.831 248.27 135.017 245.511 140.218C245.511 140.218 245.511 140.218 245.511 140.218C244.607 141.936 243.767 143.744 242.983 145.517C242.983 145.517 242.983 145.517 242.983 145.517C242.425 146.721 241.837 147.93 241.253 149.137C241.031 149.595 240.809 150.053 240.586 150.511Z" fill="#26190B"/>
<path d="M254.831 122.493C254.614 122.447 254.387 122.489 254.2 122.61C254.014 122.731 253.883 122.921 253.836 123.138C253.79 123.356 253.832 123.583 253.953 123.769C254.074 123.956 254.264 124.087 254.482 124.133C254.482 124.133 254.482 124.133 254.482 124.133C255.212 124.289 255.942 124.442 256.673 124.591C260.219 125.327 263.874 125.903 267.502 126.123C267.528 126.125 267.554 126.127 267.579 126.129C268.583 126.165 269.516 126.605 270.955 126.586C270.985 126.584 271.015 126.582 271.045 126.58C271.942 126.488 272.543 126.01 273.002 125.464C273.024 125.437 273.045 125.409 273.066 125.381C274.921 122.605 273.354 119.92 272.968 117.745C272.967 117.744 272.967 117.743 272.967 117.742C272.358 114.363 269.349 111.956 267.022 110.302L266.875 110.208C266.858 110.199 266.841 110.191 266.824 110.182C264.537 109.023 262.205 107.961 259.906 106.828C259.771 106.761 259.636 106.695 259.501 106.627L259.49 106.621C259.487 106.62 259.484 106.618 259.481 106.617C258.911 106.344 258.192 106.473 257.576 106.463C257.572 106.463 257.568 106.465 257.564 106.468C257.56 106.471 257.557 106.474 257.555 106.478C257.554 106.481 257.554 106.486 257.555 106.49C257.557 106.495 257.559 106.499 257.562 106.502C257.562 106.502 257.562 106.502 257.562 106.502C258.053 106.896 258.432 107.458 258.908 107.729C258.911 107.731 258.913 107.732 258.916 107.734L258.905 107.728C259.036 107.805 259.166 107.881 259.297 107.958C261.518 109.264 263.748 110.561 266.043 111.724C266.06 111.732 266.076 111.741 266.093 111.749L265.946 111.655C268.518 113.517 270.723 115.274 271.294 118.137C271.294 118.138 271.294 118.139 271.295 118.14C271.836 120.471 272.822 122.937 271.704 124.347C271.693 124.361 271.683 124.374 271.672 124.388C271.452 124.67 271.102 124.875 270.91 124.883C270.893 124.884 270.876 124.885 270.859 124.887C270.08 124.937 268.903 124.522 267.698 124.456C267.673 124.454 267.647 124.452 267.622 124.45C264.034 124.23 260.54 123.679 257.007 122.947C256.283 122.8 255.558 122.648 254.831 122.493Z" fill="#26190B"/>
<path d="M211.586 165.974C211.374 165.955 211.163 166.022 210.999 166.159C210.836 166.295 210.733 166.492 210.715 166.704C210.696 166.917 210.762 167.128 210.899 167.291C211.036 167.455 211.232 167.557 211.445 167.576C211.445 167.576 211.445 167.576 211.445 167.576C211.905 167.617 212.365 167.658 212.825 167.698C219.519 168.282 226.208 168.905 232.931 169.359C232.932 169.359 232.933 169.359 232.934 169.359C234.54 169.453 236.117 169.565 237.803 169.502C238.281 169.483 238.852 169.409 239.317 169.288C239.524 169.239 239.704 169.109 239.816 168.927C239.927 168.746 239.963 168.527 239.913 168.319C239.864 168.112 239.734 167.933 239.552 167.821C239.371 167.709 239.152 167.674 238.945 167.723C238.516 167.832 238.163 167.874 237.723 167.896C236.216 167.953 234.614 167.848 233.036 167.754C233.035 167.754 233.034 167.754 233.032 167.754C226.358 167.303 219.656 166.68 212.967 166.096C212.507 166.055 212.047 166.015 211.586 165.974Z" fill="#26190B"/>
<path d="M236.976 167.215C236.755 167.268 236.565 167.406 236.446 167.599C236.327 167.792 236.289 168.025 236.342 168.245C236.394 168.466 236.532 168.657 236.726 168.776C236.919 168.895 237.151 168.932 237.372 168.88C237.751 168.79 238.13 168.699 238.508 168.609C243.248 167.482 247.987 166.355 252.724 165.228C252.725 165.228 252.726 165.227 252.726 165.227C254.505 164.789 256.211 164.459 258.078 163.882C258.079 163.881 258.08 163.881 258.081 163.881C258.42 163.765 258.746 163.592 259.022 163.394C259.355 163.155 259.633 162.888 259.92 162.587C259.986 162.518 260.043 162.439 260.072 162.349C260.101 162.259 260.099 162.166 260.065 162.085C260.03 162.004 259.965 161.939 259.88 161.897C259.796 161.855 259.699 161.84 259.604 161.84C259.604 161.84 259.604 161.84 259.604 161.84C259.173 161.841 258.749 161.909 258.376 162C258.065 162.075 257.795 162.155 257.52 162.249C257.519 162.249 257.518 162.249 257.518 162.25C255.921 162.746 254.077 163.135 252.33 163.563C252.33 163.563 252.329 163.563 252.328 163.563C247.591 164.69 242.852 165.817 238.113 166.945C237.734 167.035 237.355 167.125 236.976 167.215Z" fill="#26190B"/>
<path d="M246.263 143.772C246.029 143.797 245.816 143.915 245.669 144.098C245.522 144.281 245.454 144.515 245.479 144.749C245.505 144.982 245.622 145.196 245.805 145.343C245.988 145.49 246.222 145.558 246.456 145.532C246.456 145.532 246.456 145.532 246.456 145.532C246.695 145.506 246.939 145.49 247.186 145.482C249.931 145.427 252.781 146.151 255.491 147.075C255.491 147.075 255.491 147.075 255.491 147.075L255.447 147.058C256.94 147.689 258.614 148.115 259.697 149.084C259.698 149.084 259.698 149.084 259.698 149.085L259.657 149.027C259.749 149.144 259.856 149.263 259.967 149.401C260.123 149.595 260.283 149.826 260.415 150.069C260.429 150.095 260.456 150.116 260.486 150.129C260.516 150.143 260.547 150.147 260.575 150.14C260.603 150.134 260.629 150.116 260.65 150.091C260.67 150.065 260.685 150.034 260.686 150.005C260.694 149.728 260.731 149.439 260.703 149.131C260.684 148.914 260.63 148.689 260.522 148.485L260.48 148.428C260.48 148.428 260.48 148.428 260.479 148.427C259.267 146.904 257.681 146.095 256.114 145.417L256.07 145.401C256.07 145.401 256.07 145.401 256.07 145.401C253.226 144.44 250.284 143.658 247.129 143.712C246.842 143.721 246.554 143.74 246.263 143.772Z" fill="#26190B"/>
<path d="M258.354 162.657C258.218 162.479 258.017 162.363 257.796 162.333C257.574 162.303 257.35 162.363 257.172 162.498C256.994 162.634 256.878 162.835 256.848 163.056C256.818 163.278 256.878 163.502 257.013 163.68C257.013 163.68 257.013 163.68 257.013 163.68C257.339 164.107 257.666 164.531 258 164.954C258.929 166.084 259.721 167.228 261.116 168.257C261.147 168.277 261.177 168.297 261.208 168.316C262.106 168.818 262.847 168.622 263.438 168.522C263.476 168.514 263.513 168.506 263.549 168.498C264.533 168.324 265.363 167.519 265.807 166.865C265.837 166.822 265.865 166.782 265.895 166.738C269.672 161.255 267.248 154.368 264.469 149.494L264.424 149.42C264.41 149.398 264.395 149.377 264.381 149.355C264.023 148.826 263.521 148.321 262.953 147.975C262.939 147.966 262.925 147.958 262.911 147.949C262.473 147.69 262.114 147.534 261.751 147.349C261.282 147.116 260.82 146.877 260.355 146.628C260.145 146.516 259.9 146.492 259.672 146.561C259.445 146.63 259.254 146.786 259.142 146.995C259.029 147.204 259.005 147.45 259.073 147.677C259.142 147.905 259.298 148.096 259.507 148.208C259.507 148.208 259.507 148.208 259.507 148.208C259.983 148.465 260.463 148.716 260.948 148.958C261.317 149.144 261.71 149.326 261.978 149.488C261.987 149.493 261.996 149.498 262.005 149.504C262.365 149.726 262.65 150.004 262.904 150.372C262.914 150.386 262.924 150.401 262.934 150.416L262.889 150.342C265.647 155.141 267.581 161.23 264.433 165.741C264.41 165.775 264.388 165.807 264.364 165.84C263.969 166.387 263.659 166.708 263.157 166.821C263.128 166.828 263.098 166.835 263.069 166.842C262.609 166.962 262.165 166.952 262.094 166.881C262.079 166.872 262.062 166.861 262.045 166.85C261.124 166.188 260.19 164.988 259.323 163.909C258.998 163.497 258.675 163.079 258.354 162.657Z" fill="#26190B"/>
<path d="M186.095 109.057C185.982 109.249 185.95 109.477 186.007 109.692C186.063 109.907 186.202 110.091 186.394 110.204C186.585 110.316 186.814 110.348 187.029 110.292C187.244 110.236 187.428 110.097 187.541 109.905C187.541 109.905 187.541 109.905 187.541 109.905C188.681 107.941 189.265 105.791 189.655 103.663C190.41 99.3292 190.382 94.9859 190.177 90.6835C190.176 90.6815 190.176 90.6795 190.176 90.6775C190.028 86.5122 188.8 82.4866 187.522 78.6566C187.521 78.6533 187.52 78.65 187.519 78.6467C185.185 71.7884 182.517 65.0831 179.575 58.4725C179.57 58.4624 179.566 58.4522 179.561 58.442C177.078 52.9004 174.241 47.4648 170.791 42.4228C170.781 42.4078 170.771 42.3928 170.76 42.3778C166.832 36.6198 162.42 31.1593 157.344 26.3496C157.33 26.3355 157.315 26.3216 157.301 26.3079C156.08 25.1488 154.87 24.0127 153.558 22.8959C153.54 22.8802 153.521 22.865 153.504 22.8503C153.673 22.9538 153.779 23.3456 153.731 23.4572C153.704 23.5872 153.68 23.599 153.679 23.6053C153.676 23.6077 153.722 23.5533 153.776 23.5072C153.886 23.4091 154.04 23.3048 154.189 23.2262C154.192 23.2242 154.196 23.2222 154.2 23.2203C158.985 21.8253 165.054 24.3928 170.334 26.1037L170.227 26.0566C170.23 26.0582 170.233 26.0599 170.236 26.0615C171.528 26.7417 172.814 27.4466 174.053 28.2311C174.522 28.5288 174.984 28.8385 175.43 29.1644C175.431 29.1653 175.432 29.1661 175.433 29.167C176.648 30.0254 177.76 31.0512 178.861 32.1519C178.892 32.1831 178.937 32.2009 178.983 32.203C179.029 32.2049 179.073 32.1909 179.107 32.1626C179.141 32.1342 179.162 32.0934 179.168 32.0476C179.174 32.0019 179.165 31.955 179.139 31.9187C179.139 31.9187 179.139 31.9187 179.139 31.9187C178.265 30.6578 177.401 29.2943 176.188 28.2397C176.186 28.2387 176.185 28.2377 176.184 28.2366C175.75 27.8472 175.303 27.4736 174.846 27.1139C173.641 26.1667 172.365 25.3099 171.007 24.5951C171.004 24.5934 171 24.5916 170.997 24.5899L170.89 24.5428C165.363 22.8845 159.968 19.9736 153.449 21.788C153.442 21.7914 153.436 21.7948 153.429 21.7983C153.171 21.9377 152.938 22.0923 152.702 22.3004C152.583 22.4081 152.465 22.5193 152.333 22.714C152.269 22.8171 152.19 22.9326 152.141 23.177C152.07 23.4014 152.212 23.9195 152.476 24.0951C152.491 24.108 152.508 24.1215 152.525 24.1356C153.755 25.1832 154.969 26.3467 156.169 27.4916C156.184 27.5053 156.198 27.5191 156.212 27.5331C161.185 32.2591 165.517 37.6247 169.384 43.3136C169.394 43.3283 169.404 43.3431 169.414 43.3578C172.789 48.3076 175.536 53.655 177.992 59.1461C177.997 59.1561 178.001 59.1662 178.006 59.1763C180.915 65.7242 183.575 72.4213 185.88 79.1956C185.881 79.1989 185.882 79.2021 185.883 79.2054C187.157 83.027 188.362 86.8159 188.502 90.7631C188.502 90.765 188.502 90.7669 188.502 90.7688C188.706 94.9996 188.723 99.2611 188.005 103.366C187.639 105.378 187.08 107.367 186.095 109.057Z" fill="#26190B"/>
<path d="M177.801 32.3216C177.849 32.5246 177.976 32.7 178.154 32.8094C178.331 32.9188 178.545 32.9531 178.748 32.9048C178.951 32.8566 179.127 32.7296 179.236 32.552C179.345 32.3743 179.38 32.1605 179.331 31.9575C179.331 31.9575 179.331 31.9575 179.331 31.9575C179.195 31.3839 179.059 30.8148 178.941 30.2534C178.871 29.9192 178.807 29.5858 178.764 29.2685C178.763 29.2671 178.763 29.2658 178.763 29.2645C178.719 28.9787 178.754 28.7294 178.804 28.7012C178.838 28.6838 178.893 28.6433 179.093 28.5312C179.095 28.5299 179.097 28.5286 179.1 28.5273C180.724 27.6409 182.912 27.7185 184.858 28.2379C184.858 28.238 184.858 28.238 184.858 28.238C189.487 29.7232 193.417 33.7245 196.33 37.8316L196.242 37.6695C196.244 37.673 196.245 37.6764 196.247 37.6799C196.782 38.9889 197.659 40.3604 198.018 41.8589C198.019 41.8608 198.019 41.8628 198.02 41.8648C198.156 42.4364 198.291 43.0071 198.427 43.5783C198.564 44.152 198.7 44.726 198.837 45.2998C198.859 45.3954 198.919 45.478 199.003 45.5296C199.087 45.5811 199.187 45.5973 199.283 45.5745C199.379 45.5518 199.461 45.492 199.513 45.4083C199.564 45.3246 199.58 45.2238 199.558 45.1282C199.421 44.5544 199.285 43.9805 199.148 43.4068C199.012 42.8356 198.877 42.2649 198.741 41.6933C198.74 41.6913 198.74 41.6893 198.739 41.6873C198.379 40.188 198.558 38.5382 197.931 36.9836C197.93 36.9795 197.928 36.9754 197.926 36.9713L197.839 36.8091C194.674 32.4118 190.852 28.2896 185.341 26.4641C185.341 26.464 185.34 26.464 185.34 26.464C183.079 25.8791 180.526 25.7147 178.227 26.9544C178.222 26.957 178.217 26.9597 178.213 26.9623C177.861 27.157 177.385 27.5488 177.213 28.1461C177.055 28.7278 177.167 29.1351 177.204 29.4776C177.205 29.4792 177.205 29.4809 177.205 29.4825C177.258 29.862 177.327 30.2211 177.401 30.5758C177.526 31.1692 177.665 31.7474 177.801 32.3216Z" fill="#26190B"/>
<path d="M198.569 45.6178C198.56 45.8109 198.628 45.9995 198.759 46.1421C198.889 46.2848 199.071 46.3698 199.264 46.3784C199.457 46.3871 199.646 46.3187 199.788 46.1882C199.931 46.0578 200.016 45.8761 200.025 45.683C200.025 45.683 200.025 45.683 200.025 45.683C200.087 44.4143 200.176 43.1157 200.494 41.9973C200.563 41.7658 200.645 41.5465 200.74 41.368C200.743 41.3633 200.745 41.3586 200.748 41.354C201.614 39.7929 203.899 39.2091 205.887 39.0773C205.903 39.0766 205.918 39.0761 205.933 39.0758C207.283 39.0016 208.092 41.638 208.89 43.6524C208.918 43.7227 208.945 43.7924 208.972 43.8614C210.292 46.8552 210.062 49.8398 209.94 53.3294C209.94 53.4147 209.94 53.5007 209.939 53.5872C209.914 57.6073 209.781 61.6412 209.559 65.6595C209.556 65.721 209.552 65.783 209.548 65.8456C209.349 68.8342 208.841 71.8488 208.456 74.9279C208.451 74.9737 208.445 75.0196 208.439 75.0656C208.149 77.3408 207.537 79.6325 207.08 82.0193C207.073 82.0551 207.066 82.091 207.06 82.1268C206.657 84.2635 206.295 86.3722 205.784 88.4228C205.778 88.4471 205.772 88.4713 205.766 88.4955C205.246 90.5817 204.807 92.6934 204.422 94.7958L204.435 94.7348C204.432 94.7475 204.428 94.7602 204.425 94.7728C204.138 95.9319 203.834 97.0783 203.544 98.2658C203.439 98.7026 203.335 99.1432 203.255 99.6279L203.269 99.5604C203.268 99.5638 203.267 99.5673 203.266 99.5708C203.085 100.271 202.784 101.178 202.56 101.998C202.487 102.259 202.52 102.538 202.652 102.775C202.785 103.011 203.007 103.185 203.268 103.259C203.529 103.332 203.809 103.299 204.045 103.166C204.282 103.034 204.456 102.812 204.529 102.551C204.529 102.551 204.529 102.551 204.529 102.551C204.756 101.716 205.004 100.996 205.254 100.037C205.255 100.032 205.257 100.027 205.258 100.022L205.271 99.9546C205.333 99.5755 205.429 99.1596 205.528 98.7441C205.806 97.602 206.116 96.4333 206.404 95.2643C206.407 95.2516 206.411 95.2388 206.414 95.2259L206.427 95.1649C206.807 93.0824 207.226 91.0251 207.733 88.9822C207.739 88.9585 207.745 88.9348 207.751 88.911C208.282 86.7662 208.651 84.6121 209.047 82.5022C209.053 82.4668 209.06 82.4314 209.067 82.3962C209.5 80.1009 210.107 77.7697 210.411 75.3102C210.417 75.2604 210.423 75.2105 210.429 75.1607C210.789 72.1526 211.29 69.1013 211.487 65.9624C211.491 65.896 211.494 65.8301 211.498 65.7645C211.705 61.7091 211.829 57.6576 211.833 53.5914C211.833 53.5038 211.833 53.4168 211.833 53.3304C211.938 50.2264 212.14 46.3431 210.657 43.1914C210.627 43.1173 210.596 43.0426 210.565 42.9673C210.145 41.9625 209.765 40.877 209.18 39.7998C208.64 38.8033 207.601 37.3388 205.873 37.4253C205.84 37.4268 205.806 37.4289 205.772 37.4316C203.502 37.6901 200.891 38.2771 199.467 40.6576C199.463 40.6657 199.459 40.6737 199.454 40.6819C199.292 40.9882 199.185 41.288 199.097 41.5825C198.708 42.972 198.638 44.2944 198.569 45.6178Z" fill="#26190B"/>
<path d="M172.387 120.078C172.239 120.206 172.148 120.387 172.134 120.582C172.119 120.777 172.183 120.97 172.311 121.118C172.438 121.266 172.619 121.357 172.814 121.371C173.009 121.386 173.202 121.322 173.35 121.194C173.35 121.194 173.35 121.194 173.35 121.194C173.573 121.002 173.796 120.81 174.018 120.617C176.72 118.284 179.425 115.959 182.11 113.597C182.11 113.597 182.111 113.597 182.111 113.596C183.011 112.808 183.972 111.959 184.809 111.212C184.809 111.211 184.809 111.211 184.809 111.211C185.151 110.931 185.611 110.621 186.032 110.307C186.272 110.13 186.51 109.952 186.748 109.772C186.914 109.646 187.023 109.46 187.051 109.254C187.079 109.048 187.023 108.839 186.897 108.673C186.77 108.507 186.583 108.398 186.377 108.371C186.172 108.343 185.963 108.398 185.798 108.525C185.798 108.525 185.798 108.525 185.798 108.525C185.566 108.703 185.335 108.878 185.102 109.052C184.688 109.366 184.277 109.638 183.812 110.025C183.812 110.025 183.812 110.025 183.811 110.025C182.859 110.894 182.053 111.688 181.136 112.492C181.135 112.492 181.135 112.492 181.135 112.492C178.464 114.842 175.755 117.17 173.056 119.502C172.833 119.694 172.61 119.886 172.387 120.078Z" fill="#26190B"/>
<path d="M50.7525 231.07C55.9418 225.043 50.8689 219.958 47.7862 218.6L40.43 228.923C42.6964 232.263 48.2803 231.848 50.7525 231.07Z" fill="#26190B"/>
<defs>
<linearGradient id="paint0_linear_101_24" x1="130.161" y1="28.7704" x2="190.074" y2="280.636" gradientUnits="userSpaceOnUse">
<stop stop-color="#3C3A36"/>
<stop offset="1" stop-color="#272523"/>
</linearGradient>
<linearGradient id="paint1_linear_101_24" x1="57.0942" y1="162.732" x2="69.3112" y2="179.909" gradientUnits="userSpaceOnUse">
<stop stop-color="#C9C1C1"/>
<stop offset="1" stop-color="#DF949C"/>
</linearGradient>
<linearGradient id="paint2_linear_101_24" x1="141.251" y1="213.349" x2="147.23" y2="238.483" gradientUnits="userSpaceOnUse">
<stop stop-color="#2E2C29"/>
<stop offset="1" stop-color="#2C2A27"/>
</linearGradient>
<linearGradient id="paint3_linear_101_24" x1="45.4793" y1="173.055" x2="51.3096" y2="197.564" gradientUnits="userSpaceOnUse">
<stop stop-color="#DF6602"/>
<stop offset="1" stop-color="#793701"/>
</linearGradient>
<linearGradient id="paint4_linear_101_24" x1="101.989" y1="173.016" x2="114.167" y2="224.212" gradientUnits="userSpaceOnUse">
<stop stop-color="#DF6602"/>
<stop offset="1" stop-color="#793701"/>
</linearGradient>
</defs>
</svg>
