<svg width="166" height="168" viewBox="0 0 166 168" fill="none" xmlns="http://www.w3.org/2000/svg">
<path d="M29.6786 87.3608C31.4294 86.7662 34.776 86.8907 39.5998 90.1395C40.2312 90.5648 41.0731 90.5449 41.6568 90.0561C42.6776 89.2012 44.2384 89.8445 44.3602 91.1704L44.4901 92.5842C44.5307 93.0253 44.9525 93.3282 45.3834 93.2257C45.9669 93.0869 46.4584 93.6739 46.2194 94.2239L45.959 94.823C45.6457 95.5441 46.2033 96.3421 46.9881 96.2959L50.0922 96.113C50.3923 96.0953 50.6758 96.0153 50.9381 95.8684C62.1192 89.6103 85.5182 75.0911 92.7606 65.2856C94.8779 62.9472 99.4611 58.2818 100.856 58.3274C102.543 58.3826 104.725 36.3901 84.6696 14.7008C83.6944 13.6461 84.101 12.0055 85.5371 11.9755C87.3475 11.9378 89.6041 12.3361 91.9277 13.66C93.5105 14.5618 97.835 14.3406 99.4945 15.092C101.012 15.7789 103.105 17.3246 105.95 20.2191C106.079 20.3502 106.174 20.5193 106.216 20.6982C106.46 21.7249 108.143 21.7861 108.861 21.0129C110.042 19.7418 111.642 19.9326 113.415 24.5158C115.773 30.6123 113.492 42.1659 111.203 50.1647C110.693 51.9492 112.94 54.0821 114.789 54.2501C117.894 54.5323 121.564 56.414 124.545 61.8602C124.617 61.691 124.717 61.5312 124.846 61.3875C127.09 58.8845 131.555 55.404 136.62 55.9536C143.884 56.7418 148.971 66.2259 146.285 67.494C144.626 68.2773 141.345 67.4714 138.938 66.6249C137.905 66.2615 136.735 66.7063 136.282 67.7033L133.135 74.631C132.505 76.0177 133.608 77.6398 135.11 77.8961C138.384 78.455 142.238 80.2404 143.444 84.666C143.5 84.8702 143.516 85.0857 143.495 85.2963C143.201 88.2307 142.129 92.2986 139.85 89.241C139.308 88.5138 138.423 88.079 137.54 88.2889L127.58 90.6581C127.38 90.7057 127.174 90.7221 126.969 90.7068L114.213 89.7545C113.57 89.7065 112.943 89.9715 112.53 90.4662L82.666 126.189C82.4497 126.447 82.3023 126.757 82.2376 127.088L81.7099 129.787C81.6551 130.067 81.661 130.355 81.727 130.633L83.357 137.485C83.4299 137.792 83.4305 138.108 83.3554 138.414C81.7141 145.103 78.1255 157.471 76.015 156.867C73.4146 156.122 72.0391 144.584 73.6828 139.245C73.8021 138.857 73.8352 138.447 73.7414 138.053L71.3742 128.101C71.1186 127.027 70.0402 126.363 68.9656 126.618L68.6894 126.684C67.6148 126.94 66.9509 128.018 67.2065 129.093L68.4065 134.137C68.5213 134.62 68.4527 135.128 68.2142 135.562L64.6506 142.056C64.4963 142.337 64.4134 142.649 64.3997 142.97C64.2307 146.929 63.0479 153.905 59.5044 155.668C58.8405 155.998 58.0717 155.667 57.7535 154.997C56.2751 151.885 55.0533 144.538 58.841 132.932C59.0123 132.407 58.9694 131.832 58.7163 131.341C56.8385 127.701 53.7982 121.127 54.073 118.838C54.3558 116.482 38.2958 113.797 29.1967 112.604C28.4692 112.509 27.8491 112.032 27.6227 111.334C26.2919 107.231 25.3123 100.23 29.3076 96.688C29.9676 96.103 30.3723 95.2327 30.1682 94.3747L28.9126 89.096C28.7419 88.3787 28.9805 87.5979 29.6786 87.3608Z" fill="url(#paint0_linear_1908_10388)"/>
<path d="M34.8654 90.8908C33.2792 90.1948 31.6357 91.7468 32.2399 93.3702C32.6561 94.4886 33.9665 94.979 35.0147 94.4085C36.4462 93.6295 36.3577 91.5456 34.8654 90.8908Z" fill="url(#paint1_linear_1908_10388)"/>
<path d="M27.6418 110.185C26.2941 103.639 28.4488 94.1409 47.8485 108.524L70.2996 118.281C73.8679 117.526 78.4854 116.019 83.194 113.647C94.2918 108.056 105.896 97.6602 105.461 80.98L117.842 85.4264L113.227 89.8268C112.261 89.9518 110.436 90.5222 110.867 91.8037C111.405 93.4056 107.97 114.667 82.708 126.81C80.3919 127.676 76.39 128.369 71.6206 127.801C66.0801 127.142 59.5041 124.781 53.332 119.015C51.4801 117.62 46.9172 115.319 43.4808 117.269C39.1853 119.706 28.8854 127.975 21.7777 123.218C23.0987 121.279 26.3051 116.731 28.5623 114.055L27.6418 110.185Z" fill="#D9D9D9"/>
<path d="M71.4877 126.459L70.6076 119.614C70.4925 118.718 70.9914 117.857 71.8252 117.511L80.3658 113.97C81.6085 113.454 82.993 114.287 83.0803 115.63C83.3827 120.277 83.4625 126.53 82.183 127.249C80.8975 127.971 76.5156 128.167 73.4299 128.181C72.4393 128.185 71.614 127.441 71.4877 126.459Z" fill="url(#paint2_linear_1908_10388)"/>
<path d="M29.9539 96.1099C28.1111 96.2966 26.884 100.615 26.5009 102.75L26.7841 103.941C25.9565 104.872 24.1 106.812 23.2948 107.13C22.3456 107.504 23.4048 102.785 26.0115 102.711C24.0267 102.093 19.8508 96.596 22.6684 93.9113C25.5054 91.2082 28.969 94.6143 29.9539 96.1099Z" fill="url(#paint3_linear_1908_10388)"/>
<path d="M39.4585 116.543C39.6173 116.354 39.6676 116.114 39.6479 115.856C39.5766 114.921 38.1241 114.841 38.0372 115.774C37.9617 116.586 38.9344 117.168 39.4585 116.543Z" fill="#E39CA4" fill-opacity="0.97"/>
<path d="M45.4322 96.3614C45.9355 95.6126 47.5504 94.159 49.9827 94.3353C52.0581 100.728 55.4983 113.064 54.6431 116.974C57.1399 112.983 65.6522 109.794 69.5962 108.699C67.6892 111.04 64.2494 115.444 65.7465 114.333C67.2436 113.222 70.7788 113.45 72.3593 113.703C72.6365 113.767 72.3697 114.673 69.084 117.785C65.7983 120.897 56.9578 119.698 52.9482 118.71C51.4078 119.495 50.8565 119.165 50.7785 118.837C49.8926 118.418 48.0062 117.232 47.5472 115.831C46.9735 114.08 49.3623 112.883 45.4322 96.3614Z" fill="url(#paint4_linear_1908_10388)"/>
<path d="M47.5938 105.441L48.4437 109.013L54.6633 113.352L53.9198 110.226L47.5938 105.441Z" fill="#FED571"/>
<path d="M59.1408 113.7L57.679 114.834L62.3648 117.337L63.6033 116.26L59.1408 113.7Z" fill="#FED571"/>
<path d="M64.4845 115.302L63.0228 116.436L67.7086 118.939L68.9471 117.862L64.4845 115.302Z" fill="#FED571"/>
<path d="M61.4064 111.63L59.9447 112.764L64.6304 115.267L65.869 114.19L61.4064 111.63Z" fill="#FED571"/>
<path d="M67.5392 113.63L66.0775 114.764L70.1247 116.906L70.9541 115.765L67.5392 113.63Z" fill="#FED571"/>
<path d="M46.4766 100.131L47.3266 103.704L53.5461 108.043L52.8026 104.917L46.4766 100.131Z" fill="#FED571"/>
<path d="M99.7047 32.3374C98.4616 32.6331 95.7386 29.7685 94.4467 28.0838C94.0573 26.4466 86.5725 16.7989 82.1958 12.2832C89.4311 10.4363 94.3242 15.0073 95.8664 17.5237C95.3623 14.8757 96.7671 14.4786 97.5326 14.6111C102.409 13.9544 106.044 19.9783 107.141 24.5923C107.068 20.5836 109.96 20.357 111.416 20.7447C113.53 22.758 113.481 30.5282 113.192 34.1617C110.969 36.4519 108.892 35.9185 108.131 35.3655C105.871 31.8143 104.663 25.1503 102.604 28.6596C100.031 33.0462 100.598 32.125 99.7047 32.3374Z" fill="#D9D9D9"/>
<path d="M62.347 151.626C60.7834 150.098 58.7784 150.668 57.4757 151.439C56.9131 151.772 56.6566 152.433 56.7946 153.072C57.0517 154.262 57.5798 155.682 58.4763 155.849C59.6613 156.071 61.5505 153.126 62.347 151.626Z" fill="#D9D9D9"/>
<path d="M143.544 84.5976C141.527 83.7541 139.874 85.0243 138.947 86.2211C138.547 86.738 138.553 87.447 138.917 87.99C139.595 89.0017 140.609 90.1261 141.504 89.951C142.687 89.7196 143.357 86.2856 143.544 84.5976Z" fill="#D9D9D9"/>
<path d="M144.931 61.4959C142.809 62.0223 142.24 64.0279 142.211 65.5411C142.198 66.1947 142.626 66.7604 143.242 66.9791C144.39 67.3864 145.874 67.6835 146.488 67.009C147.3 66.1174 145.788 62.9621 144.931 61.4959Z" fill="#D9D9D9"/>
<path d="M78.7879 152.655C77.4104 151.098 75.7356 151.558 74.6388 152.263C74.1196 152.597 73.9112 153.232 74.0399 153.836C74.2983 155.049 74.8072 156.539 75.6006 156.741C76.6291 157.004 78.154 154.126 78.7879 152.655Z" fill="#D9D9D9"/>
<path d="M29.4777 96.408C29.4962 96.5534 29.5717 96.6855 29.6876 96.7753C29.8035 96.865 29.9503 96.905 30.0957 96.8865C30.2412 96.868 30.3733 96.7925 30.463 96.6766C30.5528 96.5607 30.5928 96.4139 30.5743 96.2685C30.5743 96.2685 30.5743 96.2685 30.5743 96.2685C30.5267 95.8944 30.4772 95.5293 30.4234 95.1564C30.0941 92.8472 29.6146 90.5297 29.0114 88.2986C29.0072 88.2815 29.0032 88.2652 28.9995 88.2497C29.0041 88.344 28.9944 88.2569 29.1193 88.1505C29.2315 88.0467 29.398 87.9424 29.5589 87.8699C29.5685 87.8655 29.578 87.8614 29.5874 87.8574C32.1103 87.0358 35.1291 88.861 37.9753 89.8979L37.9613 89.8924C37.9661 89.8943 37.9709 89.8963 37.9757 89.8983C38.5459 90.1323 39.0989 90.3362 39.5462 90.6108C39.5469 90.6112 39.5475 90.6116 39.5482 90.612C39.6582 90.6794 39.7646 90.7425 39.8641 90.8028C40.1118 90.9641 40.3108 91.0414 40.4465 91.2987C40.466 91.3599 40.4957 91.4194 40.5411 91.4649C40.5865 91.5103 40.6433 91.5381 40.7035 91.5424C40.7636 91.5466 40.8238 91.5271 40.8751 91.4884C40.9264 91.4498 40.9641 91.3951 40.992 91.3372C40.992 91.3372 40.992 91.3372 40.992 91.3372C41.1928 90.8336 40.8877 90.2438 40.5706 89.9472C40.4396 89.8173 40.2987 89.7113 40.1541 89.6226C40.1532 89.6221 40.1524 89.6215 40.1515 89.621C39.5601 89.2622 38.9633 89.0533 38.4124 88.8261C38.4077 88.8242 38.403 88.8223 38.3983 88.8204L38.3843 88.8149C35.5557 87.8769 32.752 85.7629 29.1384 86.8129C29.122 86.82 29.1056 86.8273 29.0891 86.8348C28.816 86.9616 28.5725 87.1175 28.339 87.345C28.13 87.5621 27.8043 87.9297 27.9247 88.5085C27.929 88.5263 27.9335 88.5447 27.9382 88.5637C28.5447 90.8107 29.0027 93.0334 29.3293 95.3143C29.3822 95.6809 29.4308 96.04 29.4777 96.408Z" fill="#26190B"/>
<path d="M40.6681 90.3393C40.5625 90.4464 40.5037 90.5911 40.5047 90.7416C40.5057 90.8921 40.5664 91.036 40.6736 91.1417C40.7807 91.2473 40.9254 91.3061 41.0759 91.3051C41.2263 91.3041 41.3702 91.2434 41.4759 91.1363C41.4759 91.1363 41.4759 91.1363 41.4759 91.1363C41.661 90.9487 41.8454 90.7618 42.03 90.5762C42.6792 89.9339 43.3735 89.2097 44.01 88.8035C44.022 88.7966 44.0333 88.7904 44.0437 88.7848C44.0987 88.7541 44.1498 88.7419 44.132 88.7462C44.1248 88.7599 43.9563 88.718 43.9195 88.6574C43.8656 88.5624 43.9459 88.7465 43.9485 88.91C43.9499 88.9263 43.9511 88.9428 43.9523 88.9597C44.0788 90.3106 43.7982 91.4812 43.8667 93.1339C43.8736 93.1791 43.883 93.23 43.8945 93.279C43.9214 93.5065 44.2117 93.8593 44.4836 93.9116C44.7434 93.9813 44.9064 93.9485 45.0512 93.926C45.3334 93.871 45.5416 93.7854 45.7463 93.7024C46.1377 93.5406 46.547 93.33 46.7896 93.2652L46.3711 93.2053C46.3361 93.1852 46.3057 93.1601 46.2835 93.1367C46.1745 93.0006 46.2182 92.9997 46.2119 93.028C46.2141 93.0574 46.2108 93.1136 46.2005 93.1725C46.1801 93.2923 46.136 93.429 46.0777 93.5543C46.0727 93.565 46.0676 93.5756 46.0624 93.5863C45.7982 94.0811 45.2727 94.7109 44.8615 95.2979C44.7067 95.5125 44.5518 95.7297 44.3986 95.947C44.3115 96.0707 44.2774 96.2239 44.3036 96.3729C44.3298 96.5219 44.4142 96.6545 44.5382 96.7414C44.6623 96.8283 44.8157 96.8625 44.9647 96.8364C45.1137 96.8102 45.2461 96.7259 45.3326 96.6018C45.3326 96.6018 45.3326 96.6018 45.3326 96.6018C45.4823 96.3871 45.6335 96.1729 45.7849 95.9613C46.2024 95.3518 46.645 94.873 47.0791 94.0859C47.0877 94.0683 47.0962 94.0506 47.1045 94.0328C47.2003 93.8259 47.2749 93.6126 47.3196 93.3718C47.3412 93.2503 47.3565 93.1229 47.3496 92.9691C47.3325 92.8171 47.3436 92.6223 47.1086 92.3491C47.0626 92.3007 47.0049 92.2537 46.9399 92.2165L46.7421 92.1029L46.5214 92.1565C45.9808 92.3123 45.6712 92.5035 45.309 92.6465C45.1382 92.7174 44.9631 92.7799 44.8451 92.8011C44.7903 92.814 44.746 92.8013 44.8081 92.8147C44.8798 92.8154 45.0223 92.9926 45.0084 93.0179C45.0047 93.0026 45.0009 92.9825 44.9978 92.9619C44.9477 91.8614 45.2211 90.2856 45.0882 88.8792C45.0867 88.8576 45.085 88.8358 45.0831 88.8136C45.0444 88.5746 45.0877 88.3217 44.7694 87.9028C44.599 87.6829 44.21 87.576 44.0001 87.6185C43.7787 87.6478 43.6383 87.7175 43.5107 87.783C43.4882 87.795 43.4658 87.8074 43.4435 87.8203C42.5006 88.4336 41.9124 89.1087 41.2257 89.7758C41.0387 89.9637 40.8532 90.1517 40.6681 90.3393Z" fill="#26190B"/>
<path d="M29.9315 96.8685C30.0427 96.7687 30.1097 96.6288 30.1177 96.4795C30.1258 96.3303 30.0742 96.184 29.9744 96.0728C29.8746 95.9616 29.7346 95.8946 29.5854 95.8866C29.4362 95.8785 29.2899 95.9301 29.1787 96.0299C29.1787 96.0299 29.1787 96.0299 29.1787 96.0299C28.9356 96.2482 28.7154 96.4839 28.5132 96.7295C27.1358 98.4626 26.4409 100.506 26.028 102.575L26.0184 102.664C26.0184 102.666 26.0183 102.668 26.0183 102.669C25.9631 104.107 25.9467 105.618 26.1113 107.081L26.1171 107.121C26.1173 107.122 26.1176 107.124 26.1178 107.125C26.4469 108.93 26.8721 110.674 27.2798 112.429C27.3471 112.715 27.4144 113.002 27.4817 113.288C27.5189 113.446 27.6175 113.583 27.756 113.668C27.8945 113.753 28.0616 113.78 28.2203 113.742C28.3789 113.705 28.5161 113.606 28.6014 113.467C28.6866 113.329 28.713 113.162 28.675 113.004C28.6062 112.718 28.5375 112.432 28.4689 112.147C28.054 110.401 27.6207 108.646 27.2925 106.915C27.2923 106.914 27.2921 106.913 27.2918 106.911L27.2976 106.952C27.1298 105.538 27.0903 104.152 27.1448 102.7C27.1449 102.699 27.1449 102.697 27.145 102.695L27.1354 102.784C27.5119 100.862 28.2005 98.9214 29.3834 97.4456C29.5548 97.2374 29.7375 97.0427 29.9315 96.8685Z" fill="#26190B"/>
<path d="M29.3368 95.6866C29.4127 95.8094 29.5342 95.8969 29.6747 95.9301C29.8152 95.9632 29.9631 95.9392 30.0858 95.8633C30.2086 95.7874 30.2962 95.6658 30.3293 95.5253C30.3624 95.3849 30.3384 95.237 30.2625 95.1142C30.2625 95.1142 30.2625 95.1142 30.2625 95.1142C30.0317 94.7516 29.762 94.5076 29.4844 94.2804C28.1967 93.2841 26.6845 92.7579 25.1117 92.6022C25.1116 92.6022 25.1114 92.6022 25.1113 92.6022C24.0867 92.5527 23.291 92.8912 22.5251 93.3632C22.5244 93.3637 22.5237 93.3641 22.523 93.3646C21.0913 94.3644 21.2869 96.0612 21.3224 97.221L21.3322 97.2983C21.3334 97.3044 21.3346 97.3104 21.3358 97.3164C21.7195 98.9763 22.052 100.738 23.5873 102.115L23.6333 102.147C23.6363 102.149 23.6393 102.151 23.6422 102.152C24.254 102.53 24.8818 102.708 25.4718 102.892C25.7848 102.987 26.0936 103.075 26.4057 103.163C26.5526 103.205 26.7098 103.186 26.8428 103.112C26.9759 103.037 27.0738 102.912 27.1152 102.765C27.1565 102.619 27.1378 102.461 27.0631 102.328C26.9885 102.195 26.864 102.097 26.7171 102.056C26.7171 102.056 26.7171 102.056 26.7171 102.056C26.409 101.969 26.1055 101.883 25.8043 101.792C25.2306 101.616 24.6738 101.445 24.2446 101.176C24.2424 101.174 24.2401 101.173 24.2378 101.172L24.2838 101.203C23.2741 100.349 22.7695 98.6306 22.4487 97.0948C22.4476 97.0892 22.4465 97.0835 22.4453 97.0779L22.4552 97.1552C22.3793 95.9838 22.4045 94.7537 23.1464 94.3058C23.1469 94.3054 23.1474 94.3051 23.1479 94.3048C23.7052 93.9413 24.4504 93.6426 25.0135 93.6862C25.0135 93.6862 25.0136 93.6862 25.0137 93.6862C26.3724 93.8134 27.7556 94.3113 28.8023 95.1284C29.0218 95.3045 29.2263 95.5079 29.3368 95.6866Z" fill="#26190B"/>
<path d="M26.7052 103.19C26.8592 103.153 26.9923 103.057 27.0753 102.922C27.1582 102.787 27.1843 102.625 27.1476 102.471C27.111 102.317 27.0147 102.184 26.88 102.101C26.7452 102.018 26.583 101.992 26.4291 102.029C26.4291 102.029 26.4291 102.029 26.4291 102.029C26.2386 102.074 26.0488 102.126 25.8605 102.187C24.8407 102.508 23.8311 103.103 23.1419 104.01C23.14 104.013 23.1381 104.015 23.1362 104.018C22.437 104.964 22.17 106.142 22.5342 107.336C22.5351 107.338 22.536 107.341 22.5369 107.343L22.6052 107.537L22.7783 107.648C23.3162 107.94 23.6518 107.814 23.9664 107.744C24.2767 107.652 24.554 107.508 24.8092 107.3C24.8094 107.3 24.8096 107.3 24.8098 107.3C25.6665 106.447 25.8037 105.732 26.2369 104.999C26.3202 104.839 26.404 104.68 26.4891 104.52C26.5631 104.381 26.5792 104.218 26.5335 104.067C26.4878 103.916 26.3841 103.789 26.2452 103.715C26.1062 103.64 25.9433 103.624 25.7922 103.669C25.6411 103.715 25.5142 103.818 25.4392 103.957C25.4392 103.957 25.4392 103.957 25.4392 103.957C25.3514 104.119 25.2651 104.28 25.1795 104.441C24.7911 105.138 24.4001 106.069 24.0447 106.371C24.0446 106.371 24.0445 106.371 24.0444 106.372C23.9311 106.465 23.7769 106.546 23.6304 106.589C23.4951 106.643 23.3106 106.594 23.4289 106.638L23.6703 106.943C23.6699 106.941 23.6694 106.94 23.669 106.939C23.4499 106.278 23.6161 105.339 24.0845 104.742C24.086 104.74 24.0874 104.738 24.0888 104.737C24.6013 104.063 25.3675 103.595 26.2244 103.323C26.3818 103.273 26.5424 103.228 26.7052 103.19Z" fill="#26190B"/>
<path d="M28.3738 115.04C28.4736 114.926 28.5242 114.778 28.5144 114.627C28.5047 114.476 28.4354 114.335 28.3219 114.235C28.2084 114.136 28.0599 114.085 27.9091 114.095C27.7583 114.105 27.6175 114.174 27.5177 114.287C27.5177 114.287 27.5177 114.287 27.5177 114.287C27.1418 114.715 26.7654 115.142 26.388 115.57C24.595 117.621 22.7024 119.691 21.3278 122.153C21.3204 122.166 21.313 122.179 21.3056 122.192C21.0771 122.547 21.0889 123.129 21.2895 123.467C21.4783 123.82 21.7287 124.044 22.0065 124.228C22.0155 124.234 22.0245 124.24 22.0334 124.245C24.157 125.472 26.3702 124.861 28.2416 125.069C28.2515 125.07 28.2613 125.07 28.2711 125.071C31.5459 125.206 34.3474 123.725 36.855 122.019L36.7801 122.065C36.7881 122.061 36.7961 122.057 36.8042 122.053C38.5312 121.156 40.375 120.369 42.1041 119.289C42.1048 119.289 42.1055 119.288 42.1062 119.288C42.125 119.276 42.1441 119.264 42.1635 119.252C42.6814 118.968 43.2714 118.36 43.5027 117.751C43.5613 117.616 43.5635 117.462 43.5096 117.324C43.4557 117.186 43.3501 117.075 43.2154 117.016C43.0806 116.956 42.9276 116.952 42.7892 117.005C42.6509 117.058 42.5386 117.163 42.4777 117.297C42.4777 117.297 42.4777 117.297 42.4777 117.297C42.2716 117.748 42.0267 117.995 41.5547 118.275C41.5364 118.286 41.5178 118.298 41.4989 118.309C41.4982 118.31 41.4975 118.31 41.4968 118.311C39.8614 119.324 38.0482 120.087 36.2637 121.011C36.2555 121.015 36.2472 121.02 36.2389 121.024L36.1641 121.07C33.8628 122.664 31.0611 124.043 28.3689 123.902C28.3609 123.902 28.3529 123.901 28.345 123.9C26.2378 123.722 24.1293 124.168 22.6532 123.255C22.6487 123.252 22.6442 123.25 22.6396 123.247C22.495 123.155 22.3618 123.023 22.31 122.928C22.2622 122.824 22.2614 122.837 22.2975 122.753C22.3045 122.741 22.3116 122.728 22.3186 122.716C23.617 120.387 25.4423 118.381 27.2432 116.324C27.6202 115.896 27.997 115.468 28.3738 115.04Z" fill="#26190B"/>
<path d="M25.5699 117.182C25.4387 117.214 25.3253 117.296 25.2547 117.41C25.184 117.525 25.1618 117.663 25.193 117.794C25.2242 117.926 25.3062 118.039 25.421 118.11C25.5358 118.18 25.674 118.203 25.8051 118.171C25.7395 118.178 25.8321 118.173 25.9066 118.203C26.3732 118.371 26.9036 118.822 27.3487 119.275L27.2813 119.19C27.2824 119.191 27.2834 119.193 27.2844 119.195C27.6363 119.77 27.7907 120.549 27.8092 121.251C27.8092 121.253 27.8092 121.255 27.8093 121.257C27.856 121.924 27.4543 122.491 26.9557 123.133C26.8777 123.232 26.801 123.327 26.7196 123.425C26.6282 123.536 26.5843 123.679 26.5979 123.822C26.6114 123.965 26.6811 124.097 26.7918 124.188C26.9025 124.28 27.045 124.324 27.188 124.31C27.3311 124.297 27.4629 124.227 27.5547 124.117C27.5547 124.117 27.5547 124.117 27.5547 124.117C27.6407 124.013 27.7226 123.912 27.8071 123.806C28.3098 123.169 28.9632 122.275 28.897 121.239C28.897 121.236 28.8969 121.233 28.8969 121.23C28.8636 120.319 28.6329 119.469 28.1464 118.656C28.1449 118.653 28.1434 118.651 28.1419 118.648L28.0745 118.563C27.5574 118.056 27.0507 117.554 26.2286 117.239C26.0591 117.19 25.8908 117.121 25.5699 117.182Z" fill="#26190B"/>
<path d="M32.1567 105.946C32.0644 105.877 31.9485 105.848 31.8344 105.864C31.7203 105.881 31.6174 105.942 31.5484 106.034C31.4793 106.126 31.4497 106.242 31.4661 106.356C31.4825 106.47 31.5436 106.573 31.6359 106.642C31.6359 106.642 31.6359 106.642 31.6359 106.642C31.7953 106.761 31.9568 106.883 32.1255 107.002C32.4002 107.184 32.6148 107.382 33.0855 107.517C33.0957 107.519 33.106 107.521 33.1165 107.523C33.2917 107.563 33.625 107.537 33.8218 107.291C34.0089 107.054 34.0181 106.791 33.938 106.561C33.9327 106.547 33.927 106.532 33.9208 106.518C33.6631 106.018 33.2867 105.931 33.0016 105.816C32.7041 105.716 32.416 105.66 32.1529 105.604C32.1477 105.603 32.1426 105.602 32.1376 105.601C32.0843 105.592 32.0126 105.581 31.9055 105.609C31.7928 105.634 31.6652 105.737 31.617 105.826C31.5193 106.009 31.5466 106.079 31.5437 106.136C31.5525 106.244 31.5706 106.29 31.586 106.34C31.6182 106.434 31.6521 106.502 31.6894 106.571C31.7649 106.705 31.8475 106.826 31.9763 106.95C31.9832 106.956 31.99 106.963 31.9969 106.969C32.5032 107.421 33.1065 107.558 33.6622 107.616C33.6757 107.617 33.6898 107.618 33.7044 107.618C33.8058 107.626 33.9979 107.571 34.1017 107.447C34.2058 107.328 34.2238 107.227 34.2357 107.161C34.2529 107.026 34.2354 106.962 34.2233 106.899C34.1955 106.78 34.1587 106.7 34.1191 106.623C34.0394 106.471 33.9445 106.348 33.8351 106.236C33.8275 106.229 33.8199 106.221 33.8122 106.214C33.4468 105.895 33.2402 105.676 32.6078 105.492C32.5982 105.491 32.5884 105.489 32.5784 105.488C32.4857 105.484 32.2384 105.432 32.0011 105.719C31.8159 106.012 31.9003 106.176 31.9187 106.277C31.985 106.479 32.0701 106.582 32.17 106.691C32.1768 106.698 32.1836 106.705 32.1905 106.711C32.3121 106.83 32.4383 106.913 32.5867 106.978C32.6617 107.011 32.7418 107.039 32.8456 107.056C32.9504 107.066 33.0793 107.105 33.3201 106.981C33.3422 106.968 33.3635 106.953 33.3843 106.937C33.5964 106.771 33.6257 106.544 33.6253 106.426C33.624 106.297 33.5981 106.208 33.5693 106.127C33.5097 105.968 33.4277 105.846 33.3252 105.736C33.3195 105.73 33.3137 105.724 33.3078 105.718C33.187 105.597 33.0621 105.507 32.8999 105.436C32.8175 105.402 32.7265 105.37 32.5968 105.36C32.4756 105.352 32.256 105.358 32.0563 105.554C32.038 105.572 32.0211 105.592 32.006 105.611C31.8344 105.86 31.8673 106.009 31.8705 106.12C31.8828 106.233 31.9108 106.317 31.9429 106.395C32.0082 106.549 32.094 106.671 32.1902 106.786C32.1936 106.79 32.1969 106.794 32.2002 106.798C32.3359 106.956 32.4862 107.053 32.6274 107.142C32.805 107.251 32.9825 107.359 33.1469 107.491C33.1508 107.494 33.1568 107.496 33.1626 107.496C33.1684 107.497 33.1737 107.496 33.1779 107.493C33.1822 107.49 33.1854 107.486 33.1877 107.481C33.1899 107.475 33.191 107.469 33.1899 107.464C33.1899 107.464 33.1899 107.464 33.1899 107.464C33.1438 107.258 33.0887 107.042 33.0228 106.837C32.9707 106.674 32.9201 106.522 32.8987 106.402C32.8981 106.399 32.8975 106.396 32.897 106.393C32.8809 106.306 32.875 106.213 32.8793 106.142C32.8814 106.108 32.8869 106.078 32.8937 106.074C32.8927 106.071 32.9338 106.097 32.8327 106.25C32.8235 106.262 32.813 106.274 32.8014 106.286C32.6718 106.411 32.5587 106.398 32.5343 106.397C32.5027 106.393 32.5077 106.389 32.5162 106.39C32.536 106.393 32.5777 106.415 32.5966 106.432C32.5975 106.433 32.5984 106.434 32.5993 106.434C32.6162 106.449 32.6322 106.474 32.6336 106.477C32.6349 106.476 32.63 106.472 32.6293 106.43C32.6298 106.397 32.6353 106.263 32.7771 106.15C32.7907 106.14 32.8045 106.13 32.8188 106.122C32.9721 106.047 32.9956 106.082 33.0041 106.077C33.0103 106.078 32.9957 106.075 32.9802 106.068C32.9477 106.055 32.9062 106.027 32.8868 106.007C32.8857 106.006 32.8846 106.005 32.8836 106.004C32.8677 105.991 32.8528 105.953 32.8685 105.993C32.8639 106.014 32.9347 106.085 32.7996 106.307C32.615 106.523 32.4661 106.466 32.4543 106.472C32.4518 106.472 32.4496 106.472 32.4477 106.471C32.4443 106.465 32.6471 106.554 32.7679 106.634C32.9024 106.717 33.0374 106.815 33.1385 106.91C33.143 106.914 33.1474 106.918 33.1516 106.922C33.2022 106.97 33.2472 107.027 33.2746 107.075C33.288 107.097 33.2966 107.121 33.2947 107.113C33.295 107.105 33.2858 107.097 33.2951 107.019C33.3028 106.98 33.3119 106.907 33.3969 106.809C33.4819 106.707 33.6449 106.662 33.7183 106.668C33.729 106.668 33.7392 106.669 33.7487 106.67C33.3108 106.633 32.8824 106.503 32.6318 106.274C32.6283 106.271 32.6248 106.268 32.6213 106.264C32.5872 106.234 32.536 106.17 32.4999 106.11C32.4817 106.081 32.4658 106.048 32.4606 106.036C32.4579 106.033 32.4601 106.025 32.4647 106.076C32.4603 106.105 32.488 106.146 32.4047 106.304C32.3635 106.381 32.2475 106.475 32.1488 106.497C32.0549 106.521 31.9971 106.511 31.9586 106.504C31.964 106.505 31.9695 106.506 31.975 106.507C32.2482 106.556 32.4992 106.601 32.7221 106.67C32.9419 106.729 33.1309 106.866 33.1165 106.874C33.1155 106.871 33.1147 106.869 33.1139 106.867C33.1065 106.834 33.096 106.807 33.1483 106.736C33.2103 106.659 33.3043 106.67 33.2764 106.669C33.2754 106.668 33.2741 106.668 33.2725 106.668C33.1462 106.64 32.8575 106.458 32.6287 106.294C32.4729 106.183 32.316 106.066 32.1567 105.946Z" fill="#26190B"/>
<path d="M37.6198 116.74C37.6282 116.863 37.685 116.977 37.7778 117.058C37.8705 117.139 37.9915 117.18 38.1143 117.171C38.237 117.163 38.3514 117.106 38.4322 117.013C38.5131 116.921 38.5538 116.8 38.5454 116.677C38.5454 116.677 38.5454 116.677 38.5454 116.677C38.5389 116.582 38.5346 116.488 38.533 116.395C38.5175 115.832 38.6305 115.254 38.9147 115.047C38.9149 115.046 38.9151 115.046 38.9152 115.046C38.958 115.011 39.0108 115.009 39.0205 115.021C39.0309 115.034 39.0151 115.032 39.0427 115.064C39.0427 115.064 39.0428 115.064 39.0428 115.064C39.1592 115.208 39.2847 115.717 39.2645 116.022C39.2645 116.022 39.2644 116.022 39.2644 116.022C39.2497 116.215 39.3402 116.358 39.1463 116.492C39.1462 116.492 39.1461 116.492 39.146 116.492C39.0614 116.545 38.9641 116.586 38.8477 116.621C38.7649 116.646 38.673 116.668 38.5738 116.692C38.4746 116.715 38.3887 116.777 38.3352 116.864C38.2817 116.951 38.265 117.056 38.2886 117.155C38.3122 117.254 38.3743 117.34 38.4612 117.394C38.5481 117.447 38.6527 117.464 38.7519 117.44C38.851 117.417 38.9576 117.392 39.0699 117.358C39.2268 117.311 39.3967 117.244 39.5543 117.145C39.5545 117.144 39.5547 117.144 39.5549 117.144C39.9028 116.97 40.3057 116.499 40.304 116.077C40.3041 116.076 40.3041 116.076 40.3041 116.075C40.298 115.466 40.2469 115.008 39.809 114.406C39.809 114.406 39.8089 114.406 39.8089 114.406C39.6458 114.21 39.3485 114.052 39.06 114.057C38.7717 114.056 38.5308 114.169 38.3412 114.317C38.3408 114.318 38.3404 114.318 38.34 114.318C37.624 114.931 37.6113 115.758 37.6054 116.411C37.6073 116.522 37.6124 116.631 37.6198 116.74Z" fill="#26190B"/>
<path d="M44.7824 95.7478C44.6575 95.8318 44.5712 95.962 44.5423 96.1097C44.5134 96.2574 44.5444 96.4105 44.6284 96.5353C44.7124 96.6602 44.8426 96.7465 44.9902 96.7754C45.1379 96.8043 45.291 96.7733 45.4159 96.6893C45.4159 96.6893 45.4159 96.6893 45.4159 96.6893C45.5018 96.6315 45.5866 96.5744 45.6708 96.5185C46.1927 96.1686 46.7037 95.8807 47.2641 95.6645C47.2653 95.6641 47.2666 95.6636 47.2678 95.6631C48.0461 95.3671 48.9179 95.1465 49.733 95.0384C49.7356 95.0381 49.7381 95.0378 49.7407 95.0375C50.0327 95.0051 50.2339 94.9021 50.379 94.8063C50.4464 94.7844 50.552 94.8232 50.6535 94.8982C50.667 94.9085 50.6807 94.9181 50.695 94.9242C50.7093 94.9302 50.7234 94.9321 50.7367 94.9288C50.7499 94.9255 50.7615 94.9171 50.7713 94.9051C50.781 94.893 50.7885 94.878 50.7956 94.8626C50.7956 94.8626 50.7956 94.8626 50.7956 94.8626C50.847 94.7375 50.8711 94.5779 50.7933 94.4062C50.6657 94.1329 50.3758 94.0029 50.1773 93.947C49.9679 93.8889 49.7805 93.8829 49.6065 93.9028C49.6034 93.9032 49.6002 93.9036 49.5971 93.904C48.6338 94.0344 47.7557 94.2667 46.8563 94.6056C46.8549 94.6061 46.8535 94.6067 46.8521 94.6072C46.2084 94.8539 45.5907 95.2048 45.0436 95.5729C44.9552 95.6315 44.8683 95.69 44.7824 95.7478Z" fill="#26190B"/>
<path d="M45.8996 96.2761C45.8675 96.1411 45.7831 96.0245 45.665 95.9518C45.5469 95.8791 45.4047 95.8562 45.2698 95.8883C45.1349 95.9204 45.0182 96.0048 44.9455 96.1229C44.8728 96.241 44.85 96.3832 44.8821 96.5181C44.9583 96.8385 45.039 97.1787 45.1159 97.505C45.9644 101.139 46.8184 104.788 47.473 108.438C47.4737 108.442 47.4744 108.446 47.4752 108.451C47.6898 109.599 47.4607 110.759 47.556 112.154C47.556 112.154 47.556 112.154 47.556 112.154L47.5535 112.069C47.5039 113.119 47.5576 114.098 47.3723 115.008L47.3766 114.988C47.3766 114.988 47.3765 114.988 47.3764 114.989C47.3491 115.104 47.3292 115.215 47.3118 115.317C47.2554 115.66 47.2023 115.979 47.1399 116.31C47.1133 116.452 47.1442 116.598 47.2258 116.717C47.3075 116.836 47.4331 116.918 47.5751 116.944C47.717 116.97 47.8636 116.939 47.9826 116.858C48.1016 116.776 48.1831 116.651 48.2094 116.509C48.2094 116.509 48.2094 116.509 48.2094 116.509C48.2723 116.172 48.3297 115.823 48.3826 115.498C48.3985 115.403 48.4141 115.318 48.4328 115.238C48.4329 115.238 48.4329 115.238 48.433 115.237L48.4374 115.217C48.651 114.141 48.5865 113.085 48.6337 112.123L48.6312 112.037C48.6312 112.037 48.6312 112.037 48.6312 112.037C48.5414 110.946 48.7474 109.594 48.5059 108.273C48.5052 108.269 48.5044 108.265 48.5037 108.26C47.8382 104.551 46.985 100.911 46.1339 97.2649C46.0568 96.9379 45.9759 96.5967 45.8996 96.2761Z" fill="#26190B"/>
<path d="M50.2735 93.9006C50.2181 93.7742 50.1148 93.675 49.9862 93.6248C49.8577 93.5747 49.7145 93.5776 49.5881 93.633C49.4617 93.6884 49.3626 93.7918 49.3124 93.9203C49.2622 94.0489 49.2652 94.1921 49.3206 94.3184C49.3206 94.3184 49.3206 94.3184 49.3206 94.3184C49.4905 94.7058 49.6545 95.0941 49.8115 95.4851C50.385 96.9108 50.8624 98.3849 51.3342 99.8687C51.3346 99.87 51.3351 99.8713 51.3355 99.8726C52.2476 102.762 52.8974 105.735 53.2484 108.73C53.2485 108.731 53.2487 108.732 53.2488 108.734C53.4423 110.668 53.9088 112.637 54.0737 114.457L54.0735 114.382C54.0735 114.383 54.0734 114.383 54.0734 114.384C54.0092 115.453 53.7257 116.486 53.3121 117.501C53.2894 117.558 53.267 117.612 53.2435 117.669C53.2434 117.669 53.2432 117.669 53.243 117.67C53.0999 118.032 53.0133 118.196 52.7987 118.407C52.6918 118.512 52.6312 118.656 52.6303 118.806C52.6293 118.956 52.6882 119.1 52.7937 119.207C52.8992 119.314 53.0428 119.374 53.1928 119.375C53.3428 119.376 53.4868 119.317 53.5933 119.212C53.5933 119.212 53.5933 119.212 53.5933 119.212C53.9142 118.92 54.1713 118.42 54.2858 118.099C54.2847 118.101 54.2849 118.101 54.285 118.1C54.3098 118.04 54.3336 117.982 54.3577 117.922C54.7953 116.839 55.1167 115.654 55.1848 114.456C55.1849 114.455 55.1849 114.455 55.1849 114.454L55.1848 114.38C54.9902 112.339 54.5445 110.531 54.3466 108.603C54.3464 108.602 54.3463 108.601 54.3462 108.6C53.9764 105.523 53.2575 102.505 52.3274 99.5582C52.327 99.5569 52.3265 99.5556 52.3261 99.5543C51.8521 98.0642 51.3683 96.5676 50.7771 95.0974C50.6156 94.6952 50.4471 94.2962 50.2735 93.9006Z" fill="#26190B"/>
<path d="M48.0458 115.289C47.9025 115.285 47.7636 115.338 47.6595 115.437C47.5554 115.535 47.4948 115.671 47.491 115.814C47.4871 115.958 47.5403 116.097 47.6389 116.201C47.7375 116.305 47.8734 116.365 48.0167 116.369C48.0167 116.369 48.0167 116.369 48.0167 116.369C48.24 116.375 48.4615 116.383 48.6815 116.395C49.6286 116.44 50.5431 116.575 51.4546 116.816C51.4591 116.817 51.4636 116.818 51.4682 116.819C52.0332 116.965 52.4892 117.323 53.0752 117.775C53.0793 117.778 53.0835 117.781 53.0876 117.784C52.9309 117.675 52.9415 117.516 52.9392 117.54C52.9374 117.544 52.9182 117.597 52.8997 117.625C52.8995 117.626 52.8992 117.626 52.8989 117.627C52.6191 118.129 51.7361 118.332 50.8395 118.403L51.1561 118.462C51.1522 118.46 51.1483 118.458 51.1444 118.456C50.1864 117.98 49.3558 117.286 48.7311 116.424L48.7555 116.46C48.7554 116.46 48.7553 116.46 48.7552 116.46C48.7183 116.4 48.6657 116.334 48.598 116.267C48.3759 116.034 48.0125 115.916 47.7488 115.88C47.6828 115.872 47.6063 115.894 47.5408 115.931C47.475 115.968 47.4255 116.017 47.3987 116.078C47.3719 116.138 47.3686 116.208 47.3852 116.282C47.402 116.355 47.4373 116.426 47.4877 116.47C47.4877 116.47 47.4877 116.47 47.4877 116.47C47.6395 116.613 47.6496 116.779 47.685 116.92C47.6987 116.967 47.72 117.019 47.7569 117.079C47.757 117.079 47.7571 117.079 47.7572 117.079L47.7816 117.116C48.5121 118.127 49.5065 118.956 50.6184 119.507C50.6229 119.509 50.6274 119.512 50.6319 119.514L50.7819 119.589L50.9485 119.573C51.8672 119.465 53.1378 119.408 53.9097 118.239C53.9113 118.236 53.9129 118.233 53.9145 118.231C54.0099 118.066 54.0736 117.905 54.1011 117.686C54.1126 117.576 54.1155 117.446 54.0702 117.288C54.0285 117.131 53.9066 116.942 53.747 116.837C53.7439 116.835 53.7407 116.833 53.7375 116.831C53.2174 116.46 52.5323 115.97 51.7413 115.773C51.7364 115.772 51.7316 115.771 51.7267 115.77C50.7562 115.512 49.735 115.362 48.7379 115.315C48.5062 115.303 48.2757 115.295 48.0458 115.289Z" fill="#26190B"/>
<path d="M43.2833 116.661C43.1462 116.694 43.0277 116.78 42.9539 116.9C42.88 117.02 42.8568 117.164 42.8894 117.301C42.922 117.438 43.0077 117.557 43.1277 117.631C43.2477 117.705 43.3921 117.728 43.5292 117.695C43.6011 117.678 43.673 117.661 43.7449 117.644C44.1133 117.556 44.4814 117.469 44.85 117.381C44.8502 117.381 44.8504 117.381 44.8506 117.381C45.4204 117.246 45.9978 117.117 46.5367 117.031C46.5372 117.031 46.5376 117.031 46.5381 117.031C46.8783 116.978 47.0457 116.936 47.4036 116.953C47.4731 116.956 47.5456 116.959 47.6199 116.962C47.7005 116.965 47.7837 116.953 47.8557 116.915C47.9278 116.876 47.9824 116.816 48.0091 116.744C48.0359 116.671 48.0331 116.59 48.003 116.514C47.9729 116.438 47.9176 116.375 47.8537 116.325C47.8537 116.325 47.8537 116.325 47.8537 116.325C47.7893 116.277 47.7221 116.231 47.6508 116.188C47.324 115.961 46.7472 115.88 46.3737 115.957C46.3731 115.957 46.3726 115.957 46.372 115.957C45.7483 116.058 45.1805 116.212 44.6047 116.347C44.6045 116.347 44.6043 116.347 44.6041 116.347C44.2356 116.435 43.8674 116.523 43.499 116.61C43.4271 116.627 43.3552 116.644 43.2833 116.661Z" fill="#26190B"/>
<path d="M53.7671 117.176C53.6564 117.277 53.5903 117.418 53.5834 117.567C53.5764 117.717 53.6292 117.863 53.73 117.974C53.8309 118.085 53.9716 118.151 54.1212 118.158C54.2708 118.165 54.4171 118.112 54.5278 118.011C54.5278 118.011 54.5278 118.011 54.5278 118.011C54.7538 117.805 54.9631 117.616 55.1887 117.413C57.7901 115.152 60.3893 112.695 63.5151 111.529C63.5243 111.526 63.5336 111.522 63.5428 111.519C64.6988 111.085 65.8794 110.655 67.0376 110.156C67.0516 110.15 67.0657 110.144 67.0797 110.138C67.577 109.931 68.1183 109.742 68.6477 109.571C68.6638 109.566 68.6798 109.561 68.6954 109.555C68.7008 109.553 68.7062 109.55 68.7116 109.548C68.8455 109.495 68.9696 109.409 69.0866 109.29C69.1449 109.231 69.2019 109.163 69.2566 109.087C69.2842 109.05 69.3111 109.01 69.3383 108.968C69.3513 108.947 69.3653 108.925 69.3784 108.903C69.385 108.892 69.3913 108.881 69.3983 108.87C69.4012 108.864 69.4048 108.859 69.4083 108.853C69.4092 108.851 69.4097 108.85 69.4107 108.849C69.4114 108.848 69.4119 108.847 69.4125 108.846C69.4126 108.846 69.4128 108.846 69.413 108.846C69.4142 108.845 69.4093 108.847 69.4165 108.845C69.4178 108.844 69.4181 108.844 69.4242 108.842C69.429 108.836 69.4271 108.851 69.4619 108.809C69.5012 108.781 69.4302 108.673 69.4176 108.689C69.4001 108.684 69.3962 108.685 69.392 108.685C69.372 108.686 69.3788 108.686 69.376 108.687C69.3745 108.687 69.3739 108.687 69.374 108.687C69.3739 108.687 69.3739 108.687 69.3739 108.687C69.3738 108.687 69.3737 108.687 69.3737 108.687C69.3734 108.688 69.3731 108.688 69.3729 108.689C69.3699 108.692 69.3697 108.694 69.3671 108.697C69.3585 108.712 69.3502 108.726 69.3448 108.74C69.3395 108.754 69.3377 108.767 69.3406 108.779C69.3434 108.791 69.3508 108.802 69.3618 108.811C69.3727 108.821 69.3866 108.83 69.401 108.84C69.4046 108.841 69.4063 108.843 69.4095 108.845C69.4097 108.845 69.4099 108.846 69.41 108.846C69.41 108.846 69.41 108.846 69.41 108.846C69.41 108.846 69.41 108.846 69.41 108.846C69.41 108.846 69.41 108.846 69.4085 108.847C69.4058 108.847 69.4127 108.847 69.3927 108.848C69.3884 108.848 69.3846 108.849 69.3671 108.844C69.3545 108.86 69.2834 108.752 69.3228 108.724C69.3575 108.682 69.3556 108.697 69.3604 108.691C69.3665 108.689 69.3668 108.689 69.368 108.689C69.3743 108.687 69.37 108.688 69.371 108.688C69.3711 108.688 69.371 108.687 69.371 108.687C69.3708 108.687 69.3701 108.686 69.3692 108.686C69.3678 108.685 69.3668 108.684 69.3652 108.683C69.3596 108.68 69.3535 108.677 69.3482 108.673C69.3364 108.667 69.3254 108.66 69.314 108.654C69.2915 108.641 69.2682 108.629 69.2461 108.617C69.2007 108.594 69.1563 108.574 69.1119 108.555C69.0239 108.518 68.9368 108.491 68.8525 108.472C68.6833 108.436 68.5229 108.435 68.3729 108.471C68.3669 108.472 68.3609 108.474 68.3549 108.475C68.3376 108.48 68.3203 108.485 68.3031 108.49C67.7393 108.672 67.195 108.865 66.6359 109.098C66.6185 109.106 66.6049 109.112 66.5913 109.117C65.4678 109.602 64.3133 110.024 63.1443 110.462C63.1349 110.466 63.1255 110.469 63.116 110.473C59.6605 111.785 57.0744 114.29 54.4344 116.573C54.2065 116.777 53.9952 116.968 53.7671 117.176Z" fill="#26190B"/>
<path d="M53.8433 118.32C53.6957 118.351 53.5665 118.439 53.484 118.565C53.4014 118.692 53.3724 118.845 53.4032 118.993C53.434 119.14 53.5222 119.27 53.6484 119.352C53.7745 119.435 53.9283 119.464 54.0758 119.433C54.0758 119.433 54.0758 119.433 54.0758 119.433C54.4018 119.365 54.7275 119.298 55.0532 119.234C56.6452 118.919 58.2314 118.653 59.8332 118.509C59.839 118.508 59.8449 118.507 59.8507 118.507C61.9949 118.283 63.6808 116.995 65.1352 115.788C65.136 115.788 65.1368 115.787 65.1376 115.786C66.725 114.367 67.5279 112.575 68.4332 110.955L68.3853 111.028C68.3853 111.028 68.3853 111.028 68.3853 111.028C68.7552 110.543 69.1128 110.049 69.4566 109.544C69.5193 109.452 69.5816 109.359 69.6434 109.266C69.6446 109.264 69.6458 109.262 69.647 109.261L69.6324 109.282C69.6891 109.201 69.715 109.094 69.6974 108.983C69.6914 108.957 69.6871 108.928 69.6584 108.917C69.6219 108.91 69.6894 108.921 69.4349 108.949C69.3521 108.955 69.1888 108.88 69.138 108.781C69.0911 108.7 69.093 108.647 69.0935 108.626C69.0972 108.571 69.1099 108.567 69.1184 108.559C69.1889 108.546 69.235 108.652 69.2946 108.729C69.3084 108.749 69.3214 108.768 69.3327 108.783C69.3441 108.797 69.3543 108.807 69.367 108.813C69.3796 108.818 69.3938 108.819 69.4125 108.817C69.431 108.815 69.4538 108.811 69.4777 108.807C69.4777 108.807 69.4777 108.807 69.4777 108.807C69.5807 108.78 69.6719 108.783 69.7637 108.662C69.7743 108.64 69.7887 108.623 69.791 108.553C69.791 108.526 69.7911 108.464 69.7405 108.379C69.6856 108.273 69.516 108.195 69.4258 108.202C69.1438 108.232 69.1885 108.263 69.1303 108.273C69.0589 108.298 69.0158 108.31 68.9723 108.324C68.8058 108.38 68.6983 108.451 68.6235 108.55L68.6089 108.572C68.6077 108.573 68.6066 108.575 68.6054 108.577C68.546 108.666 68.4862 108.755 68.426 108.844C68.0961 109.331 67.7533 109.81 67.3986 110.279C67.3986 110.279 67.3986 110.279 67.3986 110.279L67.3507 110.353C66.4492 112.015 65.6105 113.742 64.3625 114.857C64.3617 114.858 64.3609 114.858 64.3601 114.859C62.9481 116.063 61.4372 117.209 59.746 117.375C59.74 117.376 59.734 117.376 59.728 117.377C58.0782 117.525 56.4433 117.8 54.8326 118.119C54.5024 118.184 54.1727 118.251 53.8433 118.32Z" fill="#26190B"/>
<path d="M53.5002 117.953C53.3498 117.922 53.1932 117.952 53.0649 118.036C52.9366 118.121 52.8472 118.253 52.8162 118.403C52.7852 118.553 52.8153 118.71 52.8998 118.838C52.9842 118.966 53.1162 119.056 53.2666 119.087C53.2666 119.087 53.2666 119.087 53.2666 119.087C53.7285 119.182 54.1905 119.276 54.6528 119.369C56.8492 119.798 59.0416 120.247 61.3306 120.419C61.3739 120.422 61.4169 120.425 61.4596 120.427C64.1219 120.527 66.6355 119.837 68.9317 118.445C68.9982 118.4 69.0698 118.349 69.1354 118.298C70.2206 117.441 70.7813 116.336 71.5578 115.588C71.6108 115.536 71.6645 115.485 71.719 115.435C72.0617 115.119 72.379 114.79 72.6679 114.374C72.7287 114.285 72.7879 114.191 72.8449 114.081C72.8945 113.96 73.0255 113.786 72.9064 113.403C72.7386 113.017 72.4552 112.968 72.3378 112.929C72.0651 112.869 71.9168 112.887 71.7513 112.892C71.4338 112.912 71.1582 112.954 70.8819 112.994C70.3465 113.072 69.7746 113.17 69.3897 113.142C69.3718 113.141 69.3534 113.139 69.3343 113.137C68.9346 113.094 68.4995 113.134 68.1401 113.194C68.1271 113.197 68.1139 113.199 68.1006 113.201C67.7114 113.268 67.3316 113.368 66.961 113.5C66.4889 113.668 66.0325 113.89 65.6117 114.17C65.5178 114.234 65.4442 114.327 65.4113 114.437C65.3784 114.548 65.3883 114.665 65.4397 114.765C65.4911 114.865 65.5806 114.942 65.6895 114.98C65.7983 115.017 65.917 115.012 66.0235 114.973C66.0235 114.973 66.0235 114.973 66.0235 114.973C66.4402 114.823 66.8642 114.702 67.2924 114.599C67.628 114.519 67.9666 114.449 68.3046 114.391C68.3161 114.389 68.3276 114.387 68.3388 114.385C68.6685 114.33 68.9356 114.294 69.2329 114.324C69.2496 114.325 69.2669 114.327 69.2848 114.328C69.9946 114.364 70.5107 114.238 71.0568 114.164C71.3238 114.124 71.5881 114.085 71.8192 114.07C71.9278 114.062 72.0516 114.07 72.0512 114.072C72.0623 114.067 71.923 114.077 71.8054 113.823C71.7337 113.572 71.813 113.536 71.7992 113.539C71.7729 113.59 71.7364 113.65 71.6951 113.71C71.4945 114.001 71.2146 114.297 70.9244 114.561C70.8566 114.623 70.7907 114.686 70.7265 114.749C69.8014 115.671 69.2278 116.749 68.4174 117.367C68.3729 117.401 68.3199 117.439 68.2686 117.474C66.3311 118.668 63.8349 119.379 61.5298 119.271C61.4897 119.269 61.4493 119.266 61.4086 119.264C59.2481 119.103 57.0591 118.66 54.8799 118.233C54.4202 118.141 53.9603 118.047 53.5002 117.953Z" fill="#26190B"/>
<path d="M54.4369 118.762C54.4064 118.634 54.3262 118.523 54.2139 118.454C54.1015 118.384 53.9664 118.363 53.838 118.393C53.7097 118.424 53.5988 118.504 53.5296 118.616C53.4605 118.729 53.4388 118.864 53.4693 118.992C53.5288 119.242 53.5874 119.484 53.6491 119.734C54.0975 121.593 54.679 123.439 55.2451 125.24L55.2652 125.294C55.2653 125.294 55.2653 125.294 55.2653 125.294C56.257 127.519 57.3414 129.663 58.3342 131.842C58.3366 131.847 58.3366 131.847 58.3366 131.847C58.4389 132.065 58.5422 132.281 58.6518 132.5C58.7664 132.731 58.9012 132.983 59.0399 133.205C59.1178 133.333 59.2431 133.424 59.3889 133.458C59.5347 133.492 59.6889 133.467 59.8171 133.387C59.9453 133.308 60.0369 133.181 60.071 133.035C60.1051 132.889 60.0791 132.737 59.9992 132.61C59.9992 132.61 59.9992 132.61 59.9992 132.61C59.8678 132.406 59.7617 132.214 59.647 131.993C59.5411 131.789 59.4371 131.58 59.3338 131.369C59.3338 131.369 59.3338 131.369 59.3338 131.369C58.2985 129.188 57.1434 127.066 56.1758 124.894C56.1758 124.894 56.1757 124.894 56.1757 124.894L56.1958 124.948C55.6211 123.119 55.0591 121.336 54.6147 119.495C54.5537 119.249 54.4958 119.009 54.4369 118.762Z" fill="#26190B"/>
<path d="M55.2714 119.496C55.169 119.407 55.0357 119.363 54.9007 119.373C54.7658 119.383 54.6402 119.446 54.5516 119.548C54.4631 119.65 54.4188 119.784 54.4286 119.919C54.4383 120.054 54.5013 120.179 54.6036 120.268C54.6036 120.268 54.6036 120.268 54.6036 120.268C54.8314 120.465 55.0593 120.661 55.2884 120.858C56.5175 121.911 57.7721 122.962 59.1289 123.894C59.1296 123.894 59.1303 123.895 59.131 123.895C61.2698 125.303 63.5177 126.229 65.7444 127.275C65.7462 127.276 65.748 127.277 65.7498 127.278L65.7773 127.289C67.0573 127.779 68.3182 128.245 69.7606 128.477C69.8116 128.484 69.8657 128.491 69.9212 128.496C69.9235 128.496 69.9258 128.496 69.9281 128.496C70.0522 128.505 70.2284 128.496 70.4267 128.406C70.6259 128.321 70.8073 128.116 70.8287 127.914C70.8289 127.868 70.8284 127.822 70.8207 127.782C70.813 127.741 70.7977 127.708 70.7722 127.684C70.7468 127.659 70.7128 127.646 70.672 127.64C70.6313 127.634 70.5859 127.635 70.5393 127.638C70.5393 127.638 70.5393 127.638 70.5393 127.638C70.388 127.621 70.3326 127.536 70.282 127.487C70.2302 127.436 70.1526 127.402 70.026 127.39C70.0245 127.39 70.023 127.389 70.0215 127.389C69.9856 127.386 69.9457 127.381 69.9065 127.376C68.6878 127.184 67.4025 126.736 66.1717 126.271L66.1992 126.282C66.1974 126.282 66.1956 126.281 66.1938 126.28C63.9804 125.262 61.6644 124.348 59.7098 123.055C59.7092 123.054 59.7085 123.054 59.7079 123.054C58.4011 122.157 57.1756 121.131 55.9527 120.083C55.7252 119.888 55.4983 119.692 55.2714 119.496Z" fill="#26190B"/>
<path d="M59.6169 132.464C59.6089 132.348 59.5551 132.24 59.4673 132.164C59.3796 132.087 59.2652 132.049 59.1492 132.057C59.0331 132.065 58.9251 132.119 58.8487 132.207C58.7724 132.294 58.734 132.409 58.7421 132.525C58.7421 132.525 58.7421 132.525 58.7421 132.525C58.748 133.059 58.5564 133.805 58.4044 134.467C58.3402 134.736 58.2742 135.004 58.2071 135.274C58.2066 135.276 58.2062 135.277 58.2057 135.279C57.625 137.601 56.8376 139.876 56.1851 142.222C56.1829 142.23 56.1807 142.238 56.1786 142.246C55.8386 143.525 55.801 144.787 55.6737 145.999C55.6727 146.01 55.6716 146.02 55.6706 146.031C55.5066 147.569 55.6409 149.112 55.8201 150.594C55.8219 150.609 55.8236 150.624 55.8254 150.639C56.1239 152.509 56.2926 154.259 57.6894 156.086C57.7106 156.103 57.7329 156.12 57.757 156.137C58.5056 156.608 59.1868 156.285 59.647 156.113C59.6572 156.109 59.6673 156.105 59.6773 156.1C61.2131 155.29 61.4553 153.859 62.165 152.95C62.1692 152.944 62.1734 152.939 62.1776 152.933C62.9303 151.875 63.2828 150.646 63.6492 149.551C63.6512 149.545 63.6532 149.54 63.6551 149.534C64.0405 148.333 64.0963 147.177 64.3811 146.127C64.3825 146.122 64.3839 146.117 64.3853 146.112C64.668 145.051 64.8137 143.967 64.9306 142.912L64.9262 142.943C64.9266 142.941 64.927 142.939 64.9273 142.936C64.9587 142.755 64.997 142.582 65.0462 142.413C65.0832 142.286 65.1262 142.162 65.1755 142.041C65.1759 142.039 65.1764 142.038 65.1769 142.037C65.3559 141.603 65.563 141.068 65.7917 140.567C65.8238 140.497 65.8262 140.413 65.8031 140.336C65.7796 140.258 65.7324 140.194 65.6674 140.154C65.6024 140.114 65.5236 140.101 65.4438 140.115C65.3643 140.129 65.2904 140.169 65.2429 140.229C65.2429 140.229 65.2429 140.229 65.2429 140.229C64.9023 140.668 64.4948 141.053 64.227 141.626C64.2263 141.627 64.2256 141.629 64.225 141.63C64.1543 141.786 64.0938 141.947 64.0433 142.11C63.9761 142.325 63.9268 142.543 63.89 142.757C63.8896 142.759 63.8892 142.762 63.8887 142.764L63.8844 142.795C63.7686 143.841 63.632 144.86 63.3706 145.844C63.3693 145.849 63.368 145.854 63.3667 145.859C63.0564 147.035 62.989 148.208 62.6631 149.203C62.6615 149.207 62.6598 149.212 62.6582 149.217C62.2809 150.361 61.9599 151.45 61.3281 152.334C61.3246 152.339 61.3211 152.344 61.3175 152.349C60.5495 153.447 60.0984 154.784 59.2755 155.143C59.2667 155.147 59.258 155.151 59.2493 155.154C58.8404 155.336 58.4492 155.383 58.3496 155.281C58.3529 155.283 58.3538 155.284 58.3531 155.284C57.5477 154.205 57.0657 152.197 56.856 150.514C56.8543 150.499 56.8525 150.485 56.8507 150.47C56.672 149.002 56.5438 147.56 56.6902 146.131C56.6912 146.121 56.6922 146.11 56.6933 146.099C56.816 144.854 56.8571 143.623 57.1453 142.503C57.1473 142.495 57.1493 142.487 57.1513 142.48C57.7659 140.17 58.4665 137.85 59.0568 135.491C59.0573 135.489 59.0577 135.487 59.0582 135.485C59.1255 135.214 59.1922 134.944 59.2574 134.67C59.4099 133.964 59.6167 133.34 59.6169 132.464Z" fill="#26190B"/>
<path d="M64.6288 141.827C64.5905 141.964 64.6082 142.11 64.6778 142.234C64.7475 142.358 64.8635 142.449 65.0003 142.487C65.1371 142.525 65.2835 142.508 65.4073 142.438C65.5311 142.368 65.6222 142.252 65.6605 142.116C65.7016 141.969 65.7441 141.823 65.788 141.678C66.2561 140.082 66.9675 138.623 67.6321 136.986C67.6325 136.985 67.6328 136.984 67.6332 136.983L67.6129 137.031C68.0366 136.123 68.5754 135.053 68.3669 133.818L68.3598 133.781C68.3596 133.78 68.3595 133.78 68.3594 133.779C68.3365 133.696 68.2992 133.617 68.2551 133.539C68.1752 133.398 68.073 133.262 67.9947 133.121C67.9699 133.076 67.9223 133.039 67.8702 133.016C67.8176 132.993 67.7647 132.986 67.7154 132.997C67.6662 133.009 67.6223 133.04 67.5857 133.084C67.5496 133.128 67.5237 133.182 67.5216 133.233C67.5153 133.395 67.4853 133.562 67.4774 133.724C67.4731 133.813 67.4755 133.901 67.4924 133.985C67.4925 133.986 67.4926 133.986 67.4927 133.987L67.4856 133.95C67.5782 134.787 67.0883 135.651 66.6488 136.564L66.6285 136.611C66.6282 136.612 66.6279 136.613 66.6275 136.614C66.0213 138.11 65.2471 139.71 64.7627 141.368C64.7166 141.52 64.672 141.673 64.6288 141.827Z" fill="#26190B"/>
<path d="M67.3957 127.32C67.3638 127.186 67.2801 127.071 67.1629 126.998C67.0456 126.926 66.9046 126.904 66.7706 126.935C66.6367 126.967 66.5209 127.051 66.4488 127.168C66.3766 127.285 66.3539 127.427 66.3858 127.56C66.4217 127.711 66.4581 127.865 66.4935 128.016C66.8858 129.688 67.2565 131.368 67.6106 133.052C67.6107 133.052 67.6108 133.053 67.611 133.054L67.6007 132.977C67.6476 133.771 67.64 134.476 67.4908 135.267L67.4974 135.234C67.4974 135.234 67.4974 135.234 67.4974 135.234C67.4576 135.441 67.4216 135.65 67.318 135.927C67.2657 136.069 67.2043 136.214 67.1302 136.352C67.1052 136.398 67.0998 136.458 67.1107 136.515C67.1218 136.571 67.1482 136.62 67.1887 136.653C67.2292 136.687 67.2818 136.704 67.3395 136.704C67.3969 136.704 67.4548 136.688 67.4958 136.654C67.4958 136.654 67.4958 136.654 67.4958 136.654C67.6225 136.55 67.7549 136.45 67.8865 136.337C68.1256 136.14 68.4011 135.835 68.481 135.462C68.481 135.462 68.481 135.462 68.481 135.462L68.4876 135.429C68.6556 134.642 68.6904 133.728 68.6371 132.917L68.6269 132.84C68.6267 132.84 68.6266 132.839 68.6264 132.838C68.2708 131.147 67.8988 129.461 67.5041 127.778C67.4684 127.627 67.4317 127.472 67.3957 127.32Z" fill="#26190B"/>
<path d="M70.831 117.836C70.7997 117.705 70.7174 117.591 70.6022 117.52C70.4869 117.449 70.3482 117.427 70.2166 117.458C70.0849 117.489 69.9711 117.572 69.9001 117.687C69.8292 117.802 69.8069 117.941 69.8382 118.072C69.8382 118.072 69.8382 118.072 69.8382 118.072C69.966 118.724 70.0472 119.528 70.1441 120.268C70.3812 122.172 70.6308 124.07 70.8984 125.971C70.8989 125.975 70.8995 125.979 70.9 125.983C71.3956 129.35 72.2786 132.606 73.0157 135.851C73.0174 135.859 73.0192 135.867 73.0209 135.874C73.567 138.05 73.464 140.122 73.0509 142.371C73.0495 142.38 73.0482 142.389 73.0468 142.398C72.6919 144.91 72.5873 147.401 72.5056 149.897C72.5052 149.91 72.5048 149.923 72.5044 149.936C72.5781 152.511 73.2139 154.819 74.9961 156.943C75.002 156.948 75.008 156.953 75.014 156.958C75.5109 157.328 75.9878 157.222 76.3264 157.153C76.6786 157.067 76.9804 156.936 77.2689 156.8L77.4181 156.739L77.5087 156.572C77.509 156.571 77.5094 156.571 77.5097 156.57C77.7633 156.023 78.0622 155.486 78.3388 154.891C78.4237 154.705 78.5059 154.511 78.5717 154.301C78.5701 154.305 78.5704 154.305 78.5706 154.304C78.75 153.767 78.8192 153.176 78.9047 152.615C78.9077 152.595 78.9021 152.574 78.8907 152.555C78.8792 152.537 78.8629 152.523 78.8437 152.517C78.8245 152.511 78.8034 152.513 78.7834 152.521C78.7635 152.529 78.7462 152.544 78.7372 152.562C78.7372 152.562 78.7372 152.562 78.7372 152.562C78.4837 153.074 78.18 153.542 77.923 154.04C77.9226 154.041 77.9222 154.042 77.9218 154.043C77.8434 154.202 77.7482 154.359 77.6471 154.516C77.3188 155.023 76.9417 155.549 76.6314 156.126C76.6309 156.126 76.6305 156.127 76.6301 156.128L76.87 155.9C76.6059 156.007 76.3422 156.101 76.1037 156.148C75.865 156.203 75.6666 156.16 75.6736 156.142C75.6714 156.141 75.6691 156.139 75.6668 156.137C74.4072 154.641 73.5661 152.099 73.5679 149.967C73.5683 149.954 73.5687 149.941 73.5691 149.928C73.6491 147.458 73.7548 144.967 74.096 142.557C74.0973 142.548 74.0987 142.539 74.1 142.53C74.514 140.363 74.6347 137.859 74.0565 135.646C74.0548 135.638 74.053 135.63 74.0512 135.622C73.3025 132.334 72.3909 129.11 71.9106 125.841C71.9101 125.837 71.9095 125.833 71.909 125.829C71.642 123.933 71.3935 122.043 71.1567 120.142C71.0552 119.38 70.9938 118.669 70.831 117.836Z" fill="#26190B"/>
<path d="M77.8653 153.531C77.8222 153.657 77.8311 153.795 77.89 153.915C77.9489 154.035 78.053 154.126 78.1793 154.169C78.3056 154.212 78.4439 154.204 78.5636 154.145C78.6834 154.086 78.7748 153.982 78.8178 153.855C78.8178 153.855 78.8178 153.855 78.8178 153.855C78.952 153.462 79.0823 153.071 79.2101 152.675C79.6394 151.367 79.9959 150.029 80.3705 148.728C80.3707 148.727 80.3709 148.726 80.3712 148.725C80.7784 147.266 81.4436 145.936 82.053 144.466C82.0531 144.466 82.0532 144.465 82.0533 144.465C82.5259 143.237 82.6405 142.035 82.9887 140.957C82.9893 140.955 82.9899 140.954 82.9905 140.952C83.3443 139.829 83.6157 138.652 83.7043 137.452L83.7003 137.329C83.7001 137.328 83.7 137.326 83.6998 137.325C83.3823 135.163 82.7608 133.093 82.1703 131.02C82.1276 130.872 82.0829 130.715 82.0409 130.57C82.0408 130.57 82.0408 130.57 82.0407 130.569C81.97 130.323 81.8249 130.095 81.717 129.858C81.7053 129.833 81.6816 129.811 81.6542 129.798C81.6266 129.784 81.5976 129.78 81.5704 129.787C81.5432 129.793 81.5192 129.81 81.5007 129.834C81.4823 129.859 81.4708 129.889 81.4718 129.917C81.4822 130.177 81.4553 130.446 81.503 130.697C81.503 130.698 81.5031 130.698 81.5031 130.698C81.531 130.846 81.5607 131.005 81.5879 131.156C81.9645 133.266 82.2627 135.399 82.5685 137.485C82.5687 137.487 82.5688 137.488 82.569 137.489L82.565 137.365C82.4838 138.462 82.247 139.545 81.9169 140.619C81.9164 140.62 81.9158 140.622 81.9152 140.624C81.5418 141.834 81.4231 143.05 81.0372 144.068C81.0371 144.069 81.037 144.069 81.037 144.069C80.4845 145.454 79.8275 146.925 79.4046 148.445C79.4043 148.446 79.4041 148.447 79.4039 148.448C79.0226 149.773 78.6753 151.077 78.2526 152.366C78.1266 152.756 77.998 153.141 77.8653 153.531Z" fill="#26190B"/>
<path d="M80.9034 129.752C80.8528 129.872 80.8519 130.008 80.9009 130.128C80.95 130.249 81.045 130.345 81.165 130.396C81.285 130.447 81.4203 130.447 81.541 130.398C81.6616 130.349 81.7579 130.254 81.8085 130.134C81.8085 130.134 81.8085 130.134 81.8085 130.134C81.8924 129.936 81.9729 129.735 82.0497 129.534C82.5012 128.352 82.8007 127.154 83.1528 125.992C83.1542 125.988 83.1555 125.983 83.1569 125.979C83.7856 124.094 83.8291 121.884 83.7221 120.072C83.7223 120.065 83.7224 120.062 83.7224 120.059C83.7374 119.498 83.7633 118.935 83.7711 118.355L83.7701 118.316C83.77 118.315 83.7699 118.314 83.7699 118.313C83.7672 118.273 83.7638 118.235 83.7596 118.196C83.7323 117.945 83.6767 117.719 83.6281 117.515C83.5968 117.384 83.5146 117.271 83.3997 117.2C83.2848 117.13 83.1467 117.108 83.0156 117.139C82.8845 117.17 82.7711 117.252 82.7003 117.367C82.6296 117.482 82.6072 117.62 82.6382 117.751C82.6868 117.955 82.7286 118.139 82.746 118.305C82.7488 118.331 82.751 118.356 82.7526 118.381C82.7527 118.382 82.7527 118.382 82.7528 118.383L82.7517 118.343C82.7441 118.895 82.7181 119.461 82.7028 120.031C82.7027 120.034 82.7027 120.037 82.7026 120.04C82.8076 122.102 82.8066 123.85 82.2157 125.697C82.2143 125.701 82.213 125.706 82.2116 125.711C81.8541 126.893 81.5563 128.076 81.1317 129.184C81.0591 129.374 80.983 129.564 80.9034 129.752Z" fill="#26190B"/>
<path d="M82.3618 125.915C82.22 125.953 82.099 126.046 82.0255 126.173C81.952 126.3 81.932 126.451 81.9699 126.593C82.0078 126.735 82.1005 126.855 82.2275 126.929C82.3546 127.002 82.5057 127.022 82.6475 126.985C82.6475 126.985 82.6475 126.985 82.6475 126.985C83.4159 126.779 84.1947 126.55 84.9547 126.233C87.3056 125.22 89.2031 123.682 91.1869 122.285C91.1906 122.283 91.1943 122.28 91.198 122.277C94.0133 120.266 96.7542 117.935 99.0854 115.475C99.0869 115.474 99.0883 115.472 99.0898 115.471C101.027 113.656 102.651 111.624 104.207 109.538C104.208 109.537 104.208 109.536 104.209 109.535C105.828 107.348 107.21 104.988 108.455 102.61C108.456 102.608 108.457 102.607 108.457 102.606C109.619 100.326 110.212 97.9615 110.878 95.6174L110.893 95.5478C110.893 95.5472 110.893 95.5466 110.893 95.546C110.976 94.9945 111.058 94.4462 111.149 93.9059C111.216 93.5134 111.288 93.1253 111.371 92.7403L111.374 92.7251C111.374 92.7248 111.374 92.7245 111.374 92.7243C111.459 92.3269 111.325 91.8132 110.988 91.4672C110.964 91.442 110.94 91.4178 110.913 91.4006C110.887 91.3834 110.859 91.3746 110.832 91.3765C110.804 91.3783 110.778 91.3907 110.754 91.4113C110.73 91.4319 110.71 91.459 110.69 91.4871C110.69 91.4871 110.69 91.4871 110.69 91.4871C110.412 91.8995 110.247 92.1515 110.178 92.4998C110.178 92.5 110.178 92.5003 110.178 92.5005L110.181 92.4853C110.094 92.8914 110.018 93.2987 109.95 93.704C109.857 94.2621 109.776 94.8158 109.694 95.3662C109.694 95.3668 109.694 95.3674 109.694 95.368L109.709 95.2984C109.06 97.6139 108.445 99.9917 107.4 102.042C107.399 102.043 107.398 102.044 107.398 102.045C106.162 104.419 104.832 106.706 103.263 108.838C103.262 108.839 103.262 108.84 103.261 108.841C101.743 110.888 100.128 112.9 98.3034 114.617C98.302 114.619 98.3006 114.62 98.2993 114.621C95.8774 117.179 93.3608 119.364 90.5486 121.381C90.5449 121.384 90.5413 121.386 90.5376 121.389C88.5691 122.781 86.6435 124.309 84.5297 125.211C83.8398 125.499 83.1128 125.715 82.3618 125.915Z" fill="#26190B"/>
<path d="M50.5309 95.4214C50.411 95.4687 50.3147 95.5616 50.2633 95.6799C50.2119 95.7981 50.2096 95.9319 50.2568 96.0518C50.3041 96.1718 50.397 96.2681 50.5153 96.3195C50.6335 96.3709 50.7673 96.3732 50.8872 96.3259C50.8872 96.3259 50.8872 96.3259 50.8872 96.3259C51.7183 95.9996 52.5413 95.6401 53.3457 95.2503C55.4566 94.2226 57.4685 93.0537 59.4799 91.8857C59.4814 91.8849 59.4828 91.884 59.4843 91.8832C63.6073 89.4232 67.5749 86.7682 71.5614 84.1629C71.5642 84.161 71.5671 84.1592 71.5699 84.1573C74.8814 81.9995 78.0499 79.6208 81.156 77.2242C81.1596 77.2214 81.1632 77.2187 81.1667 77.216C82.7089 76.0065 84.043 74.6824 85.4911 73.5162C85.4945 73.5135 85.498 73.5107 85.5014 73.508C87.6417 71.8001 89.3231 69.6267 91.1701 67.8541C91.1705 67.8537 91.1708 67.8534 91.1712 67.853L91.2019 67.8226C91.4132 67.5964 91.6184 67.3669 91.8189 67.1346C92.1423 66.7599 92.4536 66.3779 92.7534 65.9879C92.754 65.9871 92.7546 65.9864 92.7551 65.9857L92.7674 65.9692C92.9997 65.6408 93.182 65.0713 92.8854 64.567C92.8722 64.5501 92.8587 64.5338 92.8433 64.5216C92.8279 64.5095 92.8114 64.5025 92.7942 64.502C92.777 64.5016 92.7602 64.5078 92.7442 64.5191C92.7283 64.5305 92.7139 64.5461 92.6999 64.5623C92.6999 64.5623 92.6999 64.5623 92.6999 64.5623C92.3558 64.8666 92.0466 64.9834 91.8315 65.3018L91.8438 65.2853C91.8432 65.286 91.8427 65.2867 91.8421 65.2874C91.5526 65.6639 91.2583 66.036 90.9542 66.3969C90.7657 66.6207 90.5734 66.8402 90.376 67.0522L90.4066 67.0218C90.4062 67.0221 90.4058 67.0225 90.4054 67.0229C88.4266 68.9371 86.8275 71.0164 84.7997 72.638C84.7961 72.6409 84.7925 72.6438 84.7889 72.6467C83.2923 73.8589 81.9413 75.2186 80.504 76.3447C80.5004 76.3474 80.4967 76.3502 80.4931 76.3529C77.3782 78.7592 74.2509 81.1051 70.9732 83.2453C70.9704 83.2472 70.9675 83.249 70.9647 83.2509C66.9739 85.8643 63.0595 88.6183 58.9943 91.0435C58.9929 91.0444 58.9914 91.0452 58.9899 91.0461C56.9866 92.2097 54.9814 93.3731 52.9226 94.375C52.1377 94.7553 51.3431 95.1024 50.5309 95.4214Z" fill="#26190B"/>
<path d="M105.336 80.4135C105.194 80.3555 105.034 80.3564 104.892 80.4162C104.75 80.476 104.638 80.5897 104.579 80.7323C104.521 80.8749 104.522 81.0347 104.582 81.1766C104.642 81.3185 104.756 81.4309 104.898 81.4889C104.898 81.4889 104.898 81.4889 104.898 81.4889C105.304 81.6543 105.701 81.8152 106.103 81.9777C109.952 83.4299 113.314 85.1917 117.818 86.0352C117.83 86.0336 117.84 86.0322 117.849 86.0309C121.585 85.4682 125.188 84.4773 128.754 83.283C128.986 83.2002 129.228 83.1122 129.465 83.0107C129.486 83.0012 129.499 82.9953 129.511 82.9896C129.553 82.97 129.59 82.9409 129.627 82.9028C129.647 82.8829 129.665 82.863 129.693 82.8324C129.699 82.825 129.71 82.815 129.721 82.8025C129.729 82.7949 129.738 82.7855 129.75 82.7721C129.765 82.7412 129.798 82.7661 129.827 82.5903C129.844 82.4958 129.726 82.3634 129.699 82.3619C129.659 82.34 129.627 82.335 129.617 82.3336C129.589 82.3297 129.573 82.3316 129.563 82.3329C129.54 82.3361 129.531 82.3406 129.521 82.3448C129.401 82.4149 129.353 82.4967 129.274 82.5582C129.264 82.567 129.256 82.5826 129.25 82.598C129.245 82.6137 129.244 82.6279 129.247 82.6411C129.25 82.6543 129.258 82.6663 129.269 82.6779C129.281 82.6894 129.295 82.6995 129.309 82.7027C129.398 82.7255 129.517 82.7621 129.568 82.8091C129.568 82.8123 129.569 82.816 129.558 82.8192C129.553 82.8206 129.544 82.8228 129.52 82.8199C129.512 82.8188 129.484 82.8149 129.446 82.7942C129.42 82.7936 129.306 82.6642 129.322 82.5721C129.35 82.4019 129.38 82.4301 129.39 82.4039C129.399 82.3936 129.404 82.3878 129.407 82.3838C129.411 82.3769 129.41 82.3739 129.409 82.3715C129.4 82.3634 129.379 82.3629 129.36 82.3626C129.321 82.3623 129.28 82.3688 129.242 82.3845C129.231 82.3891 129.219 82.3939 129.207 82.399C129.002 82.4758 128.764 82.5514 128.536 82.6201C124.99 83.6224 121.313 84.3365 117.688 84.8811C117.678 84.8824 117.669 84.8837 117.66 84.8849C114.258 84.1429 110.219 82.3386 106.538 80.9012C106.137 80.7391 105.741 80.5785 105.336 80.4135Z" fill="#26190B"/>
<path d="M113.728 53.6362C113.587 53.6048 113.44 53.6305 113.318 53.7078C113.196 53.7851 113.11 53.9075 113.079 54.0482C113.048 54.1889 113.073 54.3362 113.151 54.4579C113.228 54.5796 113.35 54.6656 113.491 54.697C113.491 54.697 113.491 54.697 113.491 54.697C113.731 54.7506 113.967 54.8047 114.204 54.8612C116.479 55.3914 118.647 56.1375 120.455 57.5462C120.456 57.5466 120.456 57.547 120.457 57.5473L120.381 57.4784C121.658 58.8892 122.951 60.362 124.08 61.8066C124.08 61.8067 124.081 61.8067 124.081 61.8067L124.104 61.8375C124.218 61.9762 124.35 62.1082 124.476 62.2205C124.684 62.4061 124.887 62.5611 125.09 62.7145C125.213 62.8072 125.368 62.8471 125.52 62.8253C125.673 62.8035 125.811 62.7218 125.903 62.5983C125.996 62.4747 126.036 62.3195 126.014 62.167C125.992 62.0144 125.91 61.877 125.787 61.7848C125.787 61.7848 125.787 61.7848 125.787 61.7848C125.596 61.6417 125.408 61.4971 125.249 61.3554C125.151 61.2685 125.07 61.188 124.993 61.0963L125.017 61.127C125.017 61.127 125.017 61.1269 125.017 61.1269C123.77 59.5595 122.483 58.1839 121.184 56.7465L121.109 56.6776C121.108 56.6772 121.108 56.6768 121.107 56.6765C119.17 55.1612 116.763 54.3368 114.456 53.8039C114.213 53.746 113.973 53.6908 113.728 53.6362Z" fill="#26190B"/>
<path d="M124.526 61.6697C124.404 61.7729 124.329 61.9199 124.316 62.0786C124.304 62.2372 124.354 62.3944 124.457 62.5156C124.561 62.6369 124.708 62.7122 124.866 62.725C125.025 62.7377 125.182 62.687 125.303 62.5839C125.303 62.5839 125.303 62.5839 125.303 62.5839C125.485 62.4291 125.659 62.2808 125.838 62.1284C127.583 60.6969 129.221 59.0184 131.098 58.0801L131.01 58.1149C131.016 58.1131 131.022 58.1113 131.028 58.1095C132.891 57.5326 134.643 56.7412 136.45 56.1187C136.464 56.1136 136.479 56.1085 136.494 56.1034C136.506 56.0991 136.516 56.0957 136.526 56.0923C136.625 56.0572 136.711 55.9913 136.807 55.9091C136.82 55.8981 136.83 55.8885 136.854 55.8723C136.864 55.8657 136.861 55.8672 136.893 55.8479C136.904 55.8403 136.898 55.8462 136.934 55.8176C136.952 55.7979 136.991 55.7796 137.025 55.6732C137.039 55.6246 137.04 55.5268 136.99 55.4519C136.943 55.3804 136.891 55.3567 136.86 55.3433C136.7 55.3014 136.757 55.3292 136.729 55.3247C136.696 55.3306 136.692 55.3355 136.682 55.3402C136.647 55.359 136.626 55.3767 136.601 55.3946C136.554 55.4302 136.509 55.4648 136.463 55.4953C136.436 55.5134 136.413 55.5468 136.399 55.5817C136.386 55.617 136.381 55.651 136.389 55.6826C136.396 55.7141 136.415 55.7425 136.444 55.7678C136.472 55.7927 136.507 55.8125 136.539 55.8164C136.594 55.8228 136.65 55.8333 136.704 55.8459C136.73 55.8523 136.759 55.8587 136.776 55.868C136.778 55.8705 136.788 55.873 136.767 55.8779C136.743 55.8733 136.802 55.9007 136.646 55.8598C136.616 55.8466 136.564 55.8231 136.517 55.7518C136.467 55.6772 136.468 55.5797 136.483 55.5313C136.516 55.4254 136.554 55.4077 136.572 55.3888C136.605 55.3616 136.6 55.3677 136.609 55.361C136.633 55.3458 136.627 55.3485 136.63 55.3452C136.63 55.3389 136.616 55.3378 136.604 55.3357C136.503 55.3216 136.391 55.3168 136.293 55.3429C136.284 55.3454 136.274 55.348 136.264 55.3507C136.252 55.3538 136.236 55.3577 136.221 55.3617C134.342 55.8471 132.486 56.4022 130.674 56.9626C130.668 56.9643 130.663 56.9661 130.657 56.9678L130.569 57.0027C128.372 58.1253 126.818 59.7828 125.059 61.2152C124.881 61.3674 124.707 61.5154 124.526 61.6697Z" fill="#26190B"/>
<path d="M129.124 80.7943C129.054 80.9378 129.044 81.1031 129.096 81.2539C129.149 81.4047 129.259 81.5285 129.402 81.5983C129.546 81.668 129.711 81.6778 129.862 81.6256C130.012 81.5734 130.136 81.4635 130.206 81.32C130.206 81.32 130.206 81.32 130.206 81.32C130.326 81.0739 130.445 80.8277 130.565 80.5812C130.88 79.9308 131.195 79.2821 131.503 78.6187C131.503 78.6187 131.503 78.6186 131.503 78.6186C131.925 77.6635 132.447 76.8035 132.935 75.8759C132.935 75.8758 132.935 75.8757 132.935 75.8756C134.412 73.0905 135.899 70.2858 137.308 67.4457C137.429 67.2002 137.551 66.954 137.672 66.7072C137.749 66.5498 137.761 66.3681 137.705 66.2022C137.648 66.0362 137.528 65.8995 137.371 65.8222C137.213 65.7448 137.032 65.7331 136.866 65.7897C136.7 65.8463 136.563 65.9664 136.486 66.1237C136.486 66.1237 136.486 66.1237 136.486 66.1237C136.365 66.3686 136.244 66.6129 136.123 66.8567C134.72 69.6783 133.243 72.4618 131.76 75.2564C131.76 75.2565 131.76 75.2566 131.76 75.2567C131.275 76.1785 130.831 77.1617 130.41 78.1139C130.41 78.1139 130.41 78.114 130.41 78.114C130.111 78.7588 129.796 79.4084 129.482 80.0564C129.363 80.3023 129.243 80.5482 129.124 80.7943Z" fill="#26190B"/>
<path d="M136.896 65.6893C136.751 65.6583 136.6 65.6863 136.475 65.767C136.351 65.8476 136.264 65.9744 136.233 66.1194C136.202 66.2645 136.23 66.4158 136.31 66.5402C136.391 66.6646 136.518 66.7519 136.663 66.7828C136.663 66.7828 136.663 66.7828 136.663 66.7828C137.056 66.8665 137.448 66.9487 137.841 67.0287C139.747 67.4244 141.72 67.7352 143.672 67.8538C143.685 67.8548 143.699 67.8558 143.713 67.8568C144.239 67.874 144.724 68.1122 145.54 68.104C145.557 68.1031 145.574 68.102 145.591 68.1007C146.118 68.0455 146.458 67.7715 146.719 67.461C146.732 67.4455 146.744 67.4298 146.756 67.414C147.8 65.8339 146.921 64.3779 146.723 63.2197C146.723 63.2191 146.723 63.2185 146.723 63.218C146.393 61.3699 144.725 60.0348 143.491 59.1599L143.393 59.0968C143.384 59.0923 143.375 59.0877 143.366 59.0831C142.138 58.461 140.878 57.9057 139.639 57.3082C139.566 57.2731 139.493 57.2379 139.42 57.2024C139.411 57.1976 139.41 57.1968 139.408 57.196C139.096 57.0495 138.687 57.1636 138.349 57.1831C138.346 57.1833 138.343 57.1847 138.341 57.1865C138.338 57.1883 138.336 57.1904 138.336 57.1928C138.335 57.1952 138.335 57.198 138.335 57.201C138.336 57.204 138.337 57.207 138.339 57.2088C138.339 57.2088 138.339 57.2088 138.339 57.2088C138.595 57.4453 138.776 57.7917 139.026 57.9375C139.027 57.9383 139.029 57.9391 139.03 57.9399C139.093 57.9779 139.162 58.0197 139.232 58.0616C140.42 58.7743 141.612 59.4862 142.845 60.111C142.854 60.1156 142.863 60.1202 142.872 60.1248L142.774 60.0618C144.171 61.0755 145.304 61.9772 145.607 63.4813C145.608 63.4819 145.608 63.4825 145.608 63.4832C145.909 64.7453 146.401 66.0555 145.848 66.7242C145.843 66.7307 145.838 66.7371 145.833 66.7434C145.73 66.8779 145.558 66.9706 145.501 66.9692C145.493 66.9699 145.485 66.9705 145.476 66.971C145.101 67.0005 144.453 66.7791 143.792 66.7414C143.779 66.7404 143.765 66.7395 143.751 66.7385C141.827 66.6203 139.961 66.3257 138.064 65.9329C137.675 65.8539 137.286 65.7724 136.896 65.6893Z" fill="#26190B"/>
<path d="M113.657 89.0471C113.515 89.0345 113.374 89.0788 113.265 89.1701C113.156 89.2614 113.088 89.3922 113.075 89.5339C113.063 89.6755 113.107 89.8163 113.198 89.9253C113.29 90.0344 113.421 90.1026 113.562 90.1152C113.562 90.1152 113.562 90.1152 113.562 90.1152C113.809 90.137 114.056 90.1589 114.304 90.1807C117.899 90.4945 121.491 90.8288 125.105 91.0729C125.106 91.0729 125.107 91.073 125.107 91.073C125.972 91.1235 126.817 91.1838 127.734 91.1501C127.993 91.1397 128.314 91.0981 128.566 91.0322C128.705 90.9993 128.824 90.9128 128.899 90.7917C128.973 90.6706 128.997 90.5248 128.964 90.3865C128.931 90.2482 128.844 90.1286 128.723 90.054C128.602 89.9795 128.456 89.9561 128.318 89.989C128.09 90.0465 127.915 90.0673 127.681 90.0792C126.883 90.1097 126.021 90.0533 125.175 90.0029C125.174 90.0029 125.174 90.0028 125.173 90.0028C121.591 89.7609 117.991 89.4262 114.398 89.1126C114.151 89.0908 113.904 89.0689 113.657 89.0471Z" fill="#26190B"/>
<path d="M127.26 89.7094C127.113 89.7444 126.985 89.8364 126.906 89.9652C126.827 90.094 126.802 90.2491 126.837 90.3962C126.872 90.5434 126.964 90.6706 127.093 90.7499C127.221 90.8292 127.377 90.8541 127.524 90.8191C127.727 90.7707 127.931 90.7223 128.134 90.6739C130.68 90.0683 133.225 89.4629 135.77 88.8575C135.77 88.8575 135.77 88.8574 135.771 88.8573C136.728 88.6211 137.636 88.4478 138.656 88.1325C138.657 88.1323 138.657 88.1321 138.657 88.132C138.844 88.0685 139.023 87.9692 139.169 87.8549C139.345 87.717 139.484 87.561 139.63 87.3797C139.669 87.3308 139.704 87.2772 139.722 87.2187C139.739 87.1601 139.738 87.1012 139.716 87.0494C139.694 86.9976 139.653 86.9558 139.598 86.9277C139.544 86.8995 139.481 86.8872 139.419 86.8814C139.419 86.8814 139.419 86.8814 139.419 86.8814C139.178 86.8625 138.941 86.8863 138.738 86.9255C138.568 86.9582 138.427 86.995 138.283 87.0441C138.283 87.0442 138.283 87.0443 138.282 87.0445C137.442 87.3056 136.443 87.5183 135.507 87.7476C135.506 87.7477 135.506 87.7478 135.506 87.7479C132.961 88.3532 130.416 88.9587 127.87 89.5642C127.667 89.6126 127.463 89.661 127.26 89.7094Z" fill="#26190B"/>
<path d="M132.264 77.111C132.108 77.1281 131.966 77.2062 131.868 77.3284C131.77 77.4505 131.724 77.6065 131.741 77.7621C131.758 77.9178 131.837 78.0603 131.959 78.1582C132.081 78.2562 132.237 78.3017 132.392 78.2846C132.392 78.2846 132.392 78.2846 132.392 78.2846C132.518 78.2709 132.646 78.2624 132.776 78.2582C134.224 78.2287 135.749 78.614 137.195 79.1074C137.195 79.1075 137.195 79.1075 137.196 79.1075L137.166 79.0966C137.963 79.4322 138.868 79.6364 139.442 80.1208C139.442 80.1209 139.442 80.121 139.442 80.1211L139.414 80.0831C139.463 80.14 139.524 80.1968 139.589 80.2659C139.681 80.3628 139.78 80.4831 139.86 80.6116C139.87 80.6274 139.889 80.6404 139.908 80.6486C139.928 80.6567 139.948 80.6593 139.966 80.655C139.984 80.6507 140 80.6396 140.014 80.6234C140.028 80.6072 140.039 80.5872 140.041 80.5686C140.054 80.4182 140.087 80.2587 140.08 80.086C140.076 79.9647 140.05 79.8367 139.991 79.7217L139.963 79.6836C139.963 79.6835 139.963 79.6833 139.963 79.6831C139.304 78.829 138.457 78.3698 137.611 78.0027L137.582 77.9917C137.581 77.9917 137.581 77.9917 137.581 77.9916C136.045 77.4731 134.459 77.0491 132.738 77.0782C132.581 77.0832 132.423 77.0935 132.264 77.111Z" fill="#26190B"/>
<path d="M138.857 87.3028C138.767 87.1843 138.633 87.1066 138.485 87.0867C138.337 87.0669 138.188 87.1065 138.069 87.1969C137.951 87.2873 137.873 87.4211 137.853 87.5688C137.833 87.7166 137.873 87.8661 137.963 87.9846C137.963 87.9846 137.963 87.9846 137.963 87.9846C138.139 88.2143 138.315 88.4427 138.495 88.6705C138.998 89.2809 139.414 89.8914 140.194 90.4681C140.211 90.4795 140.229 90.4906 140.246 90.5014C140.782 90.799 141.199 90.6807 141.525 90.6279C141.546 90.6236 141.566 90.6192 141.586 90.6147C142.146 90.5177 142.625 90.054 142.867 89.6957C142.884 89.6721 142.899 89.6496 142.916 89.6258C144.985 86.6178 143.651 82.8664 142.157 80.244L142.128 80.1943C142.12 80.1823 142.111 80.1704 142.103 80.1586C141.904 79.8636 141.621 79.5775 141.302 79.3839C141.294 79.379 141.286 79.3742 141.278 79.3695C141.033 79.2239 140.841 79.1417 140.647 79.0427C140.396 78.9182 140.149 78.7901 139.9 78.6572C139.76 78.5828 139.597 78.5666 139.445 78.6124C139.293 78.6582 139.166 78.7623 139.091 78.9018C139.017 79.0413 139 79.2049 139.046 79.3565C139.092 79.5082 139.196 79.6354 139.335 79.7106C139.335 79.7106 139.335 79.7106 139.335 79.7106C139.592 79.8491 139.85 79.9845 140.112 80.1151C140.31 80.2154 140.524 80.3143 140.657 80.395C140.661 80.3977 140.666 80.4005 140.67 80.4032C140.85 80.5144 140.989 80.6489 141.119 80.8361C141.124 80.8436 141.129 80.8511 141.134 80.8587L141.104 80.809C142.584 83.382 143.591 86.6011 141.941 88.9607C141.929 88.9785 141.917 88.9951 141.905 89.0122C141.696 89.2992 141.563 89.4401 141.325 89.497C141.31 89.5008 141.294 89.5046 141.279 89.5081C141.041 89.5736 140.821 89.5552 140.837 89.545C140.829 89.5404 140.822 89.5354 140.813 89.53C140.349 89.1984 139.838 88.5501 139.377 87.974C139.202 87.7529 139.03 87.529 138.857 87.3028Z" fill="#26190B"/>
<path d="M99.8592 58.5241C99.7843 58.6519 99.7631 58.8043 99.8005 58.9477C99.8379 59.0911 99.9307 59.2138 100.059 59.2888C100.186 59.3638 100.339 59.385 100.482 59.3476C100.626 59.3102 100.748 59.2174 100.823 59.0895C100.823 59.0895 100.823 59.0895 100.823 59.0895C101.446 58.0168 101.761 56.8515 101.972 55.7011C102.38 53.3585 102.364 51.0202 102.254 48.7047C102.254 48.7037 102.254 48.7026 102.254 48.7015C102.174 46.45 101.512 44.2725 100.826 42.2147C100.825 42.213 100.825 42.2112 100.824 42.2094C99.5684 38.5202 98.1348 34.9181 96.5526 31.3633C96.5501 31.3579 96.5476 31.3524 96.5452 31.3469C95.2097 28.3671 93.6803 25.4418 91.8221 22.7276C91.8166 22.7195 91.8111 22.7115 91.8056 22.7034C89.6915 19.6062 87.3167 16.6671 84.5838 14.0782C84.5759 14.0707 84.5681 14.0632 84.5603 14.0558C83.9035 13.4323 83.2534 12.8239 82.5439 12.2195C82.5337 12.211 82.5237 12.2027 82.514 12.1947C82.6334 12.2684 82.706 12.5378 82.6727 12.6194C82.6531 12.7135 82.6337 12.7281 82.6291 12.7386C82.6187 12.7526 82.6385 12.7271 82.663 12.7064C82.7143 12.6608 82.7918 12.608 82.8646 12.5697C82.8664 12.5687 82.8682 12.5678 82.8701 12.5668C85.3279 11.8447 88.6313 13.2015 91.4516 14.1239L91.3799 14.0925C91.3816 14.0934 91.3832 14.0943 91.3849 14.0951C92.0747 14.4582 92.7661 14.827 93.4336 15.2379C93.6864 15.3938 93.9356 15.556 94.1757 15.7269C94.1763 15.7273 94.177 15.7278 94.1776 15.7283C94.8303 16.1766 95.4434 16.7057 96.0494 17.2866C96.0704 17.3065 96.1 17.3176 96.1305 17.3186C96.161 17.3196 96.1897 17.3104 96.2118 17.2919C96.234 17.2733 96.2481 17.2466 96.2525 17.2165C96.2568 17.1863 96.2511 17.1552 96.2351 17.1311C96.2351 17.1311 96.2351 17.1311 96.2351 17.1311C95.7803 16.4434 95.332 15.6892 94.6805 15.1101C94.6798 15.1095 94.6792 15.1089 94.6786 15.1084C94.4459 14.8951 94.2068 14.6903 93.9623 14.493C93.3173 13.9738 92.6325 13.5037 91.8989 13.1175C91.8971 13.1166 91.8953 13.1156 91.8936 13.1147L91.8219 13.0833C88.8376 12.196 85.9836 10.6102 82.3694 11.612C82.3657 11.6139 82.3621 11.6158 82.3584 11.6178C82.2123 11.6966 82.0821 11.7829 81.9472 11.9018C81.8794 11.9637 81.8112 12.027 81.7316 12.1444C81.6929 12.2068 81.6437 12.2772 81.6128 12.4326C81.5668 12.5749 81.6591 12.9121 81.8288 13.0246C81.8371 13.0314 81.8457 13.0385 81.8546 13.046C82.5104 13.6042 83.1625 14.2309 83.8059 14.845C83.8136 14.8523 83.8213 14.8597 83.8291 14.8672C86.4935 17.4002 88.8151 20.2761 90.8883 23.3273C90.8937 23.3352 90.8991 23.3431 90.9044 23.351C92.7118 26.0036 94.1816 28.8702 95.4992 31.8163C95.5016 31.8217 95.504 31.8271 95.5065 31.8325C97.067 35.3455 98.4951 38.9421 99.7315 42.5754C99.7321 42.5771 99.7327 42.5788 99.7333 42.5806C100.417 44.6327 101.063 46.6525 101.137 48.7585C101.138 48.7595 101.138 48.7606 101.138 48.7616C101.247 51.0294 101.255 53.313 100.872 55.5032C100.677 56.5761 100.378 57.6341 99.8592 58.5241Z" fill="#26190B"/>
<path d="M95.3973 17.3861C95.4295 17.5214 95.5141 17.6384 95.6325 17.7113C95.751 17.7842 95.8935 17.8071 96.0288 17.7749C96.1641 17.7427 96.2811 17.6581 96.354 17.5397C96.4269 17.4212 96.4498 17.2787 96.4176 17.1434C96.4176 17.1434 96.4176 17.1434 96.4176 17.1434C96.3444 16.8353 96.2715 16.5302 96.2086 16.2308C96.1714 16.0526 96.1374 15.8752 96.1145 15.7087C96.1144 15.708 96.1143 15.7073 96.1142 15.7066C96.0902 15.5568 96.1182 15.4332 96.1381 15.4539C96.1476 15.4821 96.1499 15.483 96.2473 15.4282C96.2484 15.4276 96.2495 15.427 96.2507 15.4263C97.0793 14.9732 98.2309 15.0092 99.2557 15.284C99.2557 15.284 99.2558 15.284 99.2558 15.284C101.685 16.0597 103.803 18.201 105.351 20.3883L105.293 20.2802C105.293 20.282 105.294 20.2839 105.295 20.2857C105.576 20.9729 106.116 21.6915 106.309 22.4963C106.309 22.4974 106.309 22.4984 106.31 22.4995C106.383 22.8065 106.456 23.113 106.529 23.4199C106.602 23.728 106.675 24.0363 106.749 24.3445C106.764 24.4082 106.804 24.4634 106.859 24.4977C106.915 24.5321 106.982 24.5429 107.046 24.5277C107.11 24.5125 107.165 24.4727 107.199 24.4169C107.234 24.3611 107.244 24.2939 107.229 24.2301C107.229 24.2301 107.229 24.2301 107.229 24.2301C107.156 23.9219 107.083 23.6137 107.009 23.3055C106.936 22.9987 106.863 22.6922 106.79 22.3851C106.79 22.3841 106.79 22.383 106.79 22.382C106.596 21.5766 106.76 20.6724 106.418 19.8215C106.417 19.8192 106.416 19.817 106.415 19.8147L106.357 19.7066C104.641 17.3259 102.595 15.1039 99.5774 14.1014C99.5774 14.1014 99.5773 14.1013 99.5773 14.1013C98.342 13.783 96.947 13.689 95.6686 14.3778C95.6659 14.3793 95.6633 14.3808 95.6606 14.3823C95.4619 14.4922 95.179 14.7254 95.0777 15.0838C94.9856 15.4321 95.0554 15.6611 95.075 15.8487C95.0751 15.8496 95.0753 15.8505 95.0754 15.8514C95.1042 16.0593 95.1421 16.2538 95.1821 16.4456C95.2494 16.7665 95.324 17.0776 95.3973 17.3861Z" fill="#26190B"/>
<path d="M106.561 24.5003C106.555 24.629 106.6 24.7548 106.687 24.8499C106.774 24.945 106.895 25.0016 107.024 25.0074C107.153 25.0132 107.279 24.9676 107.374 24.8806C107.469 24.7937 107.525 24.6725 107.531 24.5438C107.531 24.5438 107.531 24.5438 107.531 24.5438C107.564 23.8659 107.613 23.1699 107.779 22.5867C107.815 22.4665 107.858 22.3539 107.905 22.2663C107.906 22.264 107.907 22.2617 107.908 22.2594C108.337 21.474 109.544 21.1606 110.593 21.0981C110.6 21.0978 110.608 21.0976 110.614 21.0976C111.191 21.024 111.673 22.3966 112.09 23.4932C112.105 23.5307 112.12 23.5678 112.134 23.6045C112.832 25.2023 112.707 26.7472 112.64 28.6466C112.64 28.6923 112.64 28.7384 112.64 28.7848C112.625 30.9412 112.553 33.1067 112.433 35.2626C112.431 35.2954 112.429 35.3285 112.427 35.3618C112.319 36.9574 112.046 38.5742 111.838 40.2327C111.835 40.257 111.832 40.2814 111.829 40.3058C111.674 41.516 111.345 42.7444 111.098 44.0323C111.094 44.0516 111.091 44.0708 111.087 44.0902C110.87 45.2396 110.676 46.3692 110.403 47.4645C110.4 47.4776 110.396 47.4907 110.393 47.5037C110.113 48.6271 109.876 49.7649 109.669 50.8954L109.678 50.8547C109.676 50.8615 109.674 50.8683 109.672 50.8751C109.518 51.497 109.355 52.1113 109.199 52.7521C109.142 52.9881 109.086 53.2264 109.042 53.4935L109.051 53.4485C109.05 53.4503 109.05 53.4521 109.049 53.4539C108.956 53.8132 108.792 54.3123 108.671 54.7518C108.622 54.9258 108.644 55.1121 108.733 55.2697C108.821 55.4274 108.969 55.5435 109.143 55.5925C109.317 55.6414 109.504 55.6193 109.661 55.5308C109.819 55.4424 109.935 55.2949 109.984 55.1208C109.984 55.1208 109.984 55.1208 109.984 55.1208C110.106 54.6711 110.236 54.2963 110.375 53.7648C110.375 53.762 110.376 53.7592 110.377 53.7564L110.385 53.7114C110.418 53.5146 110.468 53.2928 110.522 53.071C110.67 52.4605 110.837 51.8313 110.992 51.2028C110.993 51.1959 110.995 51.189 110.997 51.1821L111.006 51.1415C111.209 50.0241 111.433 48.9227 111.705 47.8282C111.708 47.8155 111.711 47.8028 111.714 47.7901C112.001 46.6319 112.2 45.4719 112.412 44.3404C112.415 44.3214 112.419 44.3024 112.422 44.2836C112.653 43.0566 112.979 41.8019 113.143 40.4689C113.147 40.4419 113.15 40.4149 113.153 40.3879C113.345 38.7767 113.613 37.1354 113.719 35.4397C113.721 35.4038 113.723 35.3681 113.725 35.3326C113.835 33.152 113.901 30.9747 113.902 28.7876C113.902 28.7405 113.902 28.6937 113.902 28.6472C113.957 27.005 114.064 24.8609 113.257 23.1579C113.241 23.1177 113.224 23.0773 113.207 23.0365C112.982 22.5012 112.776 21.9158 112.454 21.3264C112.159 20.7862 111.572 19.9481 110.574 19.9972C110.555 19.9982 110.536 19.9994 110.517 20.0009C109.279 20.148 107.856 20.4635 107.055 21.7952C107.052 21.7997 107.05 21.8043 107.047 21.8089C106.956 21.9817 106.897 22.148 106.848 22.3102C106.635 23.0741 106.598 23.7859 106.561 24.5003Z" fill="#26190B"/>
<path d="M92.5343 64.4268C92.4356 64.5119 92.3749 64.6327 92.3653 64.7626C92.3557 64.8926 92.3982 65.021 92.4833 65.1196C92.5684 65.2183 92.6892 65.279 92.8191 65.2886C92.949 65.2982 93.0774 65.2557 93.1761 65.1706C93.1761 65.1706 93.1761 65.1706 93.1761 65.1706C93.2958 65.0673 93.4155 64.964 93.5352 64.8608C94.9861 63.6075 96.439 62.3589 97.8822 61.0894C97.8824 61.0892 97.8825 61.0891 97.8827 61.0889C98.3652 60.6665 98.8914 60.2067 99.3333 59.8132C99.3334 59.8132 99.3335 59.8131 99.3336 59.813C99.5092 59.6693 99.7594 59.5003 99.9857 59.3318C100.115 59.2365 100.244 59.1407 100.372 59.0438C100.483 58.9603 100.555 58.8364 100.574 58.6991C100.592 58.5617 100.555 58.4222 100.471 58.3115C100.387 58.2008 100.262 58.128 100.125 58.1095C99.9872 58.091 99.8485 58.1282 99.7387 58.2126C99.7387 58.2126 99.7387 58.2126 99.7387 58.2126C99.6144 58.3082 99.4908 58.4019 99.3661 58.4949C99.1437 58.6638 98.9261 58.8077 98.6686 59.0222C98.6685 59.0223 98.6684 59.0224 98.6683 59.0225C98.1493 59.4969 97.7262 59.92 97.2326 60.3524C97.2324 60.3525 97.2322 60.3527 97.232 60.3529C95.7985 61.6138 94.3434 62.8646 92.8934 64.117C92.7737 64.2202 92.654 64.3235 92.5343 64.4268Z" fill="#26190B"/>
<path d="M27.2608 124.115C30.0481 120.878 27.3233 118.147 25.6675 117.417L21.7164 122.962C22.9337 124.756 25.9329 124.533 27.2608 124.115Z" fill="#26190B"/>
<defs>
<linearGradient id="paint0_linear_1908_10388" x1="69.9106" y1="15.455" x2="102.091" y2="150.738" gradientUnits="userSpaceOnUse">
<stop stop-color="#3C3A36"/>
<stop offset="1" stop-color="#272523"/>
</linearGradient>
<linearGradient id="paint1_linear_1908_10388" x1="30.6636" y1="87.4094" x2="37.2256" y2="96.6356" gradientUnits="userSpaceOnUse">
<stop stop-color="#C9C1C1"/>
<stop offset="1" stop-color="#DF949C"/>
</linearGradient>
<linearGradient id="paint2_linear_1908_10388" x1="75.8707" y1="114.597" x2="79.0821" y2="128.097" gradientUnits="userSpaceOnUse">
<stop stop-color="#2E2C29"/>
<stop offset="1" stop-color="#2C2A27"/>
</linearGradient>
<linearGradient id="paint3_linear_1908_10388" x1="24.4308" y1="92.9535" x2="27.5623" y2="106.118" gradientUnits="userSpaceOnUse">
<stop stop-color="#DF6602"/>
<stop offset="1" stop-color="#793701"/>
</linearGradient>
<linearGradient id="paint4_linear_1908_10388" x1="54.7855" y1="92.9332" x2="61.3267" y2="120.432" gradientUnits="userSpaceOnUse">
<stop stop-color="#DF6602"/>
<stop offset="1" stop-color="#793701"/>
</linearGradient>
</defs>
</svg>
