<svg width="282" height="363" viewBox="0 0 282 363" fill="none" xmlns="http://www.w3.org/2000/svg">
<g clip-path="url(#clip0_2232_105)">
<path d="M-119.885 202.018C-87.4692 171.184 -13.4805 77.8251 19.4619 35C50.2919 112.481 129.821 160.181 165.731 174.346C143.989 193.124 62.9511 145.687 82.7166 169.405C102.482 193.124 179.567 229.69 158.814 225.737C142.211 222.574 93.917 217.83 71.8456 215.854C92.5993 286.021 197.356 292.939 187.473 299.857C179.567 305.391 120.93 297.551 92.5993 292.939C145.966 351.247 203.286 346.306 203.286 360.142C203.286 371.21 140.036 373.319 108.412 372.989C138.06 408.567 240.84 416.473 237.875 424.379C235.504 430.704 169.026 427.015 136.083 424.379C137.665 450.47 181.544 460.287 203.286 461.934L213.169 476.758C187.869 488.617 102.482 461.934 62.9511 447.11C64.9277 456.992 -19.0755 510.359 -60.583 518.265C-93.4342 524.523 -43.2291 468.101 -13.1256 438.187C-34.6273 458.374 -119.731 470.69 -109.997 461.934C-102.086 454.818 -92.8648 433.933 -89.2429 424.379C-139.052 426.751 -162.704 420.097 -168.305 416.473C-114.543 384.849 -51.6885 336.094 -26.9817 315.669C-90.2311 359.153 -125.15 354.212 -134.703 346.306C-90.5408 314.06 -39.4896 258.714 -12.4099 226.834C-42.2866 251.779 -119.885 259.508 -119.885 253.408C-119.885 247.874 -66.5178 203.665 -39.8344 182.253C-80.0242 201.689 -152.3 232.852 -119.885 202.018Z" fill="url(#paint0_linear_2232_105)"/>
<path d="M-121.029 203.204C-120.978 203.21 -119.787 201.191 -117.455 197.147C-115.123 193.103 -112.543 189.737 -109.717 187.047C-106.89 184.358 -103.664 181.341 -100.039 177.995C-96.4139 174.65 -92.5406 171.002 -88.419 167.053C-84.2974 163.104 -80.1129 158.951 -75.8654 154.594C-71.6179 150.236 -67.6311 146.055 -63.905 142.051C-60.1788 138.047 -56.153 133.606 -51.8275 128.729C-47.502 123.851 -42.5672 118.036 -37.023 111.285C-31.4788 104.533 -28.7067 101.158 -28.7067 101.158C-28.7067 101.158 -25.3252 96.6956 -18.5621 87.7717C-11.799 78.8477 -8.41751 74.3858 -8.41751 74.3858L17.4868 37.6552C17.4705 37.607 17.4417 37.5681 17.4002 37.5386C17.3588 37.5091 17.3126 37.4946 17.2617 37.4951C17.2108 37.4956 17.1649 37.5111 17.124 37.5414C17.0832 37.5717 12.7489 43.6723 4.12129 55.8431C-4.50633 68.014 -12.2001 78.5593 -18.9601 87.479C-25.72 96.3987 -31.8701 104.232 -37.4102 110.978C-42.9503 117.725 -47.8812 123.534 -52.2027 128.407C-56.5243 133.28 -60.5469 137.718 -64.2706 141.719C-67.9943 145.72 -71.9785 149.898 -76.2232 154.253C-80.4679 158.607 -84.6491 162.757 -88.7667 166.702C-92.8842 170.647 -96.7544 174.292 -100.377 177.635C-104 180.979 -107.226 183.997 -110.057 186.69C-112.887 189.383 -115.459 192.764 -117.773 196.834C-120.087 200.904 -121.239 202.964 -121.23 203.014M-121.029 203.204C-121.079 203.197 -121.123 203.176 -121.16 203.141C-121.197 203.106 -121.22 203.064 -121.23 203.014M-121.029 203.204C-120.978 203.21 -120.656 203.276 -120.063 203.403C-119.469 203.529 -117.686 203.639 -114.714 203.734C-111.741 203.829 -107.767 203.208 -102.79 201.868C-97.8125 200.529 -92.6139 198.897 -87.1936 196.971C-81.7733 195.045 -76.9016 193.266 -72.5787 191.633C-68.2557 190.001 -64.8022 188.683 -62.218 187.681C-59.6338 186.679 -57.3248 185.765 -55.291 184.938C-53.2572 184.112 -51.3659 183.355 -49.6171 182.668C-47.8683 181.98 -46.2461 181.395 -44.7503 180.913C-43.2546 180.431 -41.8841 180.165 -40.6387 180.114C-39.3934 180.064 -38.458 180.551 -37.8324 181.577C-37.2068 182.602 -37.5473 184.341 -38.8539 186.793C-40.1606 189.246 -42.2656 192.136 -45.169 195.464C-48.0724 198.791 -51.3737 202.219 -55.0728 205.745C-58.7719 209.272 -62.4993 212.6 -66.2548 215.732C-70.0103 218.863 -73.716 221.749 -77.3719 224.389C-81.0277 227.03 -84.5998 229.465 -88.0882 231.697C-91.5766 233.928 -94.9531 236.031 -98.2178 238.006C-101.482 239.981 -104.609 241.914 -107.599 243.806C-110.588 245.697 -113.317 248.17 -115.786 251.222C-118.255 254.275 -119.49 255.827 -119.491 255.878M-121.23 203.014C-121.239 202.964 -120.931 202.993 -120.307 203.102C-119.682 203.21 -117.846 203.286 -114.797 203.33C-111.748 203.373 -107.761 202.726 -102.837 201.389C-97.9132 200.051 -92.7474 198.422 -87.34 196.5C-81.9326 194.578 -77.0689 192.801 -72.749 191.17C-68.429 189.538 -64.9777 188.222 -62.3949 187.22C-59.8122 186.218 -57.505 185.304 -55.4735 184.479C-53.442 183.654 -51.5509 182.897 -49.8001 182.209C-48.0493 181.521 -46.4166 180.934 -44.9021 180.45C-43.3876 179.966 -41.97 179.721 -40.6492 179.715C-39.3284 179.709 -38.3002 180.291 -37.5646 181.461C-36.829 182.63 -37.1136 184.461 -38.4184 186.952C-39.7231 189.443 -41.8381 192.37 -44.7631 195.733C-47.6882 199.097 -51.0057 202.547 -54.7158 206.085C-58.4258 209.623 -62.1628 212.962 -65.9265 216.1C-69.6903 219.239 -73.4047 222.132 -77.0695 224.779C-80.7344 227.427 -84.3149 229.869 -87.8108 232.105C-91.3068 234.342 -94.6888 236.448 -97.9569 238.425C-101.225 240.402 -104.35 242.333 -107.332 244.217C-110.315 246.1 -113.048 248.557 -115.533 251.586C-118.018 254.614 -119.285 256.121 -119.333 256.104M-119.333 256.104C-119.381 256.087 -119.42 256.058 -119.449 256.017C-119.478 255.975 -119.492 255.929 -119.491 255.878M-119.333 256.104C-119.285 256.121 -118.72 256.128 -117.638 256.126C-116.557 256.123 -113.432 255.939 -108.264 255.572C-103.096 255.204 -96.5287 254.182 -88.5634 252.505C-80.5981 250.827 -72.4036 248.753 -63.9798 246.283C-55.5561 243.813 -48.1892 241.363 -41.8792 238.934C-35.5692 236.504 -30.9777 234.553 -28.1048 233.081C-25.2319 231.61 -22.7927 230.185 -20.7871 228.808C-18.7816 227.431 -16.908 226.035 -15.1664 224.621C-13.4247 223.206 -11.7561 221.798 -10.1605 220.395C-8.5649 218.993 -6.78294 217.554 -4.81462 216.079C-2.8463 214.603 -1.86482 213.841 -1.87019 213.79M-119.491 255.878C-119.49 255.827 -118.94 255.793 -117.839 255.777C-116.739 255.761 -113.58 255.549 -108.362 255.141C-103.145 254.733 -96.5661 253.691 -88.6262 252.017C-80.6863 250.342 -72.511 248.272 -64.1004 245.805C-55.6898 243.338 -48.3366 240.893 -42.0407 238.468C-35.7449 236.043 -31.1682 234.098 -28.3106 232.633C-25.453 231.169 -23.03 229.753 -21.0417 228.386C-19.0533 227.019 -17.1936 225.633 -15.4624 224.226C-13.7312 222.819 -12.0701 221.417 -10.4791 220.018C-8.88805 218.619 -7.09876 217.194 -5.11122 215.744C-3.12368 214.294 -2.10501 213.574 -2.05522 213.585M-2.05522 213.585C-2.00542 213.595 -1.96349 213.62 -1.92939 213.657C-1.8953 213.695 -1.87556 213.739 -1.87019 213.79M-2.05522 213.585C-2.10501 213.574 -2.26493 213.803 -2.53497 214.271C-2.805 214.739 -3.66934 216.138 -5.12799 218.468C-6.58664 220.798 -8.7336 223.949 -11.5688 227.92C-14.4041 231.892 -17.6322 236.289 -21.2532 241.112C-24.8743 245.935 -28.5278 250.693 -32.2138 255.385C-35.8998 260.077 -39.4077 264.316 -42.7374 268.103C-46.0671 271.889 -49.4409 275.427 -52.859 278.715C-56.2771 282.004 -59.8017 285.16 -63.4329 288.185C-67.0641 291.209 -70.8235 294.195 -74.7111 297.142C-78.5987 300.09 -82.6533 303.096 -86.8748 306.16C-91.0963 309.224 -95.4287 312.336 -99.8721 315.496C-104.315 318.656 -108.405 321.548 -112.14 324.171C-115.876 326.794 -119.169 329.13 -122.019 331.178C-124.87 333.226 -127.284 335.041 -129.262 336.625C-131.241 338.209 -132.775 339.656 -133.867 340.965C-134.958 342.275 -135.48 343.523 -135.431 344.708C-135.383 345.894 -134.694 346.901 -133.365 347.732C-132.036 348.562 -130.275 349.224 -128.081 349.719C-125.888 350.214 -123.541 350.567 -121.041 350.779C-118.541 350.991 -115.949 351.046 -113.263 350.942C-110.577 350.839 -107.437 350.436 -103.843 349.732C-100.248 349.029 -96.4551 347.963 -92.4645 346.533C-88.4738 345.103 -84.2522 343.345 -79.7994 341.259C-75.3467 339.173 -70.5557 336.819 -65.4266 334.196C-60.2975 331.574 -55.2562 328.996 -50.3027 326.462C-45.3492 323.929 -41.7615 322.084 -39.5394 320.928C-37.3173 319.772 -35.5511 318.827 -34.2409 318.093C-32.9307 317.36 -31.8493 316.732 -30.9965 316.21C-30.1437 315.687 -29.0246 315.083 -27.6392 314.396C-26.2537 313.709 -25.5604 313.341 -25.5594 313.29M-1.87019 213.79C-1.86482 213.841 -1.99031 214.098 -2.24667 214.561C-2.50304 215.024 -3.34118 216.416 -4.76108 218.735C-6.18099 221.054 -8.3123 224.206 -11.155 228.189C-13.9977 232.172 -17.2308 236.577 -20.8543 241.404C-24.4778 246.23 -28.1338 250.991 -31.8222 255.686C-35.5106 260.381 -39.0226 264.626 -42.3582 268.419C-45.6938 272.212 -49.0753 275.758 -52.5027 279.056C-55.9301 282.355 -59.4638 285.52 -63.1036 288.552C-66.7435 291.584 -70.5102 294.577 -74.4037 297.529C-78.2972 300.481 -82.356 303.49 -86.5803 306.557C-90.8046 309.623 -95.139 312.737 -99.5838 315.897C-104.028 319.058 -108.119 321.951 -111.855 324.574C-115.591 327.198 -118.884 329.534 -121.733 331.58C-124.582 333.627 -126.991 335.437 -128.96 337.012C-130.929 338.587 -132.45 340 -133.523 341.251C-134.597 342.502 -135.11 343.651 -135.063 344.697C-135.017 345.743 -134.347 346.65 -133.055 347.416C-131.762 348.182 -130.044 348.801 -127.899 349.273C-125.754 349.744 -123.443 350.085 -120.966 350.293C-118.489 350.501 -115.917 350.554 -113.25 350.45C-110.582 350.346 -107.464 349.944 -103.896 349.244C-100.328 348.544 -96.5605 347.482 -92.5939 346.058C-88.6272 344.635 -84.4248 342.883 -79.9866 340.802C-75.5484 338.722 -70.7674 336.372 -65.6436 333.752C-60.5198 331.133 -55.4812 328.556 -50.5278 326.022C-45.5744 323.489 -41.9873 321.644 -39.7665 320.489C-37.5457 319.334 -35.7825 318.39 -34.4768 317.659C-33.171 316.928 -32.0946 316.303 -31.2474 315.784C-30.4003 315.265 -29.2788 314.678 -27.883 314.022C-26.4872 313.366 -25.7652 313.046 -25.7172 313.063M-25.7172 313.063C-25.6691 313.08 -25.6305 313.109 -25.6014 313.151C-25.5724 313.192 -25.5584 313.239 -25.5594 313.29M-25.7172 313.063C-25.7652 313.046 -26.0119 313.275 -26.4571 313.75C-26.9023 314.224 -28.2562 315.612 -30.5187 317.912C-32.7812 320.213 -35.8728 323.196 -39.7934 326.861C-43.7141 330.527 -47.8936 334.365 -52.3321 338.377C-56.7706 342.389 -60.9503 346.111 -64.8711 349.543C-68.792 352.974 -72.4634 356.066 -75.8854 358.817C-79.3075 361.568 -82.663 364.104 -85.9521 366.424C-89.2412 368.745 -92.5124 370.921 -95.7658 372.954C-99.0191 374.986 -102.269 376.932 -105.515 378.791C-108.762 380.65 -112.027 382.468 -115.313 384.247C-118.598 386.025 -121.947 387.773 -125.359 389.489C-128.77 391.205 -132.192 392.867 -135.624 394.474C-139.056 396.082 -142.411 397.655 -145.69 399.195C-148.969 400.734 -152.075 402.271 -155.01 403.805C-157.944 405.339 -161.008 407.728 -164.202 410.974C-167.396 414.22 -168.995 415.868 -168.999 415.919M-25.5594 313.29C-25.5604 313.341 -25.7779 313.604 -26.2118 314.079C-26.6458 314.554 -27.9781 315.943 -30.2087 318.247C-32.4393 320.551 -35.5183 323.54 -39.4457 327.212C-43.373 330.884 -47.557 334.727 -51.9976 338.741C-56.4383 342.755 -60.6201 346.478 -64.543 349.912C-68.466 353.346 -72.1411 356.44 -75.5685 359.196C-78.9958 361.951 -82.3581 364.492 -85.6554 366.819C-88.9526 369.145 -92.2317 371.327 -95.4927 373.365C-98.7537 375.403 -102.01 377.353 -105.262 379.215C-108.513 381.077 -111.784 382.898 -115.072 384.679C-118.361 386.459 -121.714 388.208 -125.13 389.927C-128.546 391.645 -131.972 393.309 -135.408 394.919C-138.844 396.528 -142.202 398.103 -145.48 399.642C-148.758 401.182 -151.861 402.716 -154.787 404.245C-157.714 405.774 -160.779 408.146 -163.981 411.361C-167.184 414.576 -168.808 416.174 -168.855 416.154M-168.855 416.154C-168.902 416.135 -168.939 416.103 -168.966 416.06C-168.992 416.016 -169.003 415.969 -168.999 415.919M-168.855 416.154C-168.808 416.174 -168.45 416.337 -167.781 416.643C-167.111 416.948 -165.005 417.621 -161.461 418.66C-157.917 419.7 -152.813 420.417 -146.15 420.811C-139.487 421.205 -131.972 421.472 -123.604 421.613C-115.236 421.754 -107.474 421.965 -100.318 422.246C-93.1613 422.528 -88.7987 423.03 -87.2298 423.752C-85.6609 424.474 -85.2238 425.671 -85.9183 427.343C-86.6129 429.015 -87.9144 431.067 -89.823 433.5C-91.7315 435.932 -93.9678 438.643 -96.5318 441.633C-99.0958 444.622 -101.567 447.528 -103.946 450.35C-106.325 453.171 -107.964 455.282 -108.864 456.681C-109.764 458.081 -110.258 459.229 -110.344 460.124C-110.431 461.02 -110.242 461.774 -109.778 462.386C-109.314 462.998 -108.67 463.501 -107.846 463.897C-107.022 464.292 -105.768 464.601 -104.085 464.826C-102.402 465.05 -99.6113 465.127 -95.7135 465.057C-91.8157 464.988 -87.7027 464.556 -83.3745 463.763C-79.0463 462.97 -74.6514 461.862 -70.1898 460.439C-65.7281 459.015 -61.1637 457.389 -56.4964 455.559C-51.8291 453.73 -47.3195 451.934 -42.9677 450.173C-38.6158 448.412 -35.1895 447.028 -32.6885 446.022C-30.1876 445.015 -27.9869 444.116 -26.0866 443.323C-24.1862 442.53 -22.4456 441.78 -20.8648 441.073C-19.2839 440.365 -17.8432 439.688 -16.5427 439.042C-15.2423 438.395 -13.7615 437.761 -12.1006 437.138C-10.4396 436.516 -9.60611 436.18 -9.6 436.13M-168.999 415.919C-168.995 415.868 -168.642 415.991 -167.939 416.287C-167.236 416.584 -165.068 417.237 -161.437 418.245C-157.805 419.253 -152.678 419.949 -146.057 420.333C-139.436 420.717 -131.945 420.979 -123.584 421.119C-115.224 421.26 -107.445 421.496 -100.248 421.828C-93.0512 422.16 -88.6108 422.763 -86.9266 423.638C-85.2425 424.513 -84.7514 425.796 -85.4533 427.487C-86.1553 429.178 -87.4712 431.261 -89.4009 433.737C-91.3307 436.213 -93.5801 438.949 -96.1491 441.945C-98.7181 444.941 -101.191 447.848 -103.567 450.666C-105.944 453.484 -107.576 455.577 -108.463 456.944C-109.35 458.31 -109.832 459.397 -109.909 460.204C-109.986 461.011 -109.807 461.677 -109.372 462.203C-108.938 462.729 -108.334 463.168 -107.561 463.519C-106.788 463.869 -105.579 464.151 -103.934 464.362C-102.288 464.574 -99.5336 464.643 -95.67 464.57C-91.8064 464.497 -87.724 464.065 -83.4228 463.274C-79.1216 462.484 -74.7503 461.379 -70.3091 459.961C-65.8678 458.542 -61.3185 456.92 -56.6614 455.094C-52.0042 453.268 -47.5006 451.474 -43.1504 449.714C-38.8002 447.953 -35.3746 446.57 -32.8734 445.563C-30.3723 444.557 -28.1726 443.658 -26.2742 442.866C-24.3758 442.074 -22.6381 441.325 -21.0612 440.619C-19.4843 439.914 -18.0483 439.239 -16.7532 438.595C-15.4581 437.951 -13.9761 437.333 -12.3071 436.742C-10.6381 436.152 -9.78051 435.867 -9.73434 435.888M-9.73434 435.888C-9.68817 435.91 -9.65271 435.943 -9.62795 435.987C-9.6032 436.032 -9.59388 436.079 -9.6 436.13M-9.73434 435.888C-9.78051 435.867 -9.97062 436.103 -10.3047 436.596C-10.6388 437.09 -11.6889 438.539 -13.455 440.943C-15.2211 443.347 -17.7596 446.52 -21.0702 450.46C-24.3809 454.4 -28.0869 458.719 -32.1882 463.417C-36.2895 468.116 -40.2149 472.603 -43.9644 476.881C-47.7139 481.158 -50.7421 484.638 -53.0492 487.32C-55.3562 490.002 -57.3668 492.404 -59.081 494.526C-60.7952 496.649 -62.2844 498.621 -63.5487 500.443C-64.8129 502.265 -65.8346 503.974 -66.6137 505.568C-67.3928 507.163 -67.7321 508.782 -67.6317 510.424C-67.5313 512.066 -66.431 513.709 -64.3309 515.353C-62.2307 516.996 -59.0364 517.509 -54.7481 516.89C-50.4598 516.271 -45.4465 514.705 -39.7081 512.192C-33.9697 509.678 -27.9891 506.722 -21.7665 503.324C-15.5439 499.926 -9.78883 496.716 -4.50132 493.692C0.786189 490.669 4.90173 488.273 7.8453 486.504C10.7889 484.735 13.505 483.057 15.9937 481.47C18.4823 479.882 20.9834 478.248 23.4967 476.566C26.01 474.884 28.5997 473.117 31.2659 471.264C33.932 469.411 36.5307 467.568 39.062 465.735C41.5934 463.902 43.6803 462.326 45.3227 461.008C46.9651 459.69 48.5254 458.376 50.0035 457.066C51.4817 455.756 53.7101 453.667 56.6889 450.799C59.6676 447.932 61.1696 446.463 61.195 446.393C61.2204 446.322 61.2121 446.256 61.1702 446.194C61.1282 446.133 61.0698 446.1 60.9951 446.098C60.9203 446.096 60.86 446.124 60.8142 446.183C60.7683 446.242 60.7557 446.307 60.7765 446.379C60.7973 446.451 60.8429 446.5 60.9132 446.525C60.9835 446.55 61.0496 446.542 61.1115 446.5C61.1734 446.458 61.2056 446.4 61.208 446.325C61.2104 446.25 61.1821 446.19 61.123 446.144C61.064 446.098 60.9986 446.086 60.9267 446.107C60.8549 446.127 59.3314 447.57 56.3561 450.434C53.3809 453.298 51.1572 455.383 49.6849 456.688C48.2127 457.994 46.6585 459.303 45.0223 460.616C43.386 461.93 41.3038 463.502 38.7755 465.332C36.2472 467.163 33.6513 469.004 30.9875 470.856C28.3238 472.707 25.7368 474.472 23.2265 476.152C20.7161 477.832 18.2184 479.465 15.7334 481.05C13.2483 482.635 10.5354 484.311 7.5948 486.078C4.65416 487.845 0.541632 490.24 -4.74281 493.261C-10.0272 496.283 -15.7741 499.49 -21.9833 502.881C-28.1926 506.273 -34.1443 509.22 -39.8385 511.724C-45.5326 514.227 -50.4874 515.801 -54.7027 516.445C-58.918 517.09 -62.0358 516.641 -64.0562 515.098C-66.0766 513.554 -67.1296 512.008 -67.2153 510.459C-67.301 508.909 -66.9595 507.355 -66.1908 505.795C-65.4221 504.235 -64.4093 502.549 -63.1525 500.737C-61.8956 498.925 -60.4118 496.96 -58.701 494.842C-56.9902 492.724 -54.9818 490.324 -52.6758 487.644C-50.3698 484.963 -47.342 481.484 -43.5924 477.206C-39.8427 472.928 -35.9162 468.439 -31.8127 463.738C-27.7092 459.038 -23.9976 454.711 -20.6779 450.759C-17.3582 446.806 -14.8413 443.636 -13.1274 441.248C-11.4134 438.86 -10.3986 437.423 -10.0828 436.936C-9.76705 436.449 -9.60611 436.18 -9.6 436.13" stroke="#053F28" stroke-width="2" stroke-linecap="round"/>
<path d="M104.836 372.714C104.841 372.771 105.737 373.64 107.524 375.322C109.311 377.004 111.062 378.46 112.777 379.689C114.492 380.919 116.516 382.332 118.849 383.927C121.182 385.522 123.863 387.204 126.892 388.973C129.921 390.742 133.396 392.534 137.316 394.348C141.236 396.162 145.937 398.062 151.418 400.047C156.898 402.032 162.679 403.898 168.759 405.645C174.839 407.392 181.033 408.987 187.34 410.431C193.648 411.874 200.005 413.213 206.412 414.448C212.818 415.683 218.88 416.81 224.596 417.83C230.313 418.849 234.02 419.565 235.717 419.978C237.415 420.391 238.284 420.703 238.324 420.914C238.364 421.125 238.174 421.379 237.752 421.676C237.331 421.973 236.613 422.281 235.597 422.601C234.582 422.921 232.889 423.212 230.519 423.474C228.149 423.736 223.417 423.964 216.325 424.158C209.233 424.351 201.226 424.124 192.304 423.475C183.381 422.827 174.869 422.042 166.768 421.12C158.667 420.199 151.798 419.655 146.16 419.488C140.522 419.321 136.668 419.837 134.598 421.036C132.528 422.235 131.63 423.599 131.903 425.126C132.175 426.654 132.829 428.279 133.862 430.003C134.896 431.727 136.132 433.548 137.572 435.467C139.012 437.386 140.685 439.325 142.591 441.284C144.496 443.243 146.754 445.154 149.364 447.016C151.975 448.878 155.413 450.695 159.679 452.467C163.945 454.239 168.662 455.729 173.83 456.939C178.998 458.148 184.026 459.267 188.915 460.294C193.805 461.321 198.037 462.556 201.612 463.998C205.188 465.44 207.757 467.158 209.321 469.151C210.884 471.145 211.695 472.502 211.755 473.222C211.814 473.942 211.573 474.459 211.032 474.771C210.491 475.083 209.74 475.38 208.779 475.661C207.819 475.942 206.551 476.153 204.977 476.294C203.402 476.435 201.151 476.436 198.222 476.297C195.294 476.157 190.237 475.704 183.051 474.938C175.865 474.172 168.156 473.088 159.924 471.685C151.691 470.282 143.33 468.568 134.841 466.542C126.351 464.516 122.106 463.503 122.106 463.503C122.106 463.503 117.508 462.214 108.311 459.636C99.115 457.058 94.5167 455.769 94.5167 455.769L60.8152 445.876C60.7751 445.912 60.7484 445.958 60.735 446.013C60.7216 446.068 60.7242 446.122 60.7426 446.175C60.7611 446.228 60.7919 446.27 60.8351 446.301C60.8783 446.332 66.4811 448.007 77.6434 451.325C88.8058 454.644 98.9864 457.592 108.185 460.171C117.384 462.75 126.231 465.053 134.727 467.081C143.222 469.108 151.591 470.824 159.833 472.229C168.075 473.633 175.794 474.72 182.99 475.487C190.186 476.254 195.254 476.708 198.192 476.848C201.131 476.988 203.398 476.987 204.993 476.845C206.589 476.703 207.882 476.487 208.873 476.199C209.864 475.911 210.652 475.582 211.238 475.213C211.823 474.844 212.109 474.22 212.097 473.343C212.084 472.465 211.285 470.989 209.699 468.915C208.114 466.84 205.506 465.056 201.874 463.562C198.242 462.068 193.968 460.802 189.051 459.765C184.134 458.728 179.094 457.605 173.93 456.397C168.766 455.189 164.064 453.704 159.824 451.941C155.584 450.179 152.174 448.375 149.594 446.53C147.014 444.685 144.782 442.792 142.899 440.852C141.016 438.912 139.361 436.992 137.936 435.09C136.511 433.188 135.286 431.399 134.26 429.723C133.235 428.047 132.578 426.511 132.292 425.117C132.005 423.722 132.867 422.469 134.877 421.358C136.886 420.247 140.677 419.791 146.249 419.991C151.822 420.191 158.651 420.751 166.738 421.672C174.825 422.592 183.333 423.377 192.262 424.026C201.191 424.675 209.21 424.903 216.318 424.71C223.426 424.517 228.173 424.288 230.558 424.024C232.943 423.76 234.662 423.46 235.713 423.124C236.765 422.787 237.524 422.421 237.99 422.024C238.456 421.626 238.662 421.223 238.607 420.812C238.553 420.402 237.664 419.972 235.94 419.524C234.217 419.075 230.48 418.334 224.728 417.302C218.977 416.27 212.899 415.137 206.495 413.903C200.09 412.668 193.736 411.33 187.434 409.887C181.132 408.445 174.945 406.852 168.873 405.107C162.801 403.362 157.029 401.499 151.559 399.517C146.089 397.535 141.4 395.64 137.492 393.831C133.584 392.022 130.123 390.237 127.107 388.475C124.091 386.713 121.422 385.037 119.098 383.448C116.775 381.859 114.757 380.45 113.045 379.223C111.333 377.995 109.572 376.553 107.763 374.898C105.954 373.242 105.026 372.426 104.979 372.448M104.836 372.714C104.832 372.657 104.842 372.605 104.869 372.556C104.895 372.506 104.932 372.471 104.979 372.448M104.836 372.714C104.841 372.771 105.314 372.745 106.255 372.637C107.195 372.529 109.97 372.289 114.577 371.915C119.185 371.541 125.216 371.231 132.669 370.984C140.122 370.737 147.876 370.331 155.933 369.766C163.989 369.201 170.988 368.43 176.93 367.452C182.872 366.475 186.962 365.704 189.201 365.14C191.441 364.575 193.156 364.075 194.346 363.64C195.536 363.205 196.519 362.788 197.293 362.389C198.067 361.991 198.7 361.582 199.19 361.163C199.681 360.744 199.947 360.105 199.99 359.246C200.033 358.387 199.509 357.018 198.419 355.139C197.329 353.26 195.472 351.64 192.846 350.278C190.221 348.917 187.002 347.813 183.188 346.966C179.375 346.119 175.223 345.331 170.732 344.601C166.241 343.871 161.766 342.948 157.307 341.833C152.849 340.718 148.795 339.262 145.146 337.466C141.497 335.67 138.033 333.749 134.754 331.704C131.475 329.659 128.335 327.53 125.334 325.317C122.332 323.104 119.462 320.804 116.723 318.416C113.984 316.029 111.496 313.694 109.261 311.412C107.025 309.131 105.288 307.257 104.049 305.791C102.809 304.326 101.68 302.928 100.66 301.6C99.6403 300.271 98.0775 298.21 95.9716 295.418C93.8658 292.625 92.7781 291.212 92.7086 291.179C92.6391 291.146 92.5718 291.15 92.5066 291.193C92.4414 291.236 92.4052 291.299 92.398 291.382C92.3908 291.465 92.4156 291.535 92.4724 291.59C92.5291 291.645 92.5945 291.664 92.6684 291.646C92.7423 291.628 92.7944 291.58 92.8245 291.503C92.8546 291.427 92.8504 291.352 92.8119 291.28C92.7734 291.208 92.7165 291.168 92.6411 291.16C92.5657 291.152 92.5029 291.179 92.4528 291.242C92.4027 291.305 92.3858 291.377 92.4023 291.459C92.4188 291.541 93.4807 292.979 95.588 295.773C97.6953 298.567 99.2614 300.632 100.286 301.967C101.311 303.302 102.447 304.707 103.695 306.182C104.942 307.656 106.689 309.539 108.935 311.831C111.181 314.123 113.679 316.467 116.429 318.863C119.179 321.26 122.06 323.568 125.072 325.788C128.083 328.008 131.236 330.144 134.529 332.197C137.822 334.25 141.308 336.18 144.987 337.986C148.665 339.793 152.741 341.256 157.213 342.375C161.686 343.494 166.163 344.417 170.645 345.145C175.128 345.874 179.256 346.653 183.032 347.484C186.808 348.315 189.981 349.381 192.551 350.683C195.122 351.985 196.943 353.522 198.015 355.296C199.086 357.069 199.619 358.326 199.613 359.064C199.608 359.803 199.377 360.36 198.92 360.735C198.464 361.11 197.858 361.492 197.103 361.88C196.348 362.269 195.383 362.679 194.208 363.109C193.032 363.54 191.331 364.036 189.104 364.598C186.877 365.159 182.801 365.928 176.874 366.904C170.947 367.879 163.959 368.649 155.909 369.214C147.858 369.778 140.101 370.185 132.637 370.432C125.173 370.68 119.169 371.011 114.624 371.427C110.078 371.842 107.346 372.11 106.428 372.232C105.509 372.353 105.026 372.426 104.979 372.448" stroke="#053F28" stroke-width="2" stroke-linecap="round"/>
<path d="M188.924 299.616C188.882 299.588 188.511 299.763 187.813 300.14C187.115 300.517 186.289 300.812 185.337 301.026C184.384 301.24 183.109 301.416 181.511 301.555C179.913 301.693 177.65 301.75 174.723 301.724C171.796 301.699 166.864 301.509 159.926 301.155C152.988 300.801 145.959 300.266 138.841 299.55C131.722 298.834 125.166 297.951 119.173 296.9C113.179 295.849 110.182 295.324 110.182 295.324C110.182 295.324 107.634 294.667 102.539 293.353C97.4437 292.039 94.896 291.382 94.896 291.382L79.9405 286.486C79.8991 286.515 79.8703 286.554 79.8542 286.602C79.838 286.651 79.8376 286.699 79.8529 286.748C79.8682 286.796 79.8963 286.835 79.9372 286.866C79.9781 286.896 82.4554 287.734 87.3689 289.381C92.2825 291.028 97.2924 292.509 102.399 293.826C107.505 295.143 113.061 296.329 119.067 297.382C125.073 298.435 131.642 299.321 138.772 300.039C145.903 300.756 152.942 301.292 159.889 301.647C166.836 302.002 171.777 302.193 174.712 302.218C177.647 302.243 179.921 302.186 181.535 302.047C183.149 301.908 184.444 301.729 185.421 301.51C186.397 301.291 187.239 300.976 187.945 300.564C188.652 300.153 189.011 299.923 189.024 299.873M188.924 299.616C188.967 299.644 188.998 299.681 189.016 299.728C189.035 299.776 189.037 299.824 189.024 299.873M188.924 299.616C188.882 299.588 188.639 299.402 188.195 299.057C187.752 298.712 186.516 297.884 184.487 296.574C182.458 295.264 179.98 294.102 177.051 293.087C174.123 292.073 170.969 291.18 167.589 290.409C164.21 289.638 160.749 288.797 157.206 287.887C153.664 286.977 150.116 285.81 146.561 284.387C143.006 282.963 139.408 281.285 135.767 279.352C132.125 277.419 128.536 275.419 124.998 273.354C121.46 271.288 117.998 269.179 114.612 267.027C111.227 264.874 107.92 262.658 104.694 260.377C101.467 258.097 98.3649 255.742 95.3864 253.313C92.408 250.884 89.7 248.416 87.2624 245.909C84.8247 243.402 82.6872 240.871 80.8498 238.317C79.0124 235.762 77.4609 233.269 76.1953 230.837C74.9296 228.405 73.9256 226.141 73.1832 224.044C72.4409 221.946 72.0653 220.025 72.0564 218.28C72.0476 216.535 72.9117 214.96 74.6487 213.555C76.3857 212.151 79.347 211.567 83.5325 211.803C87.718 212.039 92.9461 212.856 99.2167 214.254C105.487 215.651 112.48 217.158 120.196 218.774C127.911 220.391 135.264 221.673 142.254 222.62C149.245 223.567 153.89 224.115 156.192 224.263C158.493 224.411 159.93 224.352 160.502 224.087C161.074 223.822 161.082 223.431 160.525 222.915C159.969 222.398 159.089 221.892 157.885 221.394C156.682 220.897 154.697 220.043 151.929 218.832C149.162 217.62 146.218 216.189 143.096 214.537C139.975 212.885 136.817 211.095 133.622 209.168C130.427 207.242 127.222 205.248 124.007 203.187C120.793 201.127 117.617 199.073 114.481 197.027C111.344 194.981 108.398 193 105.641 191.083C102.884 189.166 100.33 187.28 97.9777 185.426C95.6258 183.572 93.4822 181.782 91.547 180.056C89.6117 178.331 87.8906 176.721 86.3836 175.227C84.8766 173.732 83.5519 171.863 82.4094 169.619C81.2669 167.375 80.6704 166.256 80.6199 166.263M189.024 299.873C189.011 299.923 188.765 299.776 188.285 299.432C187.805 299.089 186.5 298.267 184.37 296.968C182.241 295.669 179.729 294.521 176.836 293.525C173.943 292.53 170.815 291.649 167.453 290.883C164.091 290.117 160.636 289.278 157.09 288.367C153.543 287.456 149.983 286.285 146.408 284.855C142.833 283.425 139.217 281.74 135.559 279.799C131.902 277.859 128.301 275.854 124.758 273.785C121.214 271.717 117.746 269.604 114.355 267.449C110.964 265.293 107.652 263.072 104.419 260.787C101.185 258.502 98.075 256.142 95.0874 253.705C92.0997 251.269 89.38 248.791 86.9284 246.271C84.4768 243.751 82.3245 241.204 80.4716 238.631C78.6186 236.058 77.0531 233.545 75.7751 231.093C74.497 228.641 73.4829 226.351 72.7327 224.224C71.9825 222.097 71.6118 220.124 71.6205 218.305C71.6292 216.486 72.5398 214.823 74.3523 213.315C76.1648 211.807 79.197 211.155 83.4488 211.36C87.7006 211.564 92.977 212.367 99.278 213.767C105.579 215.167 112.586 216.675 120.3 218.292C128.014 219.908 135.36 221.188 142.337 222.133C149.313 223.079 153.929 223.644 156.182 223.83C158.435 224.015 159.793 224.052 160.257 223.939C160.72 223.827 160.701 223.57 160.2 223.17C159.699 222.77 158.856 222.326 157.67 221.838C156.484 221.349 154.507 220.499 151.737 219.286C148.966 218.074 146.015 216.639 142.882 214.981C139.75 213.324 136.582 211.53 133.379 209.598C130.176 207.667 126.965 205.67 123.746 203.607C120.528 201.544 117.35 199.489 114.212 197.442C111.075 195.395 108.126 193.412 105.365 191.492C102.604 189.573 100.043 187.683 97.6832 185.822C95.3233 183.962 93.1719 182.166 91.229 180.434C89.2861 178.702 87.5571 177.084 86.0419 175.58C84.5267 174.076 83.2082 172.191 82.0864 169.925C80.9646 167.659 80.4086 166.501 80.4182 166.451M80.4182 166.451C80.4278 166.401 80.4512 166.359 80.4884 166.324C80.5255 166.29 80.5694 166.269 80.6199 166.263M80.4182 166.451C80.4086 166.501 80.7055 166.503 81.3092 166.458C81.9128 166.412 83.6612 166.401 86.5546 166.425C89.4479 166.448 93.1862 166.845 97.7695 167.614C102.353 168.383 107.297 169.343 112.602 170.495C117.907 171.646 122.845 172.722 127.415 173.724C131.986 174.726 135.567 175.43 138.16 175.837C140.753 176.244 143.146 176.507 145.34 176.628C147.534 176.748 149.641 176.781 151.663 176.725C153.684 176.669 155.567 176.556 157.31 176.385C159.054 176.215 160.571 176.005 161.862 175.758C163.152 175.51 164.159 175.217 164.881 174.88C165.603 174.542 166.053 174.151 166.23 173.708C166.407 173.264 166.352 172.81 166.065 172.344C165.778 171.879 165.335 171.415 164.737 170.953C164.139 170.491 163.239 169.93 162.038 169.272C160.837 168.614 158.877 167.61 156.159 166.261C153.44 164.912 150.524 163.499 147.409 162.022C144.295 160.544 141.125 159.079 137.899 157.625C134.674 156.171 131.434 154.754 128.179 153.373C124.924 151.992 121.598 150.567 118.2 149.099C114.802 147.631 111.173 145.808 107.315 143.631C103.456 141.454 99.5381 138.825 95.5601 135.745C91.5822 132.664 87.6431 129.257 83.7431 125.523C79.8431 121.788 76.0663 117.909 72.4126 113.884C68.759 109.86 65.366 105.908 62.2337 102.028C59.1014 98.1482 56.3834 94.5009 54.0798 91.0859C51.7762 87.6709 49.6263 84.3137 47.63 81.0143C45.6338 77.7148 43.7024 74.4295 41.836 71.1583C39.9696 67.887 38.1215 64.6183 36.2919 61.3522C34.4623 58.0861 32.7466 55.0477 31.1448 52.2372C29.543 49.4267 28.3276 47.3521 27.4988 46.0134C26.6699 44.6748 25.9075 43.4901 25.2116 42.4594C24.5157 41.4287 23.4471 39.9408 22.0057 37.9957C20.5644 36.0507 19.8105 35.0609 19.7442 35.0263C19.6779 34.9918 19.6112 34.9912 19.5443 35.0246C19.4774 35.0579 19.4378 35.1115 19.4254 35.1853C19.4131 35.259 19.4331 35.3226 19.4855 35.3759C19.5379 35.4292 19.6011 35.4504 19.675 35.4393C19.749 35.4283 19.8032 35.3896 19.8378 35.3233C19.8723 35.2569 19.8729 35.1903 19.8395 35.1234C19.8062 35.0565 19.7526 35.0168 19.6789 35.0045C19.6051 34.9921 19.5416 35.0122 19.4882 35.0646C19.4349 35.117 19.4138 35.1802 19.4248 35.2541C19.4358 35.3281 20.1609 36.3358 21.5998 38.2774C23.0388 40.219 24.1046 41.7025 24.7971 42.7281C25.4897 43.7536 26.2489 44.9333 27.0749 46.2671C27.9008 47.6009 29.1142 49.6722 30.7151 52.4811C32.316 55.29 34.0316 58.3281 35.8618 61.5954C37.692 64.8627 39.5414 68.1337 41.41 71.4086C43.2786 74.6834 45.2132 77.9739 47.2138 81.2801C49.2144 84.5863 51.3705 87.9523 53.6823 91.3782C55.994 94.8041 58.7193 98.4607 61.858 102.348C64.9968 106.236 68.3971 110.196 72.0589 114.229C75.7207 118.261 79.5083 122.151 83.4216 125.896C87.3349 129.642 91.2907 133.061 95.2888 136.155C99.287 139.248 103.223 141.888 107.097 144.073C110.971 146.258 114.607 148.085 118.006 149.553C121.405 151.022 124.73 152.446 127.981 153.826C131.233 155.205 134.47 156.621 137.692 158.074C140.914 159.526 144.081 160.99 147.193 162.466C150.305 163.942 153.216 165.352 155.926 166.696C158.635 168.041 160.582 169.036 161.765 169.682C162.948 170.328 163.821 170.861 164.385 171.281C164.948 171.702 165.37 172.106 165.649 172.495C165.929 172.883 166.008 173.238 165.886 173.559C165.764 173.88 165.367 174.185 164.695 174.476C164.023 174.766 163.051 175.033 161.781 175.275C160.511 175.517 159.01 175.723 157.278 175.893C155.546 176.063 153.676 176.176 151.668 176.232C149.661 176.288 147.568 176.256 145.39 176.137C143.213 176.019 140.832 175.757 138.249 175.351C135.666 174.946 132.089 174.243 127.519 173.241C122.949 172.239 118.008 171.162 112.695 170.009C107.381 168.857 102.416 167.895 97.8 167.125C93.1836 166.355 89.4663 165.985 86.6482 166.016C83.8301 166.046 82.1335 166.093 81.5584 166.157C80.9832 166.221 80.6704 166.256 80.6199 166.263" stroke="#053F28" stroke-width="2" stroke-linecap="round"/>
<path d="M-12.8845 270.018C19.5308 239.184 93.5195 145.825 126.462 103C157.292 180.481 236.821 228.181 272.731 242.346C250.989 261.124 169.951 213.687 189.717 237.405C209.482 261.124 286.567 297.69 265.814 293.737C249.211 290.574 200.917 285.83 178.846 283.854C199.599 354.021 304.356 360.939 294.473 367.857C286.567 373.391 227.93 365.551 199.599 360.939C252.966 419.247 310.286 414.306 310.286 428.142C310.286 439.21 247.036 441.319 215.412 440.989C245.06 476.567 347.84 484.473 344.875 492.379C342.504 498.704 276.026 495.015 243.083 492.379C244.665 518.47 288.544 528.287 310.286 529.934L320.169 544.758C294.869 556.617 209.482 529.934 169.951 515.11C171.928 524.992 87.9245 578.359 46.417 586.265C13.5658 592.523 63.7709 536.101 93.8744 506.187C72.3727 526.374 -12.7312 538.69 -2.9966 529.934C4.91373 522.818 14.1352 501.933 17.7571 492.379C-32.0518 494.751 -55.7045 488.097 -61.3047 484.473C-7.54265 452.849 55.3115 404.094 80.0183 383.669C16.7689 427.153 -18.1501 422.212 -27.7034 414.306C16.4592 382.06 67.5104 326.714 94.5901 294.834C64.7134 319.779 -12.8845 327.508 -12.8845 321.408C-12.8845 315.874 40.4822 271.665 67.1656 250.253C26.9758 269.689 -45.2999 300.852 -12.8845 270.018Z" fill="url(#paint1_linear_2232_105)"/>
<path d="M-14.0289 271.204C-13.9784 271.21 -12.7872 269.191 -10.455 265.147C-8.12294 261.103 -5.54344 257.737 -2.71654 255.047C0.110353 252.358 3.33626 249.341 6.96119 245.995C10.5861 242.65 14.4594 239.002 18.581 235.053C22.7026 231.104 26.8871 226.951 31.1346 222.594C35.3821 218.236 39.3689 214.055 43.095 210.051C46.8212 206.047 50.847 201.606 55.1725 196.729C59.498 191.851 64.4328 186.036 69.977 179.285C75.5212 172.533 78.2933 169.158 78.2933 169.158C78.2933 169.158 81.6748 164.696 88.4379 155.772C95.201 146.848 98.5825 142.386 98.5825 142.386L124.487 105.655C124.471 105.607 124.442 105.568 124.4 105.539C124.359 105.509 124.313 105.495 124.262 105.495C124.211 105.496 124.165 105.511 124.124 105.541C124.083 105.572 119.749 111.672 111.121 123.843C102.494 136.014 94.7999 146.559 88.0399 155.479C81.28 164.399 75.1299 172.232 69.5898 178.978C64.0497 185.725 59.1188 191.534 54.7973 196.407C50.4757 201.28 46.4531 205.718 42.7294 209.719C39.0057 213.72 35.0215 217.898 30.7768 222.253C26.5321 226.607 22.3509 230.757 18.2333 234.702C14.1158 238.647 10.2456 242.292 6.62278 245.635C3 248.979 -0.226433 251.997 -3.05651 254.69C-5.88659 257.383 -8.45863 260.764 -10.7726 264.834C-13.0866 268.904 -14.2389 270.964 -14.2296 271.014M-14.0289 271.204C-14.0794 271.197 -14.1231 271.176 -14.1601 271.141C-14.1971 271.106 -14.2202 271.064 -14.2296 271.014M-14.0289 271.204C-13.9784 271.21 -13.6564 271.276 -13.0628 271.403C-12.4691 271.529 -10.6861 271.639 -7.71378 271.734C-4.74141 271.829 -0.766688 271.208 4.21039 269.868C9.18746 268.529 14.3861 266.897 19.8064 264.971C25.2267 263.045 30.0984 261.266 34.4213 259.633C38.7443 258.001 42.1978 256.683 44.782 255.681C47.3662 254.679 49.6752 253.765 51.709 252.938C53.7428 252.112 55.6341 251.355 57.3829 250.668C59.1317 249.98 60.7539 249.395 62.2497 248.913C63.7454 248.431 65.1159 248.165 66.3613 248.114C67.6066 248.064 68.542 248.551 69.1676 249.577C69.7932 250.602 69.4527 252.341 68.1461 254.793C66.8394 257.246 64.7344 260.136 61.831 263.464C58.9276 266.791 55.6263 270.219 51.9272 273.745C48.2281 277.272 44.5007 280.6 40.7452 283.732C36.9897 286.863 33.284 289.749 29.6281 292.389C25.9723 295.03 22.4002 297.465 18.9118 299.697C15.4234 301.928 12.0469 304.031 8.7822 306.006C5.51753 307.981 2.39058 309.914 -0.598637 311.806C-3.58786 313.697 -6.31703 316.17 -8.78614 319.222C-11.2552 322.275 -12.4903 323.827 -12.4912 323.878M-14.2296 271.014C-14.2389 270.964 -13.9313 270.993 -13.3068 271.102C-12.6822 271.21 -10.8455 271.286 -7.79669 271.33C-4.74785 271.373 -0.761379 270.726 4.16273 269.389C9.08683 268.051 14.2526 266.422 19.66 264.5C25.0674 262.578 29.9311 260.801 34.251 259.17C38.571 257.538 42.0223 256.222 44.6051 255.22C47.1878 254.218 49.495 253.304 51.5265 252.479C53.558 251.654 55.4491 250.897 57.1999 250.209C58.9507 249.521 60.5834 248.934 62.0979 248.45C63.6124 247.966 65.03 247.721 66.3508 247.715C67.6716 247.709 68.6998 248.291 69.4354 249.461C70.171 250.63 69.8864 252.461 68.5816 254.952C67.2769 257.443 65.1619 260.37 62.2369 263.733C59.3118 267.097 55.9943 270.547 52.2842 274.085C48.5742 277.623 44.8372 280.962 41.0735 284.1C37.3097 287.239 33.5953 290.132 29.9305 292.779C26.2656 295.427 22.6851 297.869 19.1892 300.105C15.6932 302.342 12.3112 304.448 9.04311 306.425C5.77504 308.402 2.64988 310.333 -0.332369 312.217C-3.31462 314.1 -6.04824 316.557 -8.53323 319.586C-11.0182 322.614 -12.2848 324.121 -12.3329 324.104M-12.3329 324.104C-12.381 324.087 -12.4196 324.058 -12.4488 324.017C-12.478 323.975 -12.4921 323.929 -12.4912 323.878M-12.3329 324.104C-12.2848 324.121 -11.72 324.128 -10.6385 324.126C-9.55697 324.123 -6.43208 323.939 -1.2638 323.572C3.90448 323.204 10.4713 322.182 18.4366 320.505C26.4019 318.827 34.5964 316.753 43.0202 314.283C51.4439 311.813 58.8108 309.363 65.1208 306.934C71.4308 304.504 76.0223 302.553 78.8952 301.081C81.7681 299.61 84.2073 298.185 86.2129 296.808C88.2184 295.431 90.092 294.035 91.8336 292.621C93.5753 291.206 95.2439 289.798 96.8395 288.395C98.4351 286.993 100.217 285.554 102.185 284.079C104.154 282.603 105.135 281.841 105.13 281.79M-12.4912 323.878C-12.4903 323.827 -11.9396 323.793 -10.8392 323.777C-9.73886 323.761 -6.57991 323.549 -1.36237 323.141C3.85516 322.733 10.4339 321.691 18.3738 320.017C26.3137 318.342 34.489 316.272 42.8996 313.805C51.3102 311.338 58.6634 308.893 64.9593 306.468C71.2551 304.043 75.8318 302.098 78.6894 300.633C81.547 299.169 83.97 297.753 85.9583 296.386C87.9467 295.019 89.8064 293.633 91.5376 292.226C93.2688 290.819 94.9299 289.417 96.5209 288.018C98.112 286.619 99.9012 285.194 101.889 283.744C103.876 282.294 104.895 281.574 104.945 281.585M104.945 281.585C104.995 281.595 105.037 281.62 105.071 281.657C105.105 281.695 105.124 281.739 105.13 281.79M104.945 281.585C104.895 281.574 104.735 281.803 104.465 282.271C104.195 282.739 103.331 284.138 101.872 286.468C100.413 288.798 98.2664 291.949 95.4312 295.92C92.5959 299.892 89.3678 304.289 85.7468 309.112C82.1257 313.935 78.4722 318.693 74.7862 323.385C71.1002 328.077 67.5923 332.316 64.2626 336.103C60.9329 339.889 57.5591 343.427 54.141 346.715C50.7229 350.004 47.1983 353.16 43.5671 356.185C39.9359 359.209 36.1765 362.195 32.2889 365.142C28.4013 368.09 24.3467 371.096 20.1252 374.16C15.9037 377.224 11.5713 380.336 7.12794 383.496C2.68459 386.656 -1.40483 389.548 -5.1403 392.171C-8.87577 394.794 -12.1688 397.13 -15.0194 399.178C-17.87 401.226 -20.2843 403.041 -22.2625 404.625C-24.2406 406.209 -25.7754 407.656 -26.8669 408.965C-27.9584 410.275 -28.4799 411.523 -28.4313 412.708C-28.3826 413.894 -27.6939 414.901 -26.3649 415.732C-25.036 416.562 -23.2748 417.224 -21.0812 417.719C-18.8876 418.214 -16.5409 418.567 -14.0411 418.779C-11.5412 418.991 -8.94852 419.046 -6.26297 418.942C-3.57742 418.839 -0.437275 418.436 3.15746 417.732C6.75219 417.029 10.5449 415.963 14.5355 414.533C18.5262 413.103 22.7478 411.345 27.2006 409.259C31.6533 407.173 36.4443 404.819 41.5734 402.196C46.7025 399.574 51.7438 396.996 56.6973 394.462C61.6508 391.929 65.2385 390.084 67.4606 388.928C69.6827 387.772 71.4489 386.827 72.7591 386.093C74.0693 385.36 75.1507 384.732 76.0035 384.21C76.8563 383.687 77.9754 383.083 79.3608 382.396C80.7463 381.709 81.4396 381.341 81.4406 381.29M105.13 281.79C105.135 281.841 105.01 282.098 104.753 282.561C104.497 283.024 103.659 284.416 102.239 286.735C100.819 289.054 98.6877 292.206 95.845 296.189C93.0023 300.172 89.7692 304.577 86.1457 309.404C82.5222 314.23 78.8662 318.991 75.1778 323.686C71.4894 328.381 67.9774 332.626 64.6418 336.419C61.3062 340.212 57.9247 343.758 54.4973 347.056C51.0699 350.355 47.5362 353.52 43.8964 356.552C40.2565 359.584 36.4898 362.577 32.5963 365.529C28.7028 368.481 24.644 371.49 20.4197 374.557C16.1954 377.623 11.861 380.737 7.41625 383.897C2.97154 387.058 -1.11893 389.951 -4.85513 392.574C-8.59134 395.198 -11.8839 397.534 -14.7328 399.58C-17.5816 401.627 -19.9906 403.437 -21.9595 405.012C-23.9285 406.587 -25.4497 408 -26.5232 409.251C-27.5967 410.502 -28.1101 411.651 -28.0635 412.697C-28.0168 413.743 -27.3472 414.65 -26.0547 415.416C-24.7622 416.182 -23.0436 416.801 -20.8989 417.273C-18.7542 417.744 -16.4433 418.085 -13.9662 418.293C-11.4891 418.501 -8.91688 418.554 -6.24955 418.45C-3.58222 418.346 -0.464437 417.944 3.1038 417.244C6.67205 416.544 10.4395 415.482 14.4061 414.058C18.3728 412.635 22.5752 410.883 27.0134 408.802C31.4516 406.722 36.2326 404.372 41.3564 401.752C46.4802 399.133 51.5188 396.556 56.4722 394.022C61.4256 391.489 65.0127 389.644 67.2335 388.489C69.4543 387.334 71.2175 386.39 72.5232 385.659C73.829 384.928 74.9054 384.303 75.7526 383.784C76.5997 383.265 77.7212 382.678 79.117 382.022C80.5128 381.366 81.2348 381.046 81.2828 381.063M81.2828 381.063C81.3309 381.08 81.3695 381.109 81.3986 381.151C81.4276 381.192 81.4416 381.239 81.4406 381.29M81.2828 381.063C81.2348 381.046 80.9881 381.275 80.5429 381.75C80.0977 382.224 78.7438 383.612 76.4813 385.912C74.2188 388.213 71.1272 391.196 67.2066 394.861C63.2859 398.527 59.1064 402.365 54.6679 406.377C50.2294 410.389 46.0497 414.111 42.1289 417.543C38.208 420.974 34.5366 424.066 31.1146 426.817C27.6925 429.568 24.337 432.104 21.0479 434.424C17.7588 436.745 14.4876 438.921 11.2342 440.954C7.98088 442.986 4.73103 444.932 1.4847 446.791C-1.76164 448.65 -5.02746 450.468 -8.31277 452.247C-11.5981 454.025 -14.9467 455.773 -18.3586 457.489C-21.7705 459.205 -25.1924 460.867 -28.6242 462.474C-32.0561 464.082 -35.4114 465.655 -38.69 467.195C-41.9685 468.734 -45.0751 470.271 -48.0097 471.805C-50.9443 473.339 -54.0085 475.728 -57.2023 478.974C-60.3962 482.22 -61.9951 483.868 -61.9992 483.919M81.4406 381.29C81.4396 381.341 81.2221 381.604 80.7882 382.079C80.3542 382.554 79.0219 383.943 76.7913 386.247C74.5607 388.551 71.4817 391.54 67.5543 395.212C63.627 398.884 59.443 402.727 55.0024 406.741C50.5617 410.755 46.3799 414.478 42.457 417.912C38.534 421.346 34.8589 424.44 31.4315 427.196C28.0042 429.951 24.6419 432.492 21.3446 434.819C18.0474 437.145 14.7683 439.327 11.5073 441.365C8.24635 443.403 4.99001 445.353 1.73829 447.215C-1.51342 449.077 -4.78364 450.898 -8.07237 452.679C-11.3611 454.459 -14.7136 456.208 -18.1299 457.927C-21.5462 459.645 -24.9724 461.309 -28.4084 462.919C-31.8445 464.528 -35.2017 466.103 -38.48 467.642C-41.7584 469.182 -44.8609 470.716 -47.7875 472.245C-50.714 473.774 -53.7786 476.146 -56.981 479.361C-60.1835 482.576 -61.8083 484.174 -61.8552 484.154M-61.8552 484.154C-61.9022 484.135 -61.939 484.103 -61.9655 484.06C-61.992 484.016 -62.0033 483.969 -61.9992 483.919M-61.8552 484.154C-61.8083 484.174 -61.4501 484.337 -60.7807 484.643C-60.1113 484.948 -58.0046 485.621 -54.4606 486.66C-50.9166 487.7 -45.8132 488.417 -39.1503 488.811C-32.4874 489.205 -24.972 489.472 -16.604 489.613C-8.23603 489.754 -0.473908 489.965 6.68238 490.246C13.8387 490.528 18.2013 491.03 19.7702 491.752C21.3391 492.474 21.7762 493.671 21.0817 495.343C20.3871 497.015 19.0856 499.067 17.177 501.5C15.2685 503.932 13.0322 506.643 10.4682 509.633C7.90421 512.622 5.43278 515.528 3.05394 518.35C0.675089 521.171 -0.964316 523.282 -1.86428 524.681C-2.76425 526.081 -3.25763 527.229 -3.34442 528.124C-3.43122 529.02 -3.24244 529.774 -2.77811 530.386C-2.31377 530.998 -1.66967 531.501 -0.845781 531.897C-0.0218959 532.292 1.23167 532.601 2.91492 532.826C4.59817 533.05 7.38871 533.127 11.2865 533.057C15.1843 532.988 19.2973 532.556 23.6255 531.763C27.9537 530.97 32.3486 529.862 36.8102 528.439C41.2719 527.015 45.8363 525.389 50.5036 523.559C55.1709 521.73 59.6805 519.934 64.0323 518.173C68.3842 516.412 71.8105 515.028 74.3115 514.022C76.8124 513.015 79.0131 512.116 80.9134 511.323C82.8138 510.53 84.5544 509.78 86.1352 509.073C87.7161 508.365 89.1568 507.688 90.4573 507.042C91.7577 506.395 93.2385 505.761 94.8994 505.138C96.5604 504.516 97.3939 504.18 97.4 504.13M-61.9992 483.919C-61.9951 483.868 -61.6416 483.991 -60.9386 484.287C-60.2356 484.584 -58.0683 485.237 -54.4365 486.245C-50.8048 487.253 -45.6783 487.949 -39.0571 488.333C-32.4359 488.717 -24.9449 488.979 -16.5842 489.119C-8.2235 489.26 -0.44476 489.496 6.75202 489.828C13.9488 490.16 18.3892 490.763 20.0734 491.638C21.7575 492.513 22.2486 493.796 21.5467 495.487C20.8447 497.178 19.5288 499.261 17.5991 501.737C15.6693 504.213 13.4199 506.949 10.8509 509.945C8.28185 512.941 5.8091 515.848 3.43264 518.666C1.05617 521.484 -0.575615 523.577 -1.46271 524.944C-2.34981 526.31 -2.83184 527.397 -2.90881 528.204C-2.98578 529.011 -2.80701 529.677 -2.37249 530.203C-1.93798 530.729 -1.33424 531.168 -0.561288 531.519C0.211667 531.869 1.42089 532.151 3.06639 532.362C4.71189 532.574 7.46643 532.643 11.33 532.57C15.1936 532.497 19.276 532.065 23.5772 531.274C27.8784 530.484 32.2497 529.379 36.6909 527.961C41.1322 526.542 45.6815 524.92 50.3386 523.094C54.9958 521.268 59.4994 519.474 63.8496 517.714C68.1998 515.953 71.6254 514.57 74.1266 513.563C76.6277 512.557 78.8274 511.658 80.7258 510.866C82.6242 510.074 84.3619 509.325 85.9388 508.619C87.5157 507.914 88.9517 507.239 90.2468 506.595C91.5419 505.951 93.0239 505.333 94.6929 504.742C96.3619 504.152 97.2195 503.867 97.2657 503.888M97.2657 503.888C97.3118 503.91 97.3473 503.943 97.372 503.987C97.3968 504.032 97.4061 504.079 97.4 504.13M97.2657 503.888C97.2195 503.867 97.0294 504.103 96.6953 504.596C96.3612 505.09 95.3111 506.539 93.545 508.943C91.7789 511.347 89.2404 514.52 85.9298 518.46C82.6191 522.4 78.9131 526.719 74.8118 531.417C70.7105 536.116 66.7851 540.603 63.0356 544.881C59.2861 549.158 56.2579 552.638 53.9508 555.32C51.6438 558.002 49.6332 560.404 47.919 562.526C46.2048 564.649 44.7156 566.621 43.4513 568.443C42.1871 570.265 41.1654 571.974 40.3863 573.568C39.6072 575.163 39.2679 576.782 39.3683 578.424C39.4687 580.066 40.569 581.709 42.6691 583.353C44.7693 584.996 47.9636 585.509 52.2519 584.89C56.5402 584.271 61.5535 582.705 67.2919 580.192C73.0303 577.678 79.0109 574.722 85.2335 571.324C91.4561 567.926 97.2112 564.716 102.499 561.692C107.786 558.669 111.902 556.273 114.845 554.504C117.789 552.735 120.505 551.057 122.994 549.47C125.482 547.882 127.983 546.248 130.497 544.566C133.01 542.884 135.6 541.117 138.266 539.264C140.932 537.411 143.531 535.568 146.062 533.735C148.593 531.902 150.68 530.326 152.323 529.008C153.965 527.69 155.525 526.376 157.004 525.066C158.482 523.756 160.71 521.667 163.689 518.799C166.668 515.932 168.17 514.463 168.195 514.393C168.22 514.322 168.212 514.256 168.17 514.194C168.128 514.133 168.07 514.1 167.995 514.098C167.92 514.096 167.86 514.124 167.814 514.183C167.768 514.242 167.756 514.307 167.776 514.379C167.797 514.451 167.843 514.5 167.913 514.525C167.984 514.55 168.05 514.542 168.112 514.5C168.173 514.458 168.206 514.4 168.208 514.325C168.21 514.25 168.182 514.19 168.123 514.144C168.064 514.098 167.999 514.086 167.927 514.107C167.855 514.127 166.331 515.57 163.356 518.434C160.381 521.298 158.157 523.383 156.685 524.688C155.213 525.994 153.658 527.303 152.022 528.616C150.386 529.93 148.304 531.502 145.776 533.332C143.247 535.163 140.651 537.004 137.988 538.856C135.324 540.707 132.737 542.472 130.226 544.152C127.716 545.832 125.218 547.465 122.733 549.05C120.248 550.635 117.535 552.311 114.595 554.078C111.654 555.845 107.542 558.24 102.257 561.261C96.9728 564.283 91.2259 567.49 85.0167 570.881C78.8074 574.273 72.8557 577.22 67.1615 579.724C61.4674 582.227 56.5126 583.801 52.2973 584.445C48.082 585.09 44.9642 584.641 42.9438 583.098C40.9234 581.554 39.8704 580.008 39.7847 578.459C39.699 576.909 40.0405 575.355 40.8092 573.795C41.5779 572.235 42.5907 570.549 43.8475 568.737C45.1044 566.925 46.5882 564.96 48.299 562.842C50.0098 560.724 52.0182 558.324 54.3242 555.644C56.6302 552.963 59.658 549.484 63.4076 545.206C67.1573 540.928 71.0838 536.439 75.1873 531.738C79.2908 527.038 83.0024 522.711 86.3221 518.759C89.6418 514.806 92.1587 511.636 93.8726 509.248C95.5866 506.86 96.6014 505.423 96.9172 504.936C97.233 504.449 97.3939 504.18 97.4 504.13" stroke="#053F28" stroke-width="2" stroke-linecap="round"/>
<path d="M211.836 440.714C211.841 440.771 212.737 441.64 214.524 443.322C216.311 445.004 218.062 446.46 219.777 447.689C221.492 448.919 223.516 450.332 225.849 451.927C228.182 453.522 230.863 455.204 233.892 456.973C236.921 458.742 240.396 460.534 244.316 462.348C248.236 464.162 252.937 466.062 258.418 468.047C263.898 470.032 269.679 471.898 275.759 473.645C281.839 475.392 288.033 476.987 294.34 478.431C300.648 479.874 307.005 481.213 313.412 482.448C319.818 483.683 325.88 484.81 331.596 485.83C337.313 486.849 341.02 487.565 342.717 487.978C344.415 488.391 345.284 488.703 345.324 488.914C345.364 489.125 345.174 489.379 344.752 489.676C344.331 489.973 343.613 490.281 342.597 490.601C341.582 490.921 339.889 491.212 337.519 491.474C335.149 491.736 330.417 491.964 323.325 492.158C316.233 492.351 308.226 492.124 299.304 491.475C290.381 490.827 281.869 490.042 273.768 489.12C265.667 488.199 258.798 487.655 253.16 487.488C247.522 487.321 243.668 487.837 241.598 489.036C239.528 490.235 238.63 491.599 238.903 493.126C239.175 494.654 239.829 496.279 240.862 498.003C241.896 499.727 243.132 501.548 244.572 503.467C246.012 505.386 247.685 507.325 249.591 509.284C251.496 511.243 253.754 513.154 256.364 515.016C258.975 516.878 262.413 518.695 266.679 520.467C270.945 522.239 275.662 523.729 280.83 524.939C285.998 526.148 291.026 527.267 295.915 528.294C300.805 529.321 305.037 530.556 308.612 531.998C312.188 533.44 314.757 535.158 316.321 537.151C317.884 539.145 318.695 540.502 318.755 541.222C318.814 541.942 318.573 542.459 318.032 542.771C317.491 543.083 316.74 543.38 315.779 543.661C314.819 543.942 313.551 544.153 311.977 544.294C310.402 544.435 308.151 544.436 305.222 544.297C302.294 544.157 297.237 543.704 290.051 542.938C282.865 542.172 275.156 541.088 266.924 539.685C258.691 538.282 250.33 536.568 241.841 534.542C233.351 532.516 229.106 531.503 229.106 531.503C229.106 531.503 224.508 530.214 215.311 527.636C206.115 525.058 201.517 523.769 201.517 523.769L167.815 513.876C167.775 513.912 167.748 513.958 167.735 514.013C167.722 514.068 167.724 514.122 167.743 514.175C167.761 514.228 167.792 514.27 167.835 514.301C167.878 514.332 173.481 516.007 184.643 519.325C195.806 522.644 205.986 525.592 215.185 528.171C224.384 530.75 233.231 533.053 241.727 535.081C250.222 537.108 258.591 538.824 266.833 540.229C275.075 541.633 282.794 542.72 289.99 543.487C297.186 544.254 302.254 544.708 305.192 544.848C308.131 544.988 310.398 544.987 311.993 544.845C313.589 544.703 314.882 544.487 315.873 544.199C316.864 543.911 317.652 543.582 318.238 543.213C318.823 542.844 319.109 542.22 319.097 541.343C319.084 540.465 318.285 538.989 316.699 536.915C315.114 534.84 312.506 533.056 308.874 531.562C305.242 530.068 300.968 528.802 296.051 527.765C291.134 526.728 286.094 525.605 280.93 524.397C275.766 523.189 271.064 521.704 266.824 519.941C262.584 518.179 259.174 516.375 256.594 514.53C254.014 512.685 251.782 510.792 249.899 508.852C248.016 506.912 246.361 504.992 244.936 503.09C243.511 501.188 242.286 499.399 241.26 497.723C240.235 496.047 239.578 494.511 239.292 493.117C239.005 491.722 239.867 490.469 241.877 489.358C243.886 488.247 247.677 487.791 253.249 487.991C258.822 488.191 265.651 488.751 273.738 489.672C281.825 490.592 290.333 491.377 299.262 492.026C308.191 492.675 316.21 492.903 323.318 492.71C330.426 492.517 335.173 492.288 337.558 492.024C339.943 491.76 341.662 491.46 342.713 491.124C343.765 490.787 344.524 490.421 344.99 490.024C345.456 489.626 345.662 489.223 345.607 488.812C345.553 488.402 344.664 487.972 342.94 487.524C341.217 487.075 337.48 486.334 331.728 485.302C325.977 484.27 319.899 483.137 313.495 481.903C307.09 480.668 300.736 479.33 294.434 477.887C288.132 476.445 281.945 474.852 275.873 473.107C269.801 471.362 264.029 469.499 258.559 467.517C253.089 465.535 248.4 463.64 244.492 461.831C240.584 460.022 237.123 458.237 234.107 456.475C231.091 454.713 228.422 453.037 226.098 451.448C223.775 449.859 221.757 448.45 220.045 447.223C218.333 445.995 216.572 444.553 214.763 442.898C212.954 441.242 212.026 440.426 211.979 440.448M211.836 440.714C211.832 440.657 211.842 440.605 211.869 440.556C211.895 440.506 211.932 440.471 211.979 440.448M211.836 440.714C211.841 440.771 212.314 440.745 213.255 440.637C214.195 440.529 216.97 440.289 221.577 439.915C226.185 439.541 232.216 439.231 239.669 438.984C247.122 438.737 254.876 438.331 262.933 437.766C270.989 437.201 277.988 436.43 283.93 435.452C289.872 434.475 293.962 433.704 296.201 433.14C298.441 432.575 300.156 432.075 301.346 431.64C302.536 431.205 303.519 430.788 304.293 430.389C305.067 429.991 305.7 429.582 306.19 429.163C306.681 428.744 306.947 428.105 306.99 427.246C307.033 426.387 306.509 425.018 305.419 423.139C304.329 421.26 302.472 419.64 299.846 418.278C297.221 416.917 294.002 415.813 290.188 414.966C286.375 414.119 282.223 413.331 277.732 412.601C273.241 411.871 268.766 410.948 264.307 409.833C259.849 408.718 255.795 407.262 252.146 405.466C248.497 403.67 245.033 401.749 241.754 399.704C238.475 397.659 235.335 395.53 232.334 393.317C229.332 391.104 226.462 388.804 223.723 386.416C220.984 384.029 218.496 381.694 216.261 379.412C214.025 377.131 212.288 375.257 211.049 373.791C209.809 372.326 208.68 370.928 207.66 369.6C206.64 368.271 205.077 366.21 202.972 363.418C200.866 360.625 199.778 359.212 199.709 359.179C199.639 359.146 199.572 359.15 199.507 359.193C199.441 359.236 199.405 359.299 199.398 359.382C199.391 359.465 199.416 359.535 199.472 359.59C199.529 359.645 199.594 359.664 199.668 359.646C199.742 359.628 199.794 359.58 199.824 359.503C199.855 359.427 199.85 359.352 199.812 359.28C199.773 359.208 199.716 359.168 199.641 359.16C199.566 359.152 199.503 359.179 199.453 359.242C199.403 359.305 199.386 359.377 199.402 359.459C199.419 359.541 200.481 360.979 202.588 363.773C204.695 366.567 206.261 368.632 207.286 369.967C208.311 371.302 209.447 372.707 210.695 374.182C211.942 375.656 213.689 377.539 215.935 379.831C218.181 382.123 220.679 384.467 223.429 386.863C226.179 389.26 229.06 391.568 232.072 393.788C235.083 396.008 238.236 398.144 241.529 400.197C244.822 402.25 248.308 404.18 251.987 405.986C255.665 407.793 259.741 409.256 264.213 410.375C268.686 411.494 273.163 412.417 277.645 413.145C282.128 413.874 286.256 414.653 290.032 415.484C293.808 416.315 296.981 417.381 299.551 418.683C302.122 419.985 303.943 421.522 305.015 423.296C306.086 425.069 306.619 426.326 306.613 427.064C306.608 427.803 306.377 428.36 305.92 428.735C305.464 429.11 304.858 429.492 304.103 429.88C303.348 430.269 302.383 430.679 301.208 431.109C300.032 431.54 298.331 432.036 296.104 432.598C293.877 433.159 289.801 433.928 283.874 434.904C277.947 435.879 270.959 436.649 262.909 437.214C254.858 437.778 247.101 438.185 239.637 438.432C232.173 438.68 226.169 439.011 221.624 439.427C217.078 439.842 214.346 440.11 213.428 440.232C212.509 440.353 212.026 440.426 211.979 440.448" stroke="#053F28" stroke-width="2" stroke-linecap="round"/>
<path d="M295.924 367.616C295.882 367.588 295.511 367.763 294.813 368.14C294.115 368.517 293.289 368.812 292.337 369.026C291.384 369.24 290.109 369.416 288.511 369.555C286.913 369.693 284.65 369.75 281.723 369.724C278.796 369.699 273.864 369.509 266.926 369.155C259.988 368.801 252.959 368.266 245.841 367.55C238.722 366.834 232.166 365.951 226.173 364.9C220.179 363.849 217.182 363.324 217.182 363.324C217.182 363.324 214.634 362.667 209.539 361.353C204.444 360.039 201.896 359.382 201.896 359.382L186.941 354.486C186.899 354.515 186.87 354.554 186.854 354.602C186.838 354.651 186.838 354.699 186.853 354.748C186.868 354.796 186.896 354.835 186.937 354.866C186.978 354.896 189.455 355.734 194.369 357.381C199.283 359.028 204.292 360.509 209.399 361.826C214.505 363.143 220.061 364.329 226.067 365.382C232.073 366.435 238.642 367.321 245.772 368.039C252.903 368.756 259.942 369.292 266.889 369.647C273.836 370.002 278.777 370.193 281.712 370.218C284.647 370.243 286.921 370.186 288.535 370.047C290.149 369.908 291.444 369.729 292.421 369.51C293.397 369.291 294.239 368.976 294.945 368.564C295.652 368.153 296.011 367.923 296.024 367.873M295.924 367.616C295.967 367.644 295.998 367.681 296.016 367.728C296.035 367.776 296.037 367.824 296.024 367.873M295.924 367.616C295.882 367.588 295.639 367.402 295.195 367.057C294.752 366.712 293.516 365.884 291.487 364.574C289.458 363.264 286.98 362.102 284.051 361.087C281.123 360.073 277.969 359.18 274.589 358.409C271.21 357.638 267.749 356.797 264.206 355.887C260.664 354.977 257.116 353.81 253.561 352.387C250.006 350.963 246.408 349.285 242.767 347.352C239.125 345.419 235.536 343.419 231.998 341.354C228.46 339.288 224.998 337.179 221.612 335.027C218.227 332.874 214.92 330.658 211.694 328.377C208.467 326.097 205.365 323.742 202.386 321.313C199.408 318.884 196.7 316.416 194.262 313.909C191.825 311.402 189.687 308.871 187.85 306.317C186.012 303.762 184.461 301.269 183.195 298.837C181.93 296.405 180.926 294.141 180.183 292.044C179.441 289.946 179.065 288.025 179.056 286.28C179.048 284.535 179.912 282.96 181.649 281.555C183.386 280.151 186.347 279.567 190.532 279.803C194.718 280.039 199.946 280.856 206.217 282.254C212.487 283.651 219.48 285.158 227.196 286.774C234.911 288.391 242.264 289.673 249.254 290.62C256.245 291.567 260.89 292.115 263.192 292.263C265.493 292.411 266.93 292.352 267.502 292.087C268.074 291.822 268.082 291.431 267.525 290.915C266.969 290.398 266.089 289.892 264.885 289.394C263.682 288.897 261.697 288.043 258.929 286.832C256.162 285.62 253.218 284.189 250.096 282.537C246.975 280.885 243.817 279.095 240.622 277.168C237.427 275.242 234.222 273.248 231.007 271.187C227.793 269.127 224.617 267.073 221.481 265.027C218.344 262.981 215.398 261 212.641 259.083C209.884 257.166 207.33 255.28 204.978 253.426C202.626 251.572 200.482 249.782 198.547 248.056C196.612 246.331 194.891 244.721 193.384 243.227C191.877 241.732 190.552 239.863 189.409 237.619C188.267 235.375 187.67 234.256 187.62 234.263M296.024 367.873C296.011 367.923 295.765 367.776 295.285 367.432C294.805 367.089 293.5 366.267 291.37 364.968C289.241 363.669 286.729 362.521 283.836 361.525C280.943 360.53 277.815 359.649 274.453 358.883C271.091 358.117 267.636 357.278 264.09 356.367C260.543 355.456 256.983 354.285 253.408 352.855C249.833 351.425 246.217 349.74 242.559 347.799C238.902 345.859 235.301 343.854 231.758 341.785C228.214 339.717 224.746 337.604 221.355 335.449C217.964 333.293 214.652 331.072 211.419 328.787C208.185 326.502 205.075 324.142 202.087 321.705C199.1 319.269 196.38 316.791 193.928 314.271C191.477 311.751 189.325 309.204 187.472 306.631C185.619 304.058 184.053 301.545 182.775 299.093C181.497 296.641 180.483 294.351 179.733 292.224C178.983 290.097 178.612 288.124 178.62 286.305C178.629 284.486 179.54 282.823 181.352 281.315C183.165 279.807 186.197 279.155 190.449 279.36C194.701 279.564 199.977 280.367 206.278 281.767C212.579 283.167 219.586 284.675 227.3 286.292C235.014 287.908 242.36 289.188 249.337 290.133C256.313 291.079 260.929 291.644 263.182 291.83C265.435 292.015 266.793 292.052 267.257 291.939C267.72 291.827 267.701 291.57 267.2 291.17C266.699 290.77 265.856 290.326 264.67 289.838C263.484 289.349 261.507 288.499 258.737 287.286C255.966 286.074 253.015 284.639 249.882 282.981C246.75 281.324 243.582 279.53 240.379 277.598C237.176 275.667 233.965 273.67 230.746 271.607C227.528 269.544 224.35 267.489 221.212 265.442C218.075 263.395 215.126 261.412 212.365 259.492C209.604 257.573 207.043 255.683 204.683 253.822C202.323 251.962 200.172 250.166 198.229 248.434C196.286 246.702 194.557 245.084 193.042 243.58C191.527 242.076 190.208 240.191 189.086 237.925C187.965 235.659 187.409 234.501 187.418 234.451M187.418 234.451C187.428 234.401 187.451 234.359 187.488 234.324C187.526 234.29 187.569 234.269 187.62 234.263M187.418 234.451C187.409 234.501 187.706 234.503 188.309 234.458C188.913 234.412 190.661 234.401 193.555 234.425C196.448 234.448 200.186 234.845 204.77 235.614C209.353 236.383 214.297 237.343 219.602 238.495C224.907 239.646 229.845 240.722 234.415 241.724C238.986 242.726 242.567 243.43 245.16 243.837C247.753 244.244 250.146 244.507 252.34 244.628C254.534 244.748 256.641 244.781 258.663 244.725C260.684 244.669 262.567 244.556 264.31 244.385C266.054 244.215 267.571 244.005 268.862 243.758C270.152 243.51 271.159 243.217 271.881 242.88C272.603 242.542 273.053 242.151 273.23 241.708C273.407 241.264 273.352 240.81 273.065 240.344C272.778 239.879 272.335 239.415 271.737 238.953C271.139 238.491 270.239 237.93 269.038 237.272C267.837 236.614 265.877 235.61 263.159 234.261C260.44 232.912 257.524 231.499 254.409 230.022C251.295 228.544 248.125 227.079 244.899 225.625C241.674 224.171 238.434 222.754 235.179 221.373C231.924 219.992 228.598 218.567 225.2 217.099C221.802 215.631 218.173 213.808 214.315 211.631C210.456 209.454 206.538 206.825 202.56 203.745C198.582 200.664 194.643 197.257 190.743 193.523C186.843 189.788 183.066 185.909 179.413 181.884C175.759 177.86 172.366 173.908 169.234 170.028C166.101 166.148 163.383 162.501 161.08 159.086C158.776 155.671 156.626 152.314 154.63 149.014C152.634 145.715 150.702 142.43 148.836 139.158C146.97 135.887 145.122 132.618 143.292 129.352C141.462 126.086 139.747 123.048 138.145 120.237C136.543 117.427 135.328 115.352 134.499 114.013C133.67 112.675 132.908 111.49 132.212 110.459C131.516 109.429 130.447 107.941 129.006 105.996C127.564 104.051 126.811 103.061 126.744 103.026C126.678 102.992 126.611 102.991 126.544 103.025C126.477 103.058 126.438 103.112 126.425 103.185C126.413 103.259 126.433 103.323 126.485 103.376C126.538 103.429 126.601 103.45 126.675 103.439C126.749 103.428 126.803 103.39 126.838 103.323C126.872 103.257 126.873 103.19 126.84 103.123C126.806 103.056 126.753 103.017 126.679 103.004C126.605 102.992 126.542 103.012 126.488 103.065C126.435 103.117 126.414 103.18 126.425 103.254C126.436 103.328 127.161 104.336 128.6 106.277C130.039 108.219 131.105 109.703 131.797 110.728C132.49 111.754 133.249 112.933 134.075 114.267C134.901 115.601 136.114 117.672 137.715 120.481C139.316 123.29 141.032 126.328 142.862 129.595C144.692 132.863 146.541 136.134 148.41 139.409C150.279 142.683 152.213 145.974 154.214 149.28C156.214 152.586 158.371 155.952 160.682 159.378C162.994 162.804 165.719 166.461 168.858 170.348C171.997 174.236 175.397 178.196 179.059 182.229C182.721 186.261 186.508 190.151 190.422 193.896C194.335 197.642 198.291 201.061 202.289 204.155C206.287 207.248 210.223 209.888 214.097 212.073C217.971 214.258 221.607 216.085 225.006 217.553C228.405 219.022 231.73 220.446 234.981 221.826C238.233 223.205 241.47 224.621 244.692 226.074C247.914 227.526 251.081 228.99 254.193 230.466C257.305 231.942 260.216 233.352 262.926 234.696C265.635 236.041 267.582 237.036 268.765 237.682C269.948 238.328 270.821 238.861 271.385 239.281C271.948 239.702 272.37 240.106 272.649 240.495C272.929 240.883 273.008 241.238 272.886 241.559C272.764 241.88 272.367 242.185 271.695 242.476C271.023 242.766 270.051 243.033 268.781 243.275C267.511 243.517 266.01 243.723 264.278 243.893C262.546 244.063 260.676 244.176 258.668 244.232C256.661 244.288 254.568 244.256 252.39 244.137C250.213 244.019 247.832 243.757 245.249 243.351C242.666 242.946 239.089 242.243 234.519 241.241C229.949 240.239 225.008 239.162 219.695 238.009C214.381 236.857 209.416 235.895 204.8 235.125C200.184 234.355 196.466 233.985 193.648 234.016C190.83 234.046 189.134 234.093 188.558 234.157C187.983 234.221 187.67 234.256 187.62 234.263" stroke="#053F28" stroke-width="2" stroke-linecap="round"/>
</g>
<defs>
<linearGradient id="paint0_linear_2232_105" x1="34.8168" y1="35" x2="34.8168" y2="518.746" gradientUnits="userSpaceOnUse">
<stop stop-color="#008F58"/>
<stop offset="0.792668" stop-color="#08623F"/>
</linearGradient>
<linearGradient id="paint1_linear_2232_105" x1="141.817" y1="103" x2="141.817" y2="586.746" gradientUnits="userSpaceOnUse">
<stop stop-color="#008F58"/>
<stop offset="0.792668" stop-color="#08623F"/>
</linearGradient>
<clipPath id="clip0_2232_105">
<rect width="282" height="363" fill="white"/>
</clipPath>
</defs>
</svg>
