<svg width="284" height="363" viewBox="0 0 284 363" fill="none" xmlns="http://www.w3.org/2000/svg">
<g clip-path="url(#clip0_2232_178)">
<path d="M124.115 202.018C156.531 171.184 230.52 77.8251 263.462 35C294.292 112.481 373.821 160.181 409.731 174.346C387.989 193.124 306.951 145.687 326.717 169.405C346.482 193.124 423.567 229.69 402.814 225.737C386.211 222.574 337.917 217.83 315.846 215.854C336.599 286.021 441.356 292.939 431.473 299.857C423.567 305.391 364.93 297.551 336.599 292.939C389.966 351.247 447.286 346.306 447.286 360.142C447.286 371.21 384.036 373.319 352.412 372.989C382.06 408.567 484.84 416.473 481.875 424.379C479.504 430.704 413.026 427.015 380.083 424.379C381.665 450.47 425.544 460.287 447.286 461.934L457.169 476.758C431.869 488.617 346.482 461.934 306.951 447.11C308.928 456.992 224.924 510.359 183.417 518.265C150.566 524.523 200.771 468.101 230.874 438.187C209.373 458.374 124.269 470.69 134.003 461.934C141.914 454.818 151.135 433.933 154.757 424.379C104.948 426.751 81.2955 420.097 75.6953 416.473C129.457 384.849 192.311 336.094 217.018 315.669C153.769 359.153 118.85 354.212 109.297 346.306C153.459 314.06 204.51 258.714 231.59 226.834C201.713 251.779 124.115 259.508 124.115 253.408C124.115 247.874 177.482 203.665 204.166 182.253C163.976 201.689 91.7001 232.852 124.115 202.018Z" fill="url(#paint0_linear_2232_178)"/>
<path d="M122.971 203.204C123.022 203.21 124.213 201.191 126.545 197.147C128.877 193.103 131.457 189.737 134.283 187.047C137.11 184.358 140.336 181.341 143.961 177.995C147.586 174.65 151.459 171.002 155.581 167.053C159.703 163.104 163.887 158.951 168.135 154.594C172.382 150.236 176.369 146.055 180.095 142.051C183.821 138.047 187.847 133.606 192.172 128.729C196.498 123.851 201.433 118.036 206.977 111.285C212.521 104.533 215.293 101.158 215.293 101.158C215.293 101.158 218.675 96.6956 225.438 87.7717C232.201 78.8477 235.582 74.3858 235.582 74.3858L261.487 37.6552C261.471 37.607 261.442 37.5681 261.4 37.5386C261.359 37.5091 261.313 37.4946 261.262 37.4951C261.211 37.4956 261.165 37.5111 261.124 37.5414C261.083 37.5717 256.749 43.6723 248.121 55.8431C239.494 68.014 231.8 78.5593 225.04 87.479C218.28 96.3987 212.13 104.232 206.59 110.978C201.05 117.725 196.119 123.534 191.797 128.407C187.476 133.28 183.453 137.718 179.729 141.719C176.006 145.72 172.022 149.898 167.777 154.253C163.532 158.607 159.351 162.757 155.233 166.702C151.116 170.647 147.246 174.292 143.623 177.635C140 180.979 136.774 183.997 133.943 186.69C131.113 189.383 128.541 192.764 126.227 196.834C123.913 200.904 122.761 202.964 122.77 203.014M122.971 203.204C122.921 203.197 122.877 203.176 122.84 203.141C122.803 203.106 122.78 203.064 122.77 203.014M122.971 203.204C123.022 203.21 123.344 203.276 123.937 203.403C124.531 203.529 126.314 203.639 129.286 203.734C132.259 203.829 136.233 203.208 141.21 201.868C146.187 200.529 151.386 198.897 156.806 196.971C162.227 195.045 167.098 193.266 171.421 191.633C175.744 190.001 179.198 188.683 181.782 187.681C184.366 186.679 186.675 185.765 188.709 184.938C190.743 184.112 192.634 183.355 194.383 182.668C196.132 181.98 197.754 181.395 199.25 180.913C200.745 180.431 202.116 180.165 203.361 180.114C204.607 180.064 205.542 180.551 206.168 181.577C206.793 182.602 206.453 184.341 205.146 186.793C203.839 189.246 201.734 192.136 198.831 195.464C195.928 198.791 192.626 202.219 188.927 205.745C185.228 209.272 181.501 212.6 177.745 215.732C173.99 218.863 170.284 221.749 166.628 224.389C162.972 227.03 159.4 229.465 155.912 231.697C152.423 233.928 149.047 236.031 145.782 238.006C142.518 239.981 139.391 241.914 136.401 243.806C133.412 245.697 130.683 248.17 128.214 251.222C125.745 254.275 124.51 255.827 124.509 255.878M122.77 203.014C122.761 202.964 123.069 202.993 123.693 203.102C124.318 203.21 126.154 203.286 129.203 203.33C132.252 203.373 136.239 202.726 141.163 201.389C146.087 200.051 151.253 198.422 156.66 196.5C162.067 194.578 166.931 192.801 171.251 191.17C175.571 189.538 179.022 188.222 181.605 187.22C184.188 186.218 186.495 185.304 188.526 184.479C190.558 183.654 192.449 182.897 194.2 182.209C195.951 181.521 197.583 180.934 199.098 180.45C200.612 179.966 202.03 179.721 203.351 179.715C204.672 179.709 205.7 180.291 206.435 181.461C207.171 182.63 206.886 184.461 205.582 186.952C204.277 189.443 202.162 192.37 199.237 195.733C196.312 199.097 192.994 202.547 189.284 206.085C185.574 209.623 181.837 212.962 178.073 216.1C174.31 219.239 170.595 222.132 166.93 224.779C163.266 227.427 159.685 229.869 156.189 232.105C152.693 234.342 149.311 236.448 146.043 238.425C142.775 240.402 139.65 242.333 136.668 244.217C133.685 246.1 130.952 248.557 128.467 251.586C125.982 254.614 124.715 256.121 124.667 256.104M124.667 256.104C124.619 256.087 124.58 256.058 124.551 256.017C124.522 255.975 124.508 255.929 124.509 255.878M124.667 256.104C124.715 256.121 125.28 256.128 126.362 256.126C127.443 256.123 130.568 255.939 135.736 255.572C140.904 255.204 147.471 254.182 155.437 252.505C163.402 250.827 171.596 248.753 180.02 246.283C188.444 243.813 195.811 241.363 202.121 238.934C208.431 236.504 213.022 234.553 215.895 233.081C218.768 231.61 221.207 230.185 223.213 228.808C225.218 227.431 227.092 226.035 228.834 224.621C230.575 223.206 232.244 221.798 233.839 220.395C235.435 218.993 237.217 217.554 239.185 216.079C241.154 214.603 242.135 213.841 242.13 213.79M124.509 255.878C124.51 255.827 125.06 255.793 126.161 255.777C127.261 255.761 130.42 255.549 135.638 255.141C140.855 254.733 147.434 253.691 155.374 252.017C163.314 250.342 171.489 248.272 179.9 245.805C188.31 243.338 195.663 240.893 201.959 238.468C208.255 236.043 212.832 234.098 215.689 232.633C218.547 231.169 220.97 229.753 222.958 228.386C224.947 227.019 226.806 225.633 228.538 224.226C230.269 222.819 231.93 221.417 233.521 220.018C235.112 218.619 236.901 217.194 238.889 215.744C240.876 214.294 241.895 213.574 241.945 213.585M241.945 213.585C241.995 213.595 242.037 213.62 242.071 213.657C242.105 213.695 242.124 213.739 242.13 213.79M241.945 213.585C241.895 213.574 241.735 213.803 241.465 214.271C241.195 214.739 240.331 216.138 238.872 218.468C237.413 220.798 235.266 223.949 232.431 227.92C229.596 231.892 226.368 236.289 222.747 241.112C219.126 245.935 215.472 250.693 211.786 255.385C208.1 260.077 204.592 264.316 201.263 268.103C197.933 271.889 194.559 275.427 191.141 278.715C187.723 282.004 184.198 285.16 180.567 288.185C176.936 291.209 173.176 294.195 169.289 297.142C165.401 300.09 161.347 303.096 157.125 306.16C152.904 309.224 148.571 312.336 144.128 315.496C139.685 318.656 135.595 321.548 131.86 324.171C128.124 326.794 124.831 329.13 121.981 331.178C119.13 333.226 116.716 335.041 114.738 336.625C112.759 338.209 111.225 339.656 110.133 340.965C109.042 342.275 108.52 343.523 108.569 344.708C108.617 345.894 109.306 346.901 110.635 347.732C111.964 348.562 113.725 349.224 115.919 349.719C118.112 350.214 120.459 350.567 122.959 350.779C125.459 350.991 128.051 351.046 130.737 350.942C133.423 350.839 136.563 350.436 140.157 349.732C143.752 349.029 147.545 347.963 151.536 346.533C155.526 345.103 159.748 343.345 164.201 341.259C168.653 339.173 173.444 336.819 178.573 334.196C183.702 331.574 188.744 328.996 193.697 326.462C198.651 323.929 202.239 322.084 204.461 320.928C206.683 319.772 208.449 318.827 209.759 318.093C211.069 317.36 212.151 316.732 213.003 316.21C213.856 315.687 214.975 315.083 216.361 314.396C217.746 313.709 218.44 313.341 218.441 313.29M242.13 213.79C242.135 213.841 242.01 214.098 241.753 214.561C241.497 215.024 240.659 216.416 239.239 218.735C237.819 221.054 235.688 224.206 232.845 228.189C230.002 232.172 226.769 236.577 223.146 241.404C219.522 246.23 215.866 250.991 212.178 255.686C208.489 260.381 204.977 264.626 201.642 268.419C198.306 272.212 194.925 275.758 191.497 279.056C188.07 282.355 184.536 285.52 180.896 288.552C177.256 291.584 173.49 294.577 169.596 297.529C165.703 300.481 161.644 303.49 157.42 306.557C153.195 309.623 148.861 312.737 144.416 315.897C139.972 319.058 135.881 321.951 132.145 324.574C128.409 327.198 125.116 329.534 122.267 331.58C119.418 333.627 117.009 335.437 115.04 337.012C113.071 338.587 111.55 340 110.477 341.251C109.403 342.502 108.89 343.651 108.937 344.697C108.983 345.743 109.653 346.65 110.945 347.416C112.238 348.182 113.956 348.801 116.101 349.273C118.246 349.744 120.557 350.085 123.034 350.293C125.511 350.501 128.083 350.554 130.75 350.45C133.418 350.346 136.536 349.944 140.104 349.244C143.672 348.544 147.439 347.482 151.406 346.058C155.373 344.635 159.575 342.883 164.013 340.802C168.452 338.722 173.233 336.372 178.356 333.752C183.48 331.133 188.519 328.556 193.472 326.022C198.426 323.489 202.013 321.644 204.233 320.489C206.454 319.334 208.218 318.39 209.523 317.659C210.829 316.928 211.905 316.303 212.753 315.784C213.6 315.265 214.721 314.678 216.117 314.022C217.513 313.366 218.235 313.046 218.283 313.063M218.283 313.063C218.331 313.08 218.369 313.109 218.399 313.151C218.428 313.192 218.442 313.239 218.441 313.29M218.283 313.063C218.235 313.046 217.988 313.275 217.543 313.75C217.098 314.224 215.744 315.612 213.481 317.912C211.219 320.213 208.127 323.196 204.207 326.861C200.286 330.527 196.106 334.365 191.668 338.377C187.229 342.389 183.05 346.111 179.129 349.543C175.208 352.974 171.537 356.066 168.115 358.817C164.693 361.568 161.337 364.104 158.048 366.424C154.759 368.745 151.488 370.921 148.234 372.954C144.981 374.986 141.731 376.932 138.485 378.791C135.238 380.65 131.973 382.468 128.687 384.247C125.402 386.025 122.053 387.773 118.641 389.489C115.23 391.205 111.808 392.867 108.376 394.474C104.944 396.082 101.589 397.655 98.31 399.195C95.0315 400.734 91.9249 402.271 88.9903 403.805C86.0557 405.339 82.9915 407.728 79.7977 410.974C76.6038 414.22 75.0049 415.868 75.0008 415.919M218.441 313.29C218.44 313.341 218.222 313.604 217.788 314.079C217.354 314.554 216.022 315.943 213.791 318.247C211.561 320.551 208.482 323.54 204.554 327.212C200.627 330.884 196.443 334.727 192.002 338.741C187.562 342.755 183.38 346.478 179.457 349.912C175.534 353.346 171.859 356.44 168.432 359.196C165.004 361.951 161.642 364.492 158.345 366.819C155.047 369.145 151.768 371.327 148.507 373.365C145.246 375.403 141.99 377.353 138.738 379.215C135.487 381.077 132.216 382.898 128.928 384.679C125.639 386.459 122.286 388.208 118.87 389.927C115.454 391.645 112.028 393.309 108.592 394.919C105.156 396.528 101.798 398.103 98.52 399.642C95.2416 401.182 92.1391 402.716 89.2125 404.245C86.286 405.774 83.2214 408.146 80.019 411.361C76.8165 414.576 75.1917 416.174 75.1448 416.154M75.1448 416.154C75.0978 416.135 75.061 416.103 75.0345 416.06C75.008 416.016 74.9967 415.969 75.0008 415.919M75.1448 416.154C75.1917 416.174 75.5499 416.337 76.2193 416.643C76.8887 416.948 78.9954 417.621 82.5394 418.66C86.0834 419.7 91.1868 420.417 97.8497 420.811C104.513 421.205 112.028 421.472 120.396 421.613C128.764 421.754 136.526 421.965 143.682 422.246C150.839 422.528 155.201 423.03 156.77 423.752C158.339 424.474 158.776 425.671 158.082 427.343C157.387 429.015 156.086 431.067 154.177 433.5C152.268 435.932 150.032 438.643 147.468 441.633C144.904 444.622 142.433 447.528 140.054 450.35C137.675 453.171 136.036 455.282 135.136 456.681C134.236 458.081 133.742 459.229 133.656 460.124C133.569 461.02 133.758 461.774 134.222 462.386C134.686 462.998 135.33 463.501 136.154 463.897C136.978 464.292 138.232 464.601 139.915 464.826C141.598 465.05 144.389 465.127 148.287 465.057C152.184 464.988 156.297 464.556 160.625 463.763C164.954 462.97 169.349 461.862 173.81 460.439C178.272 459.015 182.836 457.389 187.504 455.559C192.171 453.73 196.68 451.934 201.032 450.173C205.384 448.412 208.811 447.028 211.311 446.022C213.812 445.015 216.013 444.116 217.913 443.323C219.814 442.53 221.554 441.78 223.135 441.073C224.716 440.365 226.157 439.688 227.457 439.042C228.758 438.395 230.238 437.761 231.899 437.138C233.56 436.516 234.394 436.18 234.4 436.13M75.0008 415.919C75.0049 415.868 75.3584 415.991 76.0614 416.287C76.7644 416.584 78.9317 417.237 82.5635 418.245C86.1952 419.253 91.3217 419.949 97.9429 420.333C104.564 420.717 112.055 420.979 120.416 421.119C128.776 421.26 136.555 421.496 143.752 421.828C150.949 422.16 155.389 422.763 157.073 423.638C158.758 424.513 159.249 425.796 158.547 427.487C157.845 429.178 156.529 431.261 154.599 433.737C152.669 436.213 150.42 438.949 147.851 441.945C145.282 444.941 142.809 447.848 140.433 450.666C138.056 453.484 136.424 455.577 135.537 456.944C134.65 458.31 134.168 459.397 134.091 460.204C134.014 461.011 134.193 461.677 134.628 462.203C135.062 462.729 135.666 463.168 136.439 463.519C137.212 463.869 138.421 464.151 140.066 464.362C141.712 464.574 144.466 464.643 148.33 464.57C152.194 464.497 156.276 464.065 160.577 463.274C164.878 462.484 169.25 461.379 173.691 459.961C178.132 458.542 182.681 456.92 187.339 455.094C191.996 453.268 196.499 451.474 200.85 449.714C205.2 447.953 208.625 446.57 211.127 445.563C213.628 444.557 215.827 443.658 217.726 442.866C219.624 442.074 221.362 441.325 222.939 440.619C224.516 439.914 225.952 439.239 227.247 438.595C228.542 437.951 230.024 437.333 231.693 436.742C233.362 436.152 234.219 435.867 234.266 435.888M234.266 435.888C234.312 435.91 234.347 435.943 234.372 435.987C234.397 436.032 234.406 436.079 234.4 436.13M234.266 435.888C234.219 435.867 234.029 436.103 233.695 436.596C233.361 437.09 232.311 438.539 230.545 440.943C228.779 443.347 226.24 446.52 222.93 450.46C219.619 454.4 215.913 458.719 211.812 463.417C207.71 468.116 203.785 472.603 200.036 476.881C196.286 481.158 193.258 484.638 190.951 487.32C188.644 490.002 186.633 492.404 184.919 494.526C183.205 496.649 181.716 498.621 180.451 500.443C179.187 502.265 178.165 503.974 177.386 505.568C176.607 507.163 176.268 508.782 176.368 510.424C176.469 512.066 177.569 513.709 179.669 515.353C181.769 516.996 184.964 517.509 189.252 516.89C193.54 516.271 198.554 514.705 204.292 512.192C210.03 509.678 216.011 506.722 222.233 503.324C228.456 499.926 234.211 496.716 239.499 493.692C244.786 490.669 248.902 488.273 251.845 486.504C254.789 484.735 257.505 483.057 259.994 481.47C262.482 479.882 264.983 478.248 267.497 476.566C270.01 474.884 272.6 473.117 275.266 471.264C277.932 469.411 280.531 467.568 283.062 465.735C285.593 463.902 287.68 462.326 289.323 461.008C290.965 459.69 292.525 458.376 294.004 457.066C295.482 455.756 297.71 453.667 300.689 450.799C303.668 447.932 305.17 446.463 305.195 446.393C305.22 446.322 305.212 446.256 305.17 446.194C305.128 446.133 305.07 446.1 304.995 446.098C304.92 446.096 304.86 446.124 304.814 446.183C304.768 446.242 304.756 446.307 304.776 446.379C304.797 446.451 304.843 446.5 304.913 446.525C304.984 446.55 305.05 446.542 305.112 446.5C305.173 446.458 305.206 446.4 305.208 446.325C305.21 446.25 305.182 446.19 305.123 446.144C305.064 446.098 304.999 446.086 304.927 446.107C304.855 446.127 303.331 447.57 300.356 450.434C297.381 453.298 295.157 455.383 293.685 456.688C292.213 457.994 290.658 459.303 289.022 460.616C287.386 461.93 285.304 463.502 282.776 465.332C280.247 467.163 277.651 469.004 274.988 470.856C272.324 472.707 269.737 474.472 267.226 476.152C264.716 477.832 262.218 479.465 259.733 481.05C257.248 482.635 254.535 484.311 251.595 486.078C248.654 487.845 244.542 490.24 239.257 493.261C233.973 496.283 228.226 499.49 222.017 502.881C215.807 506.273 209.856 509.22 204.162 511.724C198.467 514.227 193.513 515.801 189.297 516.445C185.082 517.09 181.964 516.641 179.944 515.098C177.923 513.554 176.87 512.008 176.785 510.459C176.699 508.909 177.041 507.355 177.809 505.795C178.578 504.235 179.591 502.549 180.848 500.737C182.104 498.925 183.588 496.96 185.299 494.842C187.01 492.724 189.018 490.324 191.324 487.644C193.63 484.963 196.658 481.484 200.408 477.206C204.157 472.928 208.084 468.439 212.187 463.738C216.291 459.038 220.002 454.711 223.322 450.759C226.642 446.806 229.159 443.636 230.873 441.248C232.587 438.86 233.601 437.423 233.917 436.936C234.233 436.449 234.394 436.18 234.4 436.13" stroke="#053F28" stroke-width="2" stroke-linecap="round"/>
<path d="M432.924 299.616C432.882 299.588 432.511 299.763 431.813 300.14C431.115 300.517 430.289 300.812 429.337 301.026C428.384 301.24 427.109 301.416 425.511 301.555C423.913 301.693 421.65 301.75 418.723 301.724C415.796 301.699 410.864 301.509 403.926 301.155C396.988 300.801 389.959 300.266 382.841 299.55C375.722 298.834 369.166 297.951 363.173 296.9C357.179 295.849 354.182 295.324 354.182 295.324C354.182 295.324 351.634 294.667 346.539 293.353C341.444 292.039 338.896 291.382 338.896 291.382L323.941 286.486C323.899 286.515 323.87 286.554 323.854 286.602C323.838 286.651 323.838 286.699 323.853 286.748C323.868 286.796 323.896 286.835 323.937 286.866C323.978 286.896 326.455 287.734 331.369 289.381C336.283 291.028 341.292 292.509 346.399 293.826C351.505 295.143 357.061 296.329 363.067 297.382C369.073 298.435 375.642 299.321 382.772 300.039C389.903 300.756 396.942 301.292 403.889 301.647C410.836 302.002 415.777 302.193 418.712 302.218C421.647 302.243 423.921 302.186 425.535 302.047C427.149 301.908 428.444 301.729 429.421 301.51C430.397 301.291 431.239 300.976 431.945 300.564C432.652 300.153 433.011 299.923 433.024 299.873M432.924 299.616C432.967 299.644 432.998 299.681 433.016 299.728C433.035 299.776 433.037 299.824 433.024 299.873M432.924 299.616C432.882 299.588 432.639 299.402 432.195 299.057C431.752 298.712 430.516 297.884 428.487 296.574C426.458 295.264 423.98 294.102 421.051 293.087C418.123 292.073 414.969 291.18 411.589 290.409C408.21 289.638 404.749 288.797 401.206 287.887C397.664 286.977 394.116 285.81 390.561 284.387C387.006 282.963 383.408 281.285 379.767 279.352C376.125 277.419 372.536 275.419 368.998 273.354C365.46 271.288 361.998 269.179 358.612 267.027C355.227 264.874 351.92 262.658 348.694 260.377C345.467 258.097 342.365 255.742 339.386 253.313C336.408 250.884 333.7 248.416 331.262 245.909C328.825 243.402 326.687 240.871 324.85 238.317C323.012 235.762 321.461 233.269 320.195 230.837C318.93 228.405 317.926 226.141 317.183 224.044C316.441 221.946 316.065 220.025 316.056 218.28C316.048 216.535 316.912 214.96 318.649 213.555C320.386 212.151 323.347 211.567 327.532 211.803C331.718 212.039 336.946 212.856 343.217 214.254C349.487 215.651 356.48 217.158 364.196 218.774C371.911 220.391 379.264 221.673 386.254 222.62C393.245 223.567 397.89 224.115 400.192 224.263C402.493 224.411 403.93 224.352 404.502 224.087C405.074 223.822 405.082 223.431 404.525 222.915C403.969 222.398 403.089 221.892 401.885 221.394C400.682 220.897 398.697 220.043 395.929 218.832C393.162 217.62 390.218 216.189 387.096 214.537C383.975 212.885 380.817 211.095 377.622 209.168C374.427 207.242 371.222 205.248 368.007 203.187C364.793 201.127 361.617 199.073 358.481 197.027C355.344 194.981 352.398 193 349.641 191.083C346.884 189.166 344.33 187.28 341.978 185.426C339.626 183.572 337.482 181.782 335.547 180.056C333.612 178.331 331.891 176.721 330.384 175.227C328.877 173.732 327.552 171.863 326.409 169.619C325.267 167.375 324.67 166.256 324.62 166.263M433.024 299.873C433.011 299.923 432.765 299.776 432.285 299.432C431.805 299.089 430.5 298.267 428.37 296.968C426.241 295.669 423.729 294.521 420.836 293.525C417.943 292.53 414.815 291.649 411.453 290.883C408.091 290.117 404.636 289.278 401.09 288.367C397.543 287.456 393.983 286.285 390.408 284.855C386.833 283.425 383.217 281.74 379.559 279.799C375.902 277.859 372.301 275.854 368.758 273.785C365.214 271.717 361.746 269.604 358.355 267.449C354.964 265.293 351.652 263.072 348.419 260.787C345.185 258.502 342.075 256.142 339.087 253.705C336.1 251.269 333.38 248.791 330.928 246.271C328.477 243.751 326.325 241.204 324.472 238.631C322.619 236.058 321.053 233.545 319.775 231.093C318.497 228.641 317.483 226.351 316.733 224.224C315.983 222.097 315.612 220.124 315.62 218.305C315.629 216.486 316.54 214.823 318.352 213.315C320.165 211.807 323.197 211.155 327.449 211.36C331.701 211.564 336.977 212.367 343.278 213.767C349.579 215.167 356.586 216.675 364.3 218.292C372.014 219.908 379.36 221.188 386.337 222.133C393.313 223.079 397.929 223.644 400.182 223.83C402.435 224.015 403.793 224.052 404.257 223.939C404.72 223.827 404.701 223.57 404.2 223.17C403.699 222.77 402.856 222.326 401.67 221.838C400.484 221.349 398.507 220.499 395.737 219.286C392.966 218.074 390.015 216.639 386.882 214.981C383.75 213.324 380.582 211.53 377.379 209.598C374.176 207.667 370.965 205.67 367.746 203.607C364.528 201.544 361.35 199.489 358.212 197.442C355.075 195.395 352.126 193.412 349.365 191.492C346.604 189.573 344.043 187.683 341.683 185.822C339.323 183.962 337.172 182.166 335.229 180.434C333.286 178.702 331.557 177.084 330.042 175.58C328.527 174.076 327.208 172.191 326.086 169.925C324.965 167.659 324.409 166.501 324.418 166.451M324.418 166.451C324.428 166.401 324.451 166.359 324.488 166.324C324.526 166.29 324.569 166.269 324.62 166.263M324.418 166.451C324.409 166.501 324.706 166.503 325.309 166.458C325.913 166.412 327.661 166.401 330.555 166.425C333.448 166.448 337.186 166.845 341.77 167.614C346.353 168.383 351.297 169.343 356.602 170.495C361.907 171.646 366.845 172.722 371.415 173.724C375.986 174.726 379.567 175.43 382.16 175.837C384.753 176.244 387.146 176.507 389.34 176.628C391.534 176.748 393.641 176.781 395.663 176.725C397.684 176.669 399.567 176.556 401.31 176.385C403.054 176.215 404.571 176.005 405.862 175.758C407.152 175.51 408.159 175.217 408.881 174.88C409.603 174.542 410.053 174.151 410.23 173.708C410.407 173.264 410.352 172.81 410.065 172.344C409.778 171.879 409.335 171.415 408.737 170.953C408.139 170.491 407.239 169.93 406.038 169.272C404.837 168.614 402.877 167.61 400.159 166.261C397.44 164.912 394.524 163.499 391.409 162.022C388.295 160.544 385.125 159.079 381.899 157.625C378.674 156.171 375.434 154.754 372.179 153.373C368.924 151.992 365.598 150.567 362.2 149.099C358.802 147.631 355.173 145.808 351.315 143.631C347.456 141.454 343.538 138.825 339.56 135.745C335.582 132.664 331.643 129.257 327.743 125.523C323.843 121.788 320.066 117.909 316.413 113.884C312.759 109.86 309.366 105.908 306.234 102.028C303.101 98.1482 300.383 94.5009 298.08 91.0859C295.776 87.6709 293.626 84.3137 291.63 81.0143C289.634 77.7148 287.702 74.4295 285.836 71.1583C283.97 67.887 282.122 64.6183 280.292 61.3522C278.462 58.0861 276.747 55.0477 275.145 52.2372C273.543 49.4267 272.328 47.3521 271.499 46.0134C270.67 44.6748 269.908 43.4901 269.212 42.4594C268.516 41.4287 267.447 39.9408 266.006 37.9957C264.564 36.0507 263.811 35.0609 263.744 35.0263C263.678 34.9918 263.611 34.9912 263.544 35.0246C263.477 35.0579 263.438 35.1115 263.425 35.1853C263.413 35.259 263.433 35.3226 263.485 35.3759C263.538 35.4292 263.601 35.4504 263.675 35.4393C263.749 35.4283 263.803 35.3896 263.838 35.3233C263.872 35.2569 263.873 35.1903 263.84 35.1234C263.806 35.0565 263.753 35.0168 263.679 35.0045C263.605 34.9921 263.542 35.0122 263.488 35.0646C263.435 35.117 263.414 35.1802 263.425 35.2541C263.436 35.3281 264.161 36.3358 265.6 38.2774C267.039 40.219 268.105 41.7025 268.797 42.7281C269.49 43.7536 270.249 44.9333 271.075 46.2671C271.901 47.6009 273.114 49.6722 274.715 52.4811C276.316 55.29 278.032 58.3281 279.862 61.5954C281.692 64.8627 283.541 68.1337 285.41 71.4086C287.279 74.6834 289.213 77.9739 291.214 81.2801C293.214 84.5863 295.371 87.9523 297.682 91.3782C299.994 94.8041 302.719 98.4607 305.858 102.348C308.997 106.236 312.397 110.196 316.059 114.229C319.721 118.261 323.508 122.151 327.422 125.896C331.335 129.642 335.291 133.061 339.289 136.155C343.287 139.248 347.223 141.888 351.097 144.073C354.971 146.258 358.607 148.085 362.006 149.553C365.405 151.022 368.73 152.446 371.981 153.826C375.233 155.205 378.47 156.621 381.692 158.074C384.914 159.526 388.081 160.99 391.193 162.466C394.305 163.942 397.216 165.352 399.926 166.696C402.635 168.041 404.582 169.036 405.765 169.682C406.948 170.328 407.821 170.861 408.385 171.281C408.948 171.702 409.37 172.106 409.649 172.495C409.929 172.883 410.008 173.238 409.886 173.559C409.764 173.88 409.367 174.185 408.695 174.476C408.023 174.766 407.051 175.033 405.781 175.275C404.511 175.517 403.01 175.723 401.278 175.893C399.546 176.063 397.676 176.176 395.668 176.232C393.661 176.288 391.568 176.256 389.39 176.137C387.213 176.019 384.832 175.757 382.249 175.351C379.666 174.946 376.089 174.243 371.519 173.241C366.949 172.239 362.008 171.162 356.695 170.009C351.381 168.857 346.416 167.895 341.8 167.125C337.184 166.355 333.466 165.985 330.648 166.016C327.83 166.046 326.134 166.093 325.558 166.157C324.983 166.221 324.67 166.256 324.62 166.263" stroke="#053F28" stroke-width="2" stroke-linecap="round"/>
<path d="M20.1155 270.018C52.5308 239.184 126.52 145.825 159.462 103C190.292 180.481 269.821 228.181 305.731 242.346C283.989 261.124 202.951 213.687 222.717 237.405C242.482 261.124 319.567 297.69 298.814 293.737C282.211 290.574 233.917 285.83 211.846 283.854C232.599 354.021 337.356 360.939 327.473 367.857C319.567 373.391 260.93 365.551 232.599 360.939C285.966 419.247 343.286 414.306 343.286 428.142C343.286 439.21 280.036 441.319 248.412 440.989C278.06 476.567 380.84 484.473 377.875 492.379C375.504 498.704 309.026 495.015 276.083 492.379C277.665 518.47 321.544 528.287 343.286 529.934L353.169 544.758C327.869 556.617 242.482 529.934 202.951 515.11C204.928 524.992 120.924 578.359 79.417 586.265C46.5658 592.523 96.7709 536.101 126.874 506.187C105.373 526.374 20.2688 538.69 30.0034 529.934C37.9137 522.818 47.1352 501.933 50.7571 492.379C0.948181 494.751 -22.7045 488.097 -28.3047 484.473C25.4573 452.849 88.3115 404.094 113.018 383.669C49.7689 427.153 14.8499 422.212 5.29659 414.306C49.4592 382.06 100.51 326.714 127.59 294.834C97.7134 319.779 20.1155 327.508 20.1155 321.408C20.1155 315.874 73.4822 271.665 100.166 250.253C59.9758 269.689 -12.2999 300.852 20.1155 270.018Z" fill="url(#paint1_linear_2232_178)"/>
<path d="M18.9711 271.204C19.0216 271.21 20.2128 269.191 22.545 265.147C24.8771 261.103 27.4566 257.737 30.2835 255.047C33.1104 252.358 36.3363 249.341 39.9612 245.995C43.5861 242.65 47.4594 239.002 51.581 235.053C55.7026 231.104 59.8871 226.951 64.1346 222.594C68.3821 218.236 72.3689 214.055 76.095 210.051C79.8212 206.047 83.847 201.606 88.1725 196.729C92.498 191.851 97.4328 186.036 102.977 179.285C108.521 172.533 111.293 169.158 111.293 169.158C111.293 169.158 114.675 164.696 121.438 155.772C128.201 146.848 131.582 142.386 131.582 142.386L157.487 105.655C157.471 105.607 157.442 105.568 157.4 105.539C157.359 105.509 157.313 105.495 157.262 105.495C157.211 105.496 157.165 105.511 157.124 105.541C157.083 105.572 152.749 111.672 144.121 123.843C135.494 136.014 127.8 146.559 121.04 155.479C114.28 164.399 108.13 172.232 102.59 178.978C97.0497 185.725 92.1188 191.534 87.7973 196.407C83.4757 201.28 79.4531 205.718 75.7294 209.719C72.0057 213.72 68.0215 217.898 63.7768 222.253C59.5321 226.607 55.3509 230.757 51.2333 234.702C47.1158 238.647 43.2456 242.292 39.6228 245.635C36 248.979 32.7736 251.997 29.9435 254.69C27.1134 257.383 24.5414 260.764 22.2274 264.834C19.9134 268.904 18.7611 270.964 18.7704 271.014M18.9711 271.204C18.9206 271.197 18.8769 271.176 18.8399 271.141C18.8029 271.106 18.7798 271.064 18.7704 271.014M18.9711 271.204C19.0216 271.21 19.3436 271.276 19.9372 271.403C20.5309 271.529 22.3139 271.639 25.2862 271.734C28.2586 271.829 32.2333 271.208 37.2104 269.868C42.1875 268.529 47.3861 266.897 52.8064 264.971C58.2267 263.045 63.0984 261.266 67.4213 259.633C71.7443 258.001 75.1978 256.683 77.782 255.681C80.3662 254.679 82.6752 253.765 84.709 252.938C86.7428 252.112 88.6341 251.355 90.3829 250.668C92.1317 249.98 93.7539 249.395 95.2497 248.913C96.7454 248.431 98.1159 248.165 99.3613 248.114C100.607 248.064 101.542 248.551 102.168 249.577C102.793 250.602 102.453 252.341 101.146 254.793C99.8394 257.246 97.7344 260.136 94.831 263.464C91.9276 266.791 88.6263 270.219 84.9272 273.745C81.2281 277.272 77.5007 280.6 73.7452 283.732C69.9897 286.863 66.284 289.749 62.6281 292.389C58.9723 295.03 55.4002 297.465 51.9118 299.697C48.4234 301.928 45.0469 304.031 41.7822 306.006C38.5175 307.981 35.3906 309.914 32.4014 311.806C29.4121 313.697 26.683 316.17 24.2139 319.222C21.7448 322.275 20.5097 323.827 20.5088 323.878M18.7704 271.014C18.7611 270.964 19.0687 270.993 19.6932 271.102C20.3178 271.21 22.1545 271.286 25.2033 271.33C28.2521 271.373 32.2386 270.726 37.1627 269.389C42.0868 268.051 47.2526 266.422 52.66 264.5C58.0674 262.578 62.9311 260.801 67.251 259.17C71.571 257.538 75.0223 256.222 77.6051 255.22C80.1878 254.218 82.495 253.304 84.5265 252.479C86.558 251.654 88.4491 250.897 90.1999 250.209C91.9507 249.521 93.5834 248.934 95.0979 248.45C96.6124 247.966 98.03 247.721 99.3508 247.715C100.672 247.709 101.7 248.291 102.435 249.461C103.171 250.63 102.886 252.461 101.582 254.952C100.277 257.443 98.1619 260.37 95.2369 263.733C92.3118 267.097 88.9943 270.547 85.2842 274.085C81.5742 277.623 77.8372 280.962 74.0735 284.1C70.3097 287.239 66.5953 290.132 62.9305 292.779C59.2656 295.427 55.6851 297.869 52.1892 300.105C48.6932 302.342 45.3112 304.448 42.0431 306.425C38.775 308.402 35.6499 310.333 32.6676 312.217C29.6854 314.1 26.9518 316.557 24.4668 319.586C21.9818 322.614 20.7152 324.121 20.6671 324.104M20.6671 324.104C20.619 324.087 20.5804 324.058 20.5512 324.017C20.522 323.975 20.5079 323.929 20.5088 323.878M20.6671 324.104C20.7152 324.121 21.28 324.128 22.3615 324.126C23.443 324.123 26.5679 323.939 31.7362 323.572C36.9045 323.204 43.4713 322.182 51.4366 320.505C59.4019 318.827 67.5964 316.753 76.0202 314.283C84.4439 311.813 91.8108 309.363 98.1208 306.934C104.431 304.504 109.022 302.553 111.895 301.081C114.768 299.61 117.207 298.185 119.213 296.808C121.218 295.431 123.092 294.035 124.834 292.621C126.575 291.206 128.244 289.798 129.839 288.395C131.435 286.993 133.217 285.554 135.185 284.079C137.154 282.603 138.135 281.841 138.13 281.79M20.5088 323.878C20.5097 323.827 21.0604 323.793 22.1608 323.777C23.2611 323.761 26.4201 323.549 31.6376 323.141C36.8552 322.733 43.4339 321.691 51.3738 320.017C59.3137 318.342 67.489 316.272 75.8996 313.805C84.3102 311.338 91.6634 308.893 97.9593 306.468C104.255 304.043 108.832 302.098 111.689 300.633C114.547 299.169 116.97 297.753 118.958 296.386C120.947 295.019 122.806 293.633 124.538 292.226C126.269 290.819 127.93 289.417 129.521 288.018C131.112 286.619 132.901 285.194 134.889 283.744C136.876 282.294 137.895 281.574 137.945 281.585M137.945 281.585C137.995 281.595 138.037 281.62 138.071 281.657C138.105 281.695 138.124 281.739 138.13 281.79M137.945 281.585C137.895 281.574 137.735 281.803 137.465 282.271C137.195 282.739 136.331 284.138 134.872 286.468C133.413 288.798 131.266 291.949 128.431 295.92C125.596 299.892 122.368 304.289 118.747 309.112C115.126 313.935 111.472 318.693 107.786 323.385C104.1 328.077 100.592 332.316 97.2626 336.103C93.9329 339.889 90.5591 343.427 87.141 346.715C83.7229 350.004 80.1983 353.16 76.5671 356.185C72.9359 359.209 69.1765 362.195 65.2889 365.142C61.4013 368.09 57.3467 371.096 53.1252 374.16C48.9037 377.224 44.5713 380.336 40.1279 383.496C35.6846 386.656 31.5952 389.548 27.8597 392.171C24.1242 394.794 20.8312 397.13 17.9806 399.178C15.13 401.226 12.7157 403.041 10.7375 404.625C8.75939 406.209 7.22457 407.656 6.13307 408.965C5.04157 410.275 4.52013 411.523 4.56874 412.708C4.61736 413.894 5.30613 414.901 6.63506 415.732C7.96399 416.562 9.72524 417.224 11.9188 417.719C14.1124 418.214 16.4591 418.567 18.9589 418.779C21.4588 418.991 24.0515 419.046 26.737 418.942C29.4226 418.839 32.5627 418.436 36.1575 417.732C39.7522 417.029 43.5449 415.963 47.5355 414.533C51.5262 413.103 55.7478 411.345 60.2006 409.259C64.6533 407.173 69.4443 404.819 74.5734 402.196C79.7025 399.574 84.7438 396.996 89.6973 394.462C94.6508 391.929 98.2385 390.084 100.461 388.928C102.683 387.772 104.449 386.827 105.759 386.093C107.069 385.36 108.151 384.732 109.003 384.21C109.856 383.687 110.975 383.083 112.361 382.396C113.746 381.709 114.44 381.341 114.441 381.29M138.13 281.79C138.135 281.841 138.01 282.098 137.753 282.561C137.497 283.024 136.659 284.416 135.239 286.735C133.819 289.054 131.688 292.206 128.845 296.189C126.002 300.172 122.769 304.577 119.146 309.404C115.522 314.23 111.866 318.991 108.178 323.686C104.489 328.381 100.977 332.626 97.6418 336.419C94.3062 340.212 90.9247 343.758 87.4973 347.056C84.0699 350.355 80.5362 353.52 76.8964 356.552C73.2565 359.584 69.4898 362.577 65.5963 365.529C61.7028 368.481 57.644 371.49 53.4197 374.557C49.1954 377.623 44.861 380.737 40.4162 383.897C35.9715 387.058 31.8811 389.951 28.1449 392.574C24.4087 395.198 21.1161 397.534 18.2672 399.58C15.4184 401.627 13.0094 403.437 11.0405 405.012C9.0715 406.587 7.55026 408 6.47676 409.251C5.40325 410.502 4.88985 411.651 4.93654 412.697C4.98323 413.743 5.65283 414.65 6.94533 415.416C8.23784 416.182 9.95644 416.801 12.1011 417.273C14.2458 417.744 16.5567 418.085 19.0338 418.293C21.5109 418.501 24.0831 418.554 26.7504 418.45C29.4178 418.346 32.5356 417.944 36.1038 417.244C39.672 416.544 43.4395 415.482 47.4061 414.058C51.3728 412.635 55.5752 410.883 60.0134 408.802C64.4516 406.722 69.2326 404.372 74.3564 401.752C79.4802 399.133 84.5188 396.556 89.4722 394.022C94.4256 391.489 98.0127 389.644 100.233 388.489C102.454 387.334 104.218 386.39 105.523 385.659C106.829 384.928 107.905 384.303 108.753 383.784C109.6 383.265 110.721 382.678 112.117 382.022C113.513 381.366 114.235 381.046 114.283 381.063M114.283 381.063C114.331 381.08 114.369 381.109 114.399 381.151C114.428 381.192 114.442 381.239 114.441 381.29M114.283 381.063C114.235 381.046 113.988 381.275 113.543 381.75C113.098 382.224 111.744 383.612 109.481 385.912C107.219 388.213 104.127 391.196 100.207 394.861C96.2859 398.527 92.1064 402.365 87.6679 406.377C83.2294 410.389 79.0497 414.111 75.1289 417.543C71.208 420.974 67.5366 424.066 64.1146 426.817C60.6925 429.568 57.337 432.104 54.0479 434.424C50.7588 436.745 47.4876 438.921 44.2342 440.954C40.9809 442.986 37.731 444.932 34.4847 446.791C31.2384 448.65 27.9725 450.468 24.6872 452.247C21.4019 454.025 18.0533 455.773 14.6414 457.489C11.2295 459.205 7.80765 460.867 4.37575 462.474C0.943855 464.082 -2.41138 465.655 -5.68996 467.195C-8.96855 468.734 -12.0751 470.271 -15.0097 471.805C-17.9443 473.339 -21.0085 475.728 -24.2023 478.974C-27.3962 482.22 -28.9951 483.868 -28.9992 483.919M114.441 381.29C114.44 381.341 114.222 381.604 113.788 382.079C113.354 382.554 112.022 383.943 109.791 386.247C107.561 388.551 104.482 391.54 100.554 395.212C96.627 398.884 92.443 402.727 88.0024 406.741C83.5617 410.755 79.3799 414.478 75.457 417.912C71.534 421.346 67.8589 424.44 64.4315 427.196C61.0042 429.951 57.6419 432.492 54.3446 434.819C51.0474 437.145 47.7683 439.327 44.5073 441.365C41.2463 443.403 37.99 445.353 34.7383 447.215C31.4866 449.077 28.2164 450.898 24.9276 452.679C21.6389 454.459 18.2864 456.208 14.8701 457.927C11.4538 459.645 8.02759 461.309 4.59155 462.919C1.15552 464.528 -2.20168 466.103 -5.48005 467.642C-8.75841 469.182 -11.8609 470.716 -14.7875 472.245C-17.714 473.774 -20.7786 476.146 -23.981 479.361C-27.1835 482.576 -28.8083 484.174 -28.8552 484.154M-28.8552 484.154C-28.9022 484.135 -28.939 484.103 -28.9655 484.06C-28.992 484.016 -29.0033 483.969 -28.9992 483.919M-28.8552 484.154C-28.8083 484.174 -28.4501 484.337 -27.7807 484.643C-27.1113 484.948 -25.0046 485.621 -21.4606 486.66C-17.9166 487.7 -12.8132 488.417 -6.15028 488.811C0.51262 489.205 8.02805 489.472 16.396 489.613C24.764 489.754 32.5261 489.965 39.6824 490.246C46.8387 490.528 51.2013 491.03 52.7702 491.752C54.3391 492.474 54.7762 493.671 54.0817 495.343C53.3871 497.015 52.0856 499.067 50.177 501.5C48.2685 503.932 46.0322 506.643 43.4682 509.633C40.9042 512.622 38.4328 515.528 36.0539 518.35C33.6751 521.171 32.0357 523.282 31.1357 524.681C30.2358 526.081 29.7424 527.229 29.6556 528.124C29.5688 529.02 29.7576 529.774 30.2219 530.386C30.6862 530.998 31.3303 531.501 32.1542 531.897C32.9781 532.292 34.2317 532.601 35.9149 532.826C37.5982 533.05 40.3887 533.127 44.2865 533.057C48.1843 532.988 52.2973 532.556 56.6255 531.763C60.9537 530.97 65.3486 529.862 69.8102 528.439C74.2719 527.015 78.8363 525.389 83.5036 523.559C88.1709 521.73 92.6805 519.934 97.0323 518.173C101.384 516.412 104.811 515.028 107.311 514.022C109.812 513.015 112.013 512.116 113.913 511.323C115.814 510.53 117.554 509.78 119.135 509.073C120.716 508.365 122.157 507.688 123.457 507.042C124.758 506.395 126.238 505.761 127.899 505.138C129.56 504.516 130.394 504.18 130.4 504.13M-28.9992 483.919C-28.9951 483.868 -28.6416 483.991 -27.9386 484.287C-27.2356 484.584 -25.0683 485.237 -21.4365 486.245C-17.8048 487.253 -12.6783 487.949 -6.05711 488.333C0.564133 488.717 8.0551 488.979 16.4158 489.119C24.7765 489.26 32.5552 489.496 39.752 489.828C46.9488 490.16 51.3892 490.763 53.0734 491.638C54.7575 492.513 55.2486 493.796 54.5467 495.487C53.8447 497.178 52.5288 499.261 50.5991 501.737C48.6693 504.213 46.4199 506.949 43.8509 509.945C41.2819 512.941 38.8091 515.848 36.4326 518.666C34.0562 521.484 32.4244 523.577 31.5373 524.944C30.6502 526.31 30.1682 527.397 30.0912 528.204C30.0142 529.011 30.193 529.677 30.6275 530.203C31.062 530.729 31.6658 531.168 32.4387 531.519C33.2117 531.869 34.4209 532.151 36.0664 532.362C37.7119 532.574 40.4664 532.643 44.33 532.57C48.1936 532.497 52.276 532.065 56.5772 531.274C60.8784 530.484 65.2497 529.379 69.6909 527.961C74.1322 526.542 78.6815 524.92 83.3386 523.094C87.9958 521.268 92.4994 519.474 96.8496 517.714C101.2 515.953 104.625 514.57 107.127 513.563C109.628 512.557 111.827 511.658 113.726 510.866C115.624 510.074 117.362 509.325 118.939 508.619C120.516 507.914 121.952 507.239 123.247 506.595C124.542 505.951 126.024 505.333 127.693 504.742C129.362 504.152 130.219 503.867 130.266 503.888M130.266 503.888C130.312 503.91 130.347 503.943 130.372 503.987C130.397 504.032 130.406 504.079 130.4 504.13M130.266 503.888C130.219 503.867 130.029 504.103 129.695 504.596C129.361 505.09 128.311 506.539 126.545 508.943C124.779 511.347 122.24 514.52 118.93 518.46C115.619 522.4 111.913 526.719 107.812 531.417C103.71 536.116 99.7851 540.603 96.0356 544.881C92.2861 549.158 89.2579 552.638 86.9508 555.32C84.6438 558.002 82.6332 560.404 80.919 562.526C79.2048 564.649 77.7156 566.621 76.4513 568.443C75.1871 570.265 74.1654 571.974 73.3863 573.568C72.6072 575.163 72.2679 576.782 72.3683 578.424C72.4687 580.066 73.569 581.709 75.6691 583.353C77.7693 584.996 80.9636 585.509 85.2519 584.89C89.5402 584.271 94.5535 582.705 100.292 580.192C106.03 577.678 112.011 574.722 118.233 571.324C124.456 567.926 130.211 564.716 135.499 561.692C140.786 558.669 144.902 556.273 147.845 554.504C150.789 552.735 153.505 551.057 155.994 549.47C158.482 547.882 160.983 546.248 163.497 544.566C166.01 542.884 168.6 541.117 171.266 539.264C173.932 537.411 176.531 535.568 179.062 533.735C181.593 531.902 183.68 530.326 185.323 529.008C186.965 527.69 188.525 526.376 190.004 525.066C191.482 523.756 193.71 521.667 196.689 518.799C199.668 515.932 201.17 514.463 201.195 514.393C201.22 514.322 201.212 514.256 201.17 514.194C201.128 514.133 201.07 514.1 200.995 514.098C200.92 514.096 200.86 514.124 200.814 514.183C200.768 514.242 200.756 514.307 200.776 514.379C200.797 514.451 200.843 514.5 200.913 514.525C200.984 514.55 201.05 514.542 201.112 514.5C201.173 514.458 201.206 514.4 201.208 514.325C201.21 514.25 201.182 514.19 201.123 514.144C201.064 514.098 200.999 514.086 200.927 514.107C200.855 514.127 199.331 515.57 196.356 518.434C193.381 521.298 191.157 523.383 189.685 524.688C188.213 525.994 186.658 527.303 185.022 528.616C183.386 529.93 181.304 531.502 178.776 533.332C176.247 535.163 173.651 537.004 170.988 538.856C168.324 540.707 165.737 542.472 163.226 544.152C160.716 545.832 158.218 547.465 155.733 549.05C153.248 550.635 150.535 552.311 147.595 554.078C144.654 555.845 140.542 558.24 135.257 561.261C129.973 564.283 124.226 567.49 118.017 570.881C111.807 574.273 105.856 577.22 100.162 579.724C94.4674 582.227 89.5126 583.801 85.2973 584.445C81.082 585.09 77.9642 584.641 75.9438 583.098C73.9234 581.554 72.8704 580.008 72.7847 578.459C72.699 576.909 73.0405 575.355 73.8092 573.795C74.5779 572.235 75.5907 570.549 76.8475 568.737C78.1044 566.925 79.5882 564.96 81.299 562.842C83.0098 560.724 85.0182 558.324 87.3242 555.644C89.6302 552.963 92.658 549.484 96.4076 545.206C100.157 540.928 104.084 536.439 108.187 531.738C112.291 527.038 116.002 522.711 119.322 518.759C122.642 514.806 125.159 511.636 126.873 509.248C128.587 506.86 129.601 505.423 129.917 504.936C130.233 504.449 130.394 504.18 130.4 504.13" stroke="#053F28" stroke-width="2" stroke-linecap="round"/>
<path d="M244.836 440.714C244.841 440.771 245.737 441.64 247.524 443.322C249.311 445.004 251.062 446.46 252.777 447.689C254.492 448.919 256.516 450.332 258.849 451.927C261.182 453.522 263.863 455.204 266.892 456.973C269.921 458.742 273.396 460.534 277.316 462.348C281.236 464.162 285.937 466.062 291.418 468.047C296.898 470.032 302.679 471.898 308.759 473.645C314.839 475.392 321.033 476.987 327.34 478.431C333.648 479.874 340.005 481.213 346.412 482.448C352.818 483.683 358.88 484.81 364.596 485.83C370.313 486.849 374.02 487.565 375.717 487.978C377.415 488.391 378.284 488.703 378.324 488.914C378.364 489.125 378.174 489.379 377.752 489.676C377.331 489.973 376.613 490.281 375.597 490.601C374.582 490.921 372.889 491.212 370.519 491.474C368.149 491.736 363.417 491.964 356.325 492.158C349.233 492.351 341.226 492.124 332.304 491.475C323.381 490.827 314.869 490.042 306.768 489.12C298.667 488.199 291.798 487.655 286.16 487.488C280.522 487.321 276.668 487.837 274.598 489.036C272.528 490.235 271.63 491.599 271.903 493.126C272.175 494.654 272.829 496.279 273.862 498.003C274.896 499.727 276.132 501.548 277.572 503.467C279.012 505.386 280.685 507.325 282.591 509.284C284.496 511.243 286.754 513.154 289.364 515.016C291.975 516.878 295.413 518.695 299.679 520.467C303.945 522.239 308.662 523.729 313.83 524.939C318.998 526.148 324.026 527.267 328.915 528.294C333.805 529.321 338.037 530.556 341.612 531.998C345.188 533.44 347.757 535.158 349.321 537.151C350.884 539.145 351.695 540.502 351.755 541.222C351.814 541.942 351.573 542.459 351.032 542.771C350.491 543.083 349.74 543.38 348.779 543.661C347.819 543.942 346.551 544.153 344.977 544.294C343.402 544.435 341.151 544.436 338.222 544.297C335.294 544.157 330.237 543.704 323.051 542.938C315.865 542.172 308.156 541.088 299.924 539.685C291.691 538.282 283.33 536.568 274.841 534.542C266.351 532.516 262.106 531.503 262.106 531.503C262.106 531.503 257.508 530.214 248.311 527.636C239.115 525.058 234.517 523.769 234.517 523.769L200.815 513.876C200.775 513.912 200.748 513.958 200.735 514.013C200.722 514.068 200.724 514.122 200.743 514.175C200.761 514.228 200.792 514.27 200.835 514.301C200.878 514.332 206.481 516.007 217.643 519.325C228.806 522.644 238.986 525.592 248.185 528.171C257.384 530.75 266.231 533.053 274.727 535.081C283.222 537.108 291.591 538.824 299.833 540.229C308.075 541.633 315.794 542.72 322.99 543.487C330.186 544.254 335.254 544.708 338.192 544.848C341.131 544.988 343.398 544.987 344.993 544.845C346.589 544.703 347.882 544.487 348.873 544.199C349.864 543.911 350.652 543.582 351.238 543.213C351.823 542.844 352.109 542.22 352.097 541.343C352.084 540.465 351.285 538.989 349.699 536.915C348.114 534.84 345.506 533.056 341.874 531.562C338.242 530.068 333.968 528.802 329.051 527.765C324.134 526.728 319.094 525.605 313.93 524.397C308.766 523.189 304.064 521.704 299.824 519.941C295.584 518.179 292.174 516.375 289.594 514.53C287.014 512.685 284.782 510.792 282.899 508.852C281.016 506.912 279.361 504.992 277.936 503.09C276.511 501.188 275.286 499.399 274.26 497.723C273.235 496.047 272.578 494.511 272.292 493.117C272.005 491.722 272.867 490.469 274.877 489.358C276.886 488.247 280.677 487.791 286.249 487.991C291.822 488.191 298.651 488.751 306.738 489.672C314.825 490.592 323.333 491.377 332.262 492.026C341.191 492.675 349.21 492.903 356.318 492.71C363.426 492.517 368.173 492.288 370.558 492.024C372.943 491.76 374.662 491.46 375.713 491.124C376.765 490.787 377.524 490.421 377.99 490.024C378.456 489.626 378.662 489.223 378.607 488.812C378.553 488.402 377.664 487.972 375.94 487.524C374.217 487.075 370.48 486.334 364.728 485.302C358.977 484.27 352.899 483.137 346.495 481.903C340.09 480.668 333.736 479.33 327.434 477.887C321.132 476.445 314.945 474.852 308.873 473.107C302.801 471.362 297.029 469.499 291.559 467.517C286.089 465.535 281.4 463.64 277.492 461.831C273.584 460.022 270.123 458.237 267.107 456.475C264.091 454.713 261.422 453.037 259.098 451.448C256.775 449.859 254.757 448.45 253.045 447.223C251.333 445.995 249.572 444.553 247.763 442.898C245.954 441.242 245.026 440.426 244.979 440.448M244.836 440.714C244.832 440.657 244.842 440.605 244.869 440.556C244.895 440.506 244.932 440.471 244.979 440.448M244.836 440.714C244.841 440.771 245.314 440.745 246.255 440.637C247.195 440.529 249.97 440.289 254.577 439.915C259.185 439.541 265.216 439.231 272.669 438.984C280.122 438.737 287.876 438.331 295.933 437.766C303.989 437.201 310.988 436.43 316.93 435.452C322.872 434.475 326.962 433.704 329.201 433.14C331.441 432.575 333.156 432.075 334.346 431.64C335.536 431.205 336.519 430.788 337.293 430.389C338.067 429.991 338.7 429.582 339.19 429.163C339.681 428.744 339.947 428.105 339.99 427.246C340.033 426.387 339.509 425.018 338.419 423.139C337.329 421.26 335.472 419.64 332.846 418.278C330.221 416.917 327.002 415.813 323.188 414.966C319.375 414.119 315.223 413.331 310.732 412.601C306.241 411.871 301.766 410.948 297.307 409.833C292.849 408.718 288.795 407.262 285.146 405.466C281.497 403.67 278.033 401.749 274.754 399.704C271.475 397.659 268.335 395.53 265.334 393.317C262.332 391.104 259.462 388.804 256.723 386.416C253.984 384.029 251.496 381.694 249.261 379.412C247.025 377.131 245.288 375.257 244.049 373.791C242.809 372.326 241.68 370.928 240.66 369.6C239.64 368.271 238.077 366.21 235.972 363.418C233.866 360.625 232.778 359.212 232.709 359.179C232.639 359.146 232.572 359.15 232.507 359.193C232.441 359.236 232.405 359.299 232.398 359.382C232.391 359.465 232.416 359.535 232.472 359.59C232.529 359.645 232.594 359.664 232.668 359.646C232.742 359.628 232.794 359.58 232.824 359.503C232.855 359.427 232.85 359.352 232.812 359.28C232.773 359.208 232.716 359.168 232.641 359.16C232.566 359.152 232.503 359.179 232.453 359.242C232.403 359.305 232.386 359.377 232.402 359.459C232.419 359.541 233.481 360.979 235.588 363.773C237.695 366.567 239.261 368.632 240.286 369.967C241.311 371.302 242.447 372.707 243.695 374.182C244.942 375.656 246.689 377.539 248.935 379.831C251.181 382.123 253.679 384.467 256.429 386.863C259.179 389.26 262.06 391.568 265.072 393.788C268.083 396.008 271.236 398.144 274.529 400.197C277.822 402.25 281.308 404.18 284.987 405.986C288.665 407.793 292.741 409.256 297.213 410.375C301.686 411.494 306.163 412.417 310.645 413.145C315.128 413.874 319.256 414.653 323.032 415.484C326.808 416.315 329.981 417.381 332.551 418.683C335.122 419.985 336.943 421.522 338.015 423.296C339.086 425.069 339.619 426.326 339.613 427.064C339.608 427.803 339.377 428.36 338.92 428.735C338.464 429.11 337.858 429.492 337.103 429.88C336.348 430.269 335.383 430.679 334.208 431.109C333.032 431.54 331.331 432.036 329.104 432.598C326.877 433.159 322.801 433.928 316.874 434.904C310.947 435.879 303.959 436.649 295.909 437.214C287.858 437.778 280.101 438.185 272.637 438.432C265.173 438.68 259.169 439.011 254.624 439.427C250.078 439.842 247.346 440.11 246.428 440.232C245.509 440.353 245.026 440.426 244.979 440.448" stroke="#053F28" stroke-width="2" stroke-linecap="round"/>
<path d="M328.924 367.616C328.882 367.588 328.511 367.763 327.813 368.14C327.115 368.517 326.289 368.812 325.337 369.026C324.384 369.24 323.109 369.416 321.511 369.555C319.913 369.693 317.65 369.75 314.723 369.724C311.796 369.699 306.864 369.509 299.926 369.155C292.988 368.801 285.959 368.266 278.841 367.55C271.722 366.834 265.166 365.951 259.173 364.9C253.179 363.849 250.182 363.324 250.182 363.324C250.182 363.324 247.634 362.667 242.539 361.353C237.444 360.039 234.896 359.382 234.896 359.382L219.941 354.486C219.899 354.515 219.87 354.554 219.854 354.602C219.838 354.651 219.838 354.699 219.853 354.748C219.868 354.796 219.896 354.835 219.937 354.866C219.978 354.896 222.455 355.734 227.369 357.381C232.283 359.028 237.292 360.509 242.399 361.826C247.505 363.143 253.061 364.329 259.067 365.382C265.073 366.435 271.642 367.321 278.772 368.039C285.903 368.756 292.942 369.292 299.889 369.647C306.836 370.002 311.777 370.193 314.712 370.218C317.647 370.243 319.921 370.186 321.535 370.047C323.149 369.908 324.444 369.729 325.421 369.51C326.397 369.291 327.239 368.976 327.945 368.564C328.652 368.153 329.011 367.923 329.024 367.873M328.924 367.616C328.967 367.644 328.998 367.681 329.016 367.728C329.035 367.776 329.037 367.824 329.024 367.873M328.924 367.616C328.882 367.588 328.639 367.402 328.195 367.057C327.752 366.712 326.516 365.884 324.487 364.574C322.458 363.264 319.98 362.102 317.051 361.087C314.123 360.073 310.969 359.18 307.589 358.409C304.21 357.638 300.749 356.797 297.206 355.887C293.664 354.977 290.116 353.81 286.561 352.387C283.006 350.963 279.408 349.285 275.767 347.352C272.125 345.419 268.536 343.419 264.998 341.354C261.46 339.288 257.998 337.179 254.612 335.027C251.227 332.874 247.92 330.658 244.694 328.377C241.467 326.097 238.365 323.742 235.386 321.313C232.408 318.884 229.7 316.416 227.262 313.909C224.825 311.402 222.687 308.871 220.85 306.317C219.012 303.762 217.461 301.269 216.195 298.837C214.93 296.405 213.926 294.141 213.183 292.044C212.441 289.946 212.065 288.025 212.056 286.28C212.048 284.535 212.912 282.96 214.649 281.555C216.386 280.151 219.347 279.567 223.532 279.803C227.718 280.039 232.946 280.856 239.217 282.254C245.487 283.651 252.48 285.158 260.196 286.774C267.911 288.391 275.264 289.673 282.254 290.62C289.245 291.567 293.89 292.115 296.192 292.263C298.493 292.411 299.93 292.352 300.502 292.087C301.074 291.822 301.082 291.431 300.525 290.915C299.969 290.398 299.089 289.892 297.885 289.394C296.682 288.897 294.697 288.043 291.929 286.832C289.162 285.62 286.218 284.189 283.096 282.537C279.975 280.885 276.817 279.095 273.622 277.168C270.427 275.242 267.222 273.248 264.007 271.187C260.793 269.127 257.617 267.073 254.481 265.027C251.344 262.981 248.398 261 245.641 259.083C242.884 257.166 240.33 255.28 237.978 253.426C235.626 251.572 233.482 249.782 231.547 248.056C229.612 246.331 227.891 244.721 226.384 243.227C224.877 241.732 223.552 239.863 222.409 237.619C221.267 235.375 220.67 234.256 220.62 234.263M329.024 367.873C329.011 367.923 328.765 367.776 328.285 367.432C327.805 367.089 326.5 366.267 324.37 364.968C322.241 363.669 319.729 362.521 316.836 361.525C313.943 360.53 310.815 359.649 307.453 358.883C304.091 358.117 300.636 357.278 297.09 356.367C293.543 355.456 289.983 354.285 286.408 352.855C282.833 351.425 279.217 349.74 275.559 347.799C271.902 345.859 268.301 343.854 264.758 341.785C261.214 339.717 257.746 337.604 254.355 335.449C250.964 333.293 247.652 331.072 244.419 328.787C241.185 326.502 238.075 324.142 235.087 321.705C232.1 319.269 229.38 316.791 226.928 314.271C224.477 311.751 222.325 309.204 220.472 306.631C218.619 304.058 217.053 301.545 215.775 299.093C214.497 296.641 213.483 294.351 212.733 292.224C211.983 290.097 211.612 288.124 211.62 286.305C211.629 284.486 212.54 282.823 214.352 281.315C216.165 279.807 219.197 279.155 223.449 279.36C227.701 279.564 232.977 280.367 239.278 281.767C245.579 283.167 252.586 284.675 260.3 286.292C268.014 287.908 275.36 289.188 282.337 290.133C289.313 291.079 293.929 291.644 296.182 291.83C298.435 292.015 299.793 292.052 300.257 291.939C300.72 291.827 300.701 291.57 300.2 291.17C299.699 290.77 298.856 290.326 297.67 289.838C296.484 289.349 294.507 288.499 291.737 287.286C288.966 286.074 286.015 284.639 282.882 282.981C279.75 281.324 276.582 279.53 273.379 277.598C270.176 275.667 266.965 273.67 263.746 271.607C260.528 269.544 257.35 267.489 254.212 265.442C251.075 263.395 248.126 261.412 245.365 259.492C242.604 257.573 240.043 255.683 237.683 253.822C235.323 251.962 233.172 250.166 231.229 248.434C229.286 246.702 227.557 245.084 226.042 243.58C224.527 242.076 223.208 240.191 222.086 237.925C220.965 235.659 220.409 234.501 220.418 234.451M220.418 234.451C220.428 234.401 220.451 234.359 220.488 234.324C220.526 234.29 220.569 234.269 220.62 234.263M220.418 234.451C220.409 234.501 220.706 234.503 221.309 234.458C221.913 234.412 223.661 234.401 226.555 234.425C229.448 234.448 233.186 234.845 237.77 235.614C242.353 236.383 247.297 237.343 252.602 238.495C257.907 239.646 262.845 240.722 267.415 241.724C271.986 242.726 275.567 243.43 278.16 243.837C280.753 244.244 283.146 244.507 285.34 244.628C287.534 244.748 289.641 244.781 291.663 244.725C293.684 244.669 295.567 244.556 297.31 244.385C299.054 244.215 300.571 244.005 301.862 243.758C303.152 243.51 304.159 243.217 304.881 242.88C305.603 242.542 306.053 242.151 306.23 241.708C306.407 241.264 306.352 240.81 306.065 240.344C305.778 239.879 305.335 239.415 304.737 238.953C304.139 238.491 303.239 237.93 302.038 237.272C300.837 236.614 298.877 235.61 296.159 234.261C293.44 232.912 290.524 231.499 287.409 230.022C284.295 228.544 281.125 227.079 277.899 225.625C274.674 224.171 271.434 222.754 268.179 221.373C264.924 219.992 261.598 218.567 258.2 217.099C254.802 215.631 251.173 213.808 247.315 211.631C243.456 209.454 239.538 206.825 235.56 203.745C231.582 200.664 227.643 197.257 223.743 193.523C219.843 189.788 216.066 185.909 212.413 181.884C208.759 177.86 205.366 173.908 202.234 170.028C199.101 166.148 196.383 162.501 194.08 159.086C191.776 155.671 189.626 152.314 187.63 149.014C185.634 145.715 183.702 142.43 181.836 139.158C179.97 135.887 178.122 132.618 176.292 129.352C174.462 126.086 172.747 123.048 171.145 120.237C169.543 117.427 168.328 115.352 167.499 114.013C166.67 112.675 165.908 111.49 165.212 110.459C164.516 109.429 163.447 107.941 162.006 105.996C160.564 104.051 159.811 103.061 159.744 103.026C159.678 102.992 159.611 102.991 159.544 103.025C159.477 103.058 159.438 103.112 159.425 103.185C159.413 103.259 159.433 103.323 159.485 103.376C159.538 103.429 159.601 103.45 159.675 103.439C159.749 103.428 159.803 103.39 159.838 103.323C159.872 103.257 159.873 103.19 159.84 103.123C159.806 103.056 159.753 103.017 159.679 103.004C159.605 102.992 159.542 103.012 159.488 103.065C159.435 103.117 159.414 103.18 159.425 103.254C159.436 103.328 160.161 104.336 161.6 106.277C163.039 108.219 164.105 109.703 164.797 110.728C165.49 111.754 166.249 112.933 167.075 114.267C167.901 115.601 169.114 117.672 170.715 120.481C172.316 123.29 174.032 126.328 175.862 129.595C177.692 132.863 179.541 136.134 181.41 139.409C183.279 142.683 185.213 145.974 187.214 149.28C189.214 152.586 191.371 155.952 193.682 159.378C195.994 162.804 198.719 166.461 201.858 170.348C204.997 174.236 208.397 178.196 212.059 182.229C215.721 186.261 219.508 190.151 223.422 193.896C227.335 197.642 231.291 201.061 235.289 204.155C239.287 207.248 243.223 209.888 247.097 212.073C250.971 214.258 254.607 216.085 258.006 217.553C261.405 219.022 264.73 220.446 267.981 221.826C271.233 223.205 274.47 224.621 277.692 226.074C280.914 227.526 284.081 228.99 287.193 230.466C290.305 231.942 293.216 233.352 295.926 234.696C298.635 236.041 300.582 237.036 301.765 237.682C302.948 238.328 303.821 238.861 304.385 239.281C304.948 239.702 305.37 240.106 305.649 240.495C305.929 240.883 306.008 241.238 305.886 241.559C305.764 241.88 305.367 242.185 304.695 242.476C304.023 242.766 303.051 243.033 301.781 243.275C300.511 243.517 299.01 243.723 297.278 243.893C295.546 244.063 293.676 244.176 291.668 244.232C289.661 244.288 287.568 244.256 285.39 244.137C283.213 244.019 280.832 243.757 278.249 243.351C275.666 242.946 272.089 242.243 267.519 241.241C262.949 240.239 258.008 239.162 252.695 238.009C247.381 236.857 242.416 235.895 237.8 235.125C233.184 234.355 229.466 233.985 226.648 234.016C223.83 234.046 222.134 234.093 221.558 234.157C220.983 234.221 220.67 234.256 220.62 234.263" stroke="#053F28" stroke-width="2" stroke-linecap="round"/>
</g>
<defs>
<linearGradient id="paint0_linear_2232_178" x1="278.817" y1="35" x2="278.817" y2="518.746" gradientUnits="userSpaceOnUse">
<stop stop-color="#008F58"/>
<stop offset="0.792668" stop-color="#08623F"/>
</linearGradient>
<linearGradient id="paint1_linear_2232_178" x1="174.817" y1="103" x2="174.817" y2="586.746" gradientUnits="userSpaceOnUse">
<stop stop-color="#008F58"/>
<stop offset="0.792668" stop-color="#08623F"/>
</linearGradient>
<clipPath id="clip0_2232_178">
<rect width="284" height="363" fill="white"/>
</clipPath>
</defs>
</svg>
