<svg width="771" height="321" viewBox="0 0 771 321" fill="none" xmlns="http://www.w3.org/2000/svg">
    <path d="M400.508 319.5H366.972L359.534 16.5518L400.508 2.11816V319.5Z" fill="#583919" stroke="#392316" stroke-width="3"/>
    <path d="M451.388 49.168L167.947 61.5768L165.966 60.7717C165.747 62.3341 165.301 65.6936 165.27 66.6322C165.231 67.8055 166.14 85.8126 167.065 88.1706C167.991 90.5286 171.654 101.134 171.615 102.307L171.071 118.733C170.98 121.47 174.245 128.941 174.154 131.679L173.817 141.847L181.944 154.068L672.202 139.72C704.486 124.57 768.263 93.9486 765.094 92.6604C761.925 91.3722 703.98 59.098 675.403 43.1219L451.388 49.168Z" fill="url(#paint0_linear_2230_328)"/>
    <path d="M674.625 43.3949C671.953 43.472 665.387 43.6018 662.144 43.4364C661.356 43.3961 660.676 43.4319 657.202 43.4547C653.728 43.4775 647.479 43.5029 630.861 43.9062C614.243 44.3095 587.445 45.0898 573.321 45.5273C559.196 45.9647 558.557 46.0356 557.704 46.0872C556.851 46.1389 555.803 46.1691 548.52 46.4199C541.238 46.6708 527.752 47.1414 492.507 48.354C457.262 49.5666 400.667 51.5068 370.19 52.5853C339.714 53.6638 337.07 53.8217 335.18 53.9632C333.29 54.1046 332.234 54.2249 307.933 55.3138C283.632 56.4028 236.119 58.4568 208.847 59.6102C181.574 60.7636 175.983 60.9541 171.905 61.1014C167.827 61.2487 169.245 61.2799 166.784 61.5583" stroke="#392316" stroke-width="3" stroke-linecap="round"/>
    <path d="M675.029 43.3806C675.888 43.6775 678.208 44.5313 682.513 46.9252C685.121 48.3753 686.77 49.5194 688.428 50.6447C690.739 52.2136 695.018 54.1911 700.523 57.5002C703.314 59.1776 705.71 60.4627 708.228 61.5738C712.038 63.2555 715.367 64.7669 723.981 70.0501C727.886 72.4448 731.481 74.0105 734.821 75.7699C740.973 79.0114 746.335 82.2062 749.622 84.237C751.699 85.5204 754.481 86.989 757.763 89.0129C760.702 90.5471 762.866 91.7284 763.851 92.3652C764.347 92.6641 764.386 92.6348 765.803 93.5748" stroke="#392316" stroke-width="3" stroke-linecap="round"/>
    <path d="M765.398 93.583C764.785 93.7722 761.02 96.0382 756.05 98.5943C753.824 99.7395 750.553 100.764 747.308 102.271C741.818 104.822 739.59 106.384 736.501 108.054C732.934 109.983 728.981 111.913 726.141 113.081C723.791 114.048 720.092 115.718 712.083 119.058C708.658 120.486 702.71 123.106 697.459 125.456C694.296 126.872 691.252 128.857 686.291 131.358C674.524 137.219 673.156 138.066 672.299 138.506C671.867 138.72 671.442 138.916 670.899 139.299" stroke="#392316" stroke-width="3" stroke-linecap="round"/>
    <path d="M670.562 139.54C670.526 139.541 668.79 139.592 665.335 139.755C661.88 139.919 655.007 140.245 601.141 141.962C547.275 143.679 446.623 146.776 388.856 148.569C331.089 150.361 319.257 150.755 301.357 151.267C283.458 151.78 259.849 152.399 241.212 152.859C222.575 153.319 209.626 153.602 202.235 153.738C193.403 153.856 190.367 153.853 187.316 153.881C185.814 153.894 184.408 153.905 182.96 153.916" stroke="#392316" stroke-width="3" stroke-linecap="round"/>
    <path d="M166.94 61.5539C167.029 61.9946 167.243 62.909 167.046 65.1972C166.957 66.2277 166.728 67.252 166.664 68.9345C166.609 70.3725 166.622 72.9979 166.627 74.4912C166.634 76.267 166.733 76.7335 166.904 77.4827C167.034 78.0546 167.234 79.0189 167.552 79.9896C168.189 81.9344 168.773 83.0141 168.948 83.4799C169.618 85.262 170.127 86.128 170.313 86.5964C170.694 87.5613 171.205 89.3234 171.749 91.1557C172.104 92.3554 172.484 94.1301 172.71 95.1752C172.994 96.4845 173.034 97.0264 173.119 97.4859C173.18 97.8155 173.256 99.0558 173.251 100.922C173.249 102.043 173.088 102.87 172.92 104.227C172.807 105.135 172.521 106.478 172.363 107.416C172.124 108.842 172.11 109.68 172.103 110.373C172.099 110.734 172.043 111.116 172.03 113.862C172.016 116.607 172.035 121.705 172.063 124.385C172.09 127.064 172.126 127.171 172.274 127.677C172.684 129.085 172.972 130.193 173.037 130.549C173.069 130.73 173.125 130.905 173.288 133.019C173.451 135.132 173.726 139.177 173.906 141.321C174.098 143.589 174.505 144.043 175.394 144.999C176.884 146.602 178.212 147.633 179.01 148.477C180.68 150.245 181.882 151.556 182.091 151.864C182.386 152.324 182.562 152.615 182.695 152.871C182.769 153.01 182.857 153.169 182.948 153.356" stroke="#392316" stroke-width="3" stroke-linecap="round"/>
    <path d="M210.438 144.435C208.248 144.498 202.958 144.537 195.843 144.556C192.888 144.567 191.266 144.584 188.274 144.636C185.281 144.689 180.967 144.775 176.522 144.864" stroke="#392316" stroke-width="3" stroke-linecap="round"/>
    <path d="M204.792 136.608C204.573 136.614 196.35 136.589 183.797 136.523C179.354 136.485 178.825 136.439 177.812 136.403C176.799 136.366 175.319 136.341 173.793 136.316" stroke="#392316" stroke-width="3" stroke-linecap="round"/>
    <path d="M207.715 123.11L206.843 95.1233L211.961 94.9638L212.303 105.959L224.857 105.567L224.515 94.5727L229.632 94.4132L230.504 122.4L225.387 122.559L224.993 109.925L212.439 110.316L212.833 122.95L207.715 123.11ZM246.441 122.383C243.882 122.463 241.774 122.022 240.117 121.06C238.485 120.07 237.256 118.734 236.43 117.052C235.631 115.37 235.2 113.529 235.138 111.53L234.599 94.2584L239.717 94.099L240.256 111.411C240.324 113.596 240.895 115.206 241.968 116.24C243.067 117.273 244.55 117.76 246.415 117.702C248.254 117.644 249.69 117.066 250.723 115.967C251.756 114.867 252.239 113.225 252.171 111.039L251.631 93.7277L256.749 93.5682L257.287 110.84C257.352 112.946 257.075 114.728 256.453 116.188C255.832 117.648 254.974 118.822 253.881 119.71C252.815 120.597 251.622 121.261 250.302 121.703C249.007 122.117 247.721 122.343 246.441 122.383ZM272.103 121.584C270.157 121.644 268.374 121.366 266.754 120.75C265.161 120.132 263.877 119.185 262.904 117.908C261.929 116.605 261.385 114.968 261.27 112.997L266.667 112.829C266.761 114.133 267.262 115.211 268.169 116.063C269.103 116.915 270.356 117.316 271.928 117.267C273.288 117.225 274.357 116.871 275.137 116.207C275.916 115.542 276.289 114.663 276.255 113.57C276.238 113.011 276.129 112.521 275.929 112.1C275.756 111.678 275.424 111.289 274.932 110.93C274.441 110.572 273.75 110.233 272.86 109.914C271.995 109.568 270.849 109.19 269.423 108.781C267.564 108.225 266.063 107.565 264.919 106.8C263.774 106.035 262.934 105.168 262.397 104.197C261.885 103.2 261.611 102.114 261.575 100.942C261.52 99.1824 261.887 97.7035 262.677 96.505C263.493 95.279 264.598 94.3508 265.992 93.7204C267.412 93.0626 268.989 92.7066 270.721 92.6526C272.48 92.5978 274.076 92.8549 275.507 93.4239C276.966 93.9921 278.153 94.8622 279.07 96.0342C279.987 97.2062 280.487 98.6714 280.568 100.43L275.091 100.6C275.032 99.5884 274.605 98.7213 273.809 97.9991C273.039 97.276 271.988 96.9352 270.656 96.9768C269.59 97.01 268.692 97.3181 267.963 97.9011C267.234 98.4841 266.887 99.3219 266.921 100.415C266.946 101.214 267.26 101.885 267.864 102.426C268.495 102.967 269.323 103.435 270.349 103.83C271.401 104.197 272.56 104.588 273.827 105.002C274.528 105.22 275.31 105.503 276.175 105.849C277.066 106.195 277.921 106.675 278.741 107.29C279.56 107.878 280.237 108.644 280.773 109.588C281.335 110.504 281.638 111.655 281.681 113.041C281.734 114.747 281.34 116.227 280.499 117.48C279.684 118.733 278.541 119.716 277.069 120.428C275.624 121.14 273.969 121.525 272.103 121.584ZM306.433 92.0201L296.853 103.084L308.145 119.98L302.108 120.168L293.531 106.909L290.868 110.074L291.193 120.509L286.076 120.668L285.204 92.6816L290.321 92.5221L290.656 103.277L300.196 92.2144L306.433 92.0201ZM317.792 119.68L317.442 108.445L307.525 91.9861L313.322 91.8054L319.882 103.247L325.676 91.4205L331.393 91.2423L322.56 108.286L322.91 119.52L317.792 119.68ZM335.232 119.136L334.359 91.1499L339.477 90.9904L339.82 101.985L352.373 101.594L352.031 90.5992L357.148 90.4398L358.02 118.426L352.903 118.586L352.509 105.952L339.955 106.343L340.349 118.977L335.232 119.136ZM361.349 118.323L370.712 90.0172L376.469 89.8378L387.576 117.505L382.138 117.675L379.741 111.386L368.747 111.729L366.706 118.156L361.349 118.323ZM370.058 107.566L378.174 107.313L373.733 95.8059L370.058 107.566ZM401.996 117.536C399.117 117.626 396.645 117.076 394.581 115.886C392.516 114.697 390.917 113.039 389.783 110.913C388.649 108.761 388.039 106.299 387.952 103.527C387.866 100.755 388.309 98.2598 389.28 96.0418C390.251 93.8238 391.73 92.0569 393.717 90.741C395.703 89.3985 398.162 88.6816 401.094 88.5902C404.452 88.4856 407.224 89.2396 409.408 90.8524C411.619 92.4376 413.037 94.7279 413.664 97.7231L408.027 97.8988C407.633 96.3903 406.85 95.2275 405.677 94.4103C404.53 93.5656 403.024 93.1723 401.158 93.2305C399.452 93.2836 397.986 93.7295 396.758 94.5682C395.557 95.406 394.646 96.5682 394.025 98.055C393.404 99.5417 393.126 101.311 393.19 103.364C393.253 105.389 393.641 107.138 394.354 108.61C395.066 110.055 396.047 111.158 397.298 111.92C398.575 112.654 400.067 112.994 401.772 112.941C403.638 112.883 405.118 112.436 406.213 111.602C407.333 110.74 408.044 109.584 408.346 108.134L413.983 107.958C413.54 110.853 412.264 113.148 410.156 114.841C408.074 116.533 405.354 117.432 401.996 117.536ZM438.791 87.8958L429.211 98.9595L440.503 115.856L434.466 116.044L425.888 102.785L423.226 105.949L423.551 116.384L418.433 116.544L417.561 88.5573L422.679 88.3979L423.014 99.1526L432.554 88.0901L438.791 87.8958ZM452.909 115.469L452.037 87.4831L458.114 87.2937L466.633 105.117L473.906 86.8016L479.983 86.6123L480.855 114.599L475.738 114.758L475.15 95.8873L468.79 111.413L464.752 111.539L457.438 96.4392L458.026 115.31L452.909 115.469ZM483.789 114.507L493.152 86.2019L498.909 86.0225L510.016 113.69L504.579 113.859L502.182 107.571L491.187 107.914L489.146 114.34L483.789 114.507ZM492.498 103.751L500.614 103.498L496.174 91.9906L492.498 103.751ZM516.993 113.473L516.643 102.238L506.725 85.779L512.522 85.5983L519.082 97.0396L524.876 85.2134L530.594 85.0352L521.76 102.079L522.11 113.313L516.993 113.473ZM544.246 112.623L544.11 108.266L551.626 108.031L551.068 90.12L543.843 91.986L543.721 88.0679L553.049 84.3355L555.728 84.2521L556.464 107.881L563.061 107.675L563.196 112.033L544.246 112.623ZM566.144 102.496L566.011 98.2186L579.004 97.8137L579.138 102.092L566.144 102.496ZM583.694 111.394L583.58 107.716C583.58 107.716 583.709 107.579 583.967 107.304C584.224 107.002 584.572 106.605 585.01 106.111C585.449 105.617 585.951 105.054 586.519 104.423C587.112 103.764 587.731 103.078 588.375 102.364C589.046 101.623 589.717 100.882 590.387 100.14C591.522 98.8777 592.566 97.7246 593.521 96.681C594.501 95.61 595.271 94.6122 595.829 93.6877C596.413 92.7357 596.691 91.8333 596.665 90.9803C596.626 89.7276 596.208 88.7401 595.412 88.0179C594.642 87.2682 593.63 86.9129 592.377 86.9519C591.391 86.9826 590.572 87.2349 589.92 87.7088C589.267 88.1827 588.793 88.7978 588.496 89.554C588.2 90.3103 588.065 91.1282 588.093 92.0078L583.135 92.1623C583.126 90.1616 583.5 88.4691 584.258 87.0849C585.014 85.674 586.088 84.6 587.479 83.863C588.869 83.0993 590.497 82.6884 592.363 82.6303C594.442 82.5655 596.16 82.8988 597.516 83.6302C598.872 84.335 599.89 85.3171 600.57 86.5766C601.248 87.8094 601.612 89.1987 601.66 90.7446C601.701 92.0507 601.445 93.2726 600.894 94.4103C600.368 95.5205 599.629 96.6241 598.676 97.721C597.749 98.817 596.705 99.9834 595.543 101.22C594.846 101.962 594.213 102.636 593.645 103.24C593.103 103.817 592.626 104.339 592.213 104.806C591.8 105.245 591.451 105.616 591.167 105.919C590.91 106.22 590.704 106.453 590.549 106.618C590.42 106.756 590.355 106.825 590.355 106.825L602.829 106.436L602.965 110.794L583.694 111.394Z" fill="#87572A"/>
    <path d="M619.911 109.346L619.857 107.621L625.23 107.454L624.813 94.0854L619.56 95.6748L619.514 94.2005L625.663 91.6578L626.762 91.6235L627.254 107.391L631.702 107.252L631.755 108.976L619.911 109.346ZM635.123 108.997C634.706 109.01 634.352 108.887 634.061 108.629C633.786 108.355 633.642 108.017 633.629 107.617C633.617 107.218 633.74 106.88 633.998 106.605C634.272 106.313 634.618 106.161 635.034 106.148C635.434 106.135 635.771 106.267 636.047 106.542C636.338 106.799 636.49 107.128 636.503 107.528C636.515 107.928 636.384 108.274 636.11 108.566C635.852 108.84 635.523 108.984 635.123 108.997ZM645.056 108.862C643.974 108.896 642.976 108.719 642.063 108.33C641.167 107.941 640.441 107.38 639.885 106.647C639.345 105.897 639.059 105.014 639.027 103.998C638.994 102.931 639.264 101.964 639.837 101.096C640.41 100.228 641.2 99.6361 642.208 99.3212C641.282 99.0333 640.558 98.5472 640.036 97.8631C639.515 97.1791 639.241 96.4205 639.215 95.5876C639.184 94.6048 639.4 93.7643 639.862 93.0663C640.34 92.351 640.981 91.7974 641.786 91.4055C642.608 91.0131 643.51 90.8015 644.493 90.7709C645.525 90.7387 646.456 90.9015 647.284 91.2592C648.112 91.6169 648.779 92.1381 649.284 92.8227C649.789 93.5073 650.056 94.316 650.085 95.2489C650.11 96.0652 649.884 96.8393 649.407 97.5712C648.929 98.2864 648.228 98.8168 647.305 99.1624C648.33 99.4139 649.156 99.9551 649.782 100.786C650.408 101.617 650.738 102.565 650.771 103.632C650.795 104.398 650.667 105.094 650.386 105.72C650.105 106.345 649.697 106.892 649.161 107.359C648.642 107.808 648.028 108.169 647.319 108.441C646.627 108.696 645.873 108.837 645.056 108.862ZM644.999 107.013C646.181 106.976 647.097 106.648 647.744 106.027C648.391 105.39 648.699 104.572 648.668 103.572C648.633 102.439 648.24 101.593 647.489 101.033C646.754 100.472 645.854 100.208 644.788 100.241C643.722 100.275 642.831 100.594 642.116 101.2C641.418 101.805 641.087 102.674 641.122 103.807C641.153 104.807 641.511 105.604 642.197 106.2C642.899 106.778 643.833 107.049 644.999 107.013ZM644.733 98.4922C645.666 98.4631 646.441 98.1722 647.057 97.6194C647.69 97.0494 647.992 96.3229 647.965 95.44C647.934 94.4572 647.586 93.726 646.921 93.2465C646.256 92.767 645.465 92.5415 644.549 92.57C643.632 92.5986 642.857 92.8729 642.223 93.3929C641.606 93.9123 641.312 94.6635 641.343 95.6464C641.37 96.5293 641.709 97.2357 642.359 97.7657C643.009 98.2791 643.8 98.5212 644.733 98.4922ZM654.258 108.275L653.713 90.7838L655.812 90.7184L656.133 101.038L661.043 95.6578L663.617 95.5776L658.294 101.346L664.703 107.95L662.029 108.033L656.157 101.788L656.357 108.21L654.258 108.275ZM666.849 107.883L666.463 95.4889L668.362 95.4298L668.568 97.2242C668.947 96.5454 669.464 96.0124 670.119 95.6251C670.774 95.2379 671.518 95.0313 672.351 95.0053C673.334 94.9747 674.181 95.1484 674.893 95.5264C675.622 95.9039 676.191 96.4948 676.599 97.2991C677.009 96.536 677.582 95.9262 678.318 95.4697C679.071 95.0127 679.889 94.7704 680.772 94.7429C681.771 94.7118 682.635 94.885 683.364 95.2624C684.109 95.6227 684.694 96.2048 685.119 97.0086C685.544 97.7958 685.776 98.8057 685.814 100.038L686.04 107.285L683.966 107.35L683.747 100.328C683.707 99.0453 683.419 98.0871 682.882 97.4535C682.346 96.8199 681.594 96.5182 680.628 96.5483C679.628 96.5794 678.808 96.9969 678.166 97.8006C677.54 98.5871 677.249 99.6967 677.294 101.129L677.494 107.551L675.395 107.617L675.176 100.595C675.136 99.3123 674.848 98.3542 674.311 97.7206C673.775 97.087 673.023 96.7852 672.057 96.8154C671.074 96.846 670.262 97.2631 669.62 98.0669C668.994 98.8534 668.704 99.963 668.748 101.396L668.948 107.818L666.849 107.883Z" fill="#87572A"/>
    <path d="M318.784 176.169L602.225 188.578L604.206 187.773C604.425 189.335 604.871 192.695 604.902 193.633C604.941 194.806 604.032 212.814 603.106 215.172C602.181 217.53 598.518 228.135 598.557 229.308L599.101 245.734C599.192 248.471 595.927 255.942 596.017 258.68L596.354 268.848L588.228 281.069L97.9702 266.721C65.6858 251.571 1.90916 220.95 5.07817 219.661C8.24718 218.373 66.1923 186.099 94.7688 170.123L318.784 176.169Z" fill="url(#paint1_linear_2230_328)"/>
    <path d="M95.547 170.397C98.2193 170.474 104.785 170.604 108.027 170.438C108.816 170.398 109.496 170.434 112.97 170.457C116.444 170.479 122.693 170.505 139.311 170.908C155.929 171.311 182.727 172.092 196.851 172.529C210.976 172.967 211.615 173.038 212.468 173.089C213.321 173.141 214.369 173.171 221.651 173.422C228.934 173.673 242.42 174.143 277.665 175.356C312.91 176.569 369.505 178.509 399.982 179.587C430.458 180.666 433.102 180.824 434.991 180.965C436.881 181.107 437.938 181.227 462.239 182.316C486.54 183.405 534.053 185.459 561.325 186.612C588.598 187.766 594.189 187.956 598.267 188.103C602.344 188.251 600.927 188.282 603.388 188.56" stroke="#392316" stroke-width="3" stroke-linecap="round"/>
    <path d="M95.1354 170.382C94.2765 170.679 91.9563 171.532 87.6512 173.926C85.0434 175.376 83.3938 176.52 81.7362 177.646C79.4251 179.215 75.1458 181.192 69.6409 184.501C66.8505 186.179 64.4539 187.464 61.9364 188.575C58.1262 190.256 54.7966 191.768 46.1827 197.051C42.2783 199.446 38.6827 201.011 35.3432 202.771C29.1906 206.012 23.829 209.207 20.5423 211.238C18.4653 212.521 15.6829 213.99 12.4013 216.014C9.46173 217.548 7.29846 218.729 6.31284 219.366C5.81696 219.665 5.77777 219.636 4.36104 220.576" stroke="#392316" stroke-width="3" stroke-linecap="round"/>
    <path d="M4.76562 220.584C5.37894 220.773 9.14391 223.039 14.1138 225.595C16.3403 226.74 19.6113 227.765 22.8559 229.272C28.3463 231.823 30.5736 233.385 33.663 235.055C37.2297 236.984 41.1827 238.914 44.0232 240.082C46.3727 241.049 50.0725 242.719 58.0814 246.059C61.5062 247.487 67.454 250.107 72.7053 252.457C75.8683 253.872 78.9122 255.858 83.8734 258.359C95.6397 264.22 97.0077 265.067 97.8648 265.507C98.2967 265.721 98.7222 265.917 99.2654 266.3" stroke="#392316" stroke-width="3" stroke-linecap="round"/>
    <path d="M99.6094 266.541C99.6456 266.542 101.382 266.593 104.837 266.756C108.292 266.92 115.164 267.246 169.031 268.963C222.897 270.68 323.549 273.777 381.316 275.57C439.083 277.362 450.915 277.756 468.815 278.268C486.714 278.781 510.323 279.4 528.96 279.86C547.596 280.32 560.546 280.602 567.937 280.739C576.769 280.857 579.804 280.854 582.856 280.882C584.358 280.895 585.764 280.906 587.212 280.917" stroke="#392316" stroke-width="3" stroke-linecap="round"/>
    <path d="M603.224 188.555C603.135 188.996 602.921 189.91 603.119 192.198C603.207 193.229 603.436 194.253 603.5 195.935C603.555 197.374 603.542 199.999 603.537 201.492C603.53 203.268 603.431 203.734 603.26 204.484C603.13 205.056 602.93 206.02 602.612 206.991C601.975 208.935 601.391 210.015 601.216 210.481C600.546 212.263 600.037 213.129 599.852 213.597C599.47 214.562 598.959 216.324 598.415 218.157C598.06 219.356 597.681 221.131 597.454 222.176C597.17 223.485 597.13 224.027 597.045 224.487C596.984 224.816 596.908 226.057 596.913 227.923C596.916 229.044 597.076 229.871 597.244 231.228C597.357 232.136 597.643 233.479 597.801 234.417C598.04 235.843 598.054 236.681 598.061 237.374C598.065 237.735 598.121 238.117 598.135 240.863C598.148 243.608 598.129 248.706 598.101 251.386C598.074 254.065 598.038 254.172 597.89 254.678C597.48 256.086 597.192 257.194 597.127 257.55C597.095 257.731 597.039 257.906 596.876 260.02C596.713 262.133 596.438 266.178 596.258 268.322C596.066 270.59 595.659 271.044 594.77 272C593.28 273.603 591.952 274.634 591.155 275.478C589.484 277.246 588.282 278.557 588.073 278.865C587.778 279.325 587.602 279.616 587.469 279.872C587.395 280.011 587.307 280.17 587.216 280.356" stroke="#392316" stroke-width="3" stroke-linecap="round"/>
    <path d="M559.726 271.436C561.916 271.499 567.206 271.538 574.322 271.556C577.276 271.568 578.898 271.585 581.89 271.637C584.883 271.69 589.197 271.776 593.642 271.865" stroke="#392316" stroke-width="3" stroke-linecap="round"/>
    <path d="M565.38 263.609C565.599 263.615 573.822 263.59 586.375 263.524C590.818 263.486 591.347 263.44 592.36 263.404C593.373 263.367 594.853 263.342 596.379 263.317" stroke="#392316" stroke-width="3" stroke-linecap="round"/>
    <path d="M231.459 237.07L232.717 209.098L238.791 209.371L245.931 227.79L254.575 210.081L260.649 210.354L259.391 238.326L254.276 238.096L255.124 219.235L247.603 234.232L243.567 234.051L237.422 218.439L236.574 237.3L231.459 237.07ZM264.512 238.556L265.77 210.584L283.712 211.391L283.516 215.747L270.689 215.17L270.388 221.843L281.377 222.338L281.181 226.693L270.193 226.199L269.822 234.431L282.649 235.007L282.454 239.363L264.512 238.556ZM286.95 239.565L288.208 211.594L306.15 212.4L305.954 216.756L293.127 216.179L292.827 222.852L303.816 223.347L303.62 227.702L292.631 227.208L292.261 235.44L305.088 236.017L304.892 240.372L286.95 239.565ZM315.902 240.867L316.964 217.251L308.812 216.885L309.008 212.529L330.466 213.494L330.27 217.85L322.079 217.481L321.016 241.097L315.902 240.867ZM346.964 242.264L348.026 218.648L339.874 218.282L340.07 213.926L361.528 214.891L361.333 219.247L353.141 218.878L352.079 242.494L346.964 242.264ZM363.708 243.017L364.966 215.046L370.081 215.276L369.587 226.265L382.134 226.829L382.628 215.84L387.743 216.07L386.485 244.042L381.37 243.812L381.938 231.185L369.391 230.62L368.823 243.247L363.708 243.017ZM391.61 244.272L392.868 216.301L410.81 217.107L410.614 221.463L397.787 220.886L397.487 227.559L408.475 228.054L408.28 232.409L397.291 231.915L396.92 240.147L409.747 240.724L409.552 245.079L391.61 244.272ZM428.366 245.925L429.428 222.309L421.276 221.943L421.472 217.587L442.931 218.552L442.735 222.908L434.543 222.539L433.481 246.155L428.366 245.925ZM445.11 246.678L446.368 218.707L464.31 219.514L464.114 223.869L451.287 223.292L450.987 229.966L461.976 230.46L461.78 234.815L450.791 234.321L450.421 242.553L463.248 243.13L463.052 247.485L445.11 246.678ZM465.75 247.607L477.238 220.095L482.992 220.354L491.964 248.786L486.529 248.541L484.617 242.089L473.628 241.595L471.105 247.848L465.75 247.607ZM475.252 237.543L483.364 237.908L479.811 226.097L475.252 237.543ZM495.294 248.935L496.552 220.964L502.626 221.237L509.765 239.656L518.41 221.947L524.484 222.22L523.226 250.192L518.111 249.962L518.959 231.101L511.438 246.098L507.402 245.916L501.257 230.304L500.409 249.165L495.294 248.935Z" fill="#87572A"/>
    <path d="M148.079 234.617C146.93 234.566 145.924 234.32 145.059 233.881C144.196 233.425 143.506 232.81 142.99 232.036C142.492 231.246 142.208 230.332 142.138 229.295L144.161 229.386C144.336 230.311 144.751 231.106 145.405 231.769C146.06 232.416 146.978 232.766 148.16 232.819C149.442 232.877 150.441 232.563 151.156 231.878C151.887 231.194 152.278 230.302 152.327 229.203C152.38 228.021 152.055 227.105 151.35 226.456C150.662 225.808 149.718 225.457 148.519 225.403C148.203 225.389 147.885 225.416 147.565 225.485C147.245 225.554 146.931 225.673 146.623 225.843L145.39 224.311L151.675 218.688L143.358 218.313L143.436 216.59L154.325 217.081L154.251 218.729L148.564 223.853C149.317 223.804 150.047 223.895 150.754 224.127C151.462 224.343 152.089 224.68 152.635 225.138C153.199 225.597 153.631 226.176 153.934 226.873C154.253 227.572 154.392 228.37 154.351 229.269C154.298 230.452 153.994 231.456 153.44 232.281C152.903 233.091 152.175 233.701 151.255 234.11C150.337 234.502 149.278 234.672 148.079 234.617ZM157.942 234.887C157.526 234.868 157.182 234.719 156.911 234.44C156.658 234.145 156.54 233.798 156.558 233.398C156.576 232.998 156.724 232.671 157.002 232.417C157.298 232.147 157.654 232.021 158.071 232.04C158.47 232.058 158.797 232.214 159.05 232.509C159.321 232.788 159.448 233.128 159.43 233.527C159.412 233.927 159.255 234.262 158.959 234.532C158.681 234.787 158.342 234.905 157.942 234.887ZM162.201 234.954L162.284 233.13C162.284 233.13 162.414 233.003 162.676 232.748C162.955 232.477 163.321 232.134 163.773 231.721C164.226 231.308 164.705 230.854 165.211 230.359C165.734 229.866 166.248 229.38 166.753 228.902C167.259 228.425 167.703 228.002 168.087 227.636C168.731 227.031 169.307 226.465 169.815 225.937C170.339 225.41 170.763 224.895 171.086 224.393C171.409 223.89 171.582 223.381 171.605 222.865C171.652 221.832 171.431 220.98 170.945 220.307C170.474 219.635 169.673 219.274 168.541 219.223C167.825 219.191 167.193 219.329 166.645 219.638C166.115 219.931 165.696 220.346 165.388 220.883C165.097 221.42 164.935 222.047 164.903 222.763L162.88 222.672C162.93 221.556 163.198 220.601 163.685 219.805C164.188 219.01 164.866 218.407 165.718 217.995C166.572 217.566 167.548 217.376 168.647 217.426C169.729 217.475 170.653 217.716 171.417 218.151C172.199 218.57 172.789 219.181 173.186 219.983C173.585 220.768 173.758 221.735 173.706 222.884C173.671 223.667 173.447 224.391 173.033 225.056C172.619 225.721 172.133 226.325 171.575 226.867C171.017 227.409 170.502 227.903 170.032 228.349C169.753 228.604 169.388 228.938 168.935 229.351C168.5 229.765 168.038 230.203 167.55 230.665C167.079 231.111 166.626 231.541 166.19 231.955C165.772 232.353 165.424 232.68 165.145 232.934C164.884 233.189 164.753 233.317 164.753 233.317L173.818 233.725L173.74 235.473L162.201 234.954ZM177.077 235.624L177.864 218.142L179.962 218.236L179.497 228.551L184.802 223.559L187.375 223.675L181.628 229.022L187.516 236.094L184.844 235.974L179.464 229.3L179.174 235.718L177.077 235.624ZM189.661 236.191L190.22 223.803L192.118 223.889L192.186 225.694C192.616 225.046 193.172 224.554 193.855 224.217C194.537 223.881 195.295 223.732 196.127 223.769C197.109 223.814 197.941 224.051 198.623 224.482C199.32 224.914 199.843 225.547 200.189 226.38C200.655 225.65 201.273 225.086 202.042 224.687C202.827 224.288 203.661 224.109 204.544 224.149C205.543 224.194 206.391 224.432 207.089 224.864C207.804 225.28 208.343 225.905 208.706 226.739C209.07 227.556 209.224 228.58 209.168 229.813L208.842 237.055L206.769 236.962L207.085 229.944C207.143 228.662 206.928 227.685 206.442 227.012C205.955 226.339 205.228 225.981 204.263 225.938C203.264 225.893 202.414 226.246 201.712 226.999C201.029 227.736 200.654 228.82 200.59 230.252L200.301 236.67L198.203 236.576L198.519 229.558C198.577 228.276 198.362 227.299 197.875 226.626C197.388 225.953 196.662 225.595 195.696 225.552C194.714 225.507 193.872 225.862 193.171 226.614C192.487 227.351 192.113 228.435 192.048 229.867L191.759 236.285L189.661 236.191Z" fill="#87572A"/>
    <defs>
        <linearGradient id="paint0_linear_2230_328" x1="1100.18" y1="89.4077" x2="-1200.89" y2="158.371" gradientUnits="userSpaceOnUse">
            <stop stop-color="#422B12"/>
            <stop offset="1" stop-color="#7E5023"/>
        </linearGradient>
        <linearGradient id="paint1_linear_2230_328" x1="-330.013" y1="216.409" x2="1971.06" y2="285.372" gradientUnits="userSpaceOnUse">
            <stop stop-color="#422B12"/>
            <stop offset="1" stop-color="#7E5023"/>
        </linearGradient>
    </defs>
</svg>
