<svg width="65" height="80" viewBox="0 0 65 80" fill="none" xmlns="http://www.w3.org/2000/svg">
<path d="M23.4219 12.6507C23.4219 12.6507 30.7978 -6.34525 39.7756 11.5682L40.3777 16.3488C40.3777 16.3488 30.2067 11.785 23.4219 17.3174V12.6507Z" fill="#FF7703"/>
<path d="M23.4219 12.6507C23.4219 12.6507 30.7978 -6.34525 39.7756 11.5682L40.3777 16.3488C40.3777 16.3488 30.2067 11.785 23.4219 17.3174V12.6507Z" fill="#E5E5E4"/>
<path d="M11.5134 43.0527C11.5134 43.0527 8.53116 46.7072 9.97079 50.6081C9.97079 50.6081 10.9269 56.0967 34.0124 57.1776C34.0124 57.1776 40.2576 57.8234 54.7552 51.8808C54.7552 51.8808 56.1356 46.0225 52.1458 43.0543C52.1458 43.0543 49.7735 45.9367 34.4881 49.9857L32.5744 49.1637L31.1191 49.9857C31.1191 49.9857 12.1326 44.706 11.5134 43.0543V43.0527Z" fill="#FF7703"/>
<path d="M29.8974 56.6559L33.5393 57.1986L23.9953 78.3797C23.9953 78.3797 19.8512 62.7684 29.8974 56.6543V56.6559Z" fill="#FF7703"/>
<path d="M36.0248 56.8795L32.3828 57.4223L41.9268 78.6034C41.9268 78.6034 46.071 62.9921 36.0248 56.8779V56.8795Z" fill="#FF7703"/>
<path d="M11.5134 43.0527C11.5134 43.0527 8.53116 46.7072 9.97079 50.6081C9.97079 50.6081 10.9269 56.0967 34.0124 57.1776C34.0124 57.1776 40.2576 57.8234 54.7552 51.8808C54.7552 51.8808 56.1356 46.0225 52.1458 43.0543C52.1458 43.0543 49.7735 45.9367 34.4881 49.9857L32.5744 49.1637L31.1191 49.9857C31.1191 49.9857 12.1326 44.706 11.5134 43.0543V43.0527Z" fill="#E5E5E4"/>
<path d="M29.8974 56.6559L33.5393 57.1986L23.9953 78.3797C23.9953 78.3797 19.8512 62.7684 29.8974 56.6543V56.6559Z" fill="#E5E5E4"/>
<path d="M36.0248 56.8795L32.3828 57.4223L41.9268 78.6034C41.9268 78.6034 46.071 62.9921 36.0248 56.8779V56.8795Z" fill="#E5E5E4"/>
<path d="M36.6484 56.4883L43.7951 46.7712L46.6541 46.5029L39.066 56.8408L36.6484 56.4883Z" fill="#E5E5E4"/>
<path d="M42.3047 55.5643L51.7286 43.0771L53.3008 44.2329L45.7142 54.5708L42.3047 55.5643Z" fill="#E5E5E4"/>
<path d="M17.2109 54.6559L25.6069 48.7227L28.0167 49.2374L19.0982 55.5543L17.2109 54.6559Z" fill="#E5E5E4"/>
<path d="M23.9144 66.4755L31.766 61.1318L30.59 64.5274L23.2031 69.3563L23.9144 66.4755Z" fill="#E5E5E4"/>
<path d="M34.875 63.6629L40.3777 60.832L40.8254 62.9143L35.9294 65.5892L34.875 63.6629Z" fill="#E5E5E4"/>
<path d="M36.3672 66.819L41.8138 63.79L42.5297 65.7943L37.5885 69.0853L36.3672 66.819Z" fill="#E5E5E4"/>
<path d="M23.0703 71.3841L29.7756 66.8203L28.2751 69.9304L23.1717 73.5303L23.0703 71.3841Z" fill="#E5E5E4"/>
<path d="M11.827 17.435C11.7116 12.9617 12.479 8.4993 14.1074 4.32859C14.608 3.0465 15.8511 -0.267924 17.7025 1.46337C18.4013 2.1169 18.7959 3.08705 19.1952 3.93398C19.6397 4.87918 20.039 5.84153 20.3977 6.82259C21.1698 8.93914 21.7641 11.115 22.4519 13.2596C22.6422 13.8523 23.5811 13.5996 23.3893 13.0007C22.6921 10.8264 22.0916 8.61784 21.3024 6.47322C20.9109 5.41104 20.4726 4.36447 19.9875 3.34128C19.5383 2.39453 19.0782 1.36355 18.2687 0.663233C17.6027 0.0861337 16.7183 -0.168102 15.8714 0.156322C15.0214 0.482304 14.4443 1.28088 14.0372 2.06231C12.9298 4.19134 12.2045 6.60891 11.682 8.94071C11.0565 11.7248 10.782 14.5807 10.8553 17.4334C10.8709 18.0573 11.8442 18.0604 11.827 17.4334V17.435Z" fill="#E5E5E4"/>
<path d="M9.99902 19.039C8.29112 21.2491 6.042 22.9929 3.50276 24.1486C3.13935 24.314 3.23761 24.7975 3.50276 24.9878C4.90496 25.9922 6.72672 25.5992 8.26305 25.1703C8.10552 24.8989 7.94798 24.629 7.79045 24.3576C6.46156 25.4448 5.18727 26.5912 3.96756 27.8C3.70241 28.0635 3.83654 28.5065 4.1828 28.6126C5.77528 29.0992 7.54869 28.8107 8.88694 27.814C9.38293 27.4443 8.89942 26.6005 8.39563 26.9749C7.24923 27.828 5.81116 28.0947 4.44016 27.6752C4.51191 27.9466 4.58365 28.2164 4.6554 28.4878C5.87511 27.2806 7.14941 26.1326 8.47829 25.0455C8.86666 24.7273 8.44554 24.1096 8.0057 24.2329C6.71424 24.5947 5.18259 25.0002 3.99564 24.1486V24.9878C6.69708 23.7571 9.02888 21.873 10.8413 19.5287C11.2234 19.0343 10.3796 18.5508 10.0021 19.039H9.99902Z" fill="#E5E5E4"/>
<path d="M8.81174 29.1154C8.5965 34.2157 9.02543 39.9352 12.4709 43.9999C12.8764 44.4771 13.5611 43.7877 13.1587 43.3136C9.89731 39.4657 9.58225 33.9256 9.78501 29.1169C9.81153 28.4915 8.83826 28.493 8.81331 29.1169L8.81174 29.1154Z" fill="#E5E5E4"/>
<path d="M54.1758 29.6468C54.3785 34.457 54.0635 39.9956 50.8021 43.8435C50.3997 44.3176 51.0844 45.0086 51.4899 44.5297C54.9353 40.4666 55.3643 34.7456 55.149 29.6453C55.1225 29.0229 54.1508 29.0183 54.1773 29.6453L54.1758 29.6468Z" fill="#E5E5E4"/>
<path d="M52.4083 17.4353C52.5377 12.3927 51.5645 7.34695 49.5353 2.72548C48.849 1.16263 47.414 -0.762072 45.4862 0.31102C44.6767 0.761781 44.1417 1.61651 43.7315 2.41509C43.1919 3.46635 42.7193 4.55503 42.2997 5.65776C41.3841 8.0691 40.7415 10.5725 39.8743 13.001C39.6637 13.5905 40.6027 13.8448 40.8117 13.2599C41.4855 11.371 42.0314 9.44166 42.6631 7.53724C43.2792 5.68116 43.9577 3.62856 45.0916 2.01736C45.597 1.29989 46.4174 0.646361 47.2955 1.19071C48.0566 1.66174 48.4481 2.63345 48.7835 3.41955C49.6678 5.48619 50.3338 7.64954 50.783 9.85187C51.2931 12.3474 51.5021 14.8913 51.4366 17.4353C51.421 18.0607 52.3927 18.0607 52.4083 17.4353Z" fill="#E5E5E4"/>
<path d="M53.0763 19.7211C54.9027 21.9905 57.2735 23.7951 59.9485 24.9493V24.1102C58.7787 24.9852 57.2423 24.6171 55.9415 24.2802C55.5079 24.1679 55.0665 24.7762 55.4689 25.0928C56.8181 26.1534 58.1158 27.2748 59.3589 28.4587C59.4306 28.1873 59.5024 27.9175 59.5741 27.6461C58.2125 28.0921 56.7697 27.8613 55.6046 27.03C55.0946 26.665 54.608 27.5072 55.1133 27.8691C56.4703 28.8377 58.2484 29.1013 59.8315 28.5835C60.1684 28.4727 60.3228 28.0344 60.0467 27.7708C58.8036 26.587 57.5059 25.4656 56.1568 24.4049C55.9992 24.6763 55.8417 24.9462 55.6842 25.2176C57.2236 25.6169 59.061 25.9818 60.4398 24.9493C60.694 24.759 60.8125 24.2724 60.4398 24.1102C57.8288 22.9825 55.5469 21.2481 53.7641 19.0332C53.3727 18.5466 52.6879 19.2376 53.0763 19.7195V19.7211Z" fill="#E5E5E4"/>
<path d="M23.8691 12.765C24.6584 10.689 25.4663 8.45543 27.012 6.81304C28.5748 5.15349 30.9472 4.32372 33.1963 4.6653C35.344 4.99284 36.7837 6.34201 37.7819 8.2012C38.7021 9.91378 39.5194 11.8104 39.8891 13.732C40.0108 14.359 40.9606 14.0938 40.839 13.4684C40.4225 11.3113 39.4664 9.12456 38.373 7.23261C37.2282 5.25643 35.4236 3.94938 33.1433 3.66239C30.774 3.36449 28.2785 4.19114 26.5597 5.86317C24.727 7.64594 23.8083 10.1571 22.9177 12.5014C22.69 13.0987 23.643 13.3577 23.8676 12.765H23.8691Z" fill="#E5E5E4"/>
<path d="M23.5689 13.9669C28.4446 10.1689 35.1499 10.1206 40.0755 13.8546C40.5715 14.2305 41.0519 13.3866 40.5622 13.0154C35.3979 9.10052 28.1967 9.14419 23.0839 13.1277C22.6004 13.5052 23.0792 14.349 23.5705 13.9669H23.5689Z" fill="#E5E5E4"/>
<path d="M23.8573 17.5811C26.2967 15.764 29.229 15.0855 32.2673 15.0621C35.1528 15.0403 37.717 15.6065 40.0488 17.3081C40.5651 17.684 41.0657 16.8418 40.5557 16.469C38.0929 14.6737 35.3103 14.0686 32.2673 14.0904C29.073 14.1138 25.9177 14.8297 23.3504 16.7419C22.8466 17.1178 23.3441 17.9617 23.8573 17.5811Z" fill="#E5E5E4"/>
<path d="M22.9131 13.7844C22.8538 14.7997 22.8819 15.8182 22.9942 16.8305C23.0223 17.0816 23.1985 17.3296 23.4808 17.3156C23.7195 17.3047 23.9971 17.1003 23.9675 16.8305C23.8552 15.8182 23.8287 14.8013 23.8864 13.7844C23.9004 13.5301 23.6524 13.2868 23.3997 13.2993C23.1237 13.3118 22.9287 13.513 22.9131 13.7844Z" fill="#E5E5E4"/>
<path d="M39.8097 13.7844C39.869 14.7997 39.8409 15.8182 39.7286 16.8305C39.7005 17.0847 39.9719 17.3265 40.2152 17.3156C40.5022 17.3031 40.6706 17.1019 40.7018 16.8305C40.8141 15.8182 40.8407 14.8013 40.7829 13.7844C40.7689 13.5317 40.5693 13.2868 40.2963 13.2993C40.0452 13.3102 39.7941 13.513 39.8097 13.7844Z" fill="#E5E5E4"/>
<path d="M14.3162 45.2065C19.8251 47.4119 25.671 48.6457 31.3125 50.4534C31.9099 50.6453 32.1657 49.7079 31.5714 49.516C25.9299 47.7083 20.084 46.4746 14.5751 44.2691C13.9949 44.0367 13.7422 44.9757 14.3162 45.2065Z" fill="#E5E5E4"/>
<path d="M34.0066 50.5869C39.1459 49.0911 44.3928 47.8667 49.3575 45.8328C49.9283 45.5989 49.6788 44.6583 49.0985 44.8954C44.1339 46.9293 38.887 48.1537 33.7477 49.6495C33.1488 49.8242 33.403 50.7616 34.0066 50.5869Z" fill="#E5E5E4"/>
<path d="M11.1556 42.7606C10.0217 43.5592 9.58966 44.9162 9.30111 46.2123C8.95953 47.7471 8.86907 49.3302 9.03128 50.893C9.09523 51.5091 10.0685 51.5154 10.003 50.893C9.85949 49.5111 9.90473 48.1136 10.1777 46.7504C10.3945 45.6695 10.6799 44.2767 11.6438 43.5998C12.1507 43.2426 11.6657 42.4003 11.1525 42.7606H11.1556Z" fill="#E5E5E4"/>
<path d="M52.32 43.6559C53.2777 44.5231 53.7815 45.7085 54.0685 46.9469C54.4069 48.4053 54.4771 49.9244 54.3788 51.414C54.3383 52.0379 55.31 52.0363 55.3506 51.414C55.4582 49.7981 55.3615 48.1401 54.9762 46.5632C54.6487 45.2172 54.0466 43.9101 53.0063 42.9681C52.543 42.5485 51.8536 43.2332 52.3184 43.6543L52.32 43.6559Z" fill="#E5E5E4"/>
<path d="M11.1584 53.0665C13.5338 54.698 16.502 55.3562 19.2877 55.8943C22.7471 56.5619 26.2721 56.6992 29.7831 56.8738C30.4085 56.905 30.407 55.9333 29.7831 55.9021C26.3595 55.7306 22.9187 55.6073 19.545 54.9569C16.8373 54.4344 13.955 53.8121 11.6466 52.2274C11.1303 51.8718 10.6421 52.714 11.1553 53.0665H11.1584Z" fill="#E5E5E4"/>
<path d="M36.5654 57.174C41.9823 56.5688 47.2823 55.2134 52.314 53.114C52.8833 52.8769 52.6337 51.9364 52.055 52.1766C47.1107 54.2401 41.8919 55.6065 36.5654 56.2007C35.9509 56.2693 35.9431 57.241 36.5654 57.1724V57.174Z" fill="#E5E5E4"/>
<path d="M34.8313 56.8431C34.0873 56.8307 33.3434 56.7839 32.6056 56.6919C32.2547 56.6482 31.9037 56.592 31.5559 56.5281C31.3001 56.4813 30.8899 56.4922 30.8774 56.1725C30.8634 55.8215 30.957 55.4472 31.0084 55.1009C31.063 54.7313 31.1207 54.3632 31.1847 53.9951C31.3048 53.2838 31.4405 52.5757 31.5902 51.8707C31.6682 51.5073 31.7493 51.1439 31.8351 50.7805C31.8741 50.6136 31.9318 50.4436 31.9568 50.2736C31.9568 50.2798 31.9911 50.049 31.963 50.1457C31.9412 50.2205 32.0269 50.0381 32.0628 50.0006C32.3841 49.6637 32.9113 49.6325 33.2389 49.9757C33.6537 50.4093 33.8627 51.1205 34.1029 51.6586C34.3931 52.3059 34.6738 52.9579 34.9234 53.6223C35.1963 54.3491 35.435 55.09 35.6096 55.8465C35.6845 56.1678 35.8311 56.592 35.7968 56.9243C35.8218 56.6856 35.881 56.8962 35.7718 56.8322C35.7063 56.7948 35.5083 56.84 35.4365 56.8416C35.2353 56.8447 35.0341 56.8447 34.8313 56.8431C34.2059 56.8369 34.2043 57.8086 34.8313 57.8148C35.5317 57.8211 36.689 57.9583 36.7623 56.9804C36.7919 56.5702 36.6656 56.1241 36.5782 55.7264C36.4768 55.2663 36.3521 54.8124 36.2101 54.3632C35.9403 53.5162 35.6081 52.6927 35.2556 51.877C34.928 51.1174 34.6348 50.2517 34.156 49.5717C33.7302 48.9696 33.0564 48.6515 32.3186 48.7965C31.9973 48.8605 31.6885 49.018 31.4483 49.2426C31.1254 49.5436 31.049 49.8883 30.9492 50.3048C30.5109 52.1312 30.1459 53.992 29.9322 55.859C29.8808 56.3128 29.9213 56.7683 30.2832 57.0896C30.631 57.4 31.1551 57.4421 31.5933 57.5154C32.6649 57.6963 33.7473 57.7961 34.8345 57.8148C35.4599 57.8258 35.4599 56.8541 34.8345 56.8431H34.8313Z" fill="#E5E5E4"/>
<path d="M30.346 56.1115C28.6147 56.4905 27.1455 58.0518 26.1207 59.4056C24.8807 61.0433 24.0135 62.9431 23.4567 64.9146C22.1543 69.5236 22.616 74.3649 23.2586 79.0394C23.3148 79.4497 23.9761 79.512 24.1477 79.1549C27.6103 71.977 30.9824 64.7539 34.445 57.5745C34.7148 57.0145 33.8772 56.5201 33.6058 57.0847C30.1433 64.2626 26.7711 71.4857 23.3085 78.6651C23.6049 78.7041 23.9012 78.7431 24.1976 78.7805C23.5971 74.4133 23.1635 69.8792 24.2912 65.5572C24.7716 63.7136 25.5249 61.9417 26.6151 60.3742C27.5369 59.0484 28.9485 57.4107 30.6065 57.0489C31.2179 56.9147 30.959 55.9789 30.3476 56.1115H30.346Z" fill="#E5E5E4"/>
<path d="M36.1048 57.6043C37.7394 57.9458 38.9295 59.6974 39.7515 61.0325C40.7201 62.6032 41.3736 64.3423 41.7854 66.136C42.7368 70.2864 42.311 74.6084 41.737 78.7791C42.0334 78.7401 42.3297 78.7011 42.626 78.6637C39.5487 72.286 36.4698 65.9082 33.3925 59.5305C33.1211 58.9675 32.2819 59.4603 32.5533 60.0203C35.6307 66.398 38.7096 72.7757 41.7869 79.1534C41.9569 79.5059 42.6182 79.4498 42.676 79.038C43.2936 74.5554 43.7444 69.9355 42.6323 65.4902C42.1597 63.5998 41.4079 61.7531 40.327 60.1263C39.3849 58.7101 38.1231 57.0334 36.3637 56.6653C35.7539 56.5374 35.4919 57.4732 36.1048 57.6027V57.6043Z" fill="#E5E5E4"/>
<path d="M8.15075 52.9615C6.0576 55.6583 4.06427 58.458 2.6106 61.5588C1.16786 64.6314 0.336521 67.8975 0.00273956 71.2712C-0.0580898 71.8935 0.913619 71.8888 0.974449 71.2712C1.29575 68.0192 2.11773 64.842 3.52616 61.8879C4.93772 58.9291 6.83279 56.2323 8.83859 53.6494C9.21761 53.1612 8.53445 52.4687 8.15075 52.9631V52.9615Z" fill="#E5E5E4"/>
<path d="M55.2984 53.6493C57.3042 56.2322 59.1993 58.9274 60.6108 61.8878C62.0193 64.8419 62.8413 68.0191 63.1626 71.2711C63.2234 71.8872 64.1967 71.8935 64.1343 71.2711C63.8005 67.899 62.9691 64.6314 61.5264 61.5587C60.0712 58.4595 58.0794 55.6582 55.9863 52.9615C55.6026 52.4686 54.9194 53.1596 55.2984 53.6478V53.6493Z" fill="#E5E5E4"/>
</svg>
