<svg width="141" height="100" viewBox="0 0 141 100" fill="none" xmlns="http://www.w3.org/2000/svg">
<path d="M7.80169 1.15713C7.80169 1.15713 -1.25526 12.2557 3.11689 24.1027C3.11689 24.1027 6.02062 40.7718 76.1313 44.0544C76.1313 44.0544 95.0979 46.0155 139.127 27.9679C139.127 27.9679 143.319 10.1762 131.202 1.16187C131.202 1.16187 123.998 9.91564 77.5761 22.2126L71.7639 19.7163L67.3444 22.2126C67.3444 22.2126 9.68223 6.17824 7.80169 1.16187V1.15713Z" fill="#FF7703"/>
<path d="M63.6402 42.4676L74.7008 44.116L45.7157 108.443C45.7157 108.443 33.1298 61.0314 63.6402 42.4628V42.4676Z" fill="#FF7703"/>
<path d="M82.2609 43.1497L71.2003 44.7981L100.185 109.126C100.185 109.126 112.771 61.7136 82.2609 43.1449V43.1497Z" fill="#FF7703"/>
<path d="M7.80169 1.15713C7.80169 1.15713 -1.25526 12.2557 3.11689 24.1027C3.11689 24.1027 6.02062 40.7718 76.1313 44.0544C76.1313 44.0544 95.0979 46.0155 139.127 27.9679C139.127 27.9679 143.319 10.1762 131.202 1.16187C131.202 1.16187 123.998 9.91564 77.5761 22.2126L71.7639 19.7163L67.3444 22.2126C67.3444 22.2126 9.68223 6.17824 7.80169 1.16187V1.15713Z" fill="url(#paint0_linear_1364_1641)"/>
<path d="M63.6402 42.4676L74.7008 44.116L45.7157 108.443C45.7157 108.443 33.1298 61.0314 63.6402 42.4628V42.4676Z" fill="url(#paint1_linear_1364_1641)"/>
<path d="M82.2609 43.1497L71.2003 44.7981L100.185 109.126C100.185 109.126 112.771 61.7136 82.2609 43.1449V43.1497Z" fill="url(#paint2_linear_1364_1641)"/>
<path d="M12.6527 32.2548L38.1514 14.2309L45.4699 15.7989L18.3844 34.9833L12.6527 32.2548Z" fill="#FED571"/>
<path d="M84.1229 41.9607L105.827 12.4499L114.51 11.6352L91.4651 43.0313L84.1229 41.9607Z" fill="#FED571"/>
<path d="M101.299 39.1565L129.919 1.23294L134.694 4.74296L111.654 36.1391L101.299 39.1565Z" fill="#FED571"/>
<path d="M25.1056 36.3949L50.6042 18.3757L57.9227 19.9389L30.8372 39.1233L25.1056 36.3949Z" fill="#FED571"/>
<path d="M45.4699 72.2911L69.3154 56.0625L65.7438 66.3747L43.3099 81.0401L45.4699 72.2911Z" fill="#FED571"/>
<path d="M78.7366 63.7504L95.4484 55.153L96.8079 61.4767L81.9388 69.6005L78.7366 63.7504Z" fill="#FED571"/>
<path d="M83.2703 73.3379L99.8115 64.1388L101.986 70.2258L86.9793 80.2206L83.2703 73.3379Z" fill="#FED571"/>
<path d="M42.8973 87.198L63.2612 73.3379L58.7043 82.7832L43.2052 93.716L42.8973 87.198Z" fill="#FED571"/>
<path d="M16.276 7.69881C33.0067 14.3968 50.7605 18.1436 67.8939 23.6337C69.7081 24.2163 70.485 21.3695 68.6802 20.7868C51.5469 15.2968 33.793 11.5499 17.0623 4.85194C15.3002 4.14614 14.5328 6.99775 16.276 7.69881Z" fill="#26190B"/>
<path d="M76.084 24.0363C91.692 19.4937 107.627 15.7752 122.704 9.59828C124.438 8.88774 123.68 6.03142 121.918 6.75143C106.841 12.9283 90.9057 16.6468 75.2977 21.1895C73.4787 21.72 74.2508 24.5669 76.084 24.0363Z" fill="#26190B"/>
<path d="M6.689 0.266592C3.24528 2.69188 1.93315 6.81299 1.05683 10.7494C0.0194483 15.4105 -0.255282 20.2184 0.237355 24.9647C0.431567 26.8358 3.38738 26.8548 3.18843 24.9647C2.75264 20.7679 2.89 16.5236 3.71896 12.3836C4.37739 9.10089 5.24425 4.87087 8.17165 2.81506C9.71114 1.73031 8.23795 -0.82763 6.67952 0.266592H6.689Z" fill="#26190B"/>
<path d="M131.671 2.98559C134.58 5.6193 136.11 9.21933 136.981 12.9804C138.009 17.4094 138.223 22.0232 137.924 26.5469C137.801 28.4416 140.752 28.4369 140.875 26.5469C141.202 21.6395 140.908 16.6042 139.738 11.8152C138.744 7.72723 136.915 3.7577 133.756 0.896621C132.349 -0.377603 130.255 1.70189 131.667 2.98085L131.671 2.98559Z" fill="#26190B"/>
<path d="M6.68898 31.568C13.9033 36.5228 22.9176 38.5217 31.3777 40.156C41.8841 42.1833 52.5895 42.6002 63.2522 43.1307C65.1517 43.2255 65.147 40.2744 63.2522 40.1796C52.8547 39.6586 42.4051 39.2844 32.1592 37.3091C23.936 35.7222 15.1822 33.8322 8.17163 29.0195C6.60372 27.9395 5.12106 30.4974 6.6795 31.568H6.68898Z" fill="#26190B"/>
<path d="M83.8477 44.0402C100.299 42.2023 116.395 38.086 131.677 31.7101C133.406 30.9901 132.647 28.1338 130.89 28.8633C115.874 35.1302 100.024 39.2797 83.8477 41.0844C81.9814 41.2929 81.9577 44.2439 83.8477 44.0355V44.0402Z" fill="#26190B"/>
<path d="M78.5798 43.036C76.3204 42.9981 74.0608 42.856 71.8203 42.5766C70.7545 42.4439 69.6887 42.2734 68.6324 42.0792C67.8555 41.9371 66.6097 41.9702 66.5718 40.9992C66.5292 39.9334 66.8134 38.7965 66.9697 37.7449C67.1355 36.6223 67.3108 35.5044 67.505 34.3864C67.8697 32.2264 68.2818 30.0759 68.7366 27.9348C68.9734 26.8311 69.2197 25.7274 69.4803 24.6237C69.5987 24.1169 69.774 23.6006 69.8497 23.0842C69.8497 23.1032 69.954 22.4021 69.8687 22.6958C69.8024 22.9232 70.0629 22.369 70.1719 22.2553C71.1477 21.2321 72.7487 21.1374 73.7435 22.1795C75.0035 23.4963 75.6382 25.6564 76.3677 27.2906C77.2488 29.2564 78.1014 31.2364 78.8593 33.2543C79.6883 35.4617 80.413 37.7117 80.9436 40.0091C81.1709 40.9849 81.6162 42.2734 81.512 43.2823C81.5878 42.5576 81.7678 43.1971 81.4362 43.0029C81.2372 42.8892 80.6356 43.0265 80.4177 43.0313C79.8067 43.0408 79.1956 43.0408 78.5798 43.036C76.6804 43.0171 76.6756 45.9681 78.5798 45.9871C80.7067 46.006 84.2215 46.4229 84.4441 43.4529C84.5341 42.2071 84.1504 40.8523 83.8852 39.6444C83.5773 38.247 83.1983 36.8686 82.7673 35.5043C81.9478 32.9322 80.9388 30.4311 79.8683 27.9537C78.8735 25.6469 77.983 23.0179 76.5288 20.9526C75.2356 19.1242 73.1893 18.1578 70.9487 18.5984C69.9729 18.7926 69.035 19.271 68.3055 19.9532C67.325 20.8674 67.0929 21.9142 66.7897 23.179C65.4586 28.7259 64.3502 34.377 63.7013 40.047C63.545 41.4255 63.6681 42.8087 64.7671 43.7845C65.8234 44.7271 67.415 44.855 68.7461 45.0776C72.0003 45.6271 75.2877 45.9302 78.5893 45.9871C80.4888 46.0202 80.4888 43.0692 78.5893 43.036H78.5798Z" fill="#26190B"/>
<path d="M64.9665 40.8144C59.7085 41.9655 55.2464 46.7071 52.1342 50.8187C48.3684 55.7925 45.7347 61.562 44.0436 67.5494C40.0883 81.5469 41.4905 96.2502 43.4421 110.447C43.6126 111.693 45.621 111.882 46.1421 110.797C56.658 88.9981 66.8991 67.0615 77.415 45.2576C78.2345 43.5571 75.6908 42.0555 74.8666 43.7702C64.3507 65.5694 54.1095 87.5059 43.5936 109.31C44.4936 109.428 45.3936 109.547 46.2937 109.66C44.47 96.3971 43.1531 82.627 46.5779 69.501C48.0368 63.902 50.3247 58.5209 53.6358 53.7603C56.4353 49.734 60.7222 44.7602 65.7576 43.6613C67.6144 43.2539 66.8281 40.4118 64.9712 40.8144H64.9665Z" fill="#26190B"/>
<path d="M82.4267 45.3476C87.3909 46.385 91.0052 51.7045 93.5015 55.7593C96.4431 60.5293 98.4279 65.811 99.6784 71.2584C102.568 83.8633 101.275 96.9892 99.5316 109.656C100.432 109.537 101.332 109.419 102.232 109.305C92.8857 89.936 83.5351 70.5668 74.1892 51.1976C73.365 49.4876 70.8165 50.9845 71.6408 52.685C80.9867 72.0542 90.3373 91.4233 99.6832 110.792C100.199 111.863 102.208 111.692 102.383 110.442C104.259 96.8281 105.628 82.7975 102.251 69.2973C100.815 63.5562 98.5321 57.9477 95.2494 53.0071C92.3884 48.706 88.5562 43.6139 83.213 42.496C81.3609 42.1075 80.5651 44.9497 82.4267 45.3428V45.3476Z" fill="#26190B"/>
<defs>
<linearGradient id="paint0_linear_1364_1641" x1="70.5018" y1="0" x2="70.5018" y2="111.505" gradientUnits="userSpaceOnUse">
<stop stop-color="#FF7703" stop-opacity="0"/>
<stop offset="1" stop-color="#A63C06"/>
</linearGradient>
<linearGradient id="paint1_linear_1364_1641" x1="70.4787" y1="0.00800543" x2="70.4787" y2="111.508" gradientUnits="userSpaceOnUse">
<stop stop-color="#FF7703" stop-opacity="0"/>
<stop offset="1" stop-color="#A63C06"/>
</linearGradient>
<linearGradient id="paint2_linear_1364_1641" x1="70.5001" y1="0.00800537" x2="70.5001" y2="111.516" gradientUnits="userSpaceOnUse">
<stop stop-color="#FF7703" stop-opacity="0"/>
<stop offset="1" stop-color="#A63C06"/>
</linearGradient>
</defs>
</svg>
